<svg fill="#343DDC" height="800" width="800" xmlns="http://www.w3.org/2000/svg" viewBox="0 0 432.458 432.458" xml:space="preserve"><path d="M322.743 106.629a172 172 0 0 0-8.873-13.08c-25.777-34.375-60.453-53.307-97.641-53.307s-71.864 18.932-97.641 53.307a172 172 0 0 0-8.874 13.08c20.061 31.973 60.275 53.85 106.514 53.85 46.241 0 86.455-21.877 106.515-53.85m94.715 95.126h-65.606c-.808-12.567-2.625-24.87-5.406-36.742l51.575-51.576c5.858-5.858 5.858-15.355 0-21.213s-15.355-5.858-21.213 0l-25.966 25.966c-7.348 12.845-17.202 24.674-29.365 35.028-24.637 20.972-56.246 33.718-90.248 36.621v202.376c31.443-4.39 60.365-22.55 82.641-52.255a174 174 0 0 0 10.881-16.395l52.058 52.058a14.95 14.95 0 0 0 10.607 4.393c3.838 0 7.678-1.465 10.606-4.393 5.858-5.858 5.858-15.355 0-21.213l-59.579-59.58c7.427-19.594 11.986-40.927 13.41-63.076h65.606c8.284 0 15-6.716 15-15-.001-8.283-6.717-14.999-15.001-14.999M201.23 189.84c-34.003-2.903-65.612-15.649-90.249-36.621-12.163-10.354-22.017-22.183-29.365-35.028L55.65 92.224c-5.858-5.858-15.356-5.858-21.213 0s-5.858 15.355 0 21.213l51.575 51.575c-2.78 11.873-4.598 24.175-5.406 36.742H15c-8.284 0-15 6.716-15 15s6.716 15 15 15h65.606c1.424 22.149 5.983 43.482 13.41 63.076l-59.579 59.579c-5.858 5.858-5.858 15.355 0 21.213s15.355 5.858 21.213 0l52.058-52.058a174 174 0 0 0 10.881 16.395c22.274 29.705 51.197 47.866 82.641 52.255z"/></svg>