<svg width="570" height="103" viewBox="0 0 570 103" fill="none" xmlns="http://www.w3.org/2000/svg"><path fill-rule="evenodd" clip-rule="evenodd" d="m71.322 19.74 4.92-8.886a1.856 1.856 0 0 1 2.522-.727l35.528 19.565a1.843 1.843 0 0 1 .724 2.503l-6.511 11.761a1.86 1.86 0 0 1-2.523.728l-12.069-6.646L71.76 78.055a1.86 1.86 0 0 1-2.523.727l-8.134-4.479a1.85 1.85 0 0 1-.727-2.517l.745-1.346c-3.422 1.27-4.508.11-5.216-2.572.258 4.712-1.23 8.816-4.639 12.25C57.197 77.825 66 86.13 63.4 87.542c-.855.465-1.806.837-3.108.88.247.593.107 1.047-.228 1.43-2.93 1.691-11.941 3.202-26.898 4.539-.51.046-.994-.23-1.215-.691L27.317 84C18.71 82.08 12.936 73.105 11.05 59.013c-2.585-17.454.568-30.13 9.732-32.01 4.223-.95 8.471 2.226 8.785 8.32.387 7.493-5.227 7.24-5.125 6.363.208-1.787.925 12.448 4.97 5.947 4.765-7.66 12.596-13.304 23.432-15.767-4.75-.758-3.898-10.044 1.705-8.632 1.465-6.513 12.8-8.477 16.773-3.495" fill="#fff"/><path fill-rule="evenodd" clip-rule="evenodd" d="m77.113 7.002.118-.018.117-.014.117-.011.118-.009.118-.005.118-.003h.117l.118.004.118.005.117.01.117.01.116.015.116.018.116.02.115.023.115.025.115.03.113.03.112.034.113.037.112.04.11.043.11.045.108.048.108.05.106.055.09.047 35.56 19.582.088.05.102.061.1.064.099.066.097.068.094.07.093.073.091.075.089.077.087.079.085.081.082.083.081.085.079.087.076.088.074.09.072.093.07.094.068.096.065.098.062.099.061.1.057.102.056.104.053.105.051.106.047.108.046.11.042.11.04.112.037.113.035.113.031.115.029.115.025.116.023.116.021.117.017.117.013.117.012.116.008.118.006.117.002.117v.117l-.003.117-.006.118-.009.116-.012.117-.014.116-.018.115-.02.116-.023.114-.026.115-.029.114-.031.113-.034.112-.037.111-.04.112-.043.11-.045.11-.048.107-.052.107-.053.107-.048.089-6.528 11.792-.05.088-.062.102-.064.1-.066.1-.069.096-.071.095-.073.092-.075.091-.078.09-.079.087-.081.085-.084.083-.085.08-.087.079-.089.076-.091.074-.093.073-.095.07-.096.067-.097.065-.1.063-.101.06-.103.058-.104.056-.105.052-.107.05-.109.05-.109.045-.111.042-.112.04-.114.038-.114.034-.116.032-.115.028-.117.026-.116.023-.117.02-.117.017-.118.015-.118.011-.117.009-.118.005-.118.002h-.117l-.118-.003-.117-.005-.117-.01-.117-.01-.117-.015-.116-.018-.116-.02-.115-.023-.115-.026-.114-.028-.114-.031-.113-.035-.112-.037-.111-.04-.111-.042-.109-.045-.109-.048-.107-.051-.107-.054-.089-.047-9.493-5.228-20.73 37.446-.052.091-.064.104-.065.103-.069.101-.07.1-.073.096-.075.095-.077.092-.08.09-.08.089-.083.085-.085.084-.088.081-.088.079-.09.076-.092.074-.094.072-.094.069-.097.066-.097.064-.1.062-.1.059-.101.056-.103.054-.104.051-.104.05-.106.045-.107.044-.108.04-.108.04-.11.035-.11.034-.111.03-.112.028-.112.025-.114.023-.113.02-.114.017-.115.014-.115.012-.116.01-.115.005-.117.004h-.117l-.116-.001-.117-.006-.117-.007-.118-.011-.117-.014-.117-.016-.117-.02-.116-.022-.117-.026-.116-.028-.116-.031-.115-.034-.115-.038-.113-.04-.114-.043-.112-.046-.112-.05-.11-.052-.11-.055-.092-.049-8.166-4.497-.09-.051-.106-.064-.103-.065-.101-.068-.099-.07-.097-.073-.095-.075-.093-.077-.09-.078-.088-.081-.086-.084-.084-.084-.081-.087-.079-.088-.076-.09-.075-.092-.071-.093-.069-.094-.066-.097-.065-.097-.061-.099-.017-.027-.003.012-.041.116-.042.115-.043.115-.044.116-.044.114-.045.114-.046.114-.047.114-.047.114-.049.113-.049.113-.05.112-.05.112-.052.113-.052.111-.053.112-.054.11-.055.111-.052.103.023.007.096.03.095.03.095.03.095.031.095.032.093.033.094.032.094.034.093.034.092.035.093.035.092.036.092.036.09.037.092.038.09.038.091.038.09.039.09.04.09.039.088.04.09.041.087.041.088.042.088.043.087.042.087.043.087.043.086.044.086.044.085.045.085.045.085.046.085.046.087.047.163.092.166.095.164.096.163.098.16.099.16.1.158.102.156.103.155.103.153.105.151.106.15.107.148.108.146.109.145.11.143.11.14.112.14.111.138.114.136.114.134.114.132.115.13.117.128.116.127.118.124.117.123.119.12.12.119.119.117.12.114.121.112.122.112.123.108.123.106.124.105.124.102.126.097.122.052.068.049.064.048.064.047.064.047.065.047.065.046.065.046.065.045.067.044.066.043.066.044.067.042.068.043.067.041.069.04.069.041.07.04.07.038.07.039.07.038.072.037.073.036.073.036.074.035.075.034.075.034.077.032.078.032.078.03.08.03.08.03.083.028.082.027.085.027.086.024.087.024.09.022.09.021.092.02.094.017.095.016.098.014.1.012.1.01.104.008.106.005.107.002.11v.111l-.003.114-.007.115-.01.118-.015.12-.017.12-.023.122-.026.124-.03.124-.036.126-.04.126-.046.126-.05.126-.056.124-.06.124-.066.123-.07.12-.075.12-.08.115-.084.112-.088.11-.091.105-.095.102-.097.097-.101.094-.103.088-.105.084-.106.08-.108.075-.108.07-.11.066-.095.054-.117.063-.104.055-.108.055-.109.055-.112.055-.114.054-.117.054-.119.054-.122.052-.124.052-.126.05-.13.05-.131.048-.134.048-.136.045-.139.044-.012.004-.053.094-.07.12-.074.113-.074.11-.077.104-.076.1-.077.095-.056.065-.237.248-.265.218-.29.187-.087.05-.108.059-.108.058-.11.056-.11.055-.112.054-.113.054-.113.052-.115.051-.116.05-.117.05-.119.05-.12.047-.122.048-.123.047-.124.047-.125.045-.128.046-.129.045-.13.044-.133.045-.133.044-.136.044-.137.042-.139.043-.14.043-.143.042-.144.043-.146.041-.148.042-.15.04-.15.042-.154.04-.156.041-.156.041-.16.04-.16.04-.163.04-.164.04-.167.039-.169.04-.17.038-.173.04-.175.038-.176.04-.178.037-.181.039-.182.038-.185.038-.186.039-.19.037-.19.038-.192.037-.195.038-.197.038-.198.037-.2.037-.203.037-.205.037-.207.037-.21.037-.21.037-.214.037-.215.036-.217.036-.221.037-.444.072-.453.072-.463.071-.47.072-.479.07-.486.07-.497.071-.503.07-.513.07-.521.069-.53.069-.538.069-.547.067-.555.069-.564.068-.572.067-.582.067-.589.067-.598.066-.606.067-.616.065-.623.066-.633.066-.64.065-.65.064-.658.065-.667.064-.676.064-.683.064-.693.064-.713.064-.067.005-.082.005-.08.003-.081.002h-.081l-.082-.001-.08-.003-.08-.004-.08-.006-.08-.007-.08-.01-.078-.01-.08-.012-.078-.013-.078-.015-.077-.016-.077-.018-.077-.02-.077-.02-.076-.022-.074-.023-.075-.025-.074-.026-.074-.028-.072-.029-.073-.03-.071-.031-.072-.033-.07-.034-.07-.036-.069-.037-.068-.038-.068-.039-.066-.04-.066-.042-.066-.043-.065-.044-.063-.046-.063-.047-.062-.048-.062-.049-.06-.05-.06-.051-.058-.053-.057-.054-.057-.054-.055-.056-.055-.058-.054-.058-.052-.06-.052-.06-.05-.062-.05-.062-.048-.064-.047-.065-.046-.065-.045-.067-.043-.068-.043-.068-.04-.07-.04-.07-.039-.072-.037-.072-.03-.06-4.053-8.486-.1-.031-.116-.037-.116-.038-.115-.04-.116-.038-.115-.04-.115-.042-.114-.042-.114-.042-.114-.044-.114-.044-.113-.044-.113-.046-.113-.046-.111-.047-.112-.048-.112-.049-.111-.049-.11-.05-.111-.05-.11-.052-.11-.052-.11-.053-.109-.054-.109-.054-.108-.056-.108-.055-.107-.057-.108-.057-.107-.058-.106-.059-.107-.06-.106-.06-.105-.06-.105-.062-.105-.062-.104-.063-.104-.064-.104-.064-.103-.065-.103-.066-.102-.066-.102-.067-.102-.068-.101-.069-.101-.069-.1-.07-.1-.07-.1-.071-.1-.072-.099-.073-.098-.073-.098-.073-.098-.075-.097-.075-.097-.076-.096-.076-.096-.077-.096-.078-.096-.078-.095-.08-.094-.079-.094-.08-.094-.081-.093-.082-.093-.082-.092-.082-.092-.084-.092-.084-.091-.084-.09-.086-.091-.086-.09-.086-.09-.087-.089-.088-.089-.088-.088-.09-.088-.088-.087-.09-.087-.091-.087-.092-.087-.092-.085-.092-.086-.093-.085-.094-.084-.095-.085-.094-.083-.096-.084-.095-.083-.097-.082-.097-.083-.098-.082-.098-.08-.1-.081-.098-.081-.1-.08-.1-.08-.102-.08-.102-.078-.102-.079-.103-.078-.103-.077-.104-.077-.104-.078-.105-.075-.106-.077-.106-.075-.107-.075-.107-.076-.108-.074-.108-.074-.109-.073-.11-.074-.109-.072-.11-.072-.111-.072-.112-.072-.112-.071-.112-.071-.113-.07-.114-.07-.114-.07-.114-.07-.116-.068-.115-.068-.116-.068-.117-.068-.118-.067-.117-.067-.119-.066-.118-.066-.12-.066-.12-.065-.12-.065-.12-.064-.122-.064-.122-.064-.122-.063-.123-.063-.124-.062-.123-.062-.125-.062-.125-.061-.125-.061-.126-.06-.127-.06-.126-.06-.128-.06-.128-.059-.128-.058-.129-.059-.13-.057-.13-.058-.13-.057-.13-.056-.132-.056-.132-.056-.132-.056-.133-.054-.133-.055-.134-.054-.134-.055-.135-.053-.135-.053-.136-.053-.137-.052-.136-.052-.137-.052-.138-.051-.138-.05-.139-.051-.14-.05-.138-.05-.14-.05-.141-.048-.141-.05-.142-.047-.142-.048-.143-.047-.142-.048-.144-.046-.143-.046-.145-.046-.145-.046-.145-.045-.146-.045-.146-.044-.147-.044-.147-.044-.148-.043-.148-.043-.148-.042-.15-.042-.149-.042-.15-.042-.15-.04-.152-.041-.15-.04-.153-.04-.152-.04-.153-.039-.153-.038-.154-.039-.154-.038-.155-.038-.155-.037-.156-.037-.156-.036-.156-.036-.157-.036-.157-.035-.158-.035-.159-.034-.158-.035-.16-.034-.16-.033-.16-.033-.16-.033-.161-.032-.161-.032-.162-.031-.163-.032-.163-.03-.163-.031-.164-.03-.164-.03-.164-.029-.166-.029-.166-.028-.165-.029-.166-.027-.168-.028-.167-.027-.167-.027-.169-.026-.17-.051-.337-.05-.34-.049-.343-.043-.321-.03-.193-.03-.21-.03-.21-.029-.21-.029-.209-.028-.208-.027-.209-.028-.208-.026-.207-.026-.207-.026-.207-.025-.206-.025-.206-.024-.205-.023-.205-.023-.204-.023-.204-.021-.204-.022-.203-.02-.203-.02-.202-.02-.201-.02-.202-.018-.2-.018-.201-.018-.2-.016-.2-.017-.2-.016-.198-.015-.198-.015-.198-.014-.197-.014-.197-.013-.196-.013-.196-.012-.195-.011-.195-.011-.195-.01-.193-.01-.194-.01-.193-.009-.193-.008-.192-.008-.192-.006-.19-.007-.192-.006-.19-.006-.189-.004-.19-.005-.188-.004-.188-.003-.188-.003-.187-.002-.187-.001-.186-.001-.186v-.185l-.001-.185v-.184l.002-.184.002-.183.002-.183.003-.182.003-.182.005-.181.004-.18.005-.18.006-.18.006-.18.007-.178.008-.178.007-.178.009-.177.009-.177.01-.175.01-.176.01-.175.012-.174.012-.174.012-.173.013-.173.014-.172.015-.172.014-.17.016-.172.016-.17.017-.17.017-.168.017-.169.019-.168.018-.167.02-.167.02-.166.021-.166.02-.165.023-.165.023-.164.022-.163.024-.163.025-.163.024-.161.026-.161.026-.161.026-.16.028-.16.027-.159.029-.158.03-.158.029-.157.03-.157.031-.156.032-.156.032-.155.033-.154.033-.154.034-.153.035-.152.035-.153.036-.151.037-.15.037-.151.038-.15.038-.149.04-.148.04-.148.04-.148.04-.146.042-.146.042-.146.044-.145.043-.144.045-.143.044-.144.047-.142.046-.142.046-.141.048-.14.049-.14.048-.14.05-.139.05-.138.052-.137.052-.137.052-.136.053-.136.054-.135.055-.134.055-.134.056-.133.057-.132.057-.132.059-.13.059-.131.059-.13.06-.129.061-.128.062-.128.063-.127.063-.126.064-.126.065-.125.065-.124.067-.124.067-.122.068-.123.069-.121.069-.121.07-.12.07-.12.073-.118.072-.118.073-.117.074-.117.075-.115.076-.115.076-.114.078-.114.078-.112.079-.112.08-.111.08-.11.081-.11.083-.108.083-.108.083-.107.085-.106.085-.105.087-.105.087-.104.088-.103.088-.102.09-.1.09-.101.092-.1.092-.098.093-.097.094-.097.095-.096.095-.094.097-.094.097-.093.098-.092.099-.09.1-.091.1-.089.101-.088.103-.087.103-.086.103-.085.105-.084.105-.083.107-.081.107-.082.108-.08.109-.078.11-.077.11-.077.11-.075.113-.074.112-.073.114-.073.114-.07.115-.07.116-.068.116-.068.118-.066.118-.065.118-.064.12-.062.12-.062.12-.06.122-.06.123-.057.123-.057.123-.055.125-.054.124-.053.126-.051.126-.05.127-.05.127-.048.128-.046.129-.045.13-.045.13-.042.13-.042.13-.04.132-.039.132-.037.133-.037.134-.035.133-.034.134-.032.135-.031.135-.03.112-.023.11-.024.143-.03.141-.026.142-.024.142-.022.142-.02.142-.018.142-.016.143-.014.142-.011.142-.01.143-.007.142-.006.142-.003h.285l.142.004.141.005.142.008.14.01.142.01.14.015.141.016.14.017.14.02.14.022.139.024.138.027.138.028.138.03.137.033.137.035.136.036.135.039.135.04.135.043.133.044.133.047.132.048.132.051.13.053.13.054.13.056.128.058.128.06.127.063.126.063.125.066.124.068.124.07.122.071.121.074.121.075.119.076.119.079.117.08.116.083.115.084.114.085.113.088.112.089.11.09.11.094.109.094.106.095.107.098.104.099.104.1.102.103.101.104.1.106.097.107.098.108.095.11.095.112.093.113.091.114.09.116.09.118.087.118.086.12.084.123.083.123.082.124.08.126.079.127.077.129.076.13.074.13.073.133.071.134.07.135.068.136.067.138.065.139.063.14.062.14.06.143.06.144.056.145.056.145.054.148.052.148.051.149.05.15.046.152.046.152.044.154.043.155.04.155.04.157.037.158.036.159.034.16.032.16.03.162.03.163.028.164.025.165.024.166.022.166.02.168.019.169.017.17.015.17.013.17.011.173.01.17.006.108.004.104.004.103.003.104.003.102.001.102.002.101v.301l-.001.1-.002.099-.003.098-.003.098-.004.097-.004.097-.005.096-.006.096-.006.095-.007.095-.007.094-.008.093-.009.094-.01.093-.01.091-.01.092-.01.091-.013.091-.012.09-.013.09-.014.09-.014.088-.015.089-.015.087-.017.087-.016.087-.017.087-.018.085-.018.086-.02.085-.02.084-.02.084-.021.083-.021.084-.023.082-.022.082-.023.081-.013.043.161-.16.168-.162.169-.162.169-.16.171-.161.173-.16.173-.157.175-.157.175-.156.177-.156.179-.154.18-.153.18-.152.182-.151.183-.15.184-.15.185-.148.187-.147.187-.146.19-.145.19-.144.19-.143.193-.142.193-.14.195-.14.196-.14.197-.137.198-.137.2-.136.2-.134.202-.133.203-.133.204-.131.204-.13.206-.13.208-.127.209-.127.21-.126.21-.125.212-.124.213-.122.214-.122.215-.12.217-.119.218-.118.218-.116.22-.117.221-.114.222-.114.223-.112.225-.111.225-.11.226-.109.228-.108.23-.106.229-.106.23-.104.233-.103.233-.102.234-.101.236-.1.236-.098.238-.097.238-.096.24-.095.24-.094.243-.092.243-.092.244-.09.245-.088.247-.088.247-.087.246-.084-.002-.005-.026-.077-.027-.078-.025-.08-.024-.078-.023-.078-.023-.079-.022-.078-.021-.08-.02-.078-.02-.08-.018-.078-.018-.08-.017-.079-.016-.08-.016-.078-.014-.08-.014-.08-.013-.079-.012-.08-.012-.08-.011-.079-.01-.08-.01-.08-.008-.079-.008-.08-.007-.08-.006-.08-.006-.079-.005-.08-.004-.08-.003-.08-.003-.079-.002-.08-.001-.08v-.24l.002-.079.002-.08.003-.078.004-.08.005-.08.004-.08.007-.079.006-.08.008-.08.007-.078.01-.08.009-.079.01-.079.01-.08.013-.078.012-.079.013-.08.014-.078.015-.079.015-.078.016-.079.017-.079.017-.078.018-.078.02-.079.02-.077.02-.079.021-.078.023-.077.023-.078.023-.078.025-.077.025-.077.026-.077.027-.077.028-.077.029-.077.029-.076.03-.077.031-.076.032-.076.033-.075.034-.076.034-.075.035-.075.036-.075.038-.075.038-.074.039-.075.04-.073.041-.074.041-.073.043-.073.044-.073.045-.072.045-.072.047-.072.048-.071.048-.072.05-.07.05-.07.052-.07.053-.07.054-.068.055-.068.056-.068.057-.067.057-.067.06-.067.06-.065.06-.065.063-.065.063-.064.065-.062.066-.063.066-.062.068-.06.069-.06.07-.06.071-.059.072-.058.073-.057.075-.056.075-.055.077-.054.077-.053.079-.052.08-.051.08-.05.082-.049.082-.048.084-.047.084-.045.086-.044.086-.043.088-.042.088-.04.089-.04.09-.037.09-.037.092-.035.093-.034.092-.032.094-.03.094-.03.095-.028.096-.027.096-.025.097-.023.097-.022.098-.021.098-.019.099-.017.1-.017.099-.014.03-.004.006-.012.053-.096.055-.096.055-.094.056-.094.057-.093.058-.093.06-.09.059-.091.061-.09.062-.09.063-.087.063-.088.064-.086.066-.086.066-.084.066-.085.068-.082.068-.083.069-.082.07-.08.07-.08.072-.08.072-.078.072-.077.073-.076.074-.076.075-.075.075-.075.076-.073.077-.073.077-.072.077-.07.079-.07.079-.07.079-.07.08-.067.08-.067.081-.066.082-.066.082-.064.083-.065.083-.063.083-.062.084-.062.085-.06.084-.061.086-.06.086-.058.086-.058.087-.058.087-.056.087-.056.088-.055.089-.054.089-.053.09-.053.088-.053.09-.051.09-.05.091-.051.09-.05.092-.048.092-.047.092-.048.092-.046.093-.046.093-.045.093-.045.093-.043.094-.044.094-.042.095-.041.094-.041.095-.04.095-.04.096-.04.096-.038.096-.037.096-.037.097-.037.096-.035.097-.035.097-.035.097-.033.098-.033.098-.032.098-.032.099-.031.098-.03.098-.03.1-.03.098-.028.1-.028.099-.026.1-.027.1-.026.1-.025.099-.025.1-.023.1-.024.101-.022.1-.022.101-.021.101-.021.101-.02.101-.019.102-.019.1-.018.102-.017.102-.017.102-.016.1-.015.103-.015.102-.014.102-.014.102-.013.102-.012.102-.011.103-.01.102-.011.102-.01.103-.008.102-.009.103-.007.102-.007.103-.006.103-.005.102-.005.103-.005.103-.003.103-.003.102-.002.103-.001.103-.002h.102l.103.001.103.001.103.002.102.003.103.003.103.004.102.005.103.005.103.006.102.007.103.008.102.008.102.009.103.01.102.01.102.011.102.012.102.012.102.014.102.014.101.015.102.015.101.016.102.018.101.017.101.019.101.02.1.019.102.021.1.022.1.022.101.023.1.024.1.025.1.026.1.026.1.027.099.028.099.03.099.029.098.03.099.032.098.032.098.033.098.034.098.035.097.036.097.036.097.037.096.039.097.04.096.039.096.041.094.042.096.043.095.043.094.045.094.046.094.046.009.005 3.262-5.893.05-.088.061-.101.064-.1.066-.1.069-.096.07-.095.074-.093.075-.09.077-.09.08-.087.081-.085.084-.083.085-.08.087-.08.09-.076.09-.074.093-.072.094-.07.096-.067.099-.065.099-.063.1-.06.104-.058.104-.056.106-.053.106-.05.109-.048.11-.046.11-.042.113-.04.113-.038.114-.034.115-.032.116-.028.116-.026.117-.023zm.373 2.934-.045.01-.045.011-.044.012-.044.014-.044.014-.043.016-.043.016-.042.018-.042.018-.04.02-.042.02-.04.021-.04.023-.038.023-.039.024-.037.025-.037.026-.037.027-.035.028-.035.029-.035.03-.033.029-.033.031-.032.033-.032.032-.03.033-.03.035-.03.035-.028.036-.027.036-.026.037-.025.039-.025.038-.024.04-.022.04-4.92 8.885-.047-.058-.047-.057-.049-.057-.049-.056-.05-.056-.049-.055-.05-.054-.053-.053-.051-.053-.053-.053-.053-.052-.054-.051-.055-.05-.055-.05-.056-.05-.056-.048-.056-.048-.058-.047-.058-.047-.059-.046-.059-.046-.06-.045-.06-.044-.06-.044-.062-.043-.061-.042-.062-.042-.063-.041-.063-.041-.064-.04-.064-.04-.065-.038-.065-.038-.066-.038-.066-.037-.067-.036-.067-.036-.067-.035-.068-.034-.069-.034-.069-.034-.068-.032-.07-.033-.07-.031-.07-.031-.071-.03-.072-.03-.072-.029-.072-.029-.072-.028-.072-.027-.074-.027-.073-.026-.074-.026-.074-.025-.075-.024-.074-.024-.075-.023-.076-.023-.076-.022-.075-.021-.077-.021-.076-.02-.077-.02-.078-.02-.077-.018-.078-.018-.078-.018-.078-.017-.079-.016-.079-.015-.078-.015-.08-.015-.08-.014-.079-.013-.08-.013-.08-.012-.08-.012-.08-.011-.081-.01-.081-.01-.08-.01-.082-.009-.081-.008-.082-.008-.082-.007-.081-.006-.082-.006-.083-.006-.082-.005-.082-.004-.083-.004-.082-.003-.083-.003-.082-.002-.083-.001-.083-.002h-.249l-.083.002-.084.001-.083.003-.083.003-.084.003-.083.004-.084.005-.083.005-.083.005-.084.007-.083.006-.083.008-.084.007-.083.008-.083.01-.084.008-.083.01-.083.01-.083.012-.083.011-.083.012-.084.013-.083.013-.082.014-.083.014-.082.014-.083.015-.082.016-.083.016-.082.017-.082.017-.082.018-.081.019-.082.019-.081.02-.082.019-.081.02-.08.021-.082.022-.08.021-.08.023-.081.023-.08.024-.08.024-.08.024-.079.026-.08.025-.078.026-.079.027-.079.027-.077.028-.078.028-.078.028-.078.03-.077.029-.077.03-.076.031-.077.03-.076.033-.075.032-.076.032-.075.034-.074.033-.075.034-.073.035-.074.035-.074.036-.073.036-.072.036-.072.038-.073.037-.071.038-.071.039-.07.039-.071.04-.07.04-.07.04-.07.04-.068.043-.068.041-.068.043-.067.043-.067.043-.067.044-.066.045-.065.044-.065.046-.065.045-.064.047-.064.046-.063.047-.062.048-.062.048-.062.049-.061.05-.06.049-.061.05-.059.05-.059.05-.059.052-.057.052-.058.053-.056.053-.056.053-.056.054-.055.054-.054.054-.054.055-.053.056-.053.056-.052.057-.051.056-.05.058-.05.058-.05.058-.049.06-.048.058-.047.06-.047.06-.046.06-.046.061-.044.062-.044.062-.043.062-.043.063-.042.063-.04.064-.041.064-.04.065-.039.064-.038.066-.038.066-.036.066-.036.066-.035.068-.035.068-.033.068-.033.068-.032.069-.032.07-.03.069-.03.07-.029.071-.028.071-.027.071-.026.072-.025.073-.025.072-.024.074-.023.073-.021.074-.022.075-.02.075-.02.075-.018.075-.018.076-.065-.015-.065-.016-.065-.014-.064-.013-.064-.012-.063-.011-.063-.01-.062-.01-.062-.008-.062-.008-.061-.007-.06-.006-.06-.004-.06-.005-.06-.003-.058-.002-.059-.001h-.115l-.057.001-.057.002-.057.003-.055.004-.056.004-.054.006-.055.006-.054.007-.054.008-.053.008-.052.01-.053.01-.052.01-.051.012-.05.013-.051.013-.05.014-.05.014-.05.016-.048.016-.048.017-.048.017-.047.018-.047.02-.047.019-.045.02-.046.02-.045.022-.044.023-.045.022-.044.024-.043.024-.043.025-.042.025-.043.026-.041.027-.04.027-.042.028-.04.028-.04.03-.038.029-.039.03-.039.03-.038.032-.037.031-.037.033-.036.033-.036.033-.036.034-.035.034-.035.036-.034.035-.034.036-.033.036-.033.037-.032.037-.033.038-.031.038-.03.039-.032.039-.03.04-.03.04-.028.04-.03.041-.028.041-.027.042-.027.042-.028.043-.026.043-.026.043-.026.043-.025.044-.024.044-.024.045-.024.045-.023.045-.023.046-.022.046-.022.046-.021.047-.021.047-.02.047-.02.047-.02.048-.02.048-.017.048-.019.049-.017.049-.018.048-.016.05-.016.049-.016.05-.015.05-.015.05-.015.05-.014.051-.013.05-.013.052-.012.05-.012.052-.012.051-.01.052-.011.051-.01.052-.01.052-.01.053-.008.051-.008.053-.008.052-.007.053-.007.052-.006.053-.006.053-.005.053-.005.053-.005.053-.003.053-.004.053-.003.053-.002.053-.002.054-.002.052-.001.054v.213l.002.053.002.053.002.053.003.053.003.053.004.053.004.053.004.053.006.052.005.053.007.052.006.053.007.052.008.052.008.053.008.052.01.051.009.052.01.052.01.05.011.052.012.051.012.05.012.052.013.05.014.05.014.05.014.05.015.05.015.05.016.049.017.049.016.049.017.048.018.048.018.048.02.048.019.047.02.048.02.046.02.047.021.046.023.046.022.046.022.045.024.045.023.045.025.044.024.044.026.043.025.044.026.042.027.043.027.042.028.041.028.042.029.04.029.04.03.04.03.04.03.04.032.038.03.038.033.038.033.037.033.037.034.036.034.036.034.036.036.035.035.034.036.034.037.033.037.033.038.033.038.03.039.032.039.03.04.03.04.03.04.03.041.027.042.028.042.027.043.027.043.026.044.025.044.025.044.024.046.024.046.022.046.023.047.021.047.02.048.021.048.02.048.018.05.018.05.018.05.017.05.015.052.016.052.014.053.014.052.013.054.013.053.011.055.011.055.01.055.01-.254.058-.252.059-.25.06-.25.063-.25.062-.248.064-.247.066-.245.066-.245.068-.244.068-.242.07-.241.07-.24.073-.24.073-.238.074-.237.075-.235.077-.235.078-.233.078-.233.08-.231.081-.23.082-.23.083-.228.084-.227.086-.226.086-.224.087-.224.09-.223.088-.221.091-.22.092-.22.092-.217.095-.218.094-.215.096-.215.097-.214.098-.213.099-.21.1-.212.101-.209.103-.207.103-.208.104-.206.106-.205.106-.203.107-.203.108-.201.11-.2.11-.2.111-.199.112-.197.113-.195.115-.195.115-.194.117-.192.117-.192.118-.19.12-.19.12-.188.12-.187.122-.186.124-.185.123-.184.126-.182.126-.182.126-.18.128-.18.13-.178.129-.176.13-.176.132-.176.132-.173.134-.173.134-.171.136-.171.136-.17.137-.167.138-.167.139-.166.14-.165.14-.164.142-.162.142-.162.144-.16.144-.16.145-.157.146-.158.147-.156.148-.154.148-.154.15-.153.15-.151.152-.15.152-.15.152-.147.154-.148.155-.145.156-.145.156-.144.157-.142.158-.142.159-.14.16-.139.16-.138.161-.137.162-.136.163-.134.164-.134.164-.132.166-.131.166-.13.167-.13.167-.128.169-.127.17-.125.17-.125.17-.123.172-.123.172-.12.173-.121.174-.12.175-.117.175-.117.176-.116.177-.114.178-.114.178-.111.18-.048.075-.047.073-.046.072-.047.07-.046.067-.046.066-.045.064-.045.063-.045.06-.044.059-.044.057-.045.055-.044.053-.043.052-.043.05-.043.049-.042.046-.043.045-.042.043-.04.042-.042.04-.041.038-.041.037-.04.035-.04.034-.041.032-.04.03-.039.03-.04.027-.038.026-.038.024-.039.023-.038.021-.038.02-.037.019-.037.017-.037.015-.037.015-.036.013-.036.011-.036.01-.036.009-.035.007-.035.007-.035.004-.035.003-.034.002-.034.001h-.034l-.033-.002-.034-.002-.033-.005-.033-.005-.032-.006-.032-.008-.032-.01-.033-.01-.03-.01-.032-.013-.031-.014-.031-.014-.03-.016-.03-.017-.03-.017-.03-.02-.03-.02-.03-.02-.029-.023-.029-.022-.029-.024-.028-.026-.028-.025-.028-.027-.028-.028-.027-.03-.028-.029-.026-.03-.027-.032-.027-.032-.026-.033-.027-.035-.025-.034-.026-.036-.025-.037-.026-.037-.025-.038-.025-.038-.024-.04-.025-.04-.024-.042-.024-.041-.023-.043-.024-.043-.023-.044-.023-.045-.023-.044-.023-.047-.023-.046L26.05 48l-.022-.047-.043-.098-.043-.1-.042-.1-.041-.104-.04-.105-.04-.107-.039-.109-.038-.11-.037-.112-.037-.114-.036-.114-.035-.116-.034-.117-.034-.118-.033-.118-.032-.12-.031-.12-.031-.12-.03-.121-.03-.122-.03-.121-.027-.122-.028-.122-.027-.122-.026-.121-.026-.122-.026-.12-.024-.12-.024-.12-.023-.12-.046-.235-.042-.231-.041-.226-.039-.22-.036-.215-.035-.207-.063-.386-.057-.348-.026-.156-.024-.144-.022-.13-.01-.056-.024-.016-.02-.016-.02-.017-.018-.016-.016-.018-.014-.018-.006-.01-.006-.008-.006-.01-.005-.01-.004-.009-.004-.01-.004-.009-.003-.009-.003-.01-.002-.01-.001-.01-.002-.01v-.03l.001-.01.005-.04.005-.033.006-.027.005-.022.003-.009.003-.007.003-.007.003-.005.003-.003.003-.002.004-.001h.003l.003.001.003.003.004.004.004.005.003.006.004.008.007.019.008.023.008.027.009.033.009.036.009.04.01.045.02.102.01.06.024.015.026.015.027.014.03.013.03.013.032.012.034.012.034.01.037.01.037.01.039.009.04.008.042.008.042.006.044.006.045.005.046.004.046.003.048.002.05.002h.099l.052-.001.053-.003.053-.003.054-.005.055-.005.056-.006.056-.007.057-.01.058-.01.058-.01.059-.012.06-.013.058-.015.06-.016.061-.017.061-.018.062-.02.061-.02.062-.022.062-.024.063-.025.062-.026.063-.028.063-.029.063-.03.063-.032.063-.034.063-.035.062-.036.063-.039.063-.04.062-.04.063-.043.062-.045.062-.046.061-.048.062-.05.06-.051.061-.053.06-.055.06-.056.059-.059.058-.06.03-.03.029-.032.029-.031.028-.033.029-.032.028-.033.028-.034.028-.034.028-.035.028-.035.028-.035.027-.036.026-.037.028-.037.027-.037.026-.038.026-.039.026-.038.026-.04.026-.04.025-.04.026-.041.025-.042.024-.042.025-.042.024-.044.024-.043.024-.044.024-.045.023-.045.023-.046.022-.046.023-.047.022-.047.022-.048.022-.048.021-.05.021-.05.02-.05.021-.05.02-.051.02-.052.02-.053.02-.053.018-.053.019-.054.018-.055.018-.055.017-.056.017-.056.017-.057.017-.058.015-.058.016-.059.016-.06.015-.059.014-.06.015-.062.014-.062.013-.062.013-.063.013-.064.012-.064.012-.065.012-.065.011-.066.01-.067.01-.067.01-.068.01-.069.01-.07.008-.07.008-.07.008-.071.007-.072.006-.072.007-.073.006-.074.005-.074.005-.075.005-.076.004-.077.003-.077.003-.078.002-.078.003-.08v-.08l.002-.08v-.245l-.001-.084-.001-.083-.003-.085-.003-.086-.002-.086-.005-.086-.004-.088-.007-.142-.01-.14-.01-.142-.013-.138-.014-.139-.015-.136-.017-.136-.017-.135-.02-.133-.02-.133-.022-.131-.023-.13-.025-.13-.025-.128-.028-.127-.028-.125-.03-.125-.03-.124-.032-.123-.034-.12-.035-.121-.035-.119-.037-.118-.038-.117-.04-.116-.04-.114-.042-.113-.042-.112-.044-.111-.045-.11-.046-.109-.047-.107-.048-.106-.05-.105-.05-.104-.051-.103-.053-.102-.053-.1-.054-.099-.056-.098-.056-.097-.058-.095-.058-.095-.06-.092-.06-.092-.061-.091-.062-.09-.063-.087-.064-.087-.065-.086-.066-.085-.066-.083-.068-.082-.068-.08-.069-.08-.07-.078-.07-.077-.072-.076-.072-.074-.073-.073-.074-.072-.074-.07-.076-.07-.075-.068-.077-.066-.078-.066-.078-.064-.079-.063-.08-.061-.08-.061-.08-.058-.081-.058-.082-.056-.083-.055-.084-.054-.083-.053-.085-.05-.085-.05-.085-.048-.087-.047-.086-.046-.087-.044-.088-.043-.088-.041-.089-.041-.089-.039-.09-.037-.09-.036-.09-.035-.09-.033-.092-.032-.092-.03-.092-.03-.093-.028-.092-.027-.094-.025-.093-.023-.095-.022-.094-.021-.095-.02-.094-.018-.096-.016-.095-.015-.096-.014-.096-.012-.096-.011-.097-.01-.097-.008-.096-.006-.098-.005-.097-.004-.098-.002h-.196l-.098.002-.098.003-.098.005-.099.007-.098.008-.099.01-.098.01-.1.013-.098.014-.099.016-.1.017-.098.018-.099.02-.099.022-.107.022-.106.024-.106.024-.106.026-.105.026-.104.028-.104.028-.103.03-.103.03-.102.031-.102.032-.1.034-.102.034-.099.035-.1.036-.098.037-.099.038-.097.04-.098.039-.097.041-.096.042-.095.043-.095.043-.095.045-.094.046-.093.046-.093.048-.092.048-.092.05-.091.05-.09.051-.09.052-.09.053-.09.054-.088.055-.088.055-.087.057-.087.058-.086.058-.086.06-.085.06-.085.061-.084.062-.083.064-.083.063-.083.065-.082.066-.081.066-.08.067-.081.069-.08.069-.08.07-.078.071-.078.072-.077.073-.078.073-.076.075-.076.075-.075.077-.075.076-.074.078-.074.079-.073.08-.073.08-.072.081-.071.082-.071.084-.071.083-.07.085-.07.085-.068.087-.068.087-.068.088-.067.089-.067.09-.066.09-.066.091-.065.092-.064.094-.064.094-.063.094-.063.095-.062.097-.062.097-.062.098-.06.098-.06.1-.06.1-.059.101-.059.102-.058.103-.057.103-.057.104-.057.106-.055.105-.055.107-.055.108-.054.108-.054.109-.053.11-.053.11-.052.111-.051.112-.051.113-.05.113-.05.115-.05.115-.049.116-.048.116-.048.118-.047.118-.046.119-.046.119-.046.12-.045.121-.045.122-.043.123-.044.123-.043.124-.042.125-.042.126-.041.126-.041.127-.04.127-.04.129-.039.129-.038.13-.038.13-.038.132-.037.132-.036.133-.036.133-.035.134-.035.135-.035.135-.033.136-.033.137-.033.138-.032.139-.032.138-.03.14-.031.14-.03.141-.03.142-.029.142-.028.143-.028.145-.027.143-.027.146-.026.146-.026.146-.025.147-.024.148-.024.148-.024.15-.023.149-.022.15-.022.151-.022.152-.02.152-.02.153-.02.154-.02.154-.019.155-.018.156-.017.156-.018.156-.016.157-.016.159-.015.158-.015.16-.015.16-.014.16-.014.161-.012.162-.013.162-.012.163-.01.164-.012.164-.01.165-.009.165-.01.166-.008.167-.008.167-.007.167-.007.169-.007.17-.006.168-.005.17-.005.171-.004.172-.004.172-.003.172-.003.173-.002.173-.002.174-.001.175v.705l.002.177.002.178.003.179.003.18.004.178.004.18.004.182.006.181.005.182.007.182.006.183.008.183.007.184.01.185.008.185.01.186.01.186.01.187.01.187.013.187.012.189.012.189.013.188.014.19.014.19.015.19.015.192.016.192.017.192.016.193.018.193.018.193.018.195.02.194.019.195.02.196.02.196.021.197.022.197.022.197.023.198.023.198.024.2.024.199.025.2.025.2.026.2.026.202.027.201.027.202.029.203.028.203.029.203.03.205.03.204.044.329.046.327.048.326.05.324.024.161.026.16.026.16.026.16.026.16.028.158.027.159.027.158.028.157.028.157.029.156.029.156.03.156.029.155.03.154.03.154.03.153.032.153.031.153.032.152.032.15.033.152.033.15.033.15.033.15.034.15.034.148.035.148.035.147.034.147.036.147.036.146.036.146.037.145.037.145.037.144.037.144.038.143.039.142.038.142.039.142.04.14.039.141.04.14.04.14.041.14.04.138.042.138.042.137.041.137.043.137.043.136.042.136.044.134.043.135.044.134.045.134.044.133.045.132.046.132.045.131.046.131.046.13.047.13.047.13.047.129.047.128.048.128.049.127.048.127.049.126.05.126.049.125.05.125.05.123.05.124.051.124.051.122.052.122.052.121.052.121.052.12.053.12.053.12.053.119.054.118.054.118.054.117.055.117.055.116.055.116.056.115.056.115.056.113.057.114.057.113.057.112.058.112.057.112.059.11.058.11.059.11.059.109.06.109.06.108.06.107.06.108.06.106.062.106.06.105.062.105.062.104.062.103.063.104.063.102.063.102.064.102.064.1.064.1.064.1.064.1.066.098.065.099.066.097.066.097.066.096.067.096.066.096.068.094.067.094.068.094.068.093.068.093.069.092.069.09.07.091.069.09.07.09.07.09.07.088.071.088.071.087.072.087.072.086.072.086.072.085.072.084.073.084.074.083.073.083.074.083.074.081.074.08.075.082.075.08.075.079.076.078.075.078.076.078.077.077.076.076.078.076.077.075.078.075.078.073.078.074.078.073.079.072.079.072.08.07.079.072.08.07.08.069.08.069.081.067.081.068.082.067.082.066.082.066.082.065.082.064.083.064.083.064.083.063.084.061.084.062.084.06.085.06.084.061.086.059.085.058.086.058.085.058.086.056.087.056.087.056.086.054.088.055.088.053.088.053.088.052.088.053.088.05.09.051.089.05.09.05.09.048.089.048.09.047.09.048.092.046.091.045.091.046.092.044.092.044.092.043.093.042.093.042.093.041.093.04.093.041.094.04.095.038.094.038.095.037.095.038.095.036.095.035.096.035.096.034.096.034.097.033.097.033.097.032.097.03.098.031.098.03.098.03.098.028.099.028.1.027.098.027.1.026.099.025.1.025.1.024.101.023.1.023 4.634 9.701.011.022.01.021.012.02.012.022.012.02.012.02.013.02.013.02.013.018.014.02.014.018.015.018.014.018.016.018.015.017.016.017.015.017.017.016.017.016.016.016.017.016.018.015.017.014.018.015.018.014.018.013.02.013.018.014.02.012.019.012.02.012.02.012.02.01.02.012.02.01.02.01.022.01.02.009.022.009.02.008.023.008.021.008.022.007.022.007.022.007.022.005.023.006.022.005.023.005.023.005.023.004.023.003.023.003.023.003.023.002.024.001.023.002h.024l.023.001h.048l.023-.002.024-.001.024-.002.697-.063.688-.063.68-.063.67-.064.662-.064.653-.064.644-.064.636-.065.627-.064.619-.065.608-.066.601-.065.592-.066.584-.066.574-.067.566-.066.557-.067.548-.067.54-.067.53-.069.522-.067.513-.068.505-.069.495-.069.487-.069.478-.069.469-.069.46-.07.452-.07.443-.07.434-.07.214-.036.211-.036.21-.035.207-.035.205-.036.203-.036.2-.035.198-.037.196-.035.194-.036.192-.036.19-.037.187-.035.184-.037.183-.036.181-.036.178-.036.177-.037.174-.036.172-.037.169-.037.168-.037.165-.036.163-.037.16-.037.159-.037.157-.037.154-.037.151-.037.15-.037.148-.038.145-.037.143-.037.141-.038.139-.037.136-.038.134-.038.132-.038.13-.037.128-.038.125-.038.123-.038.12-.038.12-.039.116-.038.114-.038.112-.038.11-.039.107-.039.106-.038.103-.038.1-.04.1-.038.096-.039.094-.038.092-.04.09-.038.087-.04.086-.039.083-.038.08-.04.08-.04.076-.038.075-.04.071-.04.07-.04.031-.035.03-.037.028-.037.028-.037.025-.038.025-.04.023-.038.022-.04.02-.039.02-.04.017-.042.016-.041.007-.02.007-.022.007-.021.006-.022.006-.022.005-.021.005-.022.005-.022.004-.022.003-.023.003-.022.003-.023.003-.022.002-.023.001-.023.001-.024v-.094l-.002-.025-.002-.024-.002-.025-.003-.024-.003-.025-.004-.025-.005-.025-.005-.026-.005-.025-.006-.026-.006-.026-.007-.026-.008-.026-.008-.027-.008-.027-.01-.027-.009-.027-.01-.027-.01-.028-.012-.027.06-.003.06-.002.06-.004.06-.003.059-.004.058-.005.058-.005.057-.005.057-.006.056-.006.056-.007.056-.007.055-.008.055-.008.054-.009.054-.008.053-.01.053-.01.053-.01.051-.01.052-.01.051-.011.052-.012.05-.012.05-.012.05-.012.099-.026.097-.028.096-.029.094-.03.093-.031.092-.032.091-.034.09-.034.089-.035.087-.037.087-.037.085-.039.085-.039.084-.04.083-.04.083-.041.081-.043.081-.042.08-.044.03-.017.03-.017.027-.018.028-.019.025-.02.025-.02.024-.02.023-.02.021-.023.02-.022.02-.023.02-.023.017-.024.017-.024.016-.025.015-.026.014-.026.013-.027.012-.027.011-.028.01-.028.01-.028.008-.03.007-.03.007-.03.005-.03.005-.031.003-.031.003-.033.002-.032.001-.033v-.067l-.002-.035-.003-.034-.003-.035-.004-.035-.005-.036-.006-.037-.007-.036-.007-.037-.009-.038-.01-.037-.01-.038-.01-.038-.012-.04-.013-.039-.013-.039-.014-.04-.015-.04-.016-.04-.016-.041-.017-.041-.019-.041-.019-.042-.02-.042-.02-.043-.02-.042-.022-.042-.023-.044-.024-.043-.023-.043-.025-.044-.026-.044-.026-.045-.027-.044-.028-.044-.028-.046-.03-.045-.03-.045-.03-.045-.03-.046-.032-.046-.033-.046-.033-.046-.034-.046-.034-.047-.036-.047-.035-.046-.037-.048-.074-.094-.077-.095-.08-.095-.082-.095-.084-.096-.087-.096-.09-.097-.09-.096-.094-.097-.096-.097-.098-.096-.1-.097-.102-.097-.104-.096-.106-.096-.108-.097-.11-.095-.111-.096-.114-.095-.115-.095-.117-.094-.118-.094-.121-.093-.122-.092-.123-.092-.125-.09-.127-.091-.127-.09-.13-.088-.13-.088-.132-.087-.133-.085-.135-.085-.136-.084-.137-.082-.138-.08-.139-.08-.14-.08-.07-.038-.07-.038-.072-.038-.07-.038-.072-.037-.071-.037-.073-.037-.071-.035-.072-.036-.073-.035-.072-.035-.073-.035-.073-.034-.073-.034-.074-.033-.073-.033-.074-.032-.074-.032-.074-.031-.074-.032-.074-.03-.074-.03-.075-.03-.075-.029-.075-.028-.074-.028-.075-.028-.076-.027-.075-.026-.075-.026-.076-.026-.075-.025-.076-.024-.075-.023-.077-.024-.075-.022-.076-.023-.076-.022-.076-.02-.076-.02-.076-.02-.076-.02-.076-.018-.077-.018-.076-.017-.076-.017-.077-.016-.076-.016-.076-.014-.076-.015-.076-.013-.077-.013-.076-.012-.076-.012-.076-.01-.077-.01-.076-.01-.076-.009-.076-.008-.076-.007-.076-.006-.076-.007-.076-.004-.075-.005-.076-.004-.075-.002-.076-.002-.075-.002h-.15l-.076.001-.074.001-.075.003-.075.004-.074.004-.075.005-.074.005-.074.007-.074.007-.074.009-.074.009-.074.01-.072.01-.074.012-.073.013-.072.014-.073.014-.072.015-.072.016-.073.018-.072.017-.071.019-.071.02-.072.02-.07.022-.07.023-.071.023-.07.025-.07.025-.07.026.08-.08.078-.081.078-.08.078-.082.077-.082.076-.082.075-.082.075-.082.073-.083.074-.083.072-.083.072-.083.072-.084.07-.084.07-.083.068-.085.069-.084.067-.085.067-.085.067-.085.065-.086.065-.085.065-.086.063-.087.063-.086.062-.087.061-.086.061-.088.06-.087.06-.088.058-.087.058-.089.057-.088.057-.089.056-.089.055-.089.055-.089.054-.09.053-.09.052-.09.052-.09.052-.09.05-.091.05-.091.049-.091.048-.092.048-.092.047-.091.047-.092.045-.093.045-.092.044-.093.044-.093.043-.094.042-.093.042-.094.04-.094.041-.095.04-.094.039-.095.038-.095.038-.095.036-.096.037-.095.035-.096.035-.096.034-.097.034-.096.033-.097.032-.097.032-.098.03-.098.03-.097.03-.098.03-.099.027-.098.028-.099.027-.099.026-.1.026-.098.024-.1.025-.1.023-.1.023-.1.022-.1.022-.102.021-.101.02-.101.02-.102.019-.102.018-.102.017-.102.017-.102.017-.103.015-.102.016-.104.014-.103.013-.104.014-.104.012-.103.012-.105.01-.104.011-.105.01-.105.01-.105.007-.105.008-.106.008-.106.006-.106.006-.106.005-.107.004-.107.005-.106.003-.108.002-.107.002-.108.002-.108v-.325l-.001-.109-.002-.108-.003-.11-.003-.11-.004-.109-.004-.11-.006-.11-.005-.11.034.125.033.122.035.12.035.118.037.115.037.113.037.111.04.108.019.054.02.052.02.052.02.052.021.051.02.05.022.05.021.05.022.047.022.048.022.047.022.047.023.046.023.045.024.045.024.044.023.043.025.043.025.042.025.041.025.041.026.04.026.04.026.039.027.038.027.037.028.037.028.036.028.036.029.034.029.035.03.033.029.033.03.032.031.031.031.031.032.03.032.03.032.028.034.028.033.027.033.027.035.026.035.025.035.024.035.024.037.023.036.022.038.022.037.02.038.02.04.02.039.018.039.018.04.017.041.017.041.015.043.015.042.014.043.014.043.012.045.012.045.011.045.01.046.01.046.009.047.008.048.007.048.007.05.005.049.006.05.004.05.003.052.002.052.002.053.001h.107l.055-.002.055-.002.056-.003.057-.004.057-.004.058-.005.06-.007.058-.007.06-.008.062-.009.061-.009.063-.01.063-.012.064-.012.064-.013.066-.013.066-.015.067-.015.067-.017.069-.017.069-.018.07-.019.07-.02.072-.02.072-.021.074-.023.074-.023.074-.024.076-.025.076-.026.077-.026.079-.028.079-.028.08-.03-.746 1.346-.022.042-.021.043-.02.043-.02.043-.018.043-.017.044-.015.043-.015.044-.013.044-.012.045-.01.044-.01.045-.01.045-.007.044-.006.045-.005.045-.005.045-.003.045-.001.045-.002.044v.046l.002.044.002.044.004.045.004.045.006.044.007.043.007.044.009.044.01.043.01.044.013.043.012.042.014.042.015.042.016.042.017.04.018.041.018.041.02.04.02.04.023.038.023.039.023.038.025.037.025.037.027.037.027.035.029.035.03.035.03.034.03.033.032.033.033.032.035.03.034.03.036.03.036.03.038.027.038.027.039.027.04.025.04.024.042.024 8.134 4.48.042.022.043.021.043.02.043.02.043.017.044.017.044.015.044.015.044.013.044.012.045.01.045.01.045.009.044.007.045.007.045.005.045.004.045.003.045.002h.134l.045-.003.045-.004.045-.004.044-.006.044-.007.044-.007.044-.009.043-.01.043-.01.043-.012.043-.013.042-.014.042-.014.042-.017.04-.017.042-.017.04-.02.04-.019.04-.02.039-.023.039-.023.038-.023.037-.025.037-.025.037-.027.036-.027.035-.028.035-.03.034-.03.033-.03.033-.033.031-.033.032-.034.03-.034.03-.036.029-.037.028-.037.027-.038.026-.039.026-.04.025-.04.023-.042 22.153-40.017 12.069 6.646.041.021.041.02.041.02.042.019.042.017.043.017.043.015.043.014.043.014.044.012.044.01.045.01.044.01.044.007.045.007.045.006.045.004.045.004.045.002h.046l.046.001.045-.001.045-.002.046-.003.044-.005.046-.005.045-.007.045-.008.045-.008.045-.01.045-.011.044-.013.044-.013.044-.015.043-.015.043-.016.042-.018.042-.018.041-.02.041-.02.04-.022.039-.022.039-.023.038-.024.038-.026.037-.026.037-.026.035-.028.036-.029.034-.03.033-.03.034-.03.032-.033.031-.032.031-.034.029-.034.03-.035.028-.036.027-.036.026-.038.026-.038.025-.038.023-.04.023-.04 6.511-11.76.022-.041.02-.04.019-.042.019-.042.017-.041.017-.043.015-.042.015-.043.013-.043.012-.044.011-.044.01-.044.009-.043.008-.045.006-.044.006-.045.004-.045.004-.045.002-.045.001-.044v-.045l-.001-.045-.002-.046-.003-.045-.004-.044-.006-.045-.006-.045-.008-.045-.009-.044-.01-.045-.011-.044-.012-.044-.013-.044-.014-.044-.016-.043-.016-.042-.017-.041-.019-.042-.019-.04-.02-.042-.022-.04-.022-.038-.023-.04-.024-.037-.026-.038-.025-.036-.027-.036-.028-.036-.028-.035-.03-.034-.03-.033-.031-.033-.031-.031-.033-.032-.033-.03-.035-.03-.035-.028-.035-.028-.037-.027-.037-.026-.038-.026-.038-.024-.039-.024-.04-.022-35.529-19.565-.04-.022-.042-.02-.041-.02-.042-.019-.042-.017-.043-.016-.042-.016-.044-.013-.043-.014-.044-.012-.044-.01-.044-.01-.045-.01-.044-.007-.045-.007-.045-.006-.045-.004-.045-.004-.046-.002h-.045l-.045-.001-.046.001-.045.002-.045.003-.046.004-.045.006-.045.007-.045.008z" fill="#fff"/><path fill-rule="evenodd" clip-rule="evenodd" d="M108.506 43.956a1.86 1.86 0 0 1-2.523.728l-12.068-6.646L71.76 78.055a1.86 1.86 0 0 1-2.523.727l-8.134-4.479a1.85 1.85 0 0 1-.727-2.517L82.53 31.769l-12.068-6.645a1.85 1.85 0 0 1-.727-2.517l6.507-11.753a1.856 1.856 0 0 1 2.522-.727l35.529 19.564a1.84 1.84 0 0 1 .723 2.504z" fill="#282EA9"/><path fill-rule="evenodd" clip-rule="evenodd" d="M53.885 23.102q.324.034.67.122c1.583-7.034 14.676-8.762 17.576-2.167 6.047-1.619 7.789 7.486 1.443 7.904.94 2.454-.108 8.086-2.393 10.338l.034.087-13.975 2.497z" fill="#000"/><path fill-rule="evenodd" clip-rule="evenodd" d="m62.066 15.672.1-.016.1-.016.099-.015.1-.014.1-.014.1-.013.099-.013.1-.011.1-.011.1-.01.1-.01.1-.009.1-.008.101-.008.1-.006.1-.006.101-.006.1-.004.1-.005.101-.003.1-.002.1-.002.101-.001h.2l.1.001.1.002.1.002.1.003.1.005.1.004.1.006.1.006.099.007.1.008.099.008.099.01.099.009.099.01.098.012.099.012.098.013.099.014.098.014.098.015.098.016.097.017.097.018.097.018.097.019.097.02.096.02.097.022.096.022.095.023.096.024.095.025.095.025.095.027.094.027.094.027.094.029.093.03.094.03.093.03.092.033.092.033.092.034.092.035.09.035.091.036.09.038.09.038.09.038.09.04.088.041.088.042.088.042.087.043.087.045.087.045.085.046.086.047.085.048.084.049.084.05.084.05.083.052.082.053.082.053.08.055.081.055.08.056.08.058.078.058.078.06.077.06.077.06.076.063.075.063.075.064.073.065.074.066.072.067.071.069.07.069.071.07.069.07.068.072.067.073.067.074.066.075.065.075.064.077.062.078.062.08.061.078.06.081.06.082.058.082.057.084.056.084.031.049.038-.004.084-.007.083-.006.084-.005.083-.003.083-.003.082-.002h.164l.081.003.081.003.082.003.08.006.08.005.08.008.079.008.08.01.078.01.078.011.077.013.078.014.076.014.077.016.075.017.076.017.075.02.074.02.074.02.073.021.073.023.073.024.071.025.071.025.07.026.07.028.07.028.07.03.067.03.068.03.067.033.066.032.066.034.065.034.064.036.065.036.062.037.063.038.062.038.061.039.06.04.06.04.059.042.058.042.058.043.057.044.056.044.056.045.054.045.055.046.052.047.053.047.052.048.05.049.051.049.05.05.05.05.047.05.048.052.047.052.046.052.045.053.045.053.043.054.043.054.043.055.04.055.042.056.04.056.04.056.038.057.038.057.037.058.036.058.036.058.034.06.035.058.033.06.033.06.032.06.031.06.03.06.03.061.03.062.028.061.027.062.027.062.026.063.025.063.025.063.023.063.024.063.022.064.022.063.02.064.02.064.02.065.019.065.018.065.017.065.017.065.016.065.015.066.014.065.013.067.013.065.012.066.011.067.01.066.01.066.01.067.007.067.008.067.006.066.007.068.005.067.004.067.004.067.003.067.002.068v.067l.001.068v.134l-.003.068-.002.067-.004.068-.004.068-.005.067-.006.067-.007.068-.008.067-.007.068-.01.067-.01.067-.01.068-.012.067-.013.067-.014.067-.014.067-.015.067-.016.066-.017.067-.017.067-.019.066-.019.066-.02.066-.022.066-.022.065-.023.066-.023.065-.025.065-.026.064-.027.065-.027.064-.029.065-.029.063-.03.064-.031.063-.033.063-.033.062-.033.062-.036.062-.036.062-.036.06-.038.061-.039.06-.04.06-.04.06-.042.059-.042.058-.043.058-.045.058-.045.057-.046.056-.047.056-.049.055-.049.055-.05.054-.05.054-.052.053-.053.052-.053.052-.055.05-.055.05-.056.05-.058.05-.058.048-.059.047-.06.047-.06.046-.062.045-.062.045-.063.043-.064.043-.065.042-.066.041-.066.04-.068.04-.068.04-.068.037-.07.036-.07.037-.071.035-.073.034-.072.033-.074.033-.073.032-.075.03-.076.03-.076.029-.076.028-.079.027-.077.026-.046.014.006.053.009.092.008.091.007.093.007.093.005.093.005.094.004.095.003.094.003.095.002.096v.288l-.001.097-.002.098-.003.097-.003.098-.005.098-.004.1-.006.098-.006.099-.008.1-.007.1-.008.1-.01.1-.01.1-.01.101-.011.1-.012.102-.013.101-.012.102-.014.101-.015.102-.015.102-.016.102-.016.102-.018.102-.017.102-.019.103-.019.102-.02.102-.02.102-.021.103-.022.102-.022.102-.023.103-.023.102-.025.102-.025.102-.026.102-.026.101-.026.102-.028.101-.028.102-.03.1-.029.102-.03.1-.03.101-.031.1-.033.1-.032.1-.034.099-.033.1-.035.098-.035.098-.036.098-.037.098-.037.097-.038.097-.038.097-.04.096-.04.096-.04.095-.04.095-.043.094-.042.094-.044.094-.044.093-.044.091-.045.092-.047.092-.046.09-.048.09-.048.09-.05.088-.049.088-.05.088-.052.086-.052.087-.053.085-.053.085-.054.083-.055.084-.057.082-.057.082-.058.08-.058.08-.06.08-.06.079-.062.077-.062.077-.063.076-.056.064-.013.03-.053.105-.062.1-.07.093-.076.089-.083.082-.09.075-.095.067-.101.06-.105.052-.11.043-.11.034-.115.025-13.975 2.497-.114.015-.114.007-.115-.002-.114-.011-.114-.02-.11-.03-.11-.037-.104-.046-.102-.054-.097-.062-.09-.069-.087-.076-.08-.082-.072-.089-.066-.094-.058-.099-.05-.103-.042-.106-.033-.11-.025-.112-3.354-18.78-.016-.113-.007-.113.002-.113.011-.113.02-.112.028-.11.037-.107.044-.104.053-.1.061-.097.068-.09.074-.086.081-.08.087-.072.093-.066.097-.059.102-.05.104-.044.11-.034.014-.004.023-.057.04-.094.04-.092.042-.092.043-.091.044-.09.045-.09.046-.09.047-.088.048-.088.05-.087.05-.086.05-.085.053-.086.053-.084.054-.083.055-.083.057-.082.056-.081.058-.08.06-.08.059-.08.06-.077.062-.078.062-.077.063-.076.064-.075.065-.075.065-.073.066-.074.067-.072.068-.072.069-.07.069-.07.07-.07.07-.069.072-.068.072-.067.073-.066.073-.066.074-.065.075-.065.076-.063.075-.063.077-.062.077-.061.078-.06.078-.061.08-.06.079-.058.08-.058.081-.057.08-.056.083-.056.082-.055.083-.054.083-.053.084-.053.084-.052.085-.052.085-.05.086-.05.086-.05.087-.049.087-.048.087-.047.088-.046.088-.046.089-.045.089-.045.09-.043.09-.044.09-.042.09-.042.091-.04.092-.041.091-.04.093-.04.092-.037.092-.038.094-.037.093-.036.093-.036.095-.035.094-.034.094-.033.095-.033.095-.032.096-.032.095-.03.096-.03.096-.03.096-.029.097-.028.097-.028.097-.026.097-.026.097-.025.098-.025.098-.024.098-.024.098-.022.098-.023.099-.02.098-.02.099-.02.1-.02.098-.019.1-.018zm.065 1.471-.089.017-.089.017-.088.018-.089.018-.088.019-.089.02-.088.02-.088.021-.087.022-.088.022-.088.023-.087.023-.087.024-.087.024-.086.026-.086.026-.086.026-.086.027-.086.028-.085.028-.085.028-.085.03-.084.03-.084.03-.084.031-.084.032-.082.032-.083.033-.083.034-.082.034-.081.035-.082.035-.081.035-.08.037-.081.037-.08.037-.08.038-.078.039-.08.04-.078.04-.077.04-.077.04-.078.042-.076.042-.076.043-.075.043-.076.044-.074.044-.074.045-.074.046-.073.046-.072.046-.072.048-.072.047-.07.049-.071.048-.07.05-.07.05-.068.05-.068.051-.067.052-.067.052-.066.053-.066.053-.065.054-.065.054-.064.055-.063.056-.062.055-.062.057-.062.057-.06.058-.06.058-.059.059-.058.059-.058.06-.057.06-.056.06-.056.062-.055.062-.054.063-.053.062-.053.064-.052.064-.05.064-.051.065-.05.066-.048.066-.048.066-.047.067-.046.068-.046.069-.045.068-.043.07-.044.069-.041.07-.041.07-.04.072-.04.072-.038.072-.038.073-.037.073-.036.074-.035.074-.034.075-.033.075-.032.076-.03.076-.031.077-.03.077-.028.078-.027.078-.026.079-.025.08-.025.079-.022.08-.023.08-.021.082-.02.082-.02.082-.085-.021-.086-.02-.085-.017-.084-.016-.084-.015-.082-.012-.082-.011-.081-.01 3.354 18.78 13.975-2.495-.034-.088.054-.053.053-.055.052-.055.052-.057.052-.059.05-.06.051-.06.05-.06.05-.064.049-.063.049-.065.048-.066.048-.067.047-.068.046-.068.047-.07.046-.07.045-.072.045-.073.044-.073.044-.074.044-.075.042-.077.042-.076.042-.078.041-.078.041-.079.04-.08.04-.08.04-.08.038-.083.038-.082.038-.083.038-.084.036-.084.036-.086.036-.085.035-.086.034-.086.034-.087.034-.088.033-.088.032-.088.032-.09.03-.088.032-.09.03-.09.03-.09.029-.091.028-.091.028-.092.028-.092.026-.091.026-.093.026-.092.025-.092.025-.093.023-.093.024-.093.023-.093.022-.094.021-.093.021-.094.02-.093.02-.094.02-.093.019-.094.018-.094.018-.093.016-.094.016-.093.016-.094.015-.093.015-.093.014-.093.013-.092.012-.093.012-.092.012-.093.01-.092.01-.091.01-.091.01-.091.007-.091.008-.09.007-.09.006-.09.006-.09.005-.088.004-.089.004-.088.003-.087.002-.087.003-.087v-.085l.001-.086v-.085l-.001-.084-.001-.084-.003-.083-.002-.082-.004-.082-.004-.081-.005-.08-.005-.08-.007-.079-.007-.079-.007-.077-.008-.077-.01-.076-.01-.074-.009-.074-.011-.073-.012-.073-.012-.072-.014-.07-.013-.07-.015-.069-.015-.067-.016-.067-.016-.066-.018-.064-.018-.064-.019-.062-.02-.062-.02-.06-.02-.06-.022-.058.074-.005.073-.006.073-.007.072-.007.07-.009.071-.01.07-.01.068-.01.069-.01.067-.014.066-.012.067-.014.065-.014.064-.015.064-.016.063-.016.062-.017.062-.018.06-.018.06-.02.06-.02.06-.02.057-.02.058-.022.056-.022.056-.024.055-.023.055-.024.054-.025.053-.026.052-.026.052-.026.051-.027.05-.027.05-.029.049-.028.049-.03.047-.03.047-.03.046-.03.046-.032.044-.032.044-.033.044-.033.043-.033.041-.034.042-.034.04-.035.04-.036.04-.035.039-.036.038-.037.037-.037.037-.037.036-.039.035-.038.035-.039.034-.039.033-.04.033-.04.032-.04.031-.04.031-.041.03-.041.03-.042.029-.043.027-.042.028-.043.027-.043.026-.043.026-.044.025-.044.023-.045.024-.044.023-.045.023-.045.021-.045.021-.046.02-.046.02-.046.02-.047.018-.046.018-.047.017-.047.017-.048.016-.047.015-.048.015-.048.014-.048.014-.048.012-.048.013-.05.011-.048.011-.049.01-.05.011-.048.009-.05.009-.05.008-.048.007-.05.007-.05.006-.05.006-.05.004-.05.005-.05.004-.05.003-.05.002-.05.002-.05.002-.051v-.202l-.002-.05-.002-.05-.003-.051-.003-.05-.004-.051-.005-.05-.005-.051-.005-.05-.006-.05-.007-.05-.008-.05-.007-.05-.009-.05-.009-.05-.01-.05-.01-.05-.01-.05-.012-.049-.012-.05-.012-.049-.013-.049-.014-.049-.014-.049-.015-.048-.014-.048-.016-.049-.017-.048-.017-.048-.017-.048-.018-.047-.019-.047-.018-.048-.02-.046-.02-.047-.02-.047-.022-.046-.022-.046-.022-.046-.023-.045-.024-.045-.023-.045-.025-.045-.025-.044-.025-.044-.026-.044-.026-.043-.028-.044-.027-.042-.028-.043-.029-.042-.03-.042-.029-.041-.03-.041-.03-.04-.032-.041-.032-.04-.032-.04-.033-.04-.033-.038-.034-.038-.034-.038-.035-.038-.035-.037-.035-.037-.037-.036-.036-.036-.038-.035-.037-.035-.039-.035-.039-.034-.039-.033-.04-.033-.04-.033-.04-.032-.042-.031-.041-.031-.042-.03-.043-.03-.043-.03-.044-.029-.044-.028-.044-.028-.045-.027-.046-.026-.045-.026-.047-.026-.047-.025-.047-.024-.048-.023-.049-.023-.048-.023-.05-.022-.05-.02-.05-.021-.05-.02-.051-.02-.051-.018-.053-.018-.052-.017-.053-.016-.053-.016-.054-.015-.055-.015-.054-.013-.055-.013-.056-.012-.055-.012-.057-.01-.057-.01-.058-.01-.057-.009-.058-.007-.059-.007-.059-.006-.06-.006-.06-.004-.06-.004-.06-.003-.062-.002-.062-.002h-.124l-.063.001-.064.003-.063.002-.064.004-.065.004-.065.006-.065.006-.066.008-.066.007-.067.01-.067.01-.067.01-.069.012-.068.013-.069.014-.068.014-.07.016-.07.016-.07.018-.071.018-.034-.076-.036-.077-.036-.075-.037-.075-.038-.074-.04-.073-.04-.072-.04-.072-.041-.07-.043-.07-.043-.07-.044-.069-.046-.067-.046-.067-.046-.067-.047-.066-.05-.064-.048-.065-.05-.063-.05-.062-.052-.062-.052-.061-.053-.061-.054-.06-.055-.059-.055-.058-.056-.057-.057-.057-.057-.056-.058-.055-.06-.055-.059-.054-.06-.053-.06-.052-.062-.052-.063-.05-.062-.051-.064-.05-.064-.048-.065-.048-.065-.047-.066-.047-.067-.046-.067-.045-.068-.044-.068-.044-.069-.043-.07-.042-.07-.042-.07-.041-.072-.04-.072-.04-.072-.038-.072-.039-.074-.037-.074-.037-.074-.035-.075-.036-.075-.035-.076-.034-.076-.033-.077-.032-.077-.032-.078-.03-.078-.031-.078-.03-.08-.029-.078-.028-.08-.028-.08-.027-.08-.026-.081-.026-.081-.024-.082-.025-.082-.023-.083-.023-.082-.022-.083-.021-.083-.021-.084-.02-.084-.02-.085-.019-.084-.018-.085-.017-.085-.017-.085-.016-.086-.015-.086-.015-.086-.014-.086-.014-.087-.013-.087-.012-.087-.01-.087-.012-.088-.01-.088-.01-.088-.008-.087-.008-.089-.008-.088-.006-.089-.007-.089-.005-.089-.005-.088-.004-.09-.004-.089-.003-.09-.002-.089-.001-.09-.001h-.269l-.09.002-.089.003-.09.003-.09.003-.09.004-.09.005-.09.005-.09.007-.09.006-.09.008-.09.008-.09.008-.09.009-.09.01-.09.01-.09.012-.09.011-.09.013-.09.013-.089.013-.09.014-.089.015-.09.015z" fill="#fff"/><path fill-rule="evenodd" clip-rule="evenodd" d="M61.14 70.433c-3.438 1.28-4.526.12-5.236-2.566.259 4.712-1.23 8.816-4.638 12.25 5.93-2.293 14.734 6.011 12.133 7.424-.854.465-1.805.838-3.108.88.247.593.108 1.047-.228 1.43-2.93 1.691-11.94 3.202-26.897 4.539-.51.046-.995-.23-1.215-.69l-4.634-9.701c-8.609-1.92-14.381-10.894-16.267-24.986-2.585-17.454.568-30.13 9.732-32.01 4.222-.949 8.47 2.227 8.785 8.32.386 7.493-2.404 11.98-5.58 12.01-1.576.015-4.193-.082-4.882-3.948-1.135-6.368 4.671-7.192 4.305-1.803-.066.974.93.981 1.032.104.207-1.787 1.48-9.92-3.254-9.151-10.699 1.737-4.616 40.254 2.749 38.244-.887-18.936 8.875-34.36 28.906-38.913-4.75-.758-3.898-10.044 1.705-8.632 1.583-7.033 14.676-8.762 17.576-2.166 6.047-1.62 7.789 7.486 1.443 7.904.939 2.454-.107 8.086-2.393 10.338 1.158 3.015 2.077 5.19 2.651 8.26l-5.698 10.254z" fill="#000"/><path d="M59.817 71.227 76.332 41.51" stroke="#fff" stroke-width=".004" stroke-miterlimit="1.5" stroke-linecap="round" stroke-linejoin="round"/><path d="M33.107 71.04c9.656-7.813 18.51 4.809 5.998 17.035 12.841-10.6 20.71-1.133 21.852 1.61" stroke="#fff" stroke-width="2" stroke-miterlimit="1.5" stroke-linecap="round" stroke-linejoin="round"/><path fill-rule="evenodd" clip-rule="evenodd" d="m63.625 24.686.024-.1c.387-1.522 1.49-2.65 3.246-2.94 3.006-.42 5.846 3.444 3.79 6.243a3.16 3.16 0 0 1-1.14.948c1.673 1.764 2.29 4.348.444 6.988-2.684 3.838-9.802 4.237-11.957-.724-.7-1.613-.471-3.44.399-4.99-1.548-.396-2.876-1.587-2.923-3.5-.048-1.92 1.235-3.654 3.366-4.007 1.581-.22 3.131.741 3.934 2.117.367.419.622.385.817-.035" fill="#fff"/><path d="M59.818 28.47a1.99 1.99 0 0 0 1.612-2.307 1.99 1.99 0 0 0-2.311-1.607 1.99 1.99 0 0 0-1.612 2.308 1.99 1.99 0 0 0 2.311 1.607m5.236 8.281c2.611-.467 4.402-2.672 3.999-4.926s-2.846-3.704-5.457-3.237c-2.61.466-4.401 2.672-3.998 4.926s2.845 3.703 5.456 3.237m2.786-9.241a1.99 1.99 0 0 0 1.611-2.307 1.99 1.99 0 0 0-2.311-1.607 1.99 1.99 0 0 0-1.612 2.307 1.99 1.99 0 0 0 2.311 1.607" fill="#000"/><path fill-rule="evenodd" clip-rule="evenodd" d="M42.715 49.197c-8.47 11.329 4.646 19.168 25.05 10.165 11.058 3.17 10.365-12.398.813-8.344-5.535 2.348-9.17-.386-14.404-3.99" fill="#000"/><path d="M42.715 49.197c-8.47 11.329 4.646 19.168 25.05 10.165 11.058 3.17 10.365-12.398.813-8.344-5.535 2.348-9.17-.386-14.404-3.99" stroke="#fff" stroke-width="2" stroke-miterlimit="1.5" stroke-linecap="round" stroke-linejoin="round"/><path fill-rule="evenodd" clip-rule="evenodd" d="M75.955 70.94c-2.41-1.382.457-5.162 2.933-4.101 2.478 1.061-.61 5.433-2.934 4.1" fill="#000"/><path fill-rule="evenodd" clip-rule="evenodd" d="m77.37 65.226.091-.014.093-.011.093-.01.093-.007.094-.004.095-.003h.095l.096.002.096.005.097.007.096.01.097.012.097.015.097.017.097.02.098.023.096.026.097.028.096.031.096.034.096.036.09.038.054.023.049.022.049.023.048.024.048.025.048.025.047.027.046.027.047.027.046.029.045.03.044.03.044.03.044.032.043.033.043.033.041.034.041.034.041.036.04.036.04.037.038.038.037.038.037.04.036.038.036.04.035.042.033.041.033.042.032.043.03.043.03.044.03.044.029.044.027.045.027.046.025.046.025.045.024.047.022.047.022.047.02.047.02.047.02.047.018.048.017.048.016.048.015.047.014.049.016.053.022.09.021.097.018.095.014.095.011.095.009.095.005.093.002.094v.092l-.002.092-.006.09-.007.09-.01.09-.011.088-.014.087-.016.087-.018.086-.019.085-.021.084-.023.084-.025.082-.026.082-.028.081-.03.08-.03.08-.033.079-.033.077-.035.078-.036.076-.038.076-.039.075-.04.074-.042.074-.042.073-.044.072-.045.072-.046.07-.047.07-.048.07-.05.068-.05.068-.052.067-.053.066-.053.065-.056.065-.056.064-.057.063-.058.062-.06.06-.06.062-.061.06-.062.058-.064.057-.064.057-.066.056-.067.055-.067.053-.07.053-.07.052-.07.051-.072.05-.074.047-.074.047-.075.046-.077.045-.078.043-.078.041-.08.04-.082.04-.082.037-.084.035-.084.034-.087.033-.086.03-.089.029-.089.026-.09.025-.092.022-.093.02-.094.019-.095.016-.096.013-.097.01-.098.008-.099.005-.1.002h-.094l-.056-.001-.05-.003-.05-.002-.052-.004-.05-.005-.052-.005-.05-.006-.051-.006-.051-.008-.051-.008-.051-.01-.052-.01-.05-.011-.052-.011-.05-.014L76 72.55l-.05-.014-.05-.015-.051-.016-.05-.017-.05-.018-.05-.019-.05-.019-.05-.02-.05-.02-.049-.023-.049-.022-.048-.024-.049-.024-.047-.025-.048-.026-.046-.026-.046-.027-.045-.027-.044-.027-.044-.028-.043-.028-.043-.03-.043-.03-.041-.03-.042-.03-.04-.031-.04-.032-.041-.033-.04-.032-.038-.034-.038-.034-.038-.035-.037-.035-.037-.036-.035-.036-.036-.037-.035-.037-.034-.037-.033-.04-.033-.038-.032-.039-.032-.04-.03-.04-.03-.04-.03-.042-.028-.041-.028-.042-.027-.042-.027-.043-.025-.043-.025-.044-.028-.048-.043-.083-.042-.09-.04-.09-.037-.09-.033-.092-.03-.093-.028-.092-.024-.093-.021-.093-.018-.093-.015-.093-.012-.092-.01-.093-.007-.092-.004-.091-.001-.091v-.09l.004-.09.006-.09.008-.088.01-.088.012-.087.015-.086.016-.086.018-.085.02-.084.022-.082.024-.082.025-.082.027-.08.029-.08.03-.078.032-.078.033-.078.034-.076.036-.075.037-.075.04-.073.04-.073.04-.073.043-.07.044-.071.044-.07.046-.068.048-.069.048-.066.05-.067.05-.065.053-.064.053-.065.054-.062.055-.062.056-.06.057-.061.059-.06.06-.058.06-.057.061-.057.063-.055.063-.055.065-.053.066-.052.066-.052.068-.05.069-.05.07-.048.07-.048.072-.046.072-.044.074-.044.075-.042.075-.042.077-.04.078-.038.079-.037.079-.036.08-.034.082-.033.083-.031.084-.03.084-.028.085-.027.087-.025.086-.023.089-.02.089-.02.09-.018zm.118 1.48-.056.012-.057.013-.056.015-.056.017-.056.016-.055.019-.055.02-.054.02-.054.022-.054.023-.053.024-.053.025-.053.026-.052.027-.051.028-.052.029-.05.03-.05.03-.05.032-.049.033-.048.034-.047.034-.048.035-.046.036-.046.037-.045.037-.045.039-.044.039-.043.04-.043.04-.041.04-.042.042-.04.042-.04.043-.038.044-.038.044-.037.044-.036.045-.035.046-.035.045-.033.047-.033.047-.032.047-.03.048-.03.048-.029.048-.028.049-.026.048-.026.05-.025.05-.024.049-.022.05-.022.05-.02.05-.02.05-.018.052-.017.05-.016.05-.014.052-.014.05-.012.052-.011.051-.01.05-.009.052-.006.05-.006.051-.005.051-.003.051-.002.05-.001.051.001.05.002.05.004.05.005.05.007.049.007.049.01.049.011.048.013.048.013.047.016.048.017.047.019.046.02.046.022.046.023.045.013.022.012.022.014.022.014.022.013.023.015.02.015.023.015.021.016.021.016.021.017.021.016.021.018.02.018.021.018.02.02.02.018.02.02.02.02.02.02.02.022.02.02.018.023.019.022.019.023.018.023.019.024.018.024.018.025.017.025.018.025.017.027.018.027.017.027.017.027.016.028.016.027.016.028.015.027.013.027.014.028.014.027.013.028.012.028.012.028.01.028.012.027.01.028.01.028.01.028.008.028.008.028.008.028.008.028.007.028.006.029.007.028.005.028.005.028.005.028.004.029.004.028.003.028.003.029.003.028.001.028.002.028.001.029.001h.113l.057-.004.056-.005.056-.005.056-.008.057-.01.056-.01.056-.013.055-.014.056-.015.055-.016.055-.018.055-.02.055-.02.054-.021.054-.023.054-.025.053-.025.053-.027.053-.027.052-.03.052-.03.051-.03.05-.033.052-.033.05-.034.05-.036.048-.036.048-.037.049-.038.047-.039.046-.04.046-.04.046-.042.045-.042.044-.042.044-.044.043-.044.041-.046.042-.045.04-.046.04-.047.04-.048.038-.047.037-.049.037-.05.035-.048.035-.05.034-.05.033-.051.032-.051.031-.052.03-.051.03-.052.028-.052.027-.053.026-.052.025-.053.024-.053.023-.053.022-.054.02-.053.02-.053.018-.054.017-.053.016-.053.015-.054.013-.053.013-.053.01-.053.01-.053.009-.052.006-.053.006-.052.004-.052.003-.052.002-.05v-.052l-.002-.05-.002-.05-.005-.05-.006-.05-.007-.05-.009-.047-.01-.049-.012-.047-.007-.023-.007-.024-.007-.023-.008-.023-.008-.023-.009-.023-.009-.022-.009-.023-.01-.022-.01-.022-.01-.022-.012-.022-.011-.02-.013-.023-.012-.02-.013-.021-.013-.021-.014-.02-.014-.021-.014-.02-.015-.02-.016-.02-.016-.02-.016-.02-.016-.018-.018-.019-.018-.019-.018-.018-.018-.018-.019-.019-.02-.017-.02-.018-.02-.017-.021-.017-.021-.017-.023-.016-.022-.016-.023-.016-.023-.016-.024-.016-.024-.015-.025-.014-.025-.015-.026-.015-.026-.014-.027-.013-.027-.014-.028-.013-.028-.013-.029-.013-.058-.023-.058-.023-.059-.02-.058-.02-.058-.016-.06-.016-.058-.013-.058-.013-.059-.01-.059-.01-.059-.006-.058-.006-.059-.005-.058-.002-.059-.002h-.058l-.058.002-.058.003-.058.004-.058.006-.057.007-.058.009-.057.01z" fill="#fff"/><path d="M53.198 26.022c-1.399.3-1.326 2.575.169 3.121m20.193-5.539c1.615.102 1.909 2.367.326 3.114" stroke="#fff" stroke-width=".004" stroke-miterlimit="1.5" stroke-linecap="round" stroke-linejoin="round"/><mask id="a" maskUnits="userSpaceOnUse" x="127.075" y="33.664" width="317" height="57" fill="#000"><path fill="#fff" d="M127.075 33.664h317v57h-317z"/><path d="M133.827 87V59.568h-4.752V51.72l4.752-.36v-1.944q0-2.808.648-5.328.72-2.52 2.304-4.392t4.104-2.952 6.12-1.08q2.232 0 4.032.432 1.872.432 3.096.864l-1.944 7.776q-2.016-.72-3.672-.72-1.944 0-3.024 1.224-1.08 1.152-1.08 3.888v2.16h6.408v8.28h-6.408V87zm29.613.864q-2.448 0-4.464-.864-1.944-.792-3.312-2.232a11.7 11.7 0 0 1-2.16-3.456q-.72-1.944-.72-4.248 0-5.616 4.752-8.784t15.336-4.248q-.144-2.376-1.44-3.744-1.224-1.44-4.176-1.44-2.304 0-4.608.864-2.232.864-4.824 2.376l-3.816-6.984a37.8 37.8 0 0 1 7.2-3.384q3.816-1.296 8.064-1.296 6.912 0 10.512 3.96 3.672 3.888 3.672 12.168V87h-8.64l-.72-3.672h-.288q-2.304 2.016-4.824 3.312-2.52 1.224-5.544 1.224m3.6-8.208q1.8 0 3.096-.792t2.736-2.232v-6.264q-5.616.792-7.776 2.304t-2.16 3.6q0 1.728 1.08 2.592 1.152.792 3.024.792m35.16 8.208q-3.528 0-7.272-1.368-3.672-1.368-6.408-3.6l4.752-6.624q2.448 1.872 4.68 2.808t4.536.936q2.376 0 3.456-.792t1.08-2.232q0-.864-.648-1.512-.576-.72-1.656-1.296-1.008-.576-2.304-1.008-1.296-.504-2.664-1.08a34 34 0 0 1-3.312-1.512 14.7 14.7 0 0 1-3.024-2.088 11.1 11.1 0 0 1-2.232-2.952q-.864-1.728-.864-3.96 0-2.448.936-4.536a10.1 10.1 0 0 1 2.808-3.528q1.8-1.44 4.32-2.232 2.52-.864 5.616-.864 4.104 0 7.2 1.44 3.096 1.368 5.4 3.096l-4.752 6.336q-1.944-1.44-3.816-2.232t-3.744-.792q-4.032 0-4.032 2.808 0 .864.576 1.512.576.576 1.512 1.08a34 34 0 0 0 2.232 1.008q1.296.432 2.664.936 1.728.648 3.384 1.512a12.3 12.3 0 0 1 3.096 2.016q1.44 1.224 2.304 3.024.864 1.728.864 4.176t-.936 4.536-2.808 3.672q-1.872 1.512-4.608 2.448-2.736.864-6.336.864m33.036 0q-3.312 0-5.688-1.008-2.304-1.008-3.816-2.808-1.44-1.8-2.16-4.32-.648-2.592-.648-5.688V59.568h-4.896V51.72l5.472-.432 1.224-9.504h8.784v9.504h8.568v8.28h-8.568v14.328q0 3.024 1.224 4.392 1.296 1.296 3.384 1.296.864 0 1.728-.216a11.4 11.4 0 0 0 1.656-.504l1.656 7.704q-1.44.432-3.384.864t-4.536.432m8.905-15.336V65.04h17.712v7.488zm40.322 15.336q-3.744 0-6.984-1.224a16.7 16.7 0 0 1-5.544-3.672q-2.376-2.376-3.744-5.832-1.368-3.528-1.368-7.992t1.512-7.92q1.512-3.528 4.032-5.904a17.6 17.6 0 0 1 5.976-3.6 19.6 19.6 0 0 1 7.056-1.296q3.312 0 5.832 1.08 2.592 1.08 4.608 2.736l-4.968 6.84q-2.52-2.088-4.824-2.088-3.888 0-6.12 2.736t-2.232 7.416 2.232 7.416q2.304 2.736 5.76 2.736 1.728 0 3.312-.72a18.3 18.3 0 0 0 3.096-1.872l4.176 6.912q-2.664 2.304-5.76 3.312-3.096.936-6.048.936M300.36 87V36.528h10.584v12.384l-.504 6.408q2.016-1.8 4.68-3.312 2.664-1.584 6.336-1.584 5.832 0 8.424 3.816 2.664 3.816 2.664 10.584V87H321.96V66.192q0-3.888-1.08-5.328-1.008-1.44-3.312-1.44-2.016 0-3.456.936-1.44.864-3.168 2.52V87zm54.957.864q-3.816 0-7.128-1.224-3.312-1.296-5.76-3.672-2.448-2.448-3.816-5.904t-1.368-7.92q0-4.32 1.44-7.776 1.44-3.528 3.744-5.904 2.376-2.448 5.4-3.744a15.75 15.75 0 0 1 6.264-1.296q3.816 0 6.624 1.296 2.88 1.296 4.752 3.6 1.944 2.304 2.88 5.472.936 3.096.936 6.768 0 1.44-.144 2.736t-.288 1.944h-21.384q.72 3.888 3.168 5.76 2.52 1.8 6.12 1.8 3.816 0 7.704-2.376l3.528 6.408q-2.736 1.872-6.12 2.952-3.312 1.08-6.552 1.08m-7.92-22.608h12.888q0-3.024-1.368-4.896t-4.608-1.872q-2.52 0-4.464 1.656-1.872 1.656-2.448 5.112m42.594 22.608q-3.744 0-6.984-1.224a16.7 16.7 0 0 1-5.544-3.672q-2.376-2.376-3.744-5.832-1.368-3.528-1.368-7.992t1.512-7.92q1.512-3.528 4.032-5.904a17.6 17.6 0 0 1 5.976-3.6 19.6 19.6 0 0 1 7.056-1.296q3.312 0 5.832 1.08 2.592 1.08 4.608 2.736l-4.968 6.84q-2.52-2.088-4.824-2.088-3.888 0-6.12 2.736t-2.232 7.416 2.232 7.416q2.304 2.736 5.76 2.736 1.728 0 3.312-.72a18.3 18.3 0 0 0 3.096-1.872l4.176 6.912q-2.664 2.304-5.76 3.312-3.096.936-6.048.936M405.888 87V36.528h10.296v28.944h.288l11.304-14.184h11.52l-12.528 14.688L440.232 87h-11.448l-8.064-13.896-4.536 5.112V87z"/></mask><path d="M133.827 87V59.568h-4.752V51.72l4.752-.36v-1.944q0-2.808.648-5.328.72-2.52 2.304-4.392t4.104-2.952 6.12-1.08q2.232 0 4.032.432 1.872.432 3.096.864l-1.944 7.776q-2.016-.72-3.672-.72-1.944 0-3.024 1.224-1.08 1.152-1.08 3.888v2.16h6.408v8.28h-6.408V87zm29.613.864q-2.448 0-4.464-.864-1.944-.792-3.312-2.232a11.7 11.7 0 0 1-2.16-3.456q-.72-1.944-.72-4.248 0-5.616 4.752-8.784t15.336-4.248q-.144-2.376-1.44-3.744-1.224-1.44-4.176-1.44-2.304 0-4.608.864-2.232.864-4.824 2.376l-3.816-6.984a37.8 37.8 0 0 1 7.2-3.384q3.816-1.296 8.064-1.296 6.912 0 10.512 3.96 3.672 3.888 3.672 12.168V87h-8.64l-.72-3.672h-.288q-2.304 2.016-4.824 3.312-2.52 1.224-5.544 1.224m3.6-8.208q1.8 0 3.096-.792t2.736-2.232v-6.264q-5.616.792-7.776 2.304t-2.16 3.6q0 1.728 1.08 2.592 1.152.792 3.024.792m35.16 8.208q-3.528 0-7.272-1.368-3.672-1.368-6.408-3.6l4.752-6.624q2.448 1.872 4.68 2.808t4.536.936q2.376 0 3.456-.792t1.08-2.232q0-.864-.648-1.512-.576-.72-1.656-1.296-1.008-.576-2.304-1.008-1.296-.504-2.664-1.08a34 34 0 0 1-3.312-1.512 14.7 14.7 0 0 1-3.024-2.088 11.1 11.1 0 0 1-2.232-2.952q-.864-1.728-.864-3.96 0-2.448.936-4.536a10.1 10.1 0 0 1 2.808-3.528q1.8-1.44 4.32-2.232 2.52-.864 5.616-.864 4.104 0 7.2 1.44 3.096 1.368 5.4 3.096l-4.752 6.336q-1.944-1.44-3.816-2.232t-3.744-.792q-4.032 0-4.032 2.808 0 .864.576 1.512.576.576 1.512 1.08a34 34 0 0 0 2.232 1.008q1.296.432 2.664.936 1.728.648 3.384 1.512a12.3 12.3 0 0 1 3.096 2.016q1.44 1.224 2.304 3.024.864 1.728.864 4.176t-.936 4.536-2.808 3.672q-1.872 1.512-4.608 2.448-2.736.864-6.336.864m33.036 0q-3.312 0-5.688-1.008-2.304-1.008-3.816-2.808-1.44-1.8-2.16-4.32-.648-2.592-.648-5.688V59.568h-4.896V51.72l5.472-.432 1.224-9.504h8.784v9.504h8.568v8.28h-8.568v14.328q0 3.024 1.224 4.392 1.296 1.296 3.384 1.296.864 0 1.728-.216a11.4 11.4 0 0 0 1.656-.504l1.656 7.704q-1.44.432-3.384.864t-4.536.432m8.905-15.336V65.04h17.712v7.488zm40.322 15.336q-3.744 0-6.984-1.224a16.7 16.7 0 0 1-5.544-3.672q-2.376-2.376-3.744-5.832-1.368-3.528-1.368-7.992t1.512-7.92q1.512-3.528 4.032-5.904a17.6 17.6 0 0 1 5.976-3.6 19.6 19.6 0 0 1 7.056-1.296q3.312 0 5.832 1.08 2.592 1.08 4.608 2.736l-4.968 6.84q-2.52-2.088-4.824-2.088-3.888 0-6.12 2.736t-2.232 7.416 2.232 7.416q2.304 2.736 5.76 2.736 1.728 0 3.312-.72a18.3 18.3 0 0 0 3.096-1.872l4.176 6.912q-2.664 2.304-5.76 3.312-3.096.936-6.048.936M300.36 87V36.528h10.584v12.384l-.504 6.408q2.016-1.8 4.68-3.312 2.664-1.584 6.336-1.584 5.832 0 8.424 3.816 2.664 3.816 2.664 10.584V87H321.96V66.192q0-3.888-1.08-5.328-1.008-1.44-3.312-1.44-2.016 0-3.456.936-1.44.864-3.168 2.52V87zm54.957.864q-3.816 0-7.128-1.224-3.312-1.296-5.76-3.672-2.448-2.448-3.816-5.904t-1.368-7.92q0-4.32 1.44-7.776 1.44-3.528 3.744-5.904 2.376-2.448 5.4-3.744a15.75 15.75 0 0 1 6.264-1.296q3.816 0 6.624 1.296 2.88 1.296 4.752 3.6 1.944 2.304 2.88 5.472.936 3.096.936 6.768 0 1.44-.144 2.736t-.288 1.944h-21.384q.72 3.888 3.168 5.76 2.52 1.8 6.12 1.8 3.816 0 7.704-2.376l3.528 6.408q-2.736 1.872-6.12 2.952-3.312 1.08-6.552 1.08m-7.92-22.608h12.888q0-3.024-1.368-4.896t-4.608-1.872q-2.52 0-4.464 1.656-1.872 1.656-2.448 5.112m42.594 22.608q-3.744 0-6.984-1.224a16.7 16.7 0 0 1-5.544-3.672q-2.376-2.376-3.744-5.832-1.368-3.528-1.368-7.992t1.512-7.92q1.512-3.528 4.032-5.904a17.6 17.6 0 0 1 5.976-3.6 19.6 19.6 0 0 1 7.056-1.296q3.312 0 5.832 1.08 2.592 1.08 4.608 2.736l-4.968 6.84q-2.52-2.088-4.824-2.088-3.888 0-6.12 2.736t-2.232 7.416 2.232 7.416q2.304 2.736 5.76 2.736 1.728 0 3.312-.72a18.3 18.3 0 0 0 3.096-1.872l4.176 6.912q-2.664 2.304-5.76 3.312-3.096.936-6.048.936M405.888 87V36.528h10.296v28.944h.288l11.304-14.184h11.52l-12.528 14.688L440.232 87h-11.448l-8.064-13.896-4.536 5.112V87z" fill="#000"/><path d="M133.827 87V59.568h-4.752V51.72l4.752-.36v-1.944q0-2.808.648-5.328.72-2.52 2.304-4.392t4.104-2.952 6.12-1.08q2.232 0 4.032.432 1.872.432 3.096.864l-1.944 7.776q-2.016-.72-3.672-.72-1.944 0-3.024 1.224-1.08 1.152-1.08 3.888v2.16h6.408v8.28h-6.408V87zm29.613.864q-2.448 0-4.464-.864-1.944-.792-3.312-2.232a11.7 11.7 0 0 1-2.16-3.456q-.72-1.944-.72-4.248 0-5.616 4.752-8.784t15.336-4.248q-.144-2.376-1.44-3.744-1.224-1.44-4.176-1.44-2.304 0-4.608.864-2.232.864-4.824 2.376l-3.816-6.984a37.8 37.8 0 0 1 7.2-3.384q3.816-1.296 8.064-1.296 6.912 0 10.512 3.96 3.672 3.888 3.672 12.168V87h-8.64l-.72-3.672h-.288q-2.304 2.016-4.824 3.312-2.52 1.224-5.544 1.224Zm3.6-8.208q1.8 0 3.096-.792t2.736-2.232v-6.264q-5.616.792-7.776 2.304t-2.16 3.6q0 1.728 1.08 2.592 1.152.792 3.024.792Zm35.16 8.208q-3.528 0-7.272-1.368-3.672-1.368-6.408-3.6l4.752-6.624q2.448 1.872 4.68 2.808t4.536.936q2.376 0 3.456-.792t1.08-2.232q0-.864-.648-1.512-.576-.72-1.656-1.296-1.008-.576-2.304-1.008-1.296-.504-2.664-1.08a34 34 0 0 1-3.312-1.512 14.7 14.7 0 0 1-3.024-2.088 11.1 11.1 0 0 1-2.232-2.952q-.864-1.728-.864-3.96 0-2.448.936-4.536a10.1 10.1 0 0 1 2.808-3.528q1.8-1.44 4.32-2.232 2.52-.864 5.616-.864 4.104 0 7.2 1.44 3.096 1.368 5.4 3.096l-4.752 6.336q-1.944-1.44-3.816-2.232t-3.744-.792q-4.032 0-4.032 2.808 0 .864.576 1.512.576.576 1.512 1.08a34 34 0 0 0 2.232 1.008q1.296.432 2.664.936 1.728.648 3.384 1.512a12.3 12.3 0 0 1 3.096 2.016q1.44 1.224 2.304 3.024.864 1.728.864 4.176t-.936 4.536-2.808 3.672q-1.872 1.512-4.608 2.448-2.736.864-6.336.864Zm33.036 0q-3.312 0-5.688-1.008-2.304-1.008-3.816-2.808-1.44-1.8-2.16-4.32-.648-2.592-.648-5.688V59.568h-4.896V51.72l5.472-.432 1.224-9.504h8.784v9.504h8.568v8.28h-8.568v14.328q0 3.024 1.224 4.392 1.296 1.296 3.384 1.296.864 0 1.728-.216a11.4 11.4 0 0 0 1.656-.504l1.656 7.704q-1.44.432-3.384.864t-4.536.432Zm8.905-15.336V65.04h17.712v7.488zm40.322 15.336q-3.744 0-6.984-1.224a16.7 16.7 0 0 1-5.544-3.672q-2.376-2.376-3.744-5.832-1.368-3.528-1.368-7.992t1.512-7.92q1.512-3.528 4.032-5.904a17.6 17.6 0 0 1 5.976-3.6 19.6 19.6 0 0 1 7.056-1.296q3.312 0 5.832 1.08 2.592 1.08 4.608 2.736l-4.968 6.84q-2.52-2.088-4.824-2.088-3.888 0-6.12 2.736t-2.232 7.416 2.232 7.416q2.304 2.736 5.76 2.736 1.728 0 3.312-.72a18.3 18.3 0 0 0 3.096-1.872l4.176 6.912q-2.664 2.304-5.76 3.312-3.096.936-6.048.936ZM300.36 87V36.528h10.584v12.384l-.504 6.408q2.016-1.8 4.68-3.312 2.664-1.584 6.336-1.584 5.832 0 8.424 3.816 2.664 3.816 2.664 10.584V87H321.96V66.192q0-3.888-1.08-5.328-1.008-1.44-3.312-1.44-2.016 0-3.456.936-1.44.864-3.168 2.52V87zm54.957.864q-3.816 0-7.128-1.224-3.312-1.296-5.76-3.672-2.448-2.448-3.816-5.904t-1.368-7.92q0-4.32 1.44-7.776 1.44-3.528 3.744-5.904 2.376-2.448 5.4-3.744a15.75 15.75 0 0 1 6.264-1.296q3.816 0 6.624 1.296 2.88 1.296 4.752 3.6 1.944 2.304 2.88 5.472.936 3.096.936 6.768 0 1.44-.144 2.736t-.288 1.944h-21.384q.72 3.888 3.168 5.76 2.52 1.8 6.12 1.8 3.816 0 7.704-2.376l3.528 6.408q-2.736 1.872-6.12 2.952-3.312 1.08-6.552 1.08Zm-7.92-22.608h12.888q0-3.024-1.368-4.896t-4.608-1.872q-2.52 0-4.464 1.656-1.872 1.656-2.448 5.112Zm42.594 22.608q-3.744 0-6.984-1.224a16.7 16.7 0 0 1-5.544-3.672q-2.376-2.376-3.744-5.832-1.368-3.528-1.368-7.992t1.512-7.92q1.512-3.528 4.032-5.904a17.6 17.6 0 0 1 5.976-3.6 19.6 19.6 0 0 1 7.056-1.296q3.312 0 5.832 1.08 2.592 1.08 4.608 2.736l-4.968 6.84q-2.52-2.088-4.824-2.088-3.888 0-6.12 2.736t-2.232 7.416 2.232 7.416q2.304 2.736 5.76 2.736 1.728 0 3.312-.72a18.3 18.3 0 0 0 3.096-1.872l4.176 6.912q-2.664 2.304-5.76 3.312-3.096.936-6.048.936ZM405.888 87V36.528h10.296v28.944h.288l11.304-14.184h11.52l-12.528 14.688L440.232 87h-11.448l-8.064-13.896-4.536 5.112V87z" stroke="#fff" stroke-opacity=".85" stroke-width="4" mask="url(#a)"/></svg>