<svg width="111" height="90" fill="none" xmlns="http://www.w3.org/2000/svg"><path fill-rule="evenodd" clip-rule="evenodd" d="m64.103 12.799 4.92-8.886a1.856 1.856 0 0 1 2.522-.727l35.528 19.564a1.843 1.843 0 0 1 .724 2.504l-6.51 11.76a1.86 1.86 0 0 1-2.524.728l-12.068-6.646L64.54 71.113a1.86 1.86 0 0 1-2.523.728l-8.134-4.48a1.85 1.85 0 0 1-.727-2.516l.745-1.346c-3.422 1.27-4.508.11-5.216-2.572.259 4.712-1.23 8.816-4.639 12.25 5.931-2.293 14.735 6.01 12.134 7.424-.854.464-1.806.837-3.108.88.247.593.108 1.047-.228 1.43-2.93 1.69-11.941 3.202-26.897 4.538-.51.046-.995-.23-1.215-.69l-4.634-9.701C11.49 75.138 5.717 66.165 3.832 52.072c-2.585-17.453.568-30.13 9.731-32.01 4.223-.949 8.471 2.227 8.785 8.32.387 7.493-5.227 7.24-5.125 6.363.208-1.786.925 12.449 4.97 5.948 4.765-7.66 12.596-13.305 23.432-15.767-4.75-.759-3.898-10.045 1.705-8.632 1.466-6.513 12.8-8.477 16.773-3.495" fill="#fff"/><path fill-rule="evenodd" clip-rule="evenodd" d="m69.894.06.118-.017.117-.014.118-.012.118-.008.117-.006.118-.002h.118l.117.003.118.006.117.009.117.011.116.015.116.017.116.02.116.023.114.026.115.029.113.03.113.035.112.037.112.04.11.042.11.046.108.048.108.05.106.054.09.048 35.56 19.582.088.05.102.061.1.064.1.066.096.068.094.07.093.073.091.075.09.077.086.078.085.082.082.083.081.085.08.086.075.089.074.09.072.092.07.095.068.096.065.097.062.1.061.1.057.102.056.104.053.105.051.106.047.108.046.11.042.11.04.112.037.112.035.114.031.114.03.116.024.116.023.116.021.117.017.117.013.116.012.117.008.117.006.118.002.117v.117l-.003.117-.006.117-.009.116-.012.117-.014.116-.018.116-.02.116-.023.114-.026.114-.029.115-.03.112-.035.112-.037.112-.04.111-.043.11-.045.11-.048.108-.052.107-.053.106-.048.09-6.528 11.792-.05.087-.062.103-.064.1-.066.099-.069.096-.07.095-.074.093-.075.09-.078.09-.079.087-.08.085-.085.083-.085.081-.087.078-.089.077-.09.074-.094.073-.095.069-.096.067-.097.065-.1.063-.1.06-.104.059-.104.055-.105.053-.107.05-.109.049-.109.045-.11.043-.113.04-.114.037-.114.034-.116.032-.115.029-.117.026-.116.023-.117.02-.117.017-.118.014-.118.012-.117.008-.118.005-.118.003h-.117l-.118-.003-.117-.006-.117-.009-.117-.011-.117-.015-.116-.017-.116-.02-.115-.023-.115-.026-.114-.029-.114-.03-.113-.035-.112-.037-.11-.04-.112-.043-.109-.044-.109-.049-.107-.05-.107-.054-.089-.048-9.493-5.227-20.73 37.446-.052.09-.063.105-.066.103-.068.101-.07.099-.074.096-.075.095-.077.093-.08.09-.08.088-.083.086-.085.084-.087.08-.089.08-.09.076-.092.074-.094.071-.094.07-.097.066-.097.064-.1.061-.1.06-.101.055-.102.055-.104.05-.105.05-.106.046-.107.044-.107.04-.11.039-.109.036-.11.033-.11.03-.112.029-.113.025-.113.022-.114.02-.114.018-.115.014-.115.012-.116.009-.115.006-.117.004h-.116l-.117-.002-.117-.005-.117-.008-.117-.01-.118-.014-.116-.017-.118-.02-.116-.022-.117-.025-.116-.029-.116-.03-.115-.035-.114-.037-.114-.04-.113-.044-.113-.046-.111-.049-.111-.052-.11-.055-.091-.05-8.167-4.496-.09-.052-.105-.063-.104-.065-.1-.068-.1-.07-.097-.073-.095-.075-.092-.077-.091-.079-.088-.08-.086-.084-.084-.084-.081-.087-.079-.089-.076-.09-.074-.091-.072-.093-.069-.095-.066-.096-.064-.098-.062-.098-.016-.027-.004.012-.04.115-.043.116-.043.115-.043.115-.045.115-.045.114-.046.114-.046.114-.048.113-.048.113-.05.113-.05.112-.05.113-.052.112-.052.112-.053.111-.054.111-.055.11-.052.104.023.006.096.03.096.03.094.03.095.032.095.032.094.032.094.033.093.033.093.035.092.034.093.036.092.036.092.036.09.037.092.037.091.038.09.038.09.04.09.039.09.04.088.04.09.041.087.04.088.043.088.042.087.042.087.043.087.044.086.044.086.044.085.045.085.045.085.045.085.046.087.048.164.091.165.096.164.096.163.097.16.1.16.1.158.102.156.102.155.104.153.105.151.106.15.106.148.108.147.11.144.109.143.11.141.112.14.112.137.113.136.114.134.115.132.115.13.116.129.116.126.118.124.118.123.119.12.119.119.12.117.12.114.121.113.122.11.123.11.123.105.123.105.125.102.126.097.122.053.067.048.065.048.063.048.065.047.065.047.064.046.065.045.066.045.066.044.066.044.067.043.067.042.067.043.068.041.068.041.07.04.069.04.07.039.07.038.071.038.072.037.073.037.073.035.073.035.075.034.076.034.077.033.077.031.078.031.08.03.081.03.082.027.083.028.085.026.086.025.087.023.089.022.09.021.092.02.094.017.096.016.097.014.1.012.101.01.104.008.105.005.107.003.11-.001.112-.003.113-.007.116-.01.117-.014.12-.018.12-.022.123-.026.124-.031.124-.036.126-.04.126-.046.125-.05.126-.056.125-.06.124-.065.122-.07.121-.076.12-.08.114-.083.113-.088.11-.092.105-.095.102-.097.097-.1.093-.104.089-.105.084-.106.08-.107.075-.109.07-.109.066-.095.053-.118.064-.104.055-.107.055-.11.055-.112.054-.114.055-.116.054-.12.053-.122.053-.124.052-.126.05-.13.05-.13.048-.135.047-.136.046-.139.043-.012.004-.052.095-.071.119-.074.114-.074.11-.076.104-.077.1-.077.095-.056.065-.237.247-.265.219-.29.186-.087.05-.107.06-.11.057-.108.057-.111.055-.112.054-.112.053-.114.052-.115.052-.115.05-.118.05-.119.049-.12.048-.121.047-.123.047-.125.047-.125.046-.128.045-.129.046-.13.044-.133.045-.133.044-.136.043-.137.043-.139.043-.14.043-.143.042-.144.042-.146.042-.148.041-.15.041-.15.042-.154.04-.155.041-.157.04-.16.04-.16.04-.163.04-.164.04-.167.04-.168.039-.171.039-.173.04-.174.038-.177.039-.178.038-.18.038-.183.039-.185.038-.186.038-.189.038-.19.038-.192.037-.195.038-.197.037-.199.037-.2.038-.203.037-.205.037-.207.037-.21.037-.21.036-.214.037-.215.036-.217.037-.22.036-.445.072-.453.072-.462.072-.47.071-.48.071-.486.07-.496.07-.504.07-.513.07-.521.07-.53.068-.538.07-.547.067-.555.068-.564.068-.572.068-.581.066-.59.067-.598.067-.606.066-.615.066-.624.066-.632.065-.642.065-.65.065-.657.064-.667.065-.675.064-.684.064-.693.063-.712.064-.067.006-.082.005-.081.003-.08.002h-.082l-.081-.001-.08-.003-.08-.005-.08-.005-.08-.008-.08-.009-.08-.01-.078-.012-.079-.014-.078-.014-.077-.017-.077-.017-.077-.02-.076-.02-.076-.023-.075-.023-.075-.025-.074-.026-.073-.028-.073-.028-.073-.03-.071-.032-.071-.033-.07-.034-.07-.035-.07-.037-.068-.038-.068-.04-.066-.04-.066-.042-.065-.043-.066-.044-.063-.046-.063-.046-.062-.048-.061-.05-.06-.05-.06-.05-.059-.054-.057-.053-.056-.055-.056-.056-.055-.057-.053-.059-.053-.059-.052-.06-.05-.062-.05-.063-.047-.063-.048-.065-.046-.065-.044-.067-.044-.068-.043-.069-.04-.07-.04-.07-.038-.07-.038-.073-.029-.06-4.053-8.486-.1-.032-.117-.036-.115-.038-.116-.04-.116-.039-.115-.04-.115-.041-.114-.042-.114-.042-.114-.044-.114-.044-.113-.045-.112-.045-.113-.046-.112-.048-.112-.047-.112-.049-.11-.049-.112-.05-.11-.05-.11-.052-.11-.053-.11-.053-.108-.053-.11-.055-.108-.055-.108-.055-.107-.057-.108-.057-.107-.059-.106-.058-.107-.06-.105-.06-.106-.06-.105-.062-.105-.063-.104-.063-.104-.063-.104-.064-.103-.066-.103-.065-.102-.067-.102-.066-.102-.068-.101-.069-.101-.07-.1-.07-.1-.07-.1-.07-.1-.073-.098-.072-.099-.073-.098-.074-.098-.074-.097-.075-.097-.076-.096-.077-.096-.077-.096-.077-.096-.079-.094-.079-.094-.08-.095-.08-.094-.08-.093-.082-.093-.082-.092-.083-.092-.083-.092-.084-.09-.085-.092-.085-.09-.086-.09-.087-.09-.087-.089-.088-.089-.088-.088-.089-.088-.089-.087-.09-.087-.09-.087-.093-.087-.091-.085-.093-.085-.093-.086-.094-.084-.094-.084-.094-.084-.096-.084-.096-.083-.097-.082-.097-.082-.097-.082-.099-.081-.099-.081-.099-.08-.1-.081-.1-.08-.102-.08-.101-.078-.103-.078-.102-.078-.103-.078-.105-.077-.104-.077-.105-.076-.105-.076-.106-.076-.107-.075-.107-.075-.108-.075-.108-.073-.11-.074-.109-.073-.109-.073-.11-.072-.112-.072-.111-.072-.112-.071-.112-.071-.114-.07-.113-.07-.114-.07-.115-.069-.115-.069-.116-.068-.116-.068-.117-.067-.117-.068-.118-.067-.118-.066-.119-.066-.12-.065-.12-.066-.12-.065-.12-.064-.121-.064-.122-.063-.123-.064-.123-.063-.123-.062-.124-.062-.125-.062-.124-.061-.126-.06-.126-.061-.126-.06-.127-.06-.127-.06-.128-.058-.129-.06-.128-.057-.13-.058-.13-.057-.13-.057-.13-.057-.132-.056-.132-.056-.133-.056-.132-.054-.134-.055-.134-.054-.134-.055-.135-.053-.135-.053-.136-.053-.136-.052-.137-.052-.137-.051-.137-.052-.139-.05-.138-.051-.14-.05-.139-.05-.14-.05-.14-.048-.142-.049-.142-.048-.141-.048-.143-.047-.143-.047-.143-.047-.144-.046-.144L2.96 62l-.046-.146-.045-.145-.045-.147-.044-.146-.044-.148-.044-.147-.043-.148-.043-.149-.042-.15-.042-.148-.042-.15-.041-.15-.041-.152-.04-.151-.041-.152-.04-.153-.04-.152-.039-.154-.038-.154-.038-.154-.038-.154-.038-.155-.037-.156-.037-.156-.037-.157-.036-.156-.035-.158-.036-.157-.035-.159-.034-.159-.034-.159-.035-.16-.033-.16-.033-.16-.033-.162-.032-.16-.032-.163-.031-.162-.031-.163-.031-.163-.03-.164-.03-.164-.03-.165-.03-.165-.029-.166-.028-.166-.029-.166-.027-.167-.028-.167-.027-.168L1.12 54l-.026-.17-.051-.338-.05-.34-.049-.342-.043-.322-.029-.192-.03-.21-.03-.21-.03-.21-.028-.209-.028-.209-.028-.208-.027-.208-.027-.207-.026-.207-.026-.207-.025-.206-.024-.206-.024-.205-.024-.205-.023-.205-.022-.203-.022-.204-.021-.203-.021-.203-.02-.202-.02-.202-.019-.201-.019-.201-.018-.2-.017-.2-.017-.2-.017-.2-.015-.198-.016-.198-.014-.198-.015-.197-.014-.197-.013-.196-.013-.197-.012-.195-.011-.194-.01-.195-.011-.194-.01-.194-.01-.192-.008-.193-.008-.192-.008-.192-.007-.191-.007-.191-.006-.19-.005-.19-.005-.189-.005-.189-.004-.188-.003-.188-.002-.187-.002-.187-.002-.186v-.185L0 41.196v-.369l.002-.184.001-.183.002-.182.003-.183.004-.182.004-.18.004-.18.005-.181.006-.18.006-.179.007-.178.008-.179.008-.177.008-.177.009-.177.01-.176.01-.175.011-.175.011-.174.012-.174.013-.173.013-.173.013-.173.015-.171.015-.171.015-.171.016-.17.017-.17.017-.169.017-.168.019-.168.019-.167.019-.167.02-.167.021-.165.021-.165.022-.165.023-.164.023-.163.023-.164.025-.162.025-.162.025-.16.026-.162.027-.16.027-.16.028-.158.028-.159.03-.157.03-.158.03-.156.03-.156.032-.156.032-.155.033-.154.034-.154.033-.153.035-.153.036-.152.035-.151.037-.151.037-.15.038-.15.038-.15.04-.148.04-.148.04-.147.04-.147.043-.146.042-.145.043-.145.043-.144.045-.144.045-.143.046-.142.046-.143.047-.14.048-.141.048-.14.049-.14.05-.138.05-.138.051-.138.052-.136.052-.137.054-.135.053-.135.055-.135.055-.133.056-.133.057-.132.058-.132.058-.13.059-.132.059-.13.06-.128.061-.129.062-.127.063-.128.063-.126.064-.126.065-.125.066-.124.066-.123.067-.123.068-.123.069-.12.07-.122.07-.12.07-.119.072-.118.073-.118.072-.118.074-.116.076-.116.075-.115.076-.114.078-.113.078-.113.079-.111.08-.112.08-.11.082-.109.082-.109.083-.107.084-.108.084-.106.085-.105.087-.105.087-.103.088-.103.089-.102.09-.101.09-.1.091-.1.092-.098.093-.098.094-.096.095-.096.095-.095.097-.094.097-.092.098-.093.099-.09.1-.09.1-.09.102-.087.102-.087.103-.086.103-.085.105-.084.106-.083.106-.082.107-.081.108-.08.109-.078.11-.078.11-.076.11-.076.113-.074.112-.073.114-.072.114-.07.115-.07.116-.069.117-.067.117-.066.118-.065.118-.064.12-.063.12-.062.121-.06.122-.059.122-.058.123-.056.123-.055.125-.055.125-.052.125-.052.126-.05.127-.05.127-.047.129-.047.128-.045.13-.044.13-.043.13-.041.131-.04.132-.039.132-.038.133-.036.133-.035.133-.034.134-.032.136-.031.135-.03.112-.024.11-.024.142-.029.142-.026.141-.024.142-.022.142-.02.142-.018.143-.016.142-.014.142-.012.143-.01.142-.007.142-.005.143-.003.142-.001.142.001.142.003.142.005.14.008.142.01.141.011.14.014.141.016.14.018.14.02.14.022.139.024.138.027.139.028.137.03.137.033.137.034.136.037.136.038.134.04.135.043.133.045.133.046.132.05.132.05.131.052.13.054.13.057.128.058.128.06.126.062.127.064.125.066.124.068.123.07.122.07.122.074.12.075.12.077.118.079.117.08.117.083.115.083.114.086.113.088.111.089.111.09.11.093.108.094.107.096.106.098.104.099.104.1.102.103.101.103.1.106.098.107.097.109.095.11.095.111.093.113.091.115.09.116.09.118.087.118.086.12.084.122.084.123.081.125.08.126.08.127.076.128.076.13.075.131.072.133.072.134.069.135.068.136.067.137.065.14.063.14.063.14.06.143.059.143.056.145.056.146.054.147.053.148.05.15.05.15.047.151.046.153.044.153.042.155.041.156.039.157.037.158.036.158.034.16.033.161.03.162.03.163.027.164.025.165.024.165.022.167.02.167.019.17.017.169.015.17.013.171.012.172.01.17.005.108.004.104.004.104.004.103.002.102.002.103.001.101v.301l-.001.1-.002.098-.003.098-.003.098-.004.098-.004.096-.005.096-.005.096-.007.096-.006.094-.008.094-.008.094-.008.093-.01.093-.01.092-.01.092-.012.09-.011.092-.013.09-.013.09-.014.09-.014.088-.015.088-.015.088-.016.087-.017.087-.017.086-.018.086-.018.085-.02.085-.02.085-.02.084-.02.083-.022.083-.022.083-.023.081-.023.082-.012.042.16-.159.168-.162.169-.162.17-.161.17-.16.173-.16.173-.158.175-.157.176-.156.177-.155.178-.154.18-.154.18-.152.182-.15.183-.15.184-.15.186-.148.186-.148.188-.146.189-.145.19-.144.19-.143.193-.142.194-.14.195-.14.195-.139.198-.138.197-.137.2-.135.2-.134.202-.134.203-.133.204-.13.205-.13.206-.13.207-.128.209-.127.21-.126.21-.124.212-.124.213-.123.215-.121.215-.12.216-.119.218-.118.219-.117.22-.116.22-.114.222-.114.224-.112.224-.112.225-.11.227-.108.227-.108.23-.107.23-.105.23-.105.232-.103.233-.101.234-.101.236-.1.237-.098.237-.097.238-.097.24-.094.241-.094.242-.093.243-.091.244-.09.245-.089.247-.088.247-.086.247-.085-.002-.004-.027-.078-.026-.078-.025-.079-.025-.078-.023-.078-.023-.079-.022-.079-.02-.079-.02-.079-.02-.079-.019-.079-.018-.08-.017-.078-.016-.08-.016-.079-.014-.08-.014-.079-.013-.08-.012-.08-.012-.079-.01-.08-.011-.079-.01-.08-.008-.08-.008-.079-.006-.08-.007-.08-.005-.08-.005-.079-.004-.08-.004-.08-.003-.08-.002-.08-.001-.079v-.24l.002-.079.002-.08.003-.079.004-.08.005-.08.005-.079.006-.08.006-.079.008-.08.007-.078.01-.08.009-.08.01-.078.01-.08.013-.079.012-.078.014-.08.013-.079.015-.078.015-.079.016-.078.017-.08.018-.078.018-.077.019-.08.02-.077.02-.078.021-.078.023-.078.023-.077.024-.078.024-.078.025-.076.026-.078.027-.077.028-.077.029-.077.03-.075.03-.077.03-.076.032-.076.033-.076.034-.075.034-.075.035-.076.037-.075.037-.074.038-.075.04-.074.04-.074.04-.073.042-.073.043-.074.043-.072.045-.073.045-.072.048-.071.047-.072.049-.071.049-.07.05-.07.052-.07.053-.07.054-.068.055-.068.056-.069.057-.067.058-.067.059-.066.06-.066.061-.065.062-.064.064-.064.064-.063.066-.062.066-.062.068-.061.07-.06.069-.06.071-.058.072-.058.074-.057.074-.056.075-.055.077-.054.078-.053.078-.053.08-.05.08-.05.082-.05.082-.047.084-.047.085-.045.085-.045.086-.042.088-.042.088-.04.09-.04.089-.038.091-.036.092-.036.092-.033.092-.032.094-.031.095-.03.095-.028.095-.026.097-.025.096-.024.098-.022.097-.02.099-.02.098-.017.1-.016.099-.014.03-.004.006-.012.053-.097.055-.095.055-.095.056-.094.057-.092.058-.093.06-.09.06-.091.06-.09.062-.09.063-.087.063-.088.065-.086.065-.086.066-.085.067-.084.067-.083.068-.082.069-.082.07-.08.07-.08.072-.08.072-.078.072-.078.074-.076.073-.076.075-.075.075-.074.076-.074.077-.072.077-.072.078-.07.078-.071.079-.07.08-.069.079-.068.08-.066.081-.067.082-.065.082-.065.083-.064.083-.063.084-.063.083-.062.085-.06.085-.06.086-.06.085-.059.087-.058.086-.057.088-.056.087-.056.088-.055.088-.054.089-.054.09-.053.088-.052.09-.052.09-.05.091-.05.091-.05.091-.048.092-.048.092-.047.092-.047.093-.045.093-.045.093-.045.094-.044.093-.043.095-.042.094-.042.094-.04.095-.041.096-.04.095-.039.096-.038.096-.038.096-.037.097-.036.096-.036.098-.035.096-.034.098-.034.097-.032.099-.033.097-.032.099-.03.098-.03.098-.031.1-.03.098-.027.1-.028.1-.027.098-.027.1-.026.1-.024.1-.025.1-.024.1-.023.101-.023.1-.022.101-.02.101-.021.101-.02.101-.02.102-.018.101-.018.102-.018.101-.016.102-.017.101-.015.102-.015.102-.014.102-.013.102-.013.102-.012.102-.011.103-.011.102-.01.103-.01.102-.009.103-.008.102-.008.103-.006.102-.007.103-.005.103-.005.102-.004.103-.004.103-.002.102-.003h.104l.102-.002h.206l.102.002.103.001.103.003.102.004.103.004.102.005.103.005.103.006.102.007.103.007.102.008.103.01.102.01.102.01.102.01.102.012.102.013.102.014.102.013.102.015.101.016.101.016.102.017.101.018.101.018.102.02.1.02.101.02.1.022.101.023.1.023.1.024.1.025.1.025.1.027.1.027.1.028.098.029.1.03.098.03.098.031.098.032.099.034.097.033.098.035.097.036.097.036.097.038.097.038.096.04.096.04.096.04.095.042.095.043.095.044.094.044.094.046.094.047.009.004L66.44 2.47l.05-.088.061-.102.065-.1.066-.098.068-.097.071-.095.073-.093.075-.091.078-.09.079-.086.081-.085.084-.083.085-.08.088-.08.089-.076.09-.074.093-.072.095-.07.096-.068.098-.064.099-.063.101-.061.103-.058.104-.055.106-.053.107-.051.108-.048.11-.045.11-.043.113-.04.113-.037.115-.035.115-.031.116-.029.116-.026.117-.023zm.374 2.935-.046.01-.044.011-.045.012-.044.014-.044.014-.043.015-.043.016-.042.018-.041.018-.042.02-.04.02-.04.022-.04.022-.039.024-.038.024-.038.025-.037.026-.037.027-.035.028-.035.028-.035.03-.033.03-.033.031-.032.032-.032.033-.03.033-.03.034-.029.036-.028.036-.028.036-.026.037-.025.038-.025.039-.024.039-.022.04-4.92 8.886-.047-.058-.047-.057-.049-.057-.049-.057-.049-.055-.05-.055-.05-.054-.052-.054-.052-.053-.053-.053-.053-.051-.054-.051-.055-.05-.055-.05-.056-.05-.056-.049-.056-.048-.058-.047-.058-.047-.058-.046-.06-.046-.059-.044-.06-.045-.06-.043-.062-.043-.062-.043-.062-.042-.063-.04-.063-.042-.064-.04-.064-.039-.065-.038-.065-.038-.066-.038-.066-.037-.066-.037-.067-.036-.068-.034-.068-.035-.068-.034-.07-.033-.068-.033-.07-.032-.07-.032-.07-.03-.071-.03-.071-.03-.072-.03-.072-.028-.072-.028-.073-.028-.073-.026-.074-.026-.073-.026-.075-.025-.074-.024-.075-.025-.075-.023-.075-.022-.076-.022-.076-.022-.076-.02-.077-.02-.077-.02-.078-.02-.077-.019-.078-.018-.078-.017-.078-.017-.079-.016-.078-.016-.08-.015-.078-.014-.08-.014-.08-.014-.08-.013-.08-.012-.08-.011-.08-.012-.08-.01-.082-.01-.08-.01-.082-.008-.081-.009-.082-.007-.081-.007-.082-.007-.082-.006-.082-.005-.082-.005-.083-.004-.082-.004-.083-.003-.082-.003-.083-.003h-.083l-.083-.002h-.249l-.083.001-.083.002-.084.002-.083.003-.083.004-.084.004-.083.004-.083.005-.084.006-.083.006-.084.007-.083.007-.083.007-.084.009-.083.009-.084.009-.083.01-.083.01-.083.011-.083.012-.083.012-.083.012-.083.013-.083.014-.083.014-.082.015-.083.015-.082.016-.082.016-.082.017-.082.017-.082.018-.082.019-.082.018-.081.02-.082.02-.08.02-.082.021-.08.021-.081.022-.08.023-.081.023-.08.023-.08.024-.08.025-.079.025-.08.026-.078.026-.079.027-.078.027-.078.027-.078.028-.078.029-.077.029-.077.03-.077.03-.077.03-.076.031-.076.032-.076.033-.075.032-.075.033-.075.033-.074.035-.074.035-.074.035-.074.036-.073.035-.072.037-.072.037-.072.038-.072.038-.07.038-.072.04-.07.04-.07.039-.07.04-.069.041-.068.042-.069.042-.068.042-.067.043-.067.043-.067.044-.065.045-.066.045-.065.045-.065.046-.064.046-.064.047-.063.047-.062.048-.062.048-.062.049-.06.049-.062.05-.06.05-.059.05-.059.05-.059.052-.057.052-.058.052-.056.053-.056.053-.056.054-.055.055-.054.054-.054.055-.053.056-.053.056-.051.056-.052.057-.05.057-.05.058-.05.059-.049.059-.047.058-.048.06-.047.06-.046.061-.045.06-.045.062-.044.062-.043.063-.043.062-.042.064-.04.063-.04.064-.04.065-.04.065-.038.065-.037.066-.037.067-.036.066-.035.067-.034.068-.034.068-.033.069-.032.068-.031.07-.03.07-.03.07-.03.07-.027.072-.028.07-.026.073-.025.072-.025.073-.024.073-.023.074-.021.074-.022.074-.02.075-.02.075-.018.076-.018.076-.065-.016-.065-.015-.065-.014-.064-.013-.064-.013-.063-.01-.063-.011-.062-.01-.062-.008-.062-.008-.06-.006-.061-.006-.06-.005-.06-.004-.06-.003-.058-.002-.059-.002h-.115l-.057.002-.057.002-.056.003-.056.004-.056.004-.054.006-.055.005-.054.008-.054.008-.052.008-.053.01-.053.01-.051.01-.052.012-.05.012-.051.014-.05.013-.05.015-.049.015-.048.017-.049.016-.048.018-.047.018-.047.019-.046.02-.046.02-.046.02-.045.022-.044.022-.045.023-.044.024-.043.023-.043.025-.042.026-.042.026-.042.027-.04.027-.041.028-.04.028-.04.029-.04.03-.038.03-.038.03-.038.031-.038.032-.037.032-.036.034-.036.033-.036.034-.035.034-.035.035-.034.035-.034.037-.033.036-.033.036-.032.038-.032.038-.032.038-.03.038-.031.04-.03.04-.03.04-.03.04-.028.04-.029.042-.027.042-.027.042-.028.042-.026.043-.026.043-.026.044-.024.044-.025.044-.024.044-.024.046-.023.045-.022.045-.023.047-.022.046-.02.046-.022.047-.02.047-.02.048-.02.047-.019.049-.018.047-.018.05-.018.048-.018.049-.016.05-.016.049-.016.05-.015.05-.015.05-.014.05-.014.05-.014.05-.013.052-.012.05-.012.052-.012.052-.01.051-.011.052-.01.052-.01.052-.009.052-.008.052-.009.053-.008.052-.007.052-.006.053-.007.053-.006.053-.005.053-.005.052-.004.053-.004.053-.004.053-.003.053-.002.054-.002.053-.002.053-.001.053v.213l.002.053.002.053.002.054.003.053.003.053.004.053.004.052.005.053.005.053.005.052.007.053.006.052.008.053.007.052.008.052.009.052.009.052.009.052.01.051.01.051.011.052.012.05.012.051.012.051.013.051.014.05.014.05.014.05.015.05.015.05.016.049.017.048.016.05.018.048.017.048.019.048.019.048.019.047.02.047.02.047.021.047.02.046.023.046.022.046.023.045.023.044.023.045.025.044.024.044.026.044.025.043.027.043.026.042.027.042.028.042.028.041.03.04.028.041.03.04.03.04.03.04.032.037.031.039.033.037.032.038.033.037.034.036.034.036.035.035.035.035.035.034.037.034.036.034.037.032.038.033.038.031.039.032.039.03.04.03.04.03.04.029.041.028.042.028.043.027.042.027.044.025.043.026.044.024.045.025.045.023.046.023.046.022.047.022.047.02.048.02.048.02.049.019.05.018.05.017.05.017.05.016.051.015.052.015.053.014.052.013.054.012.054.012.054.01.055.01.055.01-.253.058-.253.06-.25.06-.25.062-.25.063-.247.064-.248.065-.245.066-.245.068-.243.069-.243.07-.24.07-.241.072-.24.074-.237.074-.237.075-.236.077-.235.077-.233.079-.233.08-.231.08-.23.083-.23.083-.228.084-.227.085-.225.087-.225.087-.223.089-.223.09-.222.09-.22.091-.22.093-.217.094-.218.095-.215.096-.215.096-.214.099-.212.099-.212.1-.21.101-.21.102-.207.104-.207.104-.207.105-.204.106-.204.107-.202.109-.202.109-.2.11-.2.112-.198.112-.197.113-.196.114-.195.116-.194.116-.192.117-.192.118-.19.12-.19.12-.188.121-.187.122-.186.123-.184.124-.184.125-.183.126-.182.127-.18.128-.18.129-.177.13-.177.13-.176.132-.175.132-.174.134-.173.134-.171.135-.17.136-.17.138-.168.137-.167.14-.166.14-.165.14-.164.142-.162.142-.161.143-.16.144-.16.146-.158.146-.157.147-.156.147-.155.149-.154.15-.152.15-.152.151-.15.152-.15.153-.147.154-.147.155-.146.155-.145.157-.143.156-.143.159-.141.158-.14.16-.14.16-.138.162-.137.162-.136.163-.134.164-.133.164-.133.165-.131.166-.13.167-.13.168-.128.168-.126.17-.126.17-.125.17-.123.172-.122.173-.122.172-.12.175-.12.174-.117.175-.116.177-.116.177-.115.178-.113.178-.112.179-.047.075-.047.073-.047.072-.046.07-.047.067-.046.066-.045.065-.045.062-.045.06-.044.06-.044.056-.045.055-.043.054-.044.051-.043.05-.042.05-.043.045-.042.046-.042.043-.041.042-.042.04-.041.038-.04.037-.041.035-.04.034-.04.031-.04.03-.04.03-.039.028-.039.025-.038.025-.038.023-.038.02-.038.021-.038.018-.037.018-.037.015-.037.015-.036.012-.036.012-.036.01-.036.008-.035.008-.035.006-.035.005-.035.003-.034.002-.034.001h-.034l-.033-.002-.034-.003-.032-.004-.033-.006-.033-.006-.032-.008-.032-.009-.032-.01-.031-.011-.032-.013-.03-.013-.032-.014-.03-.017-.03-.016-.03-.018-.03-.02-.03-.019-.03-.02-.029-.023-.028-.023-.03-.024-.028-.025-.028-.026-.027-.027-.028-.028-.028-.029-.027-.03-.027-.03-.027-.031-.027-.032-.026-.034-.026-.034-.026-.035-.026-.036-.025-.036-.026-.037-.025-.038-.024-.039-.025-.04-.025-.04-.023-.041-.024-.042-.024-.042-.024-.044-.023-.044-.023-.044-.023-.045-.023-.046-.022-.046-.023-.048-.022-.047-.043-.097-.043-.1-.042-.1-.041-.104-.04-.106-.04-.106-.039-.11-.038-.11-.037-.112-.037-.113-.036-.115-.034-.115-.035-.117-.034-.118-.032-.119-.033-.12-.031-.119-.031-.121-.03-.12-.03-.123-.029-.12-.028-.123-.028-.122-.027-.121-.026-.122-.026-.121-.025-.12-.025-.121-.024-.12-.023-.119-.046-.235-.042-.232-.04-.226-.04-.22-.036-.215-.034-.206-.064-.387-.057-.347-.025-.156-.024-.144-.023-.13-.01-.057-.023-.015-.022-.017-.018-.016-.018-.017-.017-.017-.014-.018-.006-.01-.006-.009-.005-.01-.005-.009-.005-.009-.004-.01-.004-.009-.003-.01-.003-.009-.001-.01-.002-.01-.001-.01-.001-.01v-.02l.001-.01.005-.04.005-.033.006-.027.006-.022.003-.01.002-.007.003-.006.003-.005.004-.004.003-.002h.009l.004.004.003.003.004.006.003.006.004.008.008.018.008.023.007.028.01.032.008.037.009.04.01.045.02.101.01.06.024.016.026.014.028.014.029.013.03.013.033.012.033.012.035.011.036.01.038.01.038.008.04.009.042.007.042.007.044.006.045.004.046.005.047.003.048.002.048.001.05.001h.051l.052-.002.052-.002.054-.003.054-.005.055-.005.055-.007.057-.007.056-.009.058-.01.058-.01.06-.013.058-.013.06-.014.06-.016.06-.017.061-.019.062-.019.061-.02.062-.023.062-.023.063-.025.062-.027.063-.027.063-.03.063-.03.063-.032.063-.033.063-.035.062-.037.063-.038.063-.04.062-.04.063-.044.062-.045.062-.045.062-.049.06-.05.062-.05.06-.054.06-.054.06-.057.06-.058.058-.06.029-.03.029-.032.029-.032.028-.032.029-.033.028-.033.029-.033.027-.034.028-.035.028-.035.028-.035.027-.037.027-.036.027-.037.027-.037.026-.039.026-.038.027-.039.026-.04.025-.04.026-.04.025-.04.025-.042.025-.042.024-.043.025-.043.023-.044.025-.044.023-.045.023-.045.023-.045.023-.047.022-.046.023-.048.021-.048.022-.048.021-.05.021-.049.021-.05.02-.05.02-.052.02-.052.02-.052.02-.053.018-.054.019-.054.018-.054.018-.055.017-.056.018-.057.016-.057.017-.057.016-.058.015-.06.016-.059.015-.06.015-.06.014-.061.014-.062.013-.062.014-.063.012-.064.013-.064.012-.065.011-.066.011-.066.01-.066.011-.068.01-.068.01-.068.008-.07.01-.07.007-.07.008-.071.007-.072.007-.072.006-.074.006-.073.005-.075.005-.075.005-.076.004-.077.003-.077.003-.077.002-.079.003-.079.001-.08.001-.08v-.329l-.002-.084-.003-.084-.002-.086-.003-.086-.004-.087-.004-.087-.008-.143-.01-.14-.01-.14-.013-.14-.014-.138-.015-.136-.016-.137-.018-.134-.02-.134-.02-.132-.022-.132-.023-.13-.024-.13-.026-.127-.027-.127-.029-.126-.03-.125-.03-.123-.032-.123-.034-.121-.034-.12-.036-.12-.037-.117-.038-.117-.039-.116-.04-.114-.042-.114-.043-.112-.043-.11-.046-.11-.046-.11-.047-.107-.048-.106-.05-.105-.05-.104-.05-.102-.053-.102-.054-.1-.054-.1-.056-.097-.056-.097-.058-.095-.058-.095-.059-.093-.06-.091-.062-.092-.062-.089-.063-.088-.064-.087-.064-.085-.066-.085-.067-.083-.067-.082-.068-.08-.07-.08-.069-.078-.07-.078-.073-.075-.072-.075-.073-.073-.073-.072-.075-.07-.075-.07-.076-.067-.077-.067-.077-.065-.079-.064-.078-.063-.08-.062-.08-.06-.08-.059-.082-.058-.082-.056-.083-.055-.083-.054-.084-.052-.084-.05-.085-.05-.086-.049-.086-.047-.087-.045-.087-.045-.088-.043-.088-.04-.089-.042-.088-.038-.09-.037-.09-.037-.09-.034-.092-.034-.091-.032-.092-.03-.092-.03-.092-.027-.093-.027-.094-.025-.093-.023-.094-.023-.094-.02-.095-.02-.095-.018-.096-.017-.095-.015-.096-.013-.096-.013-.096-.01-.097-.01-.097-.008-.096-.006-.098-.006-.097-.004-.097-.002h-.197l-.098.002-.098.004-.098.005-.098.007-.1.008-.097.01-.099.01-.099.013-.099.014-.099.015-.099.017-.099.019-.099.02-.099.021-.106.023-.107.023-.106.024-.106.026-.105.027-.104.027-.104.028-.103.03-.103.03-.102.032-.102.032-.1.033-.101.034-.1.036-.1.036-.098.037-.099.038-.097.039-.098.04-.096.04-.096.042-.096.043-.095.044-.094.045-.095.045-.093.047-.093.047-.092.049-.091.05-.092.05-.09.05-.09.053-.09.053-.09.053-.088.055-.087.056-.088.057-.087.057-.086.06-.086.058-.085.06-.085.062-.084.062-.083.063-.083.064-.083.064-.082.066-.081.067-.08.067-.08.069-.08.069-.08.07-.078.07-.078.073-.078.072-.077.074-.077.074-.076.076-.075.076-.075.077-.074.078-.073.079-.074.079-.073.08-.071.082-.072.082-.071.083-.07.084-.07.084-.07.086-.069.086-.068.088-.068.088-.067.089-.067.09-.066.09-.065.091-.066.092-.064.093-.064.094-.063.095-.063.095-.062.096-.062.098-.062.097-.06.099-.06.1-.06.1-.059.101-.059.102-.057.102-.058.104-.057.104-.056.105-.056.106-.055.107-.055.107-.054.108-.054.11-.053.11-.052.11-.053.11-.051.113-.05.112-.051.114-.05.114-.05.116-.048.115-.049.117-.047.117-.048.118-.046.12-.046.119-.046.12-.045.121-.044.122-.044.122-.044.124-.043.124-.042.125-.042.125-.041.126-.04.127-.04.128-.04.128-.04.13-.038.13-.038.13-.038.132-.037.132-.036.132-.036.134-.035.134-.035.134-.034.136-.034.136-.033.137-.033.138-.032.138-.031.139-.031.14-.03.14-.031.14-.03.142-.028.143-.029.143-.028.144-.026.144-.028.145-.026.146-.026.146-.025.147-.024.148-.024.149-.024.149-.023.15-.022.15-.022.151-.022.152-.02.152-.02.153-.02.153-.02.155-.018.155-.018.155-.018.156-.017.157-.017.157-.016.158-.015.159-.015.159-.015.16-.014.16-.013.162-.013.161-.012.163-.012.163-.012.163-.01.164-.01.165-.01.166-.009.165-.008.167-.009.167-.007.168-.007.168-.006.17-.007.169-.005.17-.005.171-.004.171-.004.172-.003.172-.003.173-.002.174-.002.174v.175l-.002.175v.176l.001.176v.177l.002.178.002.178.003.179.003.179.004.18.004.18.004.18.006.182.006.181.006.183.007.183.007.183.008.184.009.185.008.185.01.185.01.187.01.186.011.187.012.188.012.188.012.19.014.188.013.19.014.19.016.19.014.192.016.192.017.192.017.192.017.193.018.194.018.194.02.195.019.195.02.196.02.196.022.196.021.198.022.197.023.198.023.198.024.2.024.198.025.2.025.2.026.201.026.201.027.202.028.202.028.202.028.203.029.204.03.204.03.204.044.33.047.327.048.326.049.323.025.162.025.16.026.16.026.16.027.16.027.158.027.158.028.158.027.157.029.157.028.157.03.156.029.155.03.155.03.154.03.154.03.154.031.153.032.152.031.152.033.151.032.152.033.15.033.15.034.15.033.149.035.148.034.149.035.147.035.147.035.147.037.146.035.146.037.145.037.144.037.144.038.144.038.143.038.143.038.142.04.142.039.14.04.14.039.141.04.14.041.139.041.138.041.139.042.137.042.137.042.137.043.136.042.135.044.135.043.135.044.134.045.133.044.133.045.132.046.133.045.13.046.132.046.13.047.13.047.13.047.128.048.129.047.127.049.128.048.126.05.127.048.126.05.125.05.124.05.124.05.124.051.123.051.123.052.122.052.121.052.12.052.121.053.12.053.12.054.118.053.119.054.118.055.117.054.116.055.117.056.115.055.115.056.115.056.114.057.113.057.113.057.113.058.111.058.112.058.11.058.111.06.11.058.108.06.11.06.108.06.107.06.107.06.106.062.106.061.105.062.105.062.104.062.104.063.103.062.102.063.103.064.101.064.1.064.1.064.101.065.1.065.098.065.098.066.097.066.097.066.097.067.096.067.095.067.095.067.094.068.094.068.092.069.093.068.092.069.091.07.09.07.091.069.09.07.09.07.087.071.088.071.088.072.086.072.087.072.085.072.085.072.085.074.084.073.083.073.083.074.082.074.082.074.08.075.081.075.08.075.08.076.078.075.078.077.077.076.077.077.077.077.076.077.075.078.074.078.074.078.074.078.073.079.072.08.072.079.07.08.071.079.07.08.07.08.068.081.068.082.067.081.067.082.067.082.065.082.066.082.064.083.064.083.063.084.063.083.062.084.061.084.061.085.06.084.06.086.06.085.058.086.057.086.058.086.057.086.056.087.055.087.055.087.054.088.054.088.053.088.052.088.052.089.051.089.051.09.05.089.05.09.047.09.049.09.047.09.047.091.047.091.045.092.045.092.044.092.044.092.043.092.043.093.041.093.042.093.04.094.04.094.04.094.038.094.039.095.037.095.037.095.036.096.036.096.035.095.034.097.034.096.033.097.032.097.032.097.031.098.03.098.03.098.03.098.028.1.028.098.028.1.027.099.025.1.026.1.025.1.024.1.023.1.023 4.635 9.7.01.022.011.022.011.02.012.021.012.02.012.02.013.02.013.02.013.019.015.019.013.019.015.018.015.018.015.017.015.018.016.017.016.017.016.016.017.016.016.016.017.015.018.015.017.015.018.014.018.014.019.014.019.013.019.013.018.013.02.012.02.012.02.012.02.01.02.011.02.01.02.01.022.01.02.01.022.008.02.009.023.008.021.007.022.008.022.007.022.006.022.006.023.005.023.006.022.005.023.004.023.004.023.003.023.004.024.002.023.002.023.002.024.001h.023l.024.002h.023l.024-.001.024-.001.024-.002.024-.002.696-.062.688-.063.68-.064.67-.063.662-.064.653-.064.645-.065.635-.064.627-.065.619-.065.609-.065.6-.066.592-.066.584-.066.574-.066.566-.067.557-.067.548-.067.54-.067.53-.068.522-.068.513-.068.505-.068.495-.07.487-.068.478-.07.47-.068.46-.07.451-.07.443-.07.434-.071.214-.036.211-.035.21-.035.207-.036.205-.035.203-.036.2-.036.198-.036.196-.036.194-.036.192-.036.19-.036.187-.036.185-.036.183-.036.18-.037.179-.036.176-.037.174-.036.172-.037.17-.036.167-.037.165-.036.163-.037.161-.037.158-.038.157-.037.154-.036.151-.038.15-.037.148-.037.145-.038.143-.037.141-.037.139-.038.136-.038.134-.037.132-.038.13-.038.128-.038.125-.038.123-.038.12-.038.12-.038.116-.038.114-.039.112-.038.11-.038.108-.039.105-.038.103-.039.1-.039.1-.038.096-.04.094-.038.092-.039.09-.039.088-.039.085-.04.083-.038.081-.04.079-.039.076-.039.075-.04.072-.039.07-.04.03-.036.03-.036.028-.037.028-.038.026-.038.024-.039.023-.038.022-.04.02-.04.02-.04.017-.041.016-.042.007-.02.007-.022.007-.02.006-.022.006-.022.006-.021.004-.022.005-.022.004-.023.003-.022.004-.022.003-.023.002-.023.002-.023.002-.023v-.118l-.002-.024-.002-.024-.002-.025-.003-.025-.003-.025-.004-.025-.004-.025-.006-.025-.005-.026-.005-.026-.007-.026-.007-.026-.007-.026-.008-.026-.009-.027-.01-.027-.008-.027-.011-.028-.01-.027-.012-.028.06-.002.061-.003.06-.003.06-.004.058-.003.058-.005.058-.005.057-.005.058-.007.056-.006.056-.007.055-.007.055-.007.055-.009.054-.008.054-.009.053-.009.053-.01.053-.01.052-.01.052-.01.05-.012.052-.011.05-.012.05-.012.05-.013.1-.026.096-.028.096-.028.094-.03.093-.031.093-.032.09-.034.09-.034.09-.036.086-.036.087-.038.085-.038.086-.04.083-.039.083-.04.083-.042.081-.042.081-.043.081-.043.03-.017.029-.018.028-.018.027-.018.025-.02.025-.02.024-.02.023-.02.022-.023.02-.022.02-.023.019-.023.018-.025.017-.024.016-.025.014-.026.014-.026.013-.026.012-.027.011-.028.01-.029.01-.028.008-.03.007-.029.007-.03.005-.03.005-.031.004-.032.002-.032.003-.033v-.1l-.002-.034-.002-.034-.004-.036-.004-.035-.005-.035-.006-.037-.007-.036-.007-.037-.009-.038-.01-.038-.01-.038-.01-.038-.012-.039-.013-.04-.013-.038-.014-.04-.015-.04-.016-.04-.016-.042-.017-.04-.018-.042-.02-.041-.019-.043-.02-.042-.021-.043-.022-.042-.023-.043-.023-.043-.024-.044-.025-.044-.026-.044-.026-.044-.027-.044-.028-.045-.028-.045-.03-.045-.029-.046-.03-.045-.031-.046-.032-.045-.033-.046-.033-.047-.033-.046-.035-.047-.035-.046-.036-.047-.036-.047-.075-.094-.077-.095-.08-.095-.082-.096-.084-.096-.087-.096-.09-.096-.09-.096-.094-.097-.096-.097-.097-.097-.1-.097-.102-.096-.105-.097-.105-.096-.108-.096-.11-.096-.112-.096-.114-.095-.115-.094-.117-.094-.118-.094-.12-.094-.122-.092-.124-.092-.125-.09-.127-.09-.127-.09-.13-.089-.13-.088-.132-.086-.133-.086-.135-.085-.135-.083-.137-.082-.138-.081-.14-.08-.14-.079-.07-.038-.07-.038-.071-.039-.072-.037-.07-.037-.072-.037-.072-.037-.072-.036-.072-.036-.073-.035-.072-.035-.073-.035-.073-.033-.073-.034-.073-.033-.074-.033-.074-.033-.073-.032-.074-.03-.075-.032-.074-.03-.074-.03-.075-.03-.074-.029-.075-.028-.075-.029-.075-.027-.075-.027-.076-.027-.075-.026-.075-.025-.076-.025-.075-.024-.076-.024-.076-.023-.076-.023-.076-.022-.076-.022-.076-.02-.076-.021-.076-.02-.076-.019-.076-.018-.077-.019-.076-.017-.076-.017-.076-.016-.076-.015-.077-.015-.076-.014-.076-.013-.077-.014-.076-.012-.076-.011-.076-.01-.076-.01-.076-.01-.077-.01-.076-.007-.076-.007-.076-.007-.076-.006-.075-.005-.076-.004-.076-.004-.075-.003-.076-.002-.075-.001h-.225l-.075.002-.075.002-.075.004-.074.004-.075.005-.074.006-.074.007-.074.007-.074.008-.074.01-.073.01-.073.01-.073.012-.074.013-.072.013-.073.014-.072.016-.072.016-.072.017-.072.018-.072.019-.071.02-.071.02-.071.022-.07.022-.071.024-.07.024-.07.025-.07.027.08-.08.079-.082.078-.08.077-.082.077-.082.076-.081.075-.082.075-.083.074-.082.073-.083.072-.083.073-.083.07-.084.071-.084.07-.084.069-.084.068-.085.068-.084.067-.086.066-.084.066-.086.064-.086.065-.086.063-.086.063-.087.062-.086.062-.087.06-.087.06-.088.06-.087.058-.088.058-.088.058-.089.056-.088.056-.09.055-.088.055-.09.054-.09.053-.089.053-.09.052-.09.05-.09.051-.091.05-.091.049-.092.048-.091.048-.092.047-.092.047-.092.045-.092.045-.093.045-.093.043-.093.043-.093.043-.094.041-.094.04-.094.041-.094.04-.095.039-.094.038-.096.038-.095.036-.095.037-.096.036-.096.034-.096.035-.097.033-.096.033-.097.032-.097.032-.097.03-.098.03-.098.03-.098.03-.098.028-.099.027-.098.027-.1.026-.099.026-.099.025-.1.024-.1.023-.1.023-.1.023-.1.021-.101.021-.101.02-.102.02-.101.02-.102.017-.102.018-.102.017-.103.016-.102.016-.103.015-.103.014-.103.014-.104.013-.104.012-.104.012-.104.011-.105.01-.104.01-.105.01-.106.008-.105.008-.106.007-.105.006-.106.006-.107.005-.106.005-.107.004-.107.003-.107.003-.108.002-.107v-.108l.002-.108v-.217l-.002-.109-.002-.109-.003-.11-.003-.109-.004-.109-.004-.11-.005-.11-.006-.11.034.124.034.122.034.12.036.118.036.116.037.113.038.11.038.109.02.053.02.053.02.052.02.052.021.05.02.05.022.05.021.05.022.048.022.048.022.047.023.047.023.045.023.046.023.045.024.043.024.044.024.042.025.043.025.04.025.042.026.04.026.04.026.038.027.038.028.038.027.037.028.036.029.035.028.035.029.034.03.034.03.033.03.032.03.03.032.032.031.03.032.03.033.028.033.028.033.027.034.026.034.026.035.025.035.025.036.023.036.023.037.022.037.022.037.02.039.02.039.02.039.019.039.018.04.017.041.016.042.016.042.015.042.014.043.013.044.013.044.012.045.011.045.01.046.01.047.008.046.009.048.007.048.006.05.006.049.005.05.004.05.003.052.003.052.002.053.001h.107l.055-.002.056-.002.056-.003.056-.004.058-.005.058-.005.058-.006.06-.008.06-.007.061-.01.062-.008.062-.01.063-.012.064-.012.064-.013.066-.014.066-.015.067-.015.067-.016.069-.017.07-.018.069-.02.07-.02.072-.02.073-.02.073-.023.074-.024.075-.023.075-.025.077-.026.077-.027.078-.027.08-.029.078-.03-.744 1.347-.023.042-.021.043-.02.042-.02.043-.018.043-.016.044-.016.044-.015.044-.012.044-.012.044-.011.045-.01.044-.01.045-.007.045-.006.044-.005.045-.005.046-.002.045-.002.044-.001.045v.045l.001.044.003.045.003.044.005.045.005.044.007.044.008.044.008.044.01.043.01.043.013.043.013.042.014.043.014.042.016.041.017.041.018.041.019.04.02.04.02.04.022.039.023.039.023.038.025.037.026.037.026.036.028.036.028.035.03.035.03.034.031.033.032.032.033.032.034.031.034.03.036.03.036.029.038.028.038.027.04.026.04.026.04.024.041.024 8.134 4.479.043.022.042.022.043.02.043.019.044.018.043.016.044.016.044.014.045.013.044.013.044.01.045.01.045.009.045.007.044.006.046.005.044.005.046.003.045.002h.089l.045-.001.044-.003.045-.003.045-.005.044-.005.044-.007.044-.007.044-.01.043-.01.044-.01.043-.011.042-.013.042-.015.042-.014.042-.016.041-.017.041-.018.04-.019.04-.02.04-.02.04-.022.038-.023.038-.023.037-.025.038-.026.036-.026.036-.028.035-.028.035-.03.034-.03.033-.03.033-.032.032-.033.03-.034.031-.035.03-.035.029-.037.028-.037.027-.038.027-.04.025-.04.025-.04.023-.041 22.154-40.018 12.068 6.646.041.022.041.02.041.02.042.018.042.018.043.016.043.016.043.014.043.013.044.012.044.011.045.01.044.01.044.007.045.007.045.005.045.005.045.003.045.002.046.001h.091l.045-.003.046-.003.044-.004.046-.006.045-.006.045-.008.045-.009.045-.01.045-.01.044-.013.044-.013.044-.015.043-.015.043-.017.042-.017.042-.018.041-.02.041-.02.04-.022.04-.022.038-.024.038-.023.038-.026.037-.026.037-.026.035-.029.036-.028.034-.03.033-.03.034-.031.032-.032.031-.032.031-.034.03-.035.03-.035.027-.035.027-.037.026-.037.026-.038.025-.039.023-.04.023-.04 6.511-11.76.022-.04.02-.041.02-.041.018-.042.017-.042.017-.042.015-.043.015-.043.013-.043.012-.043.011-.044.01-.044.01-.044.007-.045.006-.043.006-.045.004-.045.004-.045.002-.045.001-.045v-.09l-.003-.045-.003-.045-.004-.045-.006-.045-.006-.044-.008-.045-.009-.045-.01-.044-.01-.045-.013-.044-.013-.043-.014-.044-.016-.043-.016-.042-.017-.042-.019-.042-.019-.04-.02-.041-.022-.04-.022-.039-.023-.039-.024-.037-.026-.038-.025-.037-.027-.036-.028-.035-.028-.035-.03-.034-.03-.034-.03-.032-.032-.032-.033-.031-.033-.03-.035-.03-.035-.029-.035-.028-.037-.027-.037-.026-.038-.025-.038-.024-.039-.024-.04-.023L71.545 3.186l-.04-.022-.042-.02-.04-.02-.042-.019-.043-.017-.042-.017-.043-.015-.044-.014-.043-.013-.044-.012-.044-.011-.044-.01-.044-.01-.045-.007-.045-.007-.045-.005-.045-.005-.045-.003-.045-.002-.046-.001h-.09l-.046.002-.045.004-.045.004-.046.006-.045.006-.045.008z" fill="#fff"/><path fill-rule="evenodd" clip-rule="evenodd" d="M101.287 37.014a1.86 1.86 0 0 1-2.523.728l-12.068-6.646-22.154 40.017a1.86 1.86 0 0 1-2.523.728l-8.134-4.48a1.85 1.85 0 0 1-.726-2.517l22.154-40.016-12.069-6.646a1.85 1.85 0 0 1-.727-2.517l6.507-11.753a1.856 1.856 0 0 1 2.522-.727l35.53 19.565a1.84 1.84 0 0 1 .722 2.503z" fill="#282EA9"/><path fill-rule="evenodd" clip-rule="evenodd" d="M46.667 16.16q.322.035.67.122c1.582-7.033 14.675-8.762 17.575-2.166 6.047-1.62 7.789 7.485 1.443 7.904.94 2.453-.107 8.085-2.393 10.338l.034.087-13.975 2.496z" fill="#000"/><path fill-rule="evenodd" clip-rule="evenodd" d="m54.848 8.73.099-.015.1-.016.1-.015.099-.015.1-.014.1-.013.1-.012.1-.012.1-.01.1-.011.1-.01.1-.008.1-.008.1-.008.101-.007.1-.006.1-.005.1-.005.101-.004.1-.003.1-.003.101-.001.1-.001h.3l.101.003.1.002.1.003.1.005.1.004.1.005.099.007.099.006.1.008.099.008.099.01.1.01.098.01.098.011.1.013.097.013.099.013.098.015.098.015.098.016.097.017.098.017.096.018.098.02.096.02.097.02.096.021.096.023.096.023.095.024.096.024.094.026.095.026.094.027.095.028.093.029.094.03.093.03.093.03.093.033.092.033.092.033.091.035.09.035.091.037.09.037.09.038.09.039.09.04.088.04.088.042.089.043.087.043.086.044.087.046.086.046.085.047.085.048.085.048.083.05.084.051.083.052.082.052.082.054.081.054.08.056.08.056.08.058.078.058.078.059.078.06.076.061.076.063.075.063.075.064.073.065.074.066.072.067.072.068.07.07.07.069.069.07.068.073.068.073.066.073.066.075.065.076.064.077.062.078.062.079.061.079.06.081.06.081.058.083.057.083.056.085.031.048.038-.003.084-.007.083-.006.084-.005.083-.004.083-.002.083-.002h.163l.082.002.08.003.082.004.08.005.08.006.08.008.079.008.08.01.078.01.078.011.078.013.077.014.076.014.077.016.075.017.076.017.075.019.074.02.074.02.073.022.074.023.072.023.072.025.07.026.071.026.07.027.07.029.068.03.069.03.067.03.067.032.067.033.065.033.066.035.064.035.064.037.063.036.062.038.062.038.061.04.06.04.06.04.06.041.058.043.057.043.057.043.056.044.056.045.054.046.055.046.053.046.052.048.052.048.051.048.05.05.05.05.05.05.048.05.047.052.047.051.046.052.045.053.045.054.043.054.044.054.042.055.041.055.041.056.04.055.04.057.038.056.038.058.037.057.036.058.036.059.035.059.034.059.033.06.033.059.032.06.031.06.03.061.03.061.03.061.028.062.027.062.027.062.026.062.026.063.024.063.024.063.023.063.022.064.022.064.021.064.02.064.02.065.018.064.018.065.017.065.017.065.016.066.015.065.014.066.013.066.013.066.012.066.011.066.011.067.01.066.009.067.008.066.007.067.007.067.006.067.005.067.004.067.004.067.003.068.002.067v.067l.002.068v.067l-.001.068-.003.068-.002.067-.004.068-.004.067-.005.068-.006.067-.006.067-.008.068-.008.067-.01.068-.01.067-.01.068-.012.067-.012.067-.014.067-.015.067-.015.066-.016.067-.016.067-.018.066-.019.066-.019.066-.02.066-.021.066-.022.066-.023.065-.024.066-.025.065-.026.064-.027.065-.027.064-.028.064-.03.064-.03.063-.031.063-.032.063-.034.063-.033.062-.035.062-.036.061-.037.061-.038.061-.039.06-.04.06-.04.06-.041.058-.043.059-.043.058-.045.057-.045.057-.046.057-.047.055-.048.056-.05.055-.05.054-.05.053-.052.053-.052.052-.054.052-.054.051-.056.05-.056.05-.057.049-.058.048-.06.048-.059.046-.061.047-.062.045-.062.044-.063.044-.064.043-.065.042-.066.041-.066.04-.067.04-.068.039-.07.037-.069.037-.07.036-.071.035-.072.035-.073.033-.073.032-.074.032-.075.031-.075.03-.076.028-.077.028-.078.027-.078.026-.045.015.005.053.01.092.007.091.007.093.007.093.005.093.005.094.004.094.004.094.002.096.002.095.001.096v.193l-.002.097-.002.097-.003.097-.003.099-.004.098-.005.099-.006.098-.006.1-.007.1-.008.099-.008.1-.01.1-.01.1-.01.102-.01.1-.013.102-.012.1-.013.102-.014.102-.015.102-.015.102-.015.102-.017.102-.017.102-.018.102-.019.102-.019.103-.02.102-.02.102-.02.102-.023.103-.022.102-.023.102-.023.102-.025.102-.025.102-.025.102-.027.102-.026.102-.028.101-.028.101-.029.101-.03.101-.03.101-.03.1-.031.1-.033.1-.032.1-.033.1-.034.1-.035.098-.035.098-.036.098-.036.098-.038.097-.037.097-.039.097-.039.096-.04.095-.04.096-.042.094-.042.095-.042.094-.044.093-.044.093-.044.092-.045.092-.047.091-.046.09-.048.09-.048.09-.049.089-.05.088-.05.087-.051.087-.053.086-.052.085-.054.085-.054.084-.055.083-.056.083-.057.081-.058.081-.059.08-.06.08-.06.078-.062.078-.062.077-.063.075-.055.064-.013.031-.054.104-.061.1-.07.094-.077.088-.083.082-.09.076-.095.067-.1.06-.106.051-.109.044-.112.033-.114.026-13.975 2.496-.113.016-.115.007-.115-.003-.114-.01-.113-.02-.111-.03-.11-.037-.104-.046-.102-.054-.096-.062-.092-.07-.085-.075-.08-.083-.073-.088-.065-.094-.059-.1-.05-.102-.041-.107-.034-.11-.024-.111-3.355-18.78-.015-.113-.007-.113.002-.113.01-.113.02-.112.028-.11.037-.107.045-.105.053-.1.06-.096.068-.09.074-.087.082-.079.087-.073.092-.066.098-.058.1-.051.106-.043.108-.035.015-.004.024-.057.039-.093.04-.093.042-.092.043-.09.044-.091.045-.09.046-.09.047-.088.048-.087.05-.087.05-.086.051-.086.052-.085.053-.084.055-.084.055-.082.056-.082.057-.082.057-.08.06-.08.059-.079.06-.078.062-.077.062-.077.063-.076.064-.076.065-.074.066-.074.065-.073.067-.073.068-.071.069-.071.069-.07.07-.07.071-.068.071-.068.072-.067.073-.067.073-.066.075-.064.074-.065.076-.064.076-.062.076-.063.078-.06.077-.061.079-.06.079-.06.079-.058.08-.058.081-.057.081-.056.082-.056.082-.055.083-.054.083-.054.084-.052.085-.053.084-.051.085-.05.086-.05.086-.05.087-.049.087-.048.087-.047.088-.047.089-.046.088-.044.09-.045.089-.044.09-.043.09-.043.09-.041.092-.041.091-.04.092-.04.092-.04.092-.038.093-.037.093-.037.093-.037.094-.035.094-.035.094-.034.095-.034.094-.032.096-.033.095-.031.095-.03.096-.031.097-.03.096-.028.096-.028.097-.028.097-.026.097-.026.098-.026.097-.025.098-.024.098-.023.098-.023.099-.022.098-.02.098-.021.099-.02.1-.02.098-.018.1-.018zm.065 1.472-.09.016-.088.017-.09.018-.087.019-.089.018-.088.02-.089.02-.087.022-.088.021-.088.022-.088.023-.087.024-.086.023-.087.025-.087.025-.086.026-.086.027-.086.026-.086.028-.085.029-.085.028-.085.03-.084.03-.084.03-.084.031-.083.032-.083.032-.083.033-.083.033-.082.034-.081.035-.082.035-.081.036-.08.036-.08.037-.08.038-.08.038-.08.038-.078.04-.078.04-.078.04-.077.041-.077.042-.077.041-.076.044-.075.043-.075.043-.075.045-.074.045-.074.045-.073.046-.072.047-.072.047-.071.048-.071.048-.071.049-.07.05-.069.05-.069.05-.068.05-.067.053-.067.052-.066.052-.066.054-.065.054-.064.054-.064.055-.064.055-.062.056-.062.057-.061.057-.06.057-.06.058-.06.06-.058.058-.058.06-.057.06-.056.061-.056.062-.055.061-.054.063-.053.063-.053.063-.052.064-.05.065-.05.064-.05.066-.05.066-.047.067-.047.067-.046.067-.046.07-.045.068-.043.069-.043.07-.042.07-.041.07-.04.072-.04.071-.038.073-.038.072-.037.074-.036.073-.035.074-.034.076-.032.074-.033.076-.03.077-.03.076-.03.078-.028.077-.027.079-.026.078-.026.08-.024.08-.023.08-.022.08-.022.082-.02.081-.02.082-.085-.02-.086-.02-.085-.017-.084-.017-.084-.014-.082-.013-.082-.01-.08-.01 3.354 18.78 13.974-2.496-.033-.087.053-.054.053-.054.052-.056.052-.057.052-.058.05-.06.051-.06.05-.061.05-.063.05-.064.048-.064.048-.067.048-.066.047-.068.047-.069.046-.07.046-.07.045-.072.045-.072.044-.073.044-.075.044-.075.042-.076.043-.076.042-.078.04-.078.041-.08.04-.079.04-.08.04-.081.039-.082.038-.082.037-.084.038-.084.036-.084.037-.085.035-.085.035-.086.034-.087.035-.087.033-.087.033-.088.032-.089.032-.089.031-.089.031-.09.03-.09.03-.09.029-.09.029-.092.027-.091.028-.092.026-.092.027-.092.026-.092.024-.093.025-.092.024-.094.023-.093.023-.093.022-.093.022-.094.02-.093.021-.094.02-.093.02-.094.018-.093.018-.094.018-.093.017-.094.016-.094.016-.093.014-.093.015-.093.014-.093.013-.093.013-.093.012-.092.011-.092.01-.092.011-.091.01-.092.008-.09.008-.092.008-.09.007-.09.006-.09.006-.09.005-.088.004-.088.004-.088.003-.088.003-.087.002-.086v-.086l.001-.085v-.17l-.002-.083-.002-.084-.003-.082-.004-.081-.004-.082-.005-.08-.005-.08-.006-.078-.008-.079-.007-.077-.008-.077-.01-.076-.009-.075-.01-.074-.011-.073-.012-.073-.012-.07-.013-.072-.014-.07-.014-.068-.016-.068-.016-.066-.016-.066-.017-.065-.019-.064-.018-.062-.02-.061-.02-.06-.021-.06-.021-.058.074-.005.073-.006.072-.007.072-.008.071-.008.07-.01.07-.01.068-.01.069-.011.067-.013.067-.012.066-.014.065-.014.064-.015.064-.016.063-.017.062-.017.062-.017.061-.019.06-.019.06-.02.059-.02.058-.021.057-.022.057-.022.055-.023.056-.024.054-.024.054-.025.053-.025.053-.026.051-.026.051-.027.05-.028.05-.028.05-.029.048-.029.047-.03.047-.03.046-.031.046-.032.044-.032.044-.032.044-.033.043-.033.042-.034.041-.035.04-.034.04-.036.04-.036.04-.036.037-.037.037-.036.037-.038.036-.038.035-.038.035-.04.034-.038.033-.04.033-.04.032-.04.031-.04.031-.042.03-.04.03-.043.029-.042.028-.043.028-.042.026-.043.026-.044.026-.043.025-.044.024-.045.023-.044.024-.045.022-.045.021-.046.021-.046.02-.046.02-.045.02-.047.018-.047.018-.047.017-.047.017-.047.016-.048.015-.047.015-.048.014-.048.014-.049.013-.048.012-.049.012-.049.01-.048.011-.05.01-.049.01-.05.008-.049.008-.049.007-.05.007-.05.006-.05.006-.049.005-.05.004-.05.004-.05.003-.05.003-.05.001-.051.002-.05v-.051l.001-.05v-.051l-.001-.05-.002-.051-.002-.05-.003-.05-.003-.051-.004-.05-.004-.05-.005-.051-.006-.05-.006-.05-.007-.051-.007-.05-.008-.05-.009-.05-.009-.05-.01-.05-.01-.05-.01-.05-.011-.048-.013-.05-.012-.05-.013-.048-.013-.05-.014-.048-.015-.049-.015-.048-.016-.048-.016-.049-.017-.047-.018-.048-.018-.048-.018-.047-.02-.047-.019-.047-.02-.047-.02-.046-.022-.046-.021-.046-.023-.046-.023-.045-.023-.046-.024-.045-.024-.044-.025-.045-.026-.044-.026-.043-.026-.044-.027-.043-.028-.043-.028-.043-.029-.041-.029-.042-.03-.042-.03-.04-.03-.041-.032-.04-.031-.04-.033-.04-.032-.04-.034-.038-.033-.039-.035-.038-.034-.037-.036-.037-.035-.037-.036-.037-.037-.035-.037-.036-.038-.035-.039-.034-.038-.034-.04-.034-.04-.032-.04-.033-.04-.032-.041-.032-.042-.03-.042-.031-.042-.03-.044-.03-.043-.028-.044-.028-.045-.028-.045-.027-.045-.027-.046-.026-.047-.025-.047-.025-.047-.024-.048-.024-.048-.023-.049-.022-.049-.022-.05-.021-.05-.02-.05-.02-.052-.02-.051-.018-.053-.018-.052-.017-.052-.017-.054-.015-.054-.015-.054-.015-.055-.014-.055-.013-.055-.012-.056-.011-.057-.011-.057-.01-.057-.01-.058-.008-.058-.007-.059-.008-.059-.006-.06-.005-.06-.005-.06-.004-.06-.002-.062-.003-.061-.001h-.188l-.063.003-.064.003-.064.003-.065.005-.065.005-.065.007-.066.007-.066.008-.067.009-.067.01-.067.011-.068.012-.068.012-.07.014-.068.015-.07.015-.07.017-.07.017-.07.019-.035-.077-.035-.076-.037-.076-.037-.074-.038-.074-.04-.073-.039-.073-.04-.071-.042-.07-.043-.07-.043-.07-.044-.07-.046-.067-.045-.067-.047-.066-.047-.066-.049-.065-.049-.064-.05-.063-.05-.063-.052-.062-.052-.06-.053-.061-.054-.06-.055-.059-.055-.058-.056-.058-.057-.056-.057-.056-.058-.056-.059-.055-.06-.053-.06-.054-.06-.051-.062-.052-.062-.051-.063-.05-.064-.05-.064-.049-.065-.048-.065-.047-.066-.046-.067-.047-.067-.045-.068-.044-.068-.044-.069-.043-.07-.042-.07-.041-.07-.042-.071-.04-.073-.04-.072-.038-.072-.038-.074-.037-.074-.037-.074-.036-.074-.035-.076-.035-.076-.034-.076-.033-.076-.033-.078-.031-.078-.03-.078-.032-.078-.03-.079-.028-.079-.029-.08-.027-.08-.027-.08-.026-.081-.026-.081-.025-.082-.024-.082-.024-.082-.022-.083-.023-.083-.02-.083-.022-.084-.02-.084-.02-.084-.018-.085-.018-.085-.017-.085-.017-.085-.016-.086-.016-.086-.015-.086-.014-.086-.013-.087-.013-.087-.012-.087-.011-.087-.011-.088-.01-.088-.01-.087-.009-.088-.008-.088-.007-.089-.007-.089-.006-.089-.006-.088-.004-.09-.005-.088-.003-.09-.003-.089-.002-.09-.002h-.089l-.09-.001h-.09l-.089.001-.09.002-.09.002-.09.003-.09.004-.09.004-.09.004-.09.006-.09.006-.09.006-.09.008-.09.008-.09.008-.09.01-.09.01-.09.01-.09.011-.09.012-.09.012-.089.013-.09.014-.09.014-.088.015-.09.015z" fill="#fff"/><path fill-rule="evenodd" clip-rule="evenodd" d="M53.921 63.491c-3.437 1.28-4.526.121-5.235-2.565.258 4.712-1.23 8.816-4.639 12.25 5.93-2.293 14.734 6.011 12.133 7.424-.854.464-1.805.837-3.108.88.248.593.108 1.047-.227 1.43-2.93 1.69-11.942 3.202-26.898 4.538a1.22 1.22 0 0 1-1.215-.69l-4.634-9.7C11.49 75.137 5.717 66.163 3.831 52.071c-2.585-17.454.568-30.13 9.732-32.01 4.222-.95 8.47 2.226 8.785 8.32.387 7.492-2.403 11.979-5.58 12.01-1.576.015-4.193-.083-4.882-3.949-1.135-6.367 4.672-7.191 4.305-1.802-.066.974.93.98 1.032.104.208-1.787 1.48-9.92-3.253-9.152-10.7 1.737-4.617 40.255 2.748 38.245-.887-18.936 8.875-34.361 28.907-38.913-4.75-.758-3.898-10.044 1.705-8.632 1.583-7.033 14.676-8.762 17.575-2.166 6.047-1.62 7.79 7.486 1.443 7.904.94 2.453-.107 8.085-2.393 10.337 1.158 3.016 2.077 5.191 2.651 8.26l-5.698 10.254z" fill="#000"/><path d="M52.598 64.285 69.113 34.57" stroke="#fff" stroke-width=".004" stroke-miterlimit="1.5" stroke-linecap="round" stroke-linejoin="round"/><path d="M25.889 64.098c9.655-7.813 18.509 4.81 5.997 17.036 12.841-10.601 20.71-1.134 21.852 1.61" stroke="#fff" stroke-width="2" stroke-miterlimit="1.5" stroke-linecap="round" stroke-linejoin="round"/><path fill-rule="evenodd" clip-rule="evenodd" d="m56.406 17.745.024-.1c.387-1.523 1.49-2.65 3.246-2.94 3.006-.42 5.846 3.444 3.79 6.243a3.16 3.16 0 0 1-1.14.947c1.673 1.765 2.29 4.349.444 6.988-2.684 3.838-9.802 4.238-11.956-.723-.701-1.613-.472-3.44.398-4.99-1.547-.396-2.876-1.588-2.923-3.5-.048-1.92 1.235-3.654 3.366-4.007 1.581-.221 3.132.74 3.935 2.116.366.42.621.385.816-.034" fill="#fff"/><path d="M52.6 21.53a1.99 1.99 0 0 0 1.612-2.308 1.99 1.99 0 0 0-2.312-1.607 1.99 1.99 0 0 0-1.612 2.308 1.99 1.99 0 0 0 2.311 1.606m5.237 8.281c2.61-.466 4.401-2.672 3.998-4.926s-2.845-3.703-5.456-3.237c-2.611.467-4.402 2.672-4 4.926.404 2.254 2.847 3.704 5.458 3.237m2.784-9.24a1.99 1.99 0 0 0 1.613-2.308 1.99 1.99 0 0 0-2.312-1.607 1.99 1.99 0 0 0-1.612 2.308 1.99 1.99 0 0 0 2.311 1.607" fill="#000"/><path fill-rule="evenodd" clip-rule="evenodd" d="M35.496 42.256c-8.47 11.329 4.646 19.167 25.05 10.165 11.058 3.17 10.365-12.399.813-8.345-5.535 2.349-9.17-.385-14.404-3.99" fill="#000"/><path d="M35.496 42.256c-8.47 11.329 4.646 19.167 25.05 10.165 11.058 3.17 10.365-12.399.813-8.345-5.535 2.349-9.17-.385-14.404-3.99" stroke="#fff" stroke-width="2" stroke-miterlimit="1.5" stroke-linecap="round" stroke-linejoin="round"/><path fill-rule="evenodd" clip-rule="evenodd" d="M68.736 63.998c-2.41-1.382.457-5.162 2.934-4.1 2.477 1.06-.61 5.433-2.934 4.1" fill="#000"/><path fill-rule="evenodd" clip-rule="evenodd" d="m70.151 58.284.092-.013.092-.012.093-.009.093-.007.094-.005.095-.002h.095l.096.002.096.004.097.008.097.01.097.012.097.014.096.018.098.02.097.022.097.026.097.028.096.032.095.033.096.036.09.038.054.023.05.023.048.023.048.024.048.024.048.026.047.026.046.027.047.028.046.028.045.03.044.03.045.031.043.032.044.032.042.033.042.034.04.035.041.035.04.036.04.037.038.038.038.039.037.039.035.04.036.04.035.04.033.042.033.042.032.043.031.043.03.043.03.045.028.044.027.045.027.045.026.046.024.046.024.046.023.047.021.047.021.047.02.048.019.047.018.047.017.048.016.048.015.048.015.048.015.054.022.09.022.096.017.096.014.095.012.095.008.094.005.094.003.093v.092l-.003.092-.006.09-.007.091-.01.089-.011.089-.014.087-.016.087-.018.086-.019.085-.021.084-.023.083-.025.083-.026.081-.028.082-.03.08-.03.08-.032.078-.034.078-.035.077-.036.077-.038.076-.039.075-.04.074-.041.074-.043.073-.043.072-.045.071-.047.07-.047.07-.048.07-.05.068-.05.068-.052.067-.053.067-.053.065-.056.065-.056.063-.056.063-.06.063-.058.06-.06.061-.062.06-.062.058-.063.058-.065.057-.066.056-.066.054-.068.054-.069.053-.07.052-.071.05-.072.05-.073.048-.074.047-.076.046-.077.044-.077.043-.08.042-.08.04-.08.04-.083.037-.083.035-.085.034-.086.033-.087.03-.089.028-.089.027-.09.025-.092.022-.093.02-.094.018-.095.016-.096.013-.097.01-.098.009-.098.005-.1.002h-.095l-.056-.002-.05-.002-.05-.003-.051-.003-.051-.005-.051-.005-.05-.006-.052-.007-.051-.008-.051-.008-.051-.01-.052-.01-.05-.01-.051-.012-.051-.013-.051-.013-.05-.015-.051-.014-.05-.017-.051-.017-.05-.017-.05-.019-.05-.02-.05-.02-.05-.02-.049-.022-.048-.023-.049-.024-.048-.023-.048-.026-.048-.026-.046-.026-.046-.026-.045-.027-.044-.028-.044-.028-.043-.028-.043-.029-.042-.03-.042-.03-.042-.03-.04-.032-.04-.032-.04-.032-.04-.033-.039-.033-.038-.035-.038-.034-.037-.036-.036-.035-.036-.036-.036-.037-.034-.038-.035-.037-.033-.039-.033-.038-.032-.04-.031-.04-.031-.04-.03-.04-.03-.041-.028-.042-.028-.042-.027-.042-.027-.043-.025-.043-.025-.043-.028-.049-.042-.083-.043-.089-.04-.09-.037-.091-.033-.092-.03-.092-.028-.093-.024-.092-.02-.093-.019-.093-.015-.093-.012-.093-.01-.092-.006-.092-.005-.092-.001-.09v-.091l.004-.09.006-.09.008-.088.01-.088.013-.087.014-.086.016-.085.018-.085.02-.084.022-.083.024-.082.026-.08.026-.082.029-.08.03-.078.032-.078.033-.077.034-.076.036-.076.037-.074.04-.074.04-.073.04-.072.043-.07.044-.071.045-.07.046-.069.047-.068.049-.067.05-.066.05-.065.052-.065.053-.064.054-.063.055-.061.056-.061.058-.06.058-.06.06-.058.06-.058.061-.056.063-.056.064-.054.064-.054.066-.052.067-.052.067-.05.07-.05.069-.048.07-.047.072-.046.073-.045.074-.043.074-.043.076-.041.077-.04.077-.038.079-.037.08-.036.08-.035.082-.032.082-.032.084-.03.084-.028.085-.026.087-.025.087-.023.088-.021.089-.02.09-.017zm.118 1.48-.056.012-.057.014-.056.015-.056.016-.056.017-.055.018-.054.02-.055.02-.054.022-.054.023-.053.025-.053.024-.053.026-.051.027-.052.028-.051.03-.05.03-.051.03-.05.032-.048.033-.049.033-.047.034-.048.036-.046.036-.046.037-.045.037-.045.038-.044.04-.043.039-.042.04-.042.041-.041.042-.04.042-.04.043-.038.043-.038.044-.038.045-.036.045-.035.045-.035.046-.033.046-.033.047-.031.048-.031.047-.03.048-.029.048-.027.05-.027.048-.026.05-.025.049-.024.05-.022.05-.022.05-.02.05-.02.05-.018.051-.017.05-.015.051-.015.051-.013.051-.013.052-.01.05-.01.051-.01.051-.006.051-.006.051-.005.051-.003.05-.002.051v.1l.003.05.003.05.005.05.007.05.008.048.01.05.01.047.013.048.014.048.015.047.017.047.02.047.02.046.021.045.024.045.012.023.013.022.013.022.014.022.014.022.014.021.015.022.015.022.016.02.016.022.017.02.017.022.017.02.018.02.018.021.02.02.019.02.019.02.02.02.02.02.022.019.021.019.022.019.023.018.022.019.024.018.023.018.025.018.024.018.025.018.026.017.026.017.027.017.027.017.027.016.028.017.028.015.027.015.027.014.028.014.027.013.028.013.027.012.028.012.028.011.028.011.027.01.028.01.028.01.028.009.028.008.028.008.028.007.029.007.028.007.028.006.028.005.028.006.029.004.028.004.028.004.028.004.028.003.029.002.028.002.029.002.028.001h.141l.057-.004.056-.004.056-.006.057-.008.056-.01.056-.01.056-.012.056-.014.055-.015.056-.016.055-.018.055-.02.054-.02.054-.022.054-.023.054-.024.053-.025.053-.027.053-.028.052-.029.052-.03.051-.031.051-.033.05-.033.05-.034.05-.035.05-.036.048-.038.048-.037.047-.04.047-.04.046-.04.045-.041.045-.042.044-.043.044-.044.043-.044.041-.045.042-.046.04-.046.04-.047.04-.047.038-.048.038-.048.036-.05.036-.049.034-.05.034-.05.033-.05.032-.052.032-.051.03-.052.029-.052.028-.052.027-.052.027-.053.024-.053.024-.053.023-.053.022-.053.02-.054.02-.053.018-.053.018-.053.015-.054.015-.053.014-.053.012-.053.01-.053.01-.053.009-.053.007-.052.006-.052.004-.052.002-.052.002-.051v-.051l-.002-.05-.002-.051-.005-.05-.006-.05-.007-.049-.008-.048-.011-.048-.012-.048-.007-.023-.007-.023-.007-.023-.008-.024-.008-.023-.008-.022-.01-.022-.009-.023-.01-.022-.01-.022-.01-.022-.012-.022-.011-.021-.012-.022-.013-.021-.013-.02-.012-.022-.014-.02-.014-.02-.015-.02-.015-.02-.015-.02-.016-.02-.016-.02-.017-.019-.018-.018-.017-.02-.018-.018-.02-.018-.018-.018-.02-.018-.02-.017-.02-.017-.02-.017-.022-.017-.022-.017-.023-.016-.023-.015-.022-.016-.024-.016-.025-.015-.025-.015-.025-.015-.026-.014-.026-.014-.027-.014-.027-.013-.028-.013-.028-.014-.029-.012-.058-.024-.058-.022-.059-.02-.058-.02-.058-.016-.06-.016-.058-.014-.058-.012-.059-.01-.059-.01-.059-.007-.058-.006-.058-.004-.06-.003-.058-.001h-.058l-.058.002-.058.003-.058.004-.058.005-.057.008-.057.008-.058.01z" fill="#fff"/><path d="M45.98 19.08c-1.4.3-1.327 2.576.168 3.122m20.193-5.54c1.616.103 1.91 2.367.326 3.115" stroke="#fff" stroke-width=".004" stroke-miterlimit="1.5" stroke-linecap="round" stroke-linejoin="round"/></svg>