<svg version="1.0" xmlns="http://www.w3.org/2000/svg" width="1706.667" height="1672" viewBox="0 0 1280 1254"><path d="M895.2 1c-9.8 2.1-18.6 9.1-23.4 18.9-1.8 3.7-2.2 6.3-2.3 13.1 0 15.4-2.5 12.3 51.9 66.8l48.1 48.2-85.3 85.3-85.2 85.2-66.7-66.6c-76.1-75.8-70.6-71.4-87.3-71.4-8.5 0-10.1.3-15.4 2.9-7.6 3.7-14 10.1-17.4 17.4-2.4 5-2.7 7-2.7 15.7 0 17.1-2.4 14 56.1 72.6l50.5 50.5-73.8 73C601.7 452.7 497 556.1 409.5 642.4S235.9 813.9 218.1 831.6l-32.5 32.2 11.8 88.4c6.4 48.5 11.9 89.2 12.1 90.3.4 1.6-21.8 24.2-104 106.4-57.4 57.5-104.4 104.6-104.2 104.6.1.1 13.8-2.3 30.5-5.4l30.3-5.7 87.7-87.6 87.7-87.7 84 13c46.2 7.1 85 12.9 86.2 12.9 2.1 0 22.6-20.2 423.3-415.9C943.5 566 942.5 567 943.5 567c.6 0 23 22 50 49 56.2 56.3 54 54.5 70 54.5 7.7 0 9.8-.4 14.7-2.7 7.9-3.7 14.2-9.8 18.1-17.7 2.9-6 3.2-7.3 3.2-16.1-.1-16.4 3.6-11.9-71.7-86.9-36.2-36-65.8-65.9-65.8-66.5s38.1-39.2 84.7-85.8l84.8-84.8 48 47.8c54.3 54.2 52.4 52.6 67 52.7 10.2 0 17.1-3.1 24.4-11 8.2-9.1 10.7-21.4 6.7-33.5-1.8-5.3-8.3-12-178.5-182.3C942.6 27 921.8 6.6 916.5 4c-6.7-3.3-14.6-4.4-21.3-3m121.1 363.2c-46.7 46.7-85.2 84.8-85.8 84.8-.5 0-23.4-22.4-50.7-49.7L830 349.5l85.2-85.2 85.3-85.3 50.2 50.2 50.3 50.3zM873.8 496.6c20.4 20.4 37.2 37.6 37.2 38.1 0 1.2-39.2 40.1-274 271.8-110.8 109.4-210.8 208.1-222.2 219.4l-20.8 20.5-70.7-10.8c-39-5.9-71-11-71.2-11.2-.8-.7-19.1-139.9-18.9-142.9.3-2.5 9.2-11.8 54.7-56.8l54.5-53.7 31.1 30.9c20.4 20.4 32.3 31.5 34.7 32.6 11.1 4.6 23.5-2.3 25.4-14.1 1.3-8.5.5-9.5-33.4-43.7L368.5 745l9-9.1c5-5 13.9-13.6 19.8-19.1l10.8-10.1 30.7 30.6c20.4 20.3 31.9 31.1 34.4 32.2 11.1 4.6 23.5-2.3 25.4-14.1 1.3-8.5.5-9.6-33.2-43.4L434 680.5l19.5-19.5 19.5-19.5 30.8 30.7c16.9 16.8 32.1 31.3 33.9 32.2 4.9 2.4 11.9 2.1 16.9-.9 7.3-4.3 10.6-12.3 8.4-20.6-1-3.9-4.8-8-32.3-35.7L499.5 616l19.5-19.5 19.5-19.5 31 30.9c17 17.1 32.3 31.5 33.8 32 14.3 5.4 28.6-7.4 24.7-22-1-3.9-4.8-8-32.1-35.4l-30.9-31 19.5-19.5 19.5-19.5 30.8 30.7c16.9 16.9 32 31.2 33.5 31.8 14.3 5.3 28.6-7.5 24.7-22.1-1-3.9-4.8-8.1-32-35.4l-30.8-31 19.7-19.2 19.7-19.2 30 30c16.4 16.5 31.2 30.7 32.8 31.6 4.6 2.4 14.5 1.4 18.8-1.9 6.7-5.1 9.1-15.4 5.4-22.8-1-1.9-15.2-16.9-31.5-33.3l-29.6-29.8 26-25.4 26-25.3 44.5 44.1c24.5 24.3 61.3 60.9 81.8 81.3"/></svg>