<?xml version="1.0" encoding="UTF-8" standalone="no"?><!DOCTYPE svg PUBLIC "-//W3C//DTD SVG 1.1//EN" "http://www.w3.org/Graphics/SVG/1.1/DTD/svg11.dtd"><svg width="100%" height="100%" viewBox="0 0 745 192" version="1.1" xmlns="http://www.w3.org/2000/svg" xmlns:xlink="http://www.w3.org/1999/xlink" xml:space="preserve" xmlns:serif="http://www.serif.com/" style="fill-rule:evenodd;clip-rule:evenodd;stroke-linecap:round;stroke-linejoin:round;stroke-miterlimit:1.5;"><rect id="logo" x="0" y="0" width="745" height="192" style="fill:none;"/><g id="Layer2"><g><g><path d="M474.609,142.423l-5.004,0l0,16.181l3.437,0l0,-5.518l1.847,0c3.695,0 6.361,-1.707 6.361,-5.449c0,-3.531 -2.526,-5.214 -6.641,-5.214Zm0,8.137l-1.567,0l0,-5.659l1.52,0c2.011,0 3.133,0.842 3.133,2.736c0,2.198 -1.192,2.923 -3.086,2.923Z" style="fill-rule:nonzero;"/><path d="M489.387,145.86c-1.45,0 -2.642,1.029 -3.227,2.759l-0.304,-2.408l-2.876,0l0,12.393l3.32,0l0,-6.407c0.445,-1.988 1.146,-3.11 2.666,-3.11c0.421,0 0.725,0.07 1.099,0.164l0.561,-3.204c-0.421,-0.117 -0.795,-0.187 -1.239,-0.187Z" style="fill-rule:nonzero;"/><path d="M496.776,145.837c-3.741,0 -5.963,2.619 -5.963,6.57c0,4.116 2.245,6.571 5.94,6.571c3.717,0 5.939,-2.642 5.939,-6.571c0,-4.115 -2.222,-6.57 -5.916,-6.57Zm0,2.478c1.613,0 2.455,1.24 2.455,4.092c0,2.83 -0.842,4.092 -2.478,4.092c-1.637,0 -2.479,-1.239 -2.479,-4.092c0,-2.829 0.842,-4.092 2.502,-4.092Z" style="fill-rule:nonzero;"/><path d="M511.905,145.837c-1.286,0 -2.619,0.561 -3.601,1.824l-0.164,-1.45l-2.923,0l0,17.537l3.321,-0.374l0,-5.729c0.771,0.889 1.823,1.333 3.063,1.333c3.11,0 4.91,-2.806 4.91,-6.594c0,-3.998 -1.379,-6.547 -4.606,-6.547Zm-1.286,10.662c-0.866,0 -1.544,-0.397 -2.081,-1.215l0,-5.402c0.561,-0.935 1.379,-1.59 2.338,-1.59c1.379,0 2.174,1.005 2.174,4.115c0,2.9 -0.912,4.092 -2.431,4.092Z" style="fill-rule:nonzero;"/><path d="M529.629,152.127c0,-3.952 -2.081,-6.29 -5.589,-6.29c-3.624,0 -5.635,2.899 -5.635,6.641c0,3.881 2.081,6.5 6.056,6.5c1.941,0 3.484,-0.701 4.7,-1.684l-1.379,-1.87c-1.076,0.748 -1.964,1.075 -3.017,1.075c-1.59,0 -2.712,-0.701 -2.946,-3.086l7.74,0c0.023,-0.351 0.07,-0.865 0.07,-1.286Zm-3.297,-0.795l-4.513,0c0.164,-2.338 0.982,-3.227 2.292,-3.227c1.59,0 2.221,1.216 2.221,3.087l0,0.14Z" style="fill-rule:nonzero;"/><path d="M538.444,145.86c-1.449,0 -2.642,1.029 -3.227,2.759l-0.304,-2.408l-2.876,0l0,12.393l3.321,0l0,-6.407c0.444,-1.988 1.146,-3.11 2.665,-3.11c0.421,0 0.725,0.07 1.099,0.164l0.562,-3.204c-0.421,-0.117 -0.795,-0.187 -1.24,-0.187Z" style="fill-rule:nonzero;"/><path d="M547.587,155.915c-0.514,0.28 -0.959,0.421 -1.403,0.421c-0.842,0 -1.239,-0.468 -1.239,-1.684l0,-6.103l2.525,0l0.327,-2.338l-2.852,0l0,-3.11l-3.321,0.398l0,2.712l-1.847,0l0,2.338l1.847,0l0,6.173c0,2.76 1.31,4.233 3.882,4.256c1.099,0 2.315,-0.327 3.227,-0.959l-1.146,-2.104Z" style="fill-rule:nonzero;"/><path d="M560.471,146.211l-3.437,0l-2.619,10.242l-2.479,-10.242l-3.531,0l3.859,12.393l1.145,0c-0.678,1.683 -1.519,2.432 -3.975,2.759l0.351,2.385c3.788,-0.257 5.729,-2.104 6.688,-5.121l3.998,-12.416Z" style="fill-rule:nonzero;"/><rect x="561.313" y="149.976" width="7.249" height="2.619" style="fill-rule:nonzero;"/><path d="M578.032,145.837c-1.403,0 -2.619,0.655 -3.391,1.707l0,-6.641l-3.32,0.374l0,17.327l2.946,0l0.187,-1.216c0.772,1.005 1.871,1.59 3.25,1.59c3.063,0 4.911,-2.736 4.911,-6.571c0,-4.138 -1.684,-6.57 -4.583,-6.57Zm-1.263,10.686c-0.889,0 -1.613,-0.491 -2.128,-1.333l0,-5.308c0.561,-0.935 1.333,-1.59 2.292,-1.59c1.309,0 2.221,0.889 2.221,4.115c0,3.017 -0.982,4.116 -2.385,4.116Z" style="fill-rule:nonzero;"/><path d="M594.493,155.167l0,-5.004c0,-2.806 -1.473,-4.326 -4.91,-4.326c-1.403,0 -3.04,0.304 -4.583,0.912l0.748,2.221c1.263,-0.421 2.455,-0.655 3.274,-0.655c1.566,0 2.221,0.491 2.221,2.035l0,0.608l-1.426,0c-3.671,0 -5.706,1.473 -5.706,4.185c0,2.245 1.543,3.835 4.022,3.835c1.473,0 2.829,-0.514 3.718,-1.871c0.514,1.24 1.45,1.707 2.853,1.824l0.701,-2.198c-0.608,-0.21 -0.912,-0.561 -0.912,-1.566Zm-5.448,1.426c-1.029,0 -1.59,-0.631 -1.59,-1.73c0,-1.357 0.889,-2.011 2.689,-2.011l1.099,0l0,2.361c-0.514,0.889 -1.239,1.38 -2.198,1.38Z" style="fill-rule:nonzero;"/><path d="M601.695,145.837c-2.993,0 -4.91,1.59 -4.91,3.694c0,1.871 1.169,3.11 3.671,3.812c2.291,0.631 2.736,0.935 2.736,1.87c0,0.842 -0.795,1.357 -2.035,1.357c-1.239,0 -2.385,-0.491 -3.32,-1.216l-1.637,1.824c1.169,1.075 2.9,1.8 5.051,1.8c2.946,0 5.355,-1.45 5.355,-4.022c0,-2.198 -1.403,-3.227 -3.882,-3.905c-2.175,-0.631 -2.595,-0.958 -2.595,-1.683c0,-0.678 0.607,-1.123 1.706,-1.123c1.076,0 2.082,0.351 3.087,0.982l1.263,-1.894c-1.169,-0.935 -2.689,-1.496 -4.49,-1.496Z" style="fill-rule:nonzero;"/><path d="M619.256,152.127c0,-3.952 -2.081,-6.29 -5.589,-6.29c-3.624,0 -5.635,2.899 -5.635,6.641c0,3.881 2.081,6.5 6.056,6.5c1.941,0 3.484,-0.701 4.7,-1.684l-1.379,-1.87c-1.076,0.748 -1.965,1.075 -3.017,1.075c-1.59,0 -2.712,-0.701 -2.946,-3.086l7.74,0c0.023,-0.351 0.07,-0.865 0.07,-1.286Zm-3.297,-0.795l-4.513,0c0.164,-2.338 0.982,-3.227 2.291,-3.227c1.59,0 2.222,1.216 2.222,3.087l0,0.14Z" style="fill-rule:nonzero;"/><path d="M629.077,140.903l0,6.173c-0.749,-0.725 -1.754,-1.239 -3.017,-1.239c-3.063,0 -5.027,2.736 -5.027,6.57c0,3.952 1.59,6.571 4.7,6.571c1.66,0 2.806,-0.818 3.554,-1.894l0.187,1.52l2.923,0l0,-17.327l-3.32,-0.374Zm-2.362,15.596c-1.333,0 -2.221,-0.982 -2.221,-4.092c0,-2.899 0.982,-4.115 2.431,-4.115c0.912,0 1.544,0.444 2.152,1.169l0,5.542c-0.655,0.982 -1.357,1.496 -2.362,1.496Z" style="fill-rule:nonzero;"/><path d="M647.643,155.915c-0.515,0.28 -0.959,0.421 -1.403,0.421c-0.842,0 -1.24,-0.468 -1.24,-1.684l0,-6.103l2.526,0l0.327,-2.338l-2.853,0l0,-3.11l-3.32,0.398l0,2.712l-1.847,0l0,2.338l1.847,0l0,6.173c0,2.76 1.309,4.233 3.882,4.256c1.099,0 2.315,-0.327 3.226,-0.959l-1.145,-2.104Z" style="fill-rule:nonzero;"/><path d="M660.34,152.127c0,-3.952 -2.081,-6.29 -5.589,-6.29c-3.624,0 -5.635,2.899 -5.635,6.641c0,3.881 2.081,6.5 6.056,6.5c1.941,0 3.484,-0.701 4.7,-1.684l-1.38,-1.87c-1.075,0.748 -1.964,1.075 -3.016,1.075c-1.59,0 -2.712,-0.701 -2.946,-3.086l7.739,0c0.024,-0.351 0.071,-0.865 0.071,-1.286Zm-3.297,-0.795l-4.513,0c0.163,-2.338 0.982,-3.227 2.291,-3.227c1.59,0 2.222,1.216 2.222,3.087l0,0.14Z" style="fill-rule:nonzero;"/><path d="M666.863,145.837c-2.993,0 -4.91,1.59 -4.91,3.694c0,1.871 1.169,3.11 3.671,3.812c2.292,0.631 2.736,0.935 2.736,1.87c0,0.842 -0.795,1.357 -2.034,1.357c-1.24,0 -2.385,-0.491 -3.321,-1.216l-1.637,1.824c1.17,1.075 2.9,1.8 5.051,1.8c2.946,0 5.355,-1.45 5.355,-4.022c0,-2.198 -1.403,-3.227 -3.882,-3.905c-2.174,-0.631 -2.595,-0.958 -2.595,-1.683c0,-0.678 0.608,-1.123 1.707,-1.123c1.075,0 2.081,0.351 3.086,0.982l1.263,-1.894c-1.169,-0.935 -2.689,-1.496 -4.49,-1.496Z" style="fill-rule:nonzero;"/><path d="M680.215,155.915c-0.514,0.28 -0.959,0.421 -1.403,0.421c-0.842,0 -1.239,-0.468 -1.239,-1.684l0,-6.103l2.525,0l0.328,-2.338l-2.853,0l0,-3.11l-3.321,0.398l0,2.712l-1.847,0l0,2.338l1.847,0l0,6.173c0,2.76 1.31,4.233 3.882,4.256c1.099,0 2.315,-0.327 3.227,-0.959l-1.146,-2.104Z" style="fill-rule:nonzero;"/><path d="M684.471,139.827c-1.193,0 -2.011,0.842 -2.011,1.941c0,1.099 0.818,1.941 2.011,1.941c1.192,0 2.034,-0.842 2.034,-1.941c0,-1.099 -0.842,-1.941 -2.034,-1.941Zm1.683,6.384l-3.32,0l0,12.393l3.32,0l0,-12.393Z" style="fill-rule:nonzero;"/><path d="M696.349,145.837c-1.59,0 -2.782,0.701 -3.788,1.941l-0.257,-1.567l-2.876,0l0,12.393l3.32,0l0,-8.558c0.679,-1.099 1.427,-1.731 2.385,-1.731c0.842,0 1.357,0.398 1.357,1.824l0,8.465l3.32,0l0,-9.026c0,-2.338 -1.286,-3.741 -3.461,-3.741Z" style="fill-rule:nonzero;"/><path d="M713.232,144.34c-1.497,0.842 -2.946,1.567 -5.799,1.497c-3.11,0 -5.285,1.754 -5.285,4.489c0,1.59 0.655,2.689 2.198,3.531c-0.888,0.561 -1.449,1.427 -1.449,2.315c0,1.31 1.075,2.432 3.671,2.432l1.824,0c1.309,0 1.94,0.514 1.94,1.356c0,0.889 -0.608,1.52 -2.899,1.52c-2.362,0 -2.876,-0.514 -2.876,-1.684l-2.97,0c0,2.479 1.239,3.952 5.776,3.952c4.139,0 6.313,-1.52 6.313,-4.022c0,-2.057 -1.8,-3.554 -4.606,-3.554l-1.894,0c-1.216,0 -1.427,-0.397 -1.427,-0.818c0,-0.328 0.187,-0.632 0.468,-0.819c0.444,0.117 0.912,0.164 1.45,0.164c3.156,0 5.097,-1.754 5.097,-4.162c0,-1.567 -0.771,-2.502 -2.291,-3.18c1.496,0 2.665,-0.117 3.577,-0.468l-0.818,-2.549Zm-5.729,3.718c1.38,0 2.058,0.702 2.058,2.175c0,1.52 -0.702,2.315 -2.035,2.315c-1.262,0 -2.057,-0.842 -2.057,-2.268c0,-1.357 0.771,-2.222 2.034,-2.222Z" style="fill-rule:nonzero;"/></g><g><path d="M257.193,63.744c2.357,0 5.432,0.513 8.506,2.05l4.407,-10.556c-3.997,-2.049 -9.224,-3.484 -14.86,-3.484c-13.938,0 -20.804,8.096 -20.804,18.549l0,4.817l-8.199,0l0,11.273l8.199,0l0,43.145l16.192,0l0,-43.145l11.068,0l1.742,-11.273l-12.81,0l0,-4.202c0,-5.124 1.845,-7.174 6.559,-7.174Z" style="fill-rule:nonzero;"/><path d="M309.561,113.756l0,-21.112c0,-12.605 -6.763,-19.266 -22.546,-19.266c-6.149,0 -13.63,1.434 -20.496,3.996l3.689,10.659c5.432,-1.845 10.761,-2.87 14.245,-2.87c6.662,0 9.224,1.947 9.224,8.404l0,2.357l-5.534,0c-16.5,0 -25.518,6.456 -25.518,18.344c0,9.941 6.866,17.012 17.729,17.012c6.456,0 12.503,-2.152 16.397,-8.198c2.46,5.431 6.661,7.378 13.118,7.891l3.382,-10.556c-2.562,-0.922 -3.69,-2.46 -3.69,-6.661Zm-24.493,5.944c-3.997,0 -6.354,-2.562 -6.354,-6.867c0,-5.431 3.587,-7.993 10.966,-7.993l3.997,0l0,9.633c-1.948,3.279 -4.817,5.227 -8.609,5.227Z" style="fill-rule:nonzero;"/><path d="M340.613,73.378c-13.732,0 -22.238,7.276 -22.238,16.602c0,8.403 5.329,13.937 16.089,17.012c9.839,2.767 11.478,3.894 11.478,7.584c0,3.279 -2.971,5.124 -7.891,5.124c-5.329,0 -10.35,-2.153 -14.45,-5.329l-7.891,8.813c5.329,4.817 13.323,8.096 22.751,8.096c13.528,0 24.186,-6.661 24.186,-17.934c0,-9.736 -6.046,-14.245 -16.807,-17.32c-9.736,-2.869 -11.171,-4.099 -11.171,-6.969c0,-2.459 2.153,-4.099 6.559,-4.099c4.714,0 9.224,1.537 13.425,4.202l5.944,-9.121c-5.021,-4.099 -12.092,-6.661 -19.984,-6.661Z" style="fill-rule:nonzero;"/><path d="M399.643,116.728c-2.152,1.229 -3.997,1.742 -5.841,1.742c-3.382,0 -5.124,-1.845 -5.124,-7.071l0,-25.006l10.76,0l1.742,-11.273l-12.502,0l0,-13.63l-16.193,1.844l0,11.786l-7.686,0l0,11.273l7.686,0l0,25.211c0,12.81 5.842,19.574 17.832,19.676c4.919,0 10.658,-1.435 14.758,-4.304l-5.432,-10.248Z" style="fill-rule:nonzero;"/><rect x="404.562" y="91.21" width="32.692" height="12.503" style="fill-rule:nonzero;"/><path d="M471.688,73.378c-16.295,0 -26.645,12.093 -26.645,29.412c0,17.217 10.248,28.49 26.953,28.49c7.481,0 13.322,-2.459 18.344,-6.456l-7.071,-10.044c-3.895,2.46 -6.559,3.69 -10.454,3.69c-6.456,0 -10.76,-3.69 -10.76,-15.782c0,-12.196 3.997,-16.91 10.965,-16.91c3.69,0 6.867,1.23 10.351,3.894l6.969,-9.633c-5.227,-4.407 -11.068,-6.661 -18.652,-6.661Z" style="fill-rule:nonzero;"/><path d="M529.078,73.378c-6.354,0 -11.273,2.562 -15.68,7.583l0,-29.105l-16.192,1.64l0,76.042l16.192,0l0,-37.304c2.87,-4.406 5.842,-6.968 9.429,-6.968c3.074,0 5.124,1.537 5.124,7.276l0,36.996l16.192,0l0,-39.763c0,-10.351 -5.637,-16.397 -15.065,-16.397Z" style="fill-rule:nonzero;"/><path d="M603.788,101.253c0,-17.627 -9.531,-27.875 -25.109,-27.875c-16.499,0 -25.415,12.912 -25.415,29.207c0,17.012 9.223,28.695 27.363,28.695c8.813,0 15.782,-3.279 21.213,-7.584l-6.661,-9.018c-4.714,3.279 -8.608,4.817 -13.015,4.817c-6.661,0 -11.273,-2.665 -12.4,-12.401l33.716,0c0.205,-1.639 0.308,-4.099 0.308,-5.841Zm-15.885,-3.894l-18.139,0c0.717,-9.736 3.894,-13.221 9.325,-13.221c6.457,0 8.711,5.124 8.814,12.503l0,0.718Z" style="fill-rule:nonzero;"/><path d="M636.479,73.378c-16.294,0 -26.645,12.093 -26.645,29.412c0,17.217 10.248,28.49 26.953,28.49c7.481,0 13.323,-2.459 18.344,-6.456l-7.071,-10.044c-3.894,2.46 -6.559,3.69 -10.453,3.69c-6.457,0 -10.761,-3.69 -10.761,-15.782c0,-12.196 3.997,-16.91 10.966,-16.91c3.689,0 6.866,1.23 10.35,3.894l6.969,-9.633c-5.226,-4.407 -11.068,-6.661 -18.652,-6.661Z" style="fill-rule:nonzero;"/><path d="M678.19,51.754l-16.193,1.742l0,76.042l16.193,0l0,-77.784Zm33.614,23.366l-16.5,0l-16.602,24.698l16.192,29.72l18.242,0l-17.832,-30.54l16.5,-23.878Z" style="fill-rule:nonzero;"/></g></g><g id="Layer1"><path d="M125.192,49.401l11.385,-14.043c0.551,-0.68 1.349,-1.113 2.22,-1.204c0.87,-0.091 1.741,0.168 2.421,0.719c9.97,8.083 46.104,37.377 56.05,45.441c0.677,0.548 1.107,1.343 1.198,2.209c0.09,0.866 -0.167,1.732 -0.715,2.408c-3.69,4.552 -11.37,14.025 -15.068,18.586c-0.551,0.68 -1.35,1.113 -2.22,1.204c-0.871,0.091 -1.742,-0.167 -2.422,-0.718c-5.722,-4.64 -19.039,-15.436 -19.039,-15.436c0,0 -41.429,51.103 -51.269,63.24c-1.148,1.415 -3.226,1.633 -4.642,0.485c-3.414,-2.768 -9.418,-7.635 -12.832,-10.403c-1.415,-1.148 -1.633,-3.226 -0.485,-4.642l1.724,-2.127c-6.385,1.155 -7.922,-1.22 -8.323,-6.145c-1.02,8.345 -4.908,15.076 -11.945,20.031c11.094,-2.164 23.902,15.157 18.91,16.82c-1.64,0.547 -3.421,0.903 -5.713,0.569c0.247,1.118 -0.139,1.871 -0.846,2.438c-5.654,2.047 -21.894,1.874 -48.481,-0.467c-0.907,-0.079 -1.669,-0.714 -1.91,-1.592c-1.263,-4.593 -5.076,-18.464 -5.076,-18.464c-14.463,-6.063 -21.759,-23.609 -20.654,-48.914c0.932,-31.419 10.411,-52.663 27.032,-53.089c7.685,-0.341 14.126,6.559 12.771,17.344c-1.665,13.261 -11.409,11.059 -10.956,9.553c0.922,-3.068 -2.272,22.121 6.836,11.987c10.733,-11.941 26.199,-19.387 45.928,-20.311c-8.075,-2.818 -3.681,-18.836 5.681,-14.604c4.6,-10.963 25.047,-10.857 30.44,-0.875Z" style="fill:#fff;"/><path d="M139.306,28.875l0.211,0.006l0.21,0.012l0.209,0.017l0.209,0.022l0.208,0.027l0.206,0.032l0.206,0.038l0.205,0.042l0.204,0.047l0.202,0.052l0.201,0.057l0.199,0.062l0.198,0.067l0.196,0.071l0.195,0.077l0.193,0.081l0.191,0.086l0.189,0.09l0.186,0.095l0.185,0.1l0.183,0.105l0.18,0.109l0.177,0.114l0.175,0.119l0.173,0.122l0.169,0.128l0.141,0.111l56.101,45.482l0.138,0.115l0.159,0.139l0.156,0.143l0.152,0.147l0.148,0.15l0.143,0.153l0.14,0.156l0.136,0.16l0.131,0.163l0.128,0.165l0.123,0.169l0.119,0.172l0.115,0.174l0.11,0.177l0.106,0.179l0.102,0.182l0.097,0.184l0.093,0.187l0.088,0.19l0.083,0.191l0.079,0.193l0.074,0.195l0.069,0.197l0.065,0.2l0.06,0.201l0.055,0.202l0.05,0.204l0.045,0.206l0.04,0.207l0.035,0.209l0.029,0.209l0.025,0.21l0.019,0.211l0.015,0.212l0.008,0.211l0.004,0.21l-0.001,0.212l-0.007,0.21l-0.012,0.209l-0.017,0.208l-0.022,0.209l-0.027,0.207l-0.032,0.207l-0.037,0.205l-0.042,0.204l-0.047,0.204l-0.052,0.201l-0.057,0.201l-0.062,0.199l-0.066,0.197l-0.072,0.197l-0.076,0.193l-0.081,0.193l-0.086,0.191l-0.09,0.188l-0.095,0.186l-0.1,0.184l-0.104,0.183l-0.109,0.18l-0.114,0.177l-0.118,0.174l-0.123,0.172l-0.127,0.17l-0.111,0.141l-15.109,18.636l-0.115,0.138l-0.14,0.16l-0.143,0.156l-0.147,0.152l-0.15,0.148l-0.154,0.144l-0.156,0.14l-0.16,0.136l-0.164,0.132l-0.166,0.128l-0.169,0.124l-0.172,0.119l-0.174,0.115l-0.177,0.11l-0.18,0.106l-0.182,0.102l-0.186,0.098l-0.187,0.092l-0.189,0.088l-0.191,0.084l-0.194,0.079l-0.196,0.074l-0.198,0.07l-0.199,0.065l-0.201,0.059l-0.203,0.055l-0.205,0.051l-0.206,0.045l-0.207,0.04l-0.209,0.035l-0.21,0.03l-0.211,0.024l-0.212,0.02l-0.211,0.014l-0.212,0.009l-0.211,0.004l-0.211,-0.002l-0.21,-0.007l-0.21,-0.011l-0.21,-0.017l-0.208,-0.022l-0.208,-0.028l-0.207,-0.032l-0.206,-0.037l-0.205,-0.042l-0.203,-0.047l-0.202,-0.052l-0.201,-0.057l-0.2,-0.062l-0.198,-0.067l-0.196,-0.072l-0.195,-0.076l-0.192,-0.081l-0.191,-0.086l-0.189,-0.09l-0.187,-0.096l-0.185,-0.1l-0.182,-0.104l-0.18,-0.11l-0.178,-0.113l-0.175,-0.119l-0.172,-0.123l-0.17,-0.127l-0.141,-0.111l-14.976,-12.142l-47.976,59.177l-0.118,0.143l-0.144,0.163l-0.147,0.16l-0.151,0.156l-0.154,0.151l-0.158,0.147l-0.161,0.143l-0.164,0.138l-0.167,0.134l-0.169,0.129l-0.172,0.124l-0.175,0.12l-0.178,0.115l-0.179,0.11l-0.182,0.106l-0.184,0.101l-0.186,0.096l-0.187,0.091l-0.19,0.087l-0.19,0.081l-0.193,0.077l-0.194,0.072l-0.195,0.067l-0.196,0.063l-0.198,0.057l-0.198,0.053l-0.2,0.048l-0.201,0.043l-0.201,0.038l-0.202,0.033l-0.203,0.029l-0.203,0.024l-0.204,0.019l-0.204,0.014l-0.205,0.009l-0.205,0.004l-0.205,-0.001l-0.205,-0.005l-0.205,-0.011l-0.205,-0.015l-0.206,-0.021l-0.204,-0.025l-0.205,-0.03l-0.204,-0.036l-0.204,-0.04l-0.203,-0.046l-0.202,-0.05l-0.202,-0.056l-0.201,-0.06l-0.199,-0.066l-0.199,-0.071l-0.197,-0.076l-0.196,-0.081l-0.194,-0.086l-0.193,-0.091l-0.191,-0.096l-0.189,-0.101l-0.186,-0.107l-0.185,-0.111l-0.183,-0.116l-0.179,-0.121l-0.178,-0.126l-0.174,-0.131l-0.145,-0.115l-12.884,-10.445l-0.142,-0.118l-0.164,-0.144l-0.16,-0.147l-0.156,-0.151l-0.151,-0.154l-0.147,-0.158l-0.143,-0.161l-0.138,-0.164l-0.134,-0.166l-0.129,-0.17l-0.124,-0.173l-0.12,-0.174l-0.115,-0.178l-0.11,-0.18l-0.106,-0.181l-0.101,-0.184l-0.096,-0.186l-0.091,-0.187l-0.086,-0.19l-0.082,-0.191l-0.077,-0.192l-0.02,-0.053l-0.01,0.02l-0.108,0.19l-0.11,0.189l-0.111,0.189l-0.112,0.188l-0.113,0.187l-0.115,0.186l-0.116,0.186l-0.117,0.185l-0.119,0.184l-0.12,0.183l-0.121,0.183l-0.122,0.181l-0.124,0.181l-0.126,0.181l-0.126,0.179l-0.128,0.179l-0.129,0.178l-0.13,0.177l-0.123,0.164l0.038,0.019l0.158,0.082l0.158,0.082l0.156,0.084l0.156,0.084l0.156,0.086l0.154,0.086l0.154,0.087l0.153,0.088l0.152,0.089l0.151,0.09l0.151,0.091l0.15,0.092l0.149,0.092l0.148,0.093l0.148,0.095l0.147,0.095l0.146,0.095l0.145,0.096l0.145,0.098l0.144,0.097l0.143,0.099l0.143,0.1l0.141,0.099l0.141,0.101l0.14,0.102l0.139,0.101l0.139,0.103l0.138,0.103l0.137,0.104l0.137,0.105l0.135,0.105l0.135,0.106l0.134,0.106l0.134,0.107l0.138,0.111l0.257,0.212l0.26,0.219l0.257,0.22l0.254,0.222l0.251,0.224l0.247,0.226l0.245,0.228l0.241,0.229l0.238,0.23l0.235,0.232l0.232,0.233l0.229,0.234l0.225,0.236l0.222,0.237l0.219,0.237l0.215,0.239l0.212,0.24l0.209,0.24l0.205,0.242l0.202,0.242l0.199,0.243l0.195,0.243l0.192,0.245l0.188,0.244l0.184,0.246l0.181,0.245l0.178,0.247l0.173,0.247l0.17,0.247l0.167,0.248l0.162,0.248l0.159,0.249l0.156,0.25l0.151,0.25l0.147,0.25l0.144,0.251l0.14,0.253l0.131,0.244l0.071,0.135l0.065,0.128l0.064,0.127l0.063,0.128l0.062,0.128l0.062,0.128l0.06,0.129l0.059,0.129l0.058,0.13l0.057,0.13l0.055,0.13l0.055,0.131l0.053,0.132l0.053,0.132l0.051,0.133l0.05,0.134l0.049,0.134l0.047,0.135l0.046,0.136l0.045,0.136l0.044,0.138l0.042,0.139l0.041,0.14l0.039,0.14l0.038,0.142l0.036,0.144l0.035,0.145l0.033,0.146l0.031,0.147l0.029,0.15l0.027,0.151l0.026,0.153l0.023,0.154l0.021,0.157l0.019,0.159l0.016,0.161l0.013,0.163l0.011,0.166l0.008,0.168l0.004,0.171l0.001,0.173l-0.002,0.176l-0.007,0.179l-0.01,0.181l-0.015,0.185l-0.02,0.187l-0.024,0.19l-0.03,0.193l-0.036,0.196l-0.041,0.198l-0.048,0.2l-0.055,0.203l-0.062,0.206l-0.069,0.206l-0.077,0.207l-0.084,0.209l-0.093,0.208l-0.102,0.21l-0.11,0.208l-0.119,0.206l-0.127,0.205l-0.136,0.201l-0.144,0.199l-0.153,0.194l-0.161,0.19l-0.169,0.185l-0.175,0.177l-0.182,0.171l-0.188,0.165l-0.193,0.156l-0.198,0.149l-0.201,0.14l-0.205,0.132l-0.208,0.123l-0.21,0.115l-0.21,0.106l-0.212,0.098l-0.212,0.09l-0.211,0.081l-0.184,0.064l-0.225,0.074l-0.2,0.064l-0.205,0.063l-0.208,0.062l-0.213,0.061l-0.217,0.06l-0.221,0.058l-0.225,0.056l-0.23,0.054l-0.233,0.052l-0.237,0.049l-0.242,0.046l-0.245,0.044l-0.249,0.041l-0.253,0.037l-0.256,0.033l-0.023,0.003l-0.121,0.149l-0.161,0.187l-0.165,0.177l-0.164,0.169l-0.166,0.159l-0.165,0.151l-0.165,0.143l-0.117,0.096l-0.493,0.36l-0.532,0.3l-0.564,0.237l-0.169,0.06l-0.207,0.07l-0.208,0.067l-0.209,0.065l-0.211,0.062l-0.212,0.06l-0.214,0.058l-0.215,0.056l-0.217,0.054l-0.218,0.052l-0.221,0.05l-0.223,0.049l-0.225,0.047l-0.228,0.045l-0.23,0.044l-0.232,0.043l-0.234,0.041l-0.237,0.04l-0.24,0.039l-0.242,0.037l-0.246,0.037l-0.247,0.035l-0.251,0.034l-0.253,0.032l-0.257,0.032l-0.259,0.031l-0.263,0.029l-0.265,0.029l-0.268,0.027l-0.272,0.027l-0.275,0.025l-0.277,0.025l-0.281,0.023l-0.285,0.023l-0.287,0.022l-0.291,0.02l-0.293,0.02l-0.298,0.019l-0.3,0.018l-0.304,0.017l-0.307,0.016l-0.311,0.015l-0.314,0.015l-0.318,0.013l-0.321,0.013l-0.324,0.011l-0.328,0.011l-0.331,0.01l-0.335,0.009l-0.338,0.009l-0.342,0.007l-0.345,0.007l-0.348,0.005l-0.353,0.005l-0.356,0.004l-0.359,0.003l-0.363,0.003l-0.366,0.001l-0.37,0.001l-0.374,0l-0.377,-0.001l-0.381,-0.002l-0.385,-0.002l-0.388,-0.004l-0.391,-0.004l-0.398,-0.005l-0.799,-0.013l-0.816,-0.016l-0.831,-0.019l-0.845,-0.022l-0.86,-0.026l-0.874,-0.029l-0.89,-0.032l-0.903,-0.035l-0.919,-0.039l-0.934,-0.042l-0.948,-0.045l-0.963,-0.048l-0.978,-0.052l-0.993,-0.054l-1.008,-0.058l-1.022,-0.061l-1.038,-0.065l-1.052,-0.067l-1.067,-0.071l-1.082,-0.073l-1.097,-0.078l-1.112,-0.08l-1.127,-0.083l-1.142,-0.087l-1.157,-0.09l-1.171,-0.093l-1.187,-0.096l-1.202,-0.099l-1.216,-0.102l-1.232,-0.106l-1.267,-0.111l-0.119,-0.011l-0.145,-0.017l-0.142,-0.02l-0.142,-0.022l-0.142,-0.025l-0.142,-0.028l-0.14,-0.03l-0.138,-0.033l-0.138,-0.035l-0.137,-0.038l-0.137,-0.041l-0.135,-0.043l-0.135,-0.046l-0.133,-0.048l-0.132,-0.05l-0.13,-0.053l-0.129,-0.055l-0.128,-0.058l-0.128,-0.061l-0.126,-0.062l-0.123,-0.064l-0.124,-0.067l-0.121,-0.069l-0.12,-0.072l-0.118,-0.073l-0.118,-0.076l-0.115,-0.077l-0.114,-0.08l-0.113,-0.082l-0.111,-0.084l-0.109,-0.086l-0.108,-0.088l-0.106,-0.09l-0.104,-0.092l-0.102,-0.094l-0.101,-0.096l-0.1,-0.098l-0.097,-0.1l-0.095,-0.101l-0.094,-0.104l-0.092,-0.105l-0.089,-0.107l-0.089,-0.109l-0.086,-0.111l-0.083,-0.112l-0.082,-0.113l-0.08,-0.116l-0.078,-0.118l-0.075,-0.119l-0.074,-0.12l-0.071,-0.123l-0.069,-0.124l-0.067,-0.125l-0.064,-0.126l-0.063,-0.129l-0.06,-0.129l-0.057,-0.131l-0.055,-0.133l-0.053,-0.133l-0.05,-0.135l-0.047,-0.136l-0.045,-0.137l-0.043,-0.138l-0.032,-0.115l-4.44,-16.152l-0.165,-0.086l-0.192,-0.101l-0.191,-0.103l-0.19,-0.105l-0.19,-0.105l-0.189,-0.107l-0.188,-0.108l-0.187,-0.109l-0.186,-0.11l-0.186,-0.112l-0.185,-0.113l-0.184,-0.114l-0.183,-0.115l-0.183,-0.116l-0.181,-0.118l-0.181,-0.119l-0.18,-0.12l-0.179,-0.121l-0.178,-0.123l-0.178,-0.123l-0.177,-0.125l-0.175,-0.126l-0.175,-0.127l-0.174,-0.128l-0.174,-0.13l-0.172,-0.131l-0.172,-0.131l-0.17,-0.133l-0.17,-0.134l-0.169,-0.136l-0.168,-0.136l-0.168,-0.138l-0.166,-0.138l-0.166,-0.14l-0.164,-0.141l-0.164,-0.142l-0.163,-0.143l-0.162,-0.144l-0.161,-0.145l-0.16,-0.147l-0.16,-0.147l-0.158,-0.149l-0.158,-0.149l-0.156,-0.151l-0.156,-0.152l-0.155,-0.153l-0.154,-0.154l-0.153,-0.155l-0.152,-0.156l-0.152,-0.157l-0.15,-0.158l-0.149,-0.159l-0.149,-0.16l-0.148,-0.161l-0.146,-0.162l-0.146,-0.164l-0.145,-0.164l-0.144,-0.165l-0.143,-0.166l-0.143,-0.168l-0.141,-0.168l-0.14,-0.169l-0.14,-0.17l-0.139,-0.172l-0.137,-0.172l-0.137,-0.173l-0.136,-0.174l-0.135,-0.175l-0.134,-0.176l-0.133,-0.177l-0.132,-0.178l-0.132,-0.179l-0.13,-0.18l-0.129,-0.181l-0.129,-0.182l-0.128,-0.182l-0.126,-0.184l-0.126,-0.184l-0.125,-0.186l-0.124,-0.186l-0.123,-0.188l-0.123,-0.188l-0.121,-0.189l-0.12,-0.19l-0.12,-0.191l-0.118,-0.192l-0.118,-0.192l-0.117,-0.194l-0.116,-0.194l-0.115,-0.196l-0.114,-0.196l-0.113,-0.197l-0.113,-0.198l-0.111,-0.199l-0.11,-0.199l-0.11,-0.201l-0.109,-0.201l-0.108,-0.203l-0.107,-0.203l-0.106,-0.204l-0.105,-0.205l-0.104,-0.205l-0.103,-0.207l-0.103,-0.207l-0.102,-0.208l-0.1,-0.209l-0.1,-0.21l-0.099,-0.211l-0.098,-0.211l-0.098,-0.213l-0.096,-0.213l-0.095,-0.214l-0.095,-0.215l-0.094,-0.215l-0.092,-0.217l-0.092,-0.217l-0.091,-0.218l-0.091,-0.219l-0.089,-0.219l-0.089,-0.221l-0.087,-0.221l-0.087,-0.222l-0.086,-0.223l-0.085,-0.224l-0.084,-0.224l-0.083,-0.225l-0.083,-0.226l-0.081,-0.227l-0.081,-0.228l-0.08,-0.228l-0.079,-0.229l-0.078,-0.23l-0.077,-0.231l-0.077,-0.231l-0.076,-0.232l-0.074,-0.233l-0.074,-0.234l-0.073,-0.235l-0.073,-0.235l-0.071,-0.236l-0.07,-0.237l-0.07,-0.238l-0.069,-0.238l-0.068,-0.239l-0.067,-0.24l-0.066,-0.241l-0.066,-0.241l-0.065,-0.242l-0.063,-0.243l-0.063,-0.244l-0.063,-0.244l-0.061,-0.245l-0.06,-0.246l-0.06,-0.247l-0.059,-0.247l-0.058,-0.248l-0.057,-0.249l-0.056,-0.25l-0.056,-0.25l-0.054,-0.251l-0.054,-0.252l-0.053,-0.252l-0.053,-0.254l-0.051,-0.253l-0.05,-0.255l-0.05,-0.256l-0.049,-0.256l-0.048,-0.257l-0.047,-0.257l-0.047,-0.259l-0.045,-0.259l-0.045,-0.26l-0.044,-0.26l-0.043,-0.261l-0.043,-0.262l-0.041,-0.263l-0.041,-0.264l-0.04,-0.264l-0.039,-0.265l-0.038,-0.265l-0.038,-0.266l-0.037,-0.267l-0.035,-0.268l-0.035,-0.268l-0.035,-0.27l-0.033,-0.269l-0.033,-0.271l-0.031,-0.271l-0.031,-0.272l-0.031,-0.273l-0.029,-0.273l-0.029,-0.274l-0.027,-0.275l-0.027,-0.275l-0.026,-0.277l-0.026,-0.276l-0.024,-0.278l-0.024,-0.278l-0.023,-0.279l-0.022,-0.28l-0.021,-0.28l-0.021,-0.281l-0.019,-0.282l-0.019,-0.282l-0.018,-0.283l-0.018,-0.284l-0.016,-0.285l-0.016,-0.285l-0.015,-0.286l-0.014,-0.286l-0.013,-0.287l-0.013,-0.288l-0.011,-0.289l-0.011,-0.289l-0.01,-0.29l-0.01,-0.291l-0.008,-0.291l-0.008,-0.292l-0.007,-0.293l-0.006,-0.293l-0.005,-0.294l-0.004,-0.295l-0.004,-0.295l-0.003,-0.296l-0.002,-0.297l-0.001,-0.297l-0.001,-0.298l0.001,-0.299l0.001,-0.3l0.002,-0.3l0.002,-0.3l0.004,-0.302l0.004,-0.302l0.005,-0.302l0.006,-0.304l0.007,-0.307l0.016,-0.607l0.019,-0.613l0.022,-0.615l0.024,-0.577l0.01,-0.347l0.013,-0.378l0.013,-0.378l0.014,-0.376l0.015,-0.376l0.016,-0.375l0.017,-0.374l0.017,-0.373l0.018,-0.372l0.019,-0.371l0.02,-0.371l0.02,-0.369l0.022,-0.369l0.022,-0.367l0.023,-0.367l0.024,-0.366l0.024,-0.364l0.026,-0.364l0.026,-0.363l0.027,-0.362l0.028,-0.361l0.028,-0.36l0.03,-0.359l0.03,-0.358l0.031,-0.358l0.032,-0.356l0.033,-0.355l0.033,-0.355l0.035,-0.353l0.035,-0.352l0.036,-0.352l0.036,-0.35l0.038,-0.35l0.038,-0.348l0.039,-0.348l0.04,-0.346l0.041,-0.345l0.042,-0.345l0.042,-0.343l0.043,-0.343l0.044,-0.341l0.045,-0.341l0.046,-0.339l0.046,-0.339l0.048,-0.337l0.048,-0.337l0.049,-0.335l0.049,-0.334l0.051,-0.334l0.051,-0.332l0.052,-0.331l0.053,-0.331l0.054,-0.329l0.055,-0.328l0.055,-0.327l0.057,-0.326l0.057,-0.325l0.057,-0.324l0.059,-0.323l0.06,-0.322l0.06,-0.321l0.061,-0.319l0.062,-0.319l0.063,-0.318l0.064,-0.316l0.064,-0.315l0.065,-0.315l0.066,-0.313l0.067,-0.312l0.068,-0.311l0.069,-0.31l0.069,-0.309l0.07,-0.308l0.071,-0.307l0.072,-0.305l0.073,-0.305l0.074,-0.303l0.074,-0.302l0.075,-0.301l0.076,-0.3l0.077,-0.299l0.078,-0.298l0.079,-0.297l0.079,-0.295l0.081,-0.295l0.081,-0.293l0.082,-0.292l0.083,-0.291l0.083,-0.29l0.085,-0.289l0.085,-0.287l0.086,-0.287l0.088,-0.285l0.088,-0.284l0.088,-0.283l0.09,-0.282l0.091,-0.281l0.091,-0.279l0.092,-0.279l0.094,-0.277l0.094,-0.276l0.095,-0.274l0.095,-0.274l0.097,-0.272l0.098,-0.272l0.098,-0.27l0.099,-0.269l0.101,-0.267l0.101,-0.267l0.102,-0.265l0.103,-0.264l0.104,-0.263l0.104,-0.262l0.106,-0.26l0.107,-0.259l0.107,-0.258l0.108,-0.257l0.11,-0.256l0.11,-0.254l0.111,-0.253l0.112,-0.252l0.113,-0.251l0.114,-0.249l0.115,-0.248l0.116,-0.247l0.116,-0.246l0.118,-0.244l0.119,-0.243l0.119,-0.242l0.121,-0.241l0.121,-0.239l0.123,-0.238l0.123,-0.237l0.125,-0.235l0.125,-0.235l0.126,-0.233l0.128,-0.231l0.128,-0.23l0.129,-0.229l0.131,-0.228l0.131,-0.227l0.133,-0.225l0.133,-0.223l0.134,-0.223l0.136,-0.221l0.136,-0.22l0.138,-0.218l0.138,-0.217l0.14,-0.216l0.14,-0.214l0.142,-0.213l0.143,-0.211l0.144,-0.211l0.144,-0.209l0.146,-0.207l0.147,-0.206l0.148,-0.204l0.15,-0.204l0.15,-0.201l0.151,-0.201l0.153,-0.199l0.153,-0.197l0.155,-0.196l0.156,-0.194l0.157,-0.194l0.158,-0.191l0.159,-0.19l0.16,-0.189l0.161,-0.187l0.163,-0.185l0.164,-0.184l0.164,-0.183l0.166,-0.181l0.168,-0.179l0.168,-0.178l0.169,-0.176l0.171,-0.175l0.172,-0.173l0.173,-0.171l0.174,-0.17l0.175,-0.168l0.177,-0.166l0.178,-0.165l0.179,-0.163l0.18,-0.162l0.181,-0.159l0.182,-0.158l0.184,-0.157l0.185,-0.154l0.186,-0.153l0.187,-0.151l0.189,-0.149l0.189,-0.148l0.191,-0.145l0.192,-0.144l0.193,-0.142l0.195,-0.14l0.195,-0.138l0.197,-0.136l0.198,-0.135l0.199,-0.132l0.2,-0.131l0.202,-0.128l0.202,-0.127l0.204,-0.124l0.205,-0.123l0.206,-0.12l0.207,-0.119l0.208,-0.116l0.21,-0.115l0.21,-0.112l0.212,-0.11l0.213,-0.109l0.213,-0.106l0.215,-0.103l0.216,-0.102l0.217,-0.1l0.218,-0.097l0.219,-0.095l0.22,-0.093l0.221,-0.091l0.222,-0.088l0.223,-0.086l0.224,-0.084l0.225,-0.082l0.226,-0.079l0.227,-0.077l0.227,-0.075l0.229,-0.072l0.229,-0.071l0.231,-0.067l0.231,-0.066l0.232,-0.063l0.233,-0.061l0.233,-0.058l0.235,-0.056l0.235,-0.053l0.236,-0.051l0.236,-0.049l0.237,-0.047l0.238,-0.044l0.239,-0.041l0.239,-0.039l0.24,-0.037l0.241,-0.034l0.241,-0.032l0.242,-0.029l0.242,-0.027l0.243,-0.025l0.244,-0.022l0.244,-0.02l0.244,-0.017l0.245,-0.015l0.246,-0.012l0.246,-0.01l0.203,-0.006l0.201,-0.008l0.257,-0.006l0.256,-0.002l0.256,0.002l0.255,0.006l0.255,0.009l0.254,0.013l0.254,0.017l0.253,0.02l0.253,0.024l0.252,0.028l0.252,0.032l0.25,0.035l0.25,0.039l0.249,0.043l0.248,0.047l0.248,0.05l0.246,0.053l0.245,0.058l0.244,0.061l0.243,0.064l0.242,0.069l0.241,0.072l0.24,0.075l0.238,0.079l0.237,0.082l0.236,0.086l0.234,0.09l0.233,0.093l0.231,0.096l0.23,0.1l0.228,0.103l0.227,0.107l0.225,0.11l0.223,0.113l0.222,0.117l0.22,0.12l0.218,0.123l0.216,0.127l0.215,0.13l0.212,0.133l0.211,0.136l0.209,0.139l0.206,0.142l0.205,0.146l0.202,0.149l0.201,0.151l0.198,0.155l0.196,0.158l0.194,0.16l0.192,0.164l0.189,0.167l0.188,0.169l0.184,0.172l0.183,0.175l0.18,0.178l0.178,0.181l0.175,0.183l0.173,0.186l0.17,0.189l0.168,0.191l0.165,0.194l0.163,0.197l0.16,0.199l0.157,0.201l0.155,0.205l0.152,0.206l0.15,0.209l0.146,0.212l0.145,0.213l0.141,0.217l0.138,0.218l0.136,0.221l0.133,0.223l0.13,0.225l0.128,0.227l0.124,0.23l0.122,0.232l0.118,0.234l0.116,0.235l0.113,0.238l0.11,0.24l0.107,0.242l0.104,0.244l0.101,0.246l0.098,0.248l0.095,0.249l0.092,0.252l0.089,0.253l0.086,0.255l0.083,0.257l0.079,0.259l0.077,0.26l0.074,0.262l0.07,0.264l0.067,0.265l0.065,0.267l0.061,0.269l0.058,0.27l0.054,0.272l0.052,0.273l0.049,0.275l0.045,0.276l0.042,0.278l0.039,0.279l0.035,0.28l0.033,0.282l0.029,0.283l0.026,0.285l0.023,0.286l0.019,0.287l0.016,0.289l0.013,0.289l0.01,0.291l0.006,0.293l0.003,0.293l0,0.295l-0.003,0.296l-0.007,0.297l-0.01,0.298l-0.014,0.299l-0.017,0.3l-0.02,0.302l-0.023,0.303l-0.027,0.303l-0.03,0.305l-0.034,0.305l-0.036,0.301l-0.024,0.191l-0.025,0.184l-0.026,0.183l-0.026,0.182l-0.028,0.18l-0.029,0.18l-0.029,0.178l-0.03,0.177l-0.032,0.176l-0.032,0.175l-0.033,0.174l-0.034,0.173l-0.036,0.171l-0.036,0.171l-0.037,0.169l-0.037,0.168l-0.039,0.167l-0.04,0.167l-0.041,0.165l-0.041,0.164l-0.043,0.162l-0.043,0.162l-0.044,0.161l-0.046,0.16l-0.046,0.158l-0.047,0.158l-0.048,0.156l-0.049,0.156l-0.05,0.154l-0.051,0.153l-0.052,0.153l-0.052,0.151l-0.054,0.15l-0.054,0.149l-0.056,0.148l-0.056,0.147l-0.057,0.146l-0.058,0.145l-0.059,0.144l-0.06,0.143l-0.061,0.142l-0.062,0.141l-0.063,0.139l-0.063,0.139l-0.065,0.138l-0.065,0.136l-0.066,0.136l-0.035,0.07l0.331,-0.228l0.344,-0.233l0.346,-0.231l0.347,-0.229l0.35,-0.228l0.351,-0.225l0.353,-0.223l0.355,-0.22l0.356,-0.219l0.358,-0.217l0.36,-0.214l0.362,-0.213l0.364,-0.21l0.365,-0.208l0.367,-0.206l0.369,-0.204l0.371,-0.202l0.372,-0.2l0.374,-0.197l0.376,-0.195l0.378,-0.193l0.379,-0.191l0.381,-0.189l0.382,-0.186l0.385,-0.184l0.386,-0.182l0.388,-0.18l0.389,-0.178l0.391,-0.175l0.393,-0.173l0.395,-0.171l0.396,-0.169l0.398,-0.166l0.399,-0.164l0.401,-0.162l0.403,-0.159l0.405,-0.158l0.406,-0.155l0.408,-0.152l0.409,-0.151l0.411,-0.148l0.413,-0.146l0.414,-0.143l0.416,-0.141l0.418,-0.139l0.419,-0.136l0.421,-0.135l0.422,-0.131l0.424,-0.13l0.426,-0.127l0.427,-0.125l0.429,-0.122l0.43,-0.12l0.432,-0.118l0.434,-0.115l0.435,-0.113l0.437,-0.111l0.438,-0.108l0.44,-0.105l0.441,-0.104l0.443,-0.101l0.445,-0.098l0.446,-0.096l0.447,-0.094l0.449,-0.091l0.451,-0.089l0.452,-0.087l0.454,-0.084l0.455,-0.081l0.457,-0.079l0.459,-0.077l0.459,-0.074l0.458,-0.071l-0.002,-0.008l-0.022,-0.145l-0.022,-0.145l-0.019,-0.146l-0.018,-0.145l-0.017,-0.145l-0.015,-0.145l-0.014,-0.145l-0.012,-0.145l-0.01,-0.145l-0.01,-0.145l-0.007,-0.144l-0.007,-0.145l-0.005,-0.144l-0.003,-0.144l-0.003,-0.144l0,-0.144l0,-0.144l0.002,-0.143l0.004,-0.144l0.004,-0.143l0.006,-0.143l0.007,-0.143l0.009,-0.143l0.01,-0.142l0.011,-0.142l0.013,-0.143l0.014,-0.141l0.015,-0.142l0.016,-0.141l0.018,-0.142l0.019,-0.141l0.02,-0.14l0.021,-0.141l0.023,-0.14l0.024,-0.14l0.025,-0.14l0.027,-0.14l0.027,-0.139l0.029,-0.139l0.03,-0.138l0.032,-0.139l0.033,-0.138l0.033,-0.138l0.036,-0.137l0.036,-0.138l0.038,-0.137l0.038,-0.136l0.041,-0.137l0.041,-0.136l0.043,-0.135l0.043,-0.136l0.046,-0.135l0.046,-0.134l0.048,-0.135l0.048,-0.134l0.051,-0.133l0.051,-0.133l0.053,-0.133l0.054,-0.133l0.055,-0.132l0.056,-0.131l0.058,-0.132l0.059,-0.13l0.061,-0.131l0.061,-0.13l0.064,-0.129l0.064,-0.129l0.066,-0.129l0.067,-0.128l0.068,-0.127l0.07,-0.127l0.071,-0.127l0.073,-0.126l0.074,-0.126l0.075,-0.124l0.077,-0.125l0.078,-0.124l0.079,-0.123l0.081,-0.122l0.083,-0.122l0.084,-0.121l0.085,-0.121l0.087,-0.12l0.089,-0.119l0.09,-0.119l0.091,-0.118l0.093,-0.117l0.095,-0.116l0.095,-0.115l0.098,-0.115l0.099,-0.114l0.101,-0.113l0.102,-0.112l0.105,-0.111l0.105,-0.11l0.108,-0.11l0.108,-0.108l0.111,-0.107l0.112,-0.106l0.114,-0.105l0.116,-0.104l0.117,-0.102l0.119,-0.102l0.121,-0.1l0.122,-0.099l0.124,-0.098l0.126,-0.096l0.127,-0.095l0.129,-0.094l0.131,-0.092l0.133,-0.09l0.134,-0.089l0.136,-0.088l0.138,-0.085l0.139,-0.084l0.141,-0.083l0.143,-0.08l0.144,-0.079l0.146,-0.077l0.148,-0.075l0.149,-0.073l0.151,-0.07l0.152,-0.069l0.154,-0.067l0.155,-0.065l0.157,-0.062l0.158,-0.06l0.159,-0.058l0.161,-0.056l0.162,-0.053l0.164,-0.051l0.164,-0.048l0.166,-0.046l0.167,-0.043l0.168,-0.041l0.169,-0.038l0.171,-0.036l0.171,-0.033l0.172,-0.03l0.172,-0.027l0.174,-0.025l0.174,-0.022l0.175,-0.02l0.176,-0.016l0.176,-0.014l0.177,-0.011l0.177,-0.008l0.177,-0.006l0.178,-0.002l0.178,0l0.179,0.003l0.178,0.006l0.053,0.002l0.016,-0.019l0.123,-0.152l0.125,-0.15l0.126,-0.149l0.128,-0.147l0.129,-0.145l0.13,-0.144l0.132,-0.141l0.133,-0.14l0.135,-0.139l0.136,-0.137l0.137,-0.134l0.138,-0.134l0.14,-0.131l0.141,-0.13l0.142,-0.128l0.143,-0.127l0.144,-0.124l0.145,-0.123l0.146,-0.122l0.148,-0.119l0.148,-0.118l0.15,-0.117l0.15,-0.115l0.151,-0.113l0.152,-0.111l0.153,-0.11l0.154,-0.108l0.155,-0.107l0.156,-0.105l0.157,-0.103l0.157,-0.102l0.158,-0.1l0.159,-0.099l0.16,-0.097l0.16,-0.096l0.161,-0.094l0.162,-0.092l0.162,-0.091l0.164,-0.089l0.163,-0.088l0.165,-0.087l0.165,-0.084l0.166,-0.084l0.166,-0.082l0.167,-0.08l0.167,-0.079l0.169,-0.078l0.168,-0.076l0.169,-0.074l0.17,-0.074l0.17,-0.071l0.17,-0.071l0.171,-0.069l0.172,-0.067l0.172,-0.066l0.173,-0.065l0.172,-0.064l0.174,-0.062l0.173,-0.06l0.175,-0.06l0.174,-0.058l0.175,-0.056l0.175,-0.055l0.176,-0.054l0.176,-0.053l0.176,-0.051l0.177,-0.05l0.177,-0.049l0.177,-0.047l0.178,-0.047l0.178,-0.044l0.178,-0.044l0.178,-0.042l0.179,-0.041l0.179,-0.04l0.179,-0.038l0.18,-0.038l0.18,-0.035l0.18,-0.035l0.18,-0.034l0.18,-0.032l0.181,-0.031l0.18,-0.03l0.181,-0.028l0.181,-0.027l0.182,-0.026l0.181,-0.025l0.182,-0.024l0.182,-0.022l0.181,-0.022l0.182,-0.02l0.182,-0.018l0.183,-0.018l0.182,-0.016l0.182,-0.016l0.183,-0.014l0.183,-0.012l0.182,-0.012l0.183,-0.01l0.183,-0.01l0.183,-0.008l0.182,-0.007l0.183,-0.005l0.183,-0.005l0.183,-0.003l0.183,-0.002l0.183,-0.001l0.183,0l0.183,0.001l0.183,0.003l0.183,0.003l0.182,0.005l0.183,0.006l0.183,0.007l0.183,0.009l0.182,0.009l0.183,0.011l0.182,0.012l0.183,0.013l0.182,0.014l0.182,0.016l0.182,0.016l0.182,0.018l0.182,0.019l0.181,0.02l0.182,0.021l0.181,0.023l0.181,0.024l0.181,0.024l0.181,0.026l0.181,0.028l0.18,0.028l0.181,0.03l0.18,0.03l0.179,0.032l0.18,0.034l0.179,0.034l0.18,0.035l0.178,0.037l0.179,0.038l0.178,0.039l0.178,0.041l0.178,0.041l0.178,0.043l0.177,0.044l0.177,0.046l0.176,0.046l0.177,0.048l0.176,0.049l0.175,0.05l0.175,0.052l0.175,0.052l0.175,0.054l0.174,0.056l0.174,0.056l0.173,0.058l0.173,0.059l0.172,0.06l0.172,0.062l0.172,0.063l0.171,0.064l0.171,0.066l0.17,0.066l0.17,0.069l0.169,0.069l0.169,0.071l0.168,0.072l0.168,0.073l0.167,0.075l0.167,0.076l0.166,0.078l0.166,0.079l0.165,0.08l0.164,0.082l0.164,0.083l0.163,0.084l0.162,0.086l0.162,0.087l0.162,0.089l0.16,0.09l0.16,0.092l0.159,0.093l0.159,0.094l0.157,0.096l0.157,0.098l0.157,0.099l0.155,0.1l0.155,0.102l0.153,0.103l0.153,0.105l0.153,0.106l0.151,0.108l0.15,0.11l0.15,0.111l0.014,0.01l7.549,-9.312l0.115,-0.138l0.139,-0.159l0.144,-0.156l0.146,-0.152l0.15,-0.148l0.154,-0.145l0.157,-0.14l0.16,-0.136l0.163,-0.132l0.166,-0.127l0.169,-0.124l0.172,-0.119l0.175,-0.115l0.177,-0.111l0.18,-0.106l0.182,-0.102l0.185,-0.097l0.187,-0.093l0.189,-0.088l0.192,-0.083l0.193,-0.079l0.196,-0.075l0.198,-0.069l0.2,-0.065l0.201,-0.06l0.203,-0.055l0.204,-0.05l0.206,-0.045l0.208,-0.04l0.209,-0.035l0.21,-0.03l0.211,-0.025l0.211,-0.019l0.212,-0.014l0.211,-0.009l0.212,-0.004l0.21,0.002Zm-0.264,5.263l-0.082,0.003l-0.082,0.006l-0.081,0.007l-0.082,0.01l-0.081,0.011l-0.08,0.014l-0.08,0.015l-0.079,0.018l-0.079,0.019l-0.078,0.021l-0.078,0.023l-0.077,0.025l-0.076,0.027l-0.075,0.029l-0.075,0.03l-0.074,0.032l-0.073,0.034l-0.072,0.036l-0.071,0.038l-0.07,0.039l-0.07,0.041l-0.068,0.042l-0.067,0.045l-0.066,0.046l-0.066,0.047l-0.064,0.049l-0.062,0.051l-0.062,0.053l-0.061,0.054l-0.059,0.055l-0.058,0.057l-0.056,0.059l-0.055,0.06l-0.054,0.061l-0.052,0.063l-11.385,14.043l-0.064,-0.117l-0.065,-0.115l-0.067,-0.115l-0.068,-0.114l-0.069,-0.113l-0.07,-0.112l-0.072,-0.111l-0.074,-0.11l-0.074,-0.109l-0.076,-0.109l-0.077,-0.107l-0.078,-0.107l-0.08,-0.105l-0.081,-0.105l-0.082,-0.104l-0.083,-0.103l-0.084,-0.102l-0.086,-0.101l-0.087,-0.1l-0.088,-0.099l-0.089,-0.099l-0.09,-0.097l-0.092,-0.097l-0.092,-0.095l-0.094,-0.095l-0.095,-0.094l-0.095,-0.093l-0.097,-0.091l-0.098,-0.092l-0.099,-0.09l-0.1,-0.089l-0.102,-0.088l-0.102,-0.087l-0.103,-0.087l-0.104,-0.085l-0.105,-0.085l-0.106,-0.084l-0.107,-0.082l-0.109,-0.082l-0.109,-0.081l-0.11,-0.08l-0.11,-0.079l-0.112,-0.079l-0.113,-0.077l-0.113,-0.076l-0.115,-0.075l-0.115,-0.075l-0.117,-0.073l-0.117,-0.073l-0.117,-0.072l-0.119,-0.071l-0.12,-0.069l-0.12,-0.069l-0.121,-0.068l-0.122,-0.067l-0.123,-0.066l-0.123,-0.066l-0.124,-0.064l-0.125,-0.063l-0.126,-0.063l-0.126,-0.061l-0.127,-0.061l-0.128,-0.059l-0.128,-0.059l-0.13,-0.058l-0.129,-0.057l-0.131,-0.056l-0.131,-0.055l-0.131,-0.054l-0.133,-0.053l-0.133,-0.052l-0.133,-0.051l-0.134,-0.05l-0.135,-0.05l-0.135,-0.048l-0.136,-0.048l-0.136,-0.046l-0.137,-0.046l-0.137,-0.045l-0.138,-0.043l-0.139,-0.043l-0.138,-0.042l-0.14,-0.041l-0.139,-0.04l-0.141,-0.039l-0.14,-0.038l-0.141,-0.037l-0.142,-0.036l-0.142,-0.036l-0.142,-0.034l-0.143,-0.033l-0.143,-0.033l-0.143,-0.031l-0.144,-0.031l-0.144,-0.03l-0.144,-0.028l-0.145,-0.028l-0.145,-0.027l-0.146,-0.026l-0.145,-0.025l-0.146,-0.024l-0.146,-0.023l-0.147,-0.022l-0.146,-0.021l-0.147,-0.02l-0.147,-0.019l-0.148,-0.018l-0.147,-0.018l-0.148,-0.016l-0.148,-0.015l-0.148,-0.015l-0.148,-0.013l-0.148,-0.013l-0.149,-0.012l-0.148,-0.01l-0.149,-0.01l-0.149,-0.009l-0.148,-0.007l-0.149,-0.007l-0.149,-0.006l-0.149,-0.005l-0.15,-0.004l-0.149,-0.003l-0.149,-0.002l-0.149,-0.001l-0.149,0l-0.149,0l-0.149,0.002l-0.149,0.003l-0.149,0.004l-0.149,0.004l-0.149,0.006l-0.149,0.007l-0.149,0.007l-0.148,0.009l-0.149,0.009l-0.148,0.01l-0.148,0.012l-0.149,0.012l-0.147,0.013l-0.148,0.015l-0.148,0.015l-0.147,0.016l-0.147,0.017l-0.147,0.018l-0.147,0.02l-0.147,0.02l-0.146,0.021l-0.146,0.022l-0.146,0.023l-0.145,0.024l-0.145,0.025l-0.145,0.025l-0.145,0.027l-0.144,0.028l-0.144,0.029l-0.144,0.03l-0.143,0.03l-0.143,0.032l-0.142,0.033l-0.142,0.033l-0.142,0.035l-0.141,0.035l-0.141,0.037l-0.14,0.038l-0.14,0.038l-0.14,0.04l-0.139,0.04l-0.138,0.041l-0.138,0.043l-0.138,0.043l-0.137,0.045l-0.136,0.045l-0.136,0.046l-0.136,0.048l-0.135,0.048l-0.134,0.049l-0.134,0.05l-0.133,0.052l-0.133,0.052l-0.132,0.053l-0.131,0.054l-0.131,0.055l-0.13,0.056l-0.129,0.058l-0.129,0.058l-0.128,0.059l-0.127,0.06l-0.127,0.061l-0.126,0.062l-0.125,0.063l-0.124,0.064l-0.124,0.065l-0.123,0.066l-0.122,0.067l-0.122,0.068l-0.121,0.069l-0.119,0.07l-0.119,0.07l-0.119,0.072l-0.117,0.073l-0.117,0.074l-0.115,0.075l-0.115,0.076l-0.114,0.077l-0.113,0.078l-0.112,0.078l-0.112,0.08l-0.11,0.081l-0.11,0.082l-0.108,0.083l-0.108,0.083l-0.106,0.085l-0.106,0.086l-0.104,0.087l-0.104,0.088l-0.102,0.088l-0.102,0.09l-0.101,0.091l-0.099,0.092l-0.099,0.092l-0.097,0.094l-0.096,0.095l-0.095,0.096l-0.095,0.096l-0.093,0.098l-0.091,0.099l-0.091,0.1l-0.09,0.101l-0.088,0.101l-0.088,0.103l-0.086,0.104l-0.085,0.105l-0.083,0.105l-0.083,0.107l-0.081,0.108l-0.08,0.109l-0.079,0.11l-0.078,0.11l-0.076,0.112l-0.075,0.113l-0.074,0.114l-0.073,0.115l-0.071,0.116l-0.07,0.116l-0.068,0.118l-0.067,0.119l-0.066,0.12l-0.065,0.121l-0.063,0.122l-0.061,0.123l-0.061,0.124l-0.059,0.125l-0.057,0.125l-0.056,0.127l-0.055,0.128l-0.109,-0.048l-0.109,-0.047l-0.109,-0.045l-0.108,-0.043l-0.108,-0.042l-0.107,-0.039l-0.107,-0.038l-0.106,-0.036l-0.106,-0.034l-0.105,-0.033l-0.105,-0.031l-0.104,-0.029l-0.104,-0.027l-0.103,-0.026l-0.103,-0.024l-0.102,-0.022l-0.102,-0.021l-0.101,-0.019l-0.101,-0.017l-0.1,-0.016l-0.1,-0.014l-0.1,-0.012l-0.098,-0.011l-0.099,-0.01l-0.097,-0.007l-0.098,-0.007l-0.096,-0.004l-0.097,-0.003l-0.095,-0.002l-0.095,0l-0.095,0.001l-0.094,0.003l-0.094,0.004l-0.092,0.006l-0.093,0.008l-0.092,0.008l-0.091,0.01l-0.091,0.012l-0.09,0.013l-0.09,0.014l-0.089,0.016l-0.088,0.017l-0.088,0.018l-0.088,0.02l-0.086,0.021l-0.087,0.022l-0.085,0.024l-0.085,0.025l-0.085,0.026l-0.084,0.028l-0.083,0.028l-0.083,0.03l-0.082,0.032l-0.082,0.032l-0.081,0.034l-0.08,0.035l-0.08,0.036l-0.079,0.037l-0.078,0.038l-0.078,0.04l-0.077,0.041l-0.077,0.041l-0.076,0.043l-0.076,0.044l-0.074,0.045l-0.074,0.047l-0.074,0.047l-0.073,0.048l-0.072,0.049l-0.072,0.051l-0.071,0.051l-0.07,0.053l-0.07,0.053l-0.069,0.054l-0.068,0.056l-0.068,0.056l-0.067,0.057l-0.066,0.058l-0.066,0.059l-0.065,0.06l-0.065,0.061l-0.063,0.062l-0.063,0.063l-0.063,0.063l-0.061,0.065l-0.061,0.065l-0.061,0.066l-0.059,0.067l-0.059,0.067l-0.059,0.069l-0.057,0.069l-0.057,0.07l-0.056,0.07l-0.056,0.072l-0.054,0.072l-0.054,0.073l-0.054,0.074l-0.052,0.074l-0.052,0.075l-0.051,0.076l-0.051,0.076l-0.05,0.077l-0.049,0.077l-0.048,0.079l-0.047,0.078l-0.047,0.08l-0.046,0.08l-0.046,0.08l-0.044,0.082l-0.044,0.081l-0.043,0.083l-0.042,0.082l-0.042,0.084l-0.041,0.083l-0.04,0.085l-0.039,0.084l-0.039,0.086l-0.037,0.085l-0.037,0.086l-0.037,0.087l-0.035,0.087l-0.035,0.087l-0.034,0.088l-0.033,0.088l-0.032,0.089l-0.031,0.088l-0.031,0.09l-0.03,0.089l-0.029,0.09l-0.028,0.09l-0.028,0.091l-0.027,0.091l-0.026,0.091l-0.025,0.091l-0.024,0.091l-0.023,0.092l-0.023,0.092l-0.022,0.092l-0.021,0.093l-0.02,0.093l-0.019,0.092l-0.019,0.093l-0.017,0.093l-0.017,0.094l-0.016,0.093l-0.015,0.094l-0.015,0.093l-0.013,0.094l-0.013,0.094l-0.011,0.094l-0.011,0.094l-0.01,0.094l-0.01,0.094l-0.008,0.094l-0.007,0.094l-0.007,0.094l-0.005,0.094l-0.005,0.094l-0.004,0.094l-0.003,0.094l-0.002,0.094l-0.002,0.094l0,0.093l0,0.094l0.002,0.094l0.002,0.093l0.003,0.093l0.004,0.093l0.005,0.093l0.006,0.093l0.007,0.093l0.008,0.092l0.009,0.092l0.009,0.092l0.011,0.092l0.011,0.092l0.012,0.091l0.014,0.091l0.014,0.091l0.015,0.09l0.016,0.09l0.017,0.09l0.018,0.09l0.019,0.089l0.02,0.089l0.021,0.088l0.022,0.089l0.022,0.087l0.024,0.088l0.025,0.087l0.025,0.086l0.027,0.086l0.027,0.086l0.029,0.085l0.029,0.085l0.031,0.084l0.031,0.084l0.033,0.083l0.033,0.083l0.034,0.082l0.036,0.082l0.036,0.081l0.038,0.08l0.038,0.08l0.039,0.08l0.041,0.078l0.041,0.079l0.043,0.077l0.043,0.077l0.045,0.076l0.045,0.076l0.046,0.075l0.048,0.074l0.049,0.074l0.049,0.073l0.051,0.072l0.051,0.071l0.053,0.071l0.054,0.07l0.054,0.069l0.056,0.069l0.057,0.067l0.058,0.067l0.059,0.066l0.06,0.065l0.061,0.064l0.062,0.064l0.063,0.062l0.064,0.062l0.066,0.061l0.066,0.06l0.068,0.059l0.068,0.058l0.07,0.057l0.07,0.057l0.072,0.055l0.073,0.054l0.074,0.054l0.075,0.052l0.076,0.051l0.078,0.051l0.078,0.049l0.079,0.048l0.081,0.047l0.082,0.046l0.082,0.046l0.084,0.043l0.085,0.043l0.086,0.042l0.088,0.041l0.088,0.039l0.09,0.039l0.09,0.037l0.092,0.036l0.093,0.035l0.094,0.033l-0.462,0.023l-0.46,0.025l-0.458,0.028l-0.457,0.03l-0.455,0.032l-0.454,0.035l-0.453,0.037l-0.45,0.039l-0.449,0.042l-0.448,0.044l-0.446,0.047l-0.444,0.048l-0.443,0.051l-0.441,0.054l-0.44,0.055l-0.438,0.058l-0.436,0.061l-0.435,0.062l-0.433,0.065l-0.432,0.067l-0.43,0.07l-0.429,0.071l-0.427,0.074l-0.425,0.076l-0.424,0.079l-0.422,0.081l-0.42,0.082l-0.419,0.086l-0.418,0.087l-0.416,0.09l-0.414,0.091l-0.412,0.094l-0.411,0.097l-0.41,0.098l-0.407,0.101l-0.406,0.102l-0.405,0.105l-0.403,0.107l-0.401,0.11l-0.4,0.111l-0.398,0.114l-0.396,0.116l-0.395,0.118l-0.394,0.12l-0.391,0.122l-0.39,0.124l-0.388,0.127l-0.387,0.128l-0.385,0.131l-0.384,0.133l-0.382,0.134l-0.38,0.137l-0.378,0.139l-0.377,0.142l-0.376,0.143l-0.373,0.145l-0.372,0.147l-0.371,0.15l-0.369,0.151l-0.367,0.154l-0.365,0.155l-0.364,0.158l-0.362,0.159l-0.361,0.162l-0.359,0.164l-0.357,0.165l-0.356,0.168l-0.354,0.17l-0.352,0.171l-0.35,0.174l-0.349,0.176l-0.348,0.177l-0.346,0.18l-0.344,0.181l-0.342,0.184l-0.341,0.185l-0.339,0.188l-0.337,0.189l-0.336,0.191l-0.334,0.194l-0.332,0.195l-0.331,0.197l-0.329,0.199l-0.327,0.201l-0.326,0.202l-0.324,0.205l-0.322,0.207l-0.321,0.208l-0.319,0.21l-0.317,0.212l-0.316,0.215l-0.314,0.215l-0.312,0.218l-0.31,0.22l-0.309,0.221l-0.307,0.224l-0.306,0.225l-0.304,0.227l-0.302,0.229l-0.3,0.23l-0.299,0.233l-0.297,0.234l-0.295,0.236l-0.294,0.238l-0.292,0.239l-0.29,0.242l-0.289,0.243l-0.286,0.245l-0.285,0.246l-0.284,0.249l-0.281,0.25l-0.28,0.252l-0.279,0.253l-0.276,0.256l-0.275,0.257l-0.273,0.259l-0.272,0.26l-0.269,0.263l-0.268,0.264l-0.266,0.265l-0.265,0.268l-0.263,0.269l-0.261,0.27l-0.259,0.273l-0.258,0.274l-0.256,0.276l-0.254,0.277l-0.252,0.279l-0.106,0.117l-0.105,0.114l-0.104,0.111l-0.103,0.108l-0.102,0.104l-0.101,0.101l-0.099,0.099l-0.099,0.095l-0.097,0.092l-0.096,0.089l-0.095,0.086l-0.095,0.083l-0.093,0.08l-0.092,0.077l-0.091,0.074l-0.09,0.072l-0.089,0.068l-0.088,0.066l-0.087,0.063l-0.085,0.06l-0.085,0.057l-0.084,0.054l-0.083,0.052l-0.082,0.049l-0.081,0.047l-0.08,0.043l-0.079,0.041l-0.078,0.039l-0.077,0.036l-0.076,0.033l-0.075,0.031l-0.074,0.028l-0.073,0.025l-0.073,0.024l-0.071,0.02l-0.07,0.019l-0.07,0.015l-0.069,0.014l-0.067,0.011l-0.067,0.009l-0.066,0.006l-0.065,0.004l-0.064,0.002l-0.064,0l-0.062,-0.003l-0.062,-0.005l-0.06,-0.007l-0.06,-0.009l-0.059,-0.011l-0.058,-0.014l-0.058,-0.015l-0.056,-0.018l-0.056,-0.02l-0.055,-0.021l-0.054,-0.024l-0.053,-0.026l-0.053,-0.028l-0.051,-0.029l-0.051,-0.032l-0.05,-0.033l-0.05,-0.035l-0.048,-0.038l-0.048,-0.038l-0.047,-0.041l-0.046,-0.043l-0.046,-0.044l-0.045,-0.046l-0.044,-0.048l-0.043,-0.049l-0.043,-0.051l-0.042,-0.053l-0.041,-0.054l-0.04,-0.056l-0.04,-0.058l-0.039,-0.059l-0.039,-0.061l-0.037,-0.062l-0.038,-0.063l-0.036,-0.065l-0.036,-0.067l-0.035,-0.068l-0.034,-0.069l-0.034,-0.071l-0.033,-0.072l-0.033,-0.073l-0.032,-0.075l-0.031,-0.075l-0.031,-0.078l-0.03,-0.078l-0.029,-0.08l-0.029,-0.08l-0.028,-0.082l-0.028,-0.084l-0.027,-0.084l-0.026,-0.085l-0.026,-0.086l-0.026,-0.088l-0.025,-0.088l-0.024,-0.09l-0.024,-0.09l-0.045,-0.184l-0.044,-0.188l-0.042,-0.19l-0.04,-0.195l-0.037,-0.197l-0.036,-0.2l-0.034,-0.203l-0.032,-0.206l-0.03,-0.208l-0.029,-0.21l-0.027,-0.212l-0.025,-0.214l-0.024,-0.216l-0.022,-0.217l-0.02,-0.218l-0.019,-0.22l-0.018,-0.22l-0.016,-0.222l-0.016,-0.221l-0.013,-0.223l-0.013,-0.222l-0.011,-0.222l-0.011,-0.223l-0.009,-0.222l-0.008,-0.221l-0.007,-0.221l-0.007,-0.219l-0.005,-0.219l-0.004,-0.218l-0.004,-0.216l-0.006,-0.427l-0.002,-0.419l-0.001,-0.409l0.002,-0.399l0.003,-0.387l0.004,-0.373l0.009,-0.698l0.01,-0.627l0.004,-0.282l0.003,-0.26l0.001,-0.236l0,-0.101l-0.001,0l-0.035,-0.035l-0.032,-0.035l-0.028,-0.035l-0.026,-0.035l-0.023,-0.036l-0.019,-0.036l-0.008,-0.018l-0.008,-0.018l-0.006,-0.018l-0.006,-0.018l-0.005,-0.018l-0.004,-0.018l-0.004,-0.018l-0.002,-0.017l-0.002,-0.018l0,-0.018l0,-0.018l0.001,-0.018l0.002,-0.018l0.003,-0.018l0.004,-0.018l0.005,-0.017l0.021,-0.067l0.019,-0.057l0.018,-0.046l0.017,-0.037l0.008,-0.015l0.007,-0.012l0.007,-0.01l0.007,-0.008l0.007,-0.005l0.006,-0.003l0.006,-0.001l0.006,0.001l0.005,0.004l0.005,0.006l0.005,0.008l0.005,0.01l0.004,0.012l0.004,0.015l0.007,0.035l0.007,0.043l0.005,0.051l0.005,0.059l0.004,0.067l0.003,0.074l0.003,0.081l0.003,0.184l0,0.109l0.037,0.034l0.041,0.034l0.044,0.033l0.047,0.032l0.05,0.033l0.052,0.031l0.055,0.031l0.057,0.03l0.061,0.029l0.062,0.029l0.065,0.027l0.068,0.027l0.07,0.026l0.072,0.025l0.075,0.024l0.077,0.022l0.079,0.022l0.081,0.02l0.083,0.019l0.085,0.018l0.087,0.017l0.089,0.015l0.091,0.014l0.093,0.012l0.094,0.011l0.096,0.009l0.098,0.008l0.099,0.006l0.101,0.005l0.102,0.002l0.104,0.001l0.105,-0.001l0.107,-0.003l0.108,-0.004l0.108,-0.007l0.111,-0.009l0.111,-0.011l0.112,-0.013l0.114,-0.015l0.114,-0.017l0.115,-0.019l0.116,-0.022l0.117,-0.024l0.118,-0.027l0.118,-0.029l0.119,-0.031l0.12,-0.034l0.12,-0.036l0.121,-0.039l0.121,-0.042l0.121,-0.044l0.122,-0.048l0.122,-0.05l0.122,-0.052l0.123,-0.056l0.123,-0.059l0.122,-0.061l0.123,-0.065l0.123,-0.068l0.122,-0.071l0.123,-0.074l0.122,-0.077l0.122,-0.08l0.122,-0.084l0.121,-0.087l0.061,-0.045l0.06,-0.046l0.061,-0.046l0.06,-0.048l0.06,-0.048l0.06,-0.049l0.06,-0.05l0.059,-0.051l0.06,-0.052l0.059,-0.053l0.06,-0.053l0.059,-0.055l0.058,-0.056l0.059,-0.056l0.059,-0.057l0.058,-0.059l0.058,-0.059l0.058,-0.06l0.058,-0.061l0.057,-0.062l0.057,-0.063l0.057,-0.064l0.057,-0.065l0.056,-0.066l0.057,-0.067l0.056,-0.068l0.055,-0.069l0.056,-0.07l0.055,-0.071l0.055,-0.072l0.054,-0.073l0.054,-0.074l0.054,-0.075l0.054,-0.076l0.053,-0.077l0.053,-0.078l0.053,-0.08l0.052,-0.08l0.052,-0.081l0.052,-0.083l0.051,-0.083l0.051,-0.085l0.05,-0.086l0.051,-0.087l0.049,-0.088l0.05,-0.089l0.049,-0.09l0.048,-0.091l0.048,-0.092l0.048,-0.094l0.047,-0.095l0.047,-0.095l0.046,-0.097l0.046,-0.099l0.046,-0.099l0.045,-0.1l0.044,-0.102l0.045,-0.103l0.043,-0.104l0.043,-0.105l0.043,-0.106l0.042,-0.108l0.042,-0.109l0.041,-0.11l0.041,-0.111l0.04,-0.112l0.039,-0.114l0.039,-0.115l0.039,-0.116l0.038,-0.117l0.037,-0.119l0.037,-0.12l0.036,-0.121l0.036,-0.123l0.035,-0.123l0.034,-0.125l0.034,-0.127l0.034,-0.127l0.032,-0.129l0.032,-0.13l0.032,-0.132l0.031,-0.133l0.03,-0.134l0.03,-0.135l0.028,-0.137l0.029,-0.138l0.027,-0.14l0.027,-0.141l0.026,-0.142l0.026,-0.143l0.025,-0.145l0.024,-0.147l0.024,-0.147l0.022,-0.149l0.022,-0.151l0.022,-0.152l0.02,-0.153l0.02,-0.155l0.031,-0.252l0.027,-0.25l0.025,-0.25l0.022,-0.247l0.019,-0.247l0.016,-0.244l0.014,-0.244l0.011,-0.242l0.008,-0.24l0.005,-0.239l0.003,-0.237l0,-0.236l-0.002,-0.234l-0.005,-0.233l-0.008,-0.231l-0.01,-0.229l-0.013,-0.228l-0.016,-0.227l-0.017,-0.225l-0.021,-0.223l-0.023,-0.222l-0.025,-0.219l-0.028,-0.219l-0.03,-0.217l-0.032,-0.215l-0.035,-0.213l-0.038,-0.212l-0.039,-0.21l-0.042,-0.208l-0.045,-0.207l-0.046,-0.205l-0.049,-0.203l-0.051,-0.201l-0.054,-0.2l-0.055,-0.198l-0.058,-0.196l-0.06,-0.195l-0.062,-0.192l-0.064,-0.191l-0.067,-0.189l-0.068,-0.188l-0.071,-0.185l-0.072,-0.184l-0.075,-0.181l-0.077,-0.18l-0.079,-0.179l-0.08,-0.176l-0.083,-0.174l-0.085,-0.173l-0.086,-0.17l-0.089,-0.169l-0.09,-0.167l-0.093,-0.165l-0.094,-0.162l-0.096,-0.161l-0.097,-0.159l-0.1,-0.158l-0.102,-0.155l-0.103,-0.153l-0.105,-0.151l-0.106,-0.149l-0.109,-0.147l-0.11,-0.145l-0.111,-0.143l-0.114,-0.141l-0.115,-0.139l-0.117,-0.137l-0.118,-0.135l-0.12,-0.133l-0.121,-0.131l-0.123,-0.128l-0.124,-0.127l-0.126,-0.124l-0.128,-0.122l-0.129,-0.121l-0.13,-0.118l-0.132,-0.115l-0.133,-0.114l-0.135,-0.112l-0.136,-0.109l-0.137,-0.107l-0.139,-0.105l-0.14,-0.103l-0.141,-0.1l-0.143,-0.099l-0.143,-0.096l-0.145,-0.093l-0.147,-0.092l-0.147,-0.089l-0.149,-0.087l-0.15,-0.085l-0.151,-0.082l-0.152,-0.08l-0.153,-0.078l-0.154,-0.076l-0.156,-0.073l-0.156,-0.07l-0.158,-0.069l-0.158,-0.066l-0.16,-0.064l-0.16,-0.061l-0.162,-0.059l-0.162,-0.056l-0.164,-0.054l-0.164,-0.052l-0.165,-0.049l-0.166,-0.047l-0.167,-0.045l-0.167,-0.041l-0.169,-0.04l-0.169,-0.037l-0.17,-0.034l-0.171,-0.032l-0.172,-0.03l-0.172,-0.027l-0.173,-0.024l-0.173,-0.022l-0.175,-0.019l-0.175,-0.017l-0.175,-0.014l-0.176,-0.012l-0.177,-0.009l-0.177,-0.006l-0.178,-0.004l-0.179,-0.001l-0.179,0.001l-0.179,0.004l-0.18,0.007l-0.194,0.006l-0.194,0.008l-0.193,0.009l-0.193,0.012l-0.192,0.014l-0.191,0.015l-0.19,0.017l-0.19,0.02l-0.189,0.021l-0.189,0.023l-0.188,0.024l-0.187,0.027l-0.187,0.028l-0.185,0.031l-0.186,0.032l-0.184,0.034l-0.184,0.036l-0.183,0.038l-0.183,0.039l-0.182,0.042l-0.181,0.043l-0.181,0.045l-0.18,0.047l-0.179,0.049l-0.179,0.05l-0.178,0.053l-0.177,0.054l-0.177,0.056l-0.175,0.058l-0.176,0.059l-0.174,0.062l-0.174,0.063l-0.174,0.065l-0.172,0.066l-0.172,0.069l-0.171,0.07l-0.171,0.072l-0.17,0.074l-0.169,0.076l-0.169,0.077l-0.167,0.079l-0.168,0.081l-0.166,0.082l-0.166,0.085l-0.165,0.086l-0.165,0.087l-0.164,0.09l-0.163,0.091l-0.162,0.093l-0.162,0.095l-0.161,0.096l-0.161,0.098l-0.159,0.1l-0.159,0.102l-0.159,0.103l-0.158,0.105l-0.157,0.106l-0.156,0.109l-0.156,0.11l-0.155,0.111l-0.154,0.114l-0.153,0.115l-0.153,0.116l-0.153,0.119l-0.151,0.12l-0.151,0.121l-0.15,0.124l-0.15,0.125l-0.149,0.126l-0.148,0.128l-0.147,0.13l-0.147,0.132l-0.146,0.133l-0.145,0.135l-0.145,0.136l-0.144,0.138l-0.143,0.14l-0.143,0.141l-0.142,0.143l-0.141,0.145l-0.14,0.146l-0.14,0.147l-0.139,0.15l-0.139,0.151l-0.138,0.152l-0.137,0.154l-0.136,0.156l-0.136,0.157l-0.134,0.159l-0.135,0.16l-0.133,0.162l-0.133,0.163l-0.132,0.165l-0.132,0.167l-0.13,0.168l-0.13,0.17l-0.13,0.171l-0.128,0.173l-0.128,0.174l-0.128,0.176l-0.126,0.177l-0.126,0.179l-0.125,0.18l-0.124,0.182l-0.124,0.183l-0.123,0.185l-0.122,0.187l-0.122,0.188l-0.121,0.189l-0.12,0.191l-0.12,0.192l-0.118,0.194l-0.118,0.195l-0.118,0.197l-0.116,0.198l-0.116,0.2l-0.115,0.201l-0.115,0.203l-0.114,0.204l-0.113,0.206l-0.112,0.207l-0.112,0.208l-0.111,0.21l-0.11,0.211l-0.109,0.213l-0.109,0.214l-0.108,0.216l-0.107,0.217l-0.107,0.219l-0.106,0.22l-0.105,0.221l-0.104,0.223l-0.104,0.224l-0.103,0.225l-0.103,0.227l-0.101,0.228l-0.101,0.23l-0.1,0.231l-0.099,0.233l-0.099,0.233l-0.098,0.236l-0.097,0.236l-0.097,0.238l-0.096,0.239l-0.095,0.241l-0.094,0.242l-0.094,0.244l-0.092,0.244l-0.093,0.246l-0.091,0.248l-0.091,0.248l-0.09,0.25l-0.089,0.252l-0.088,0.253l-0.088,0.254l-0.087,0.255l-0.086,0.257l-0.086,0.258l-0.085,0.259l-0.084,0.26l-0.083,0.262l-0.083,0.263l-0.082,0.265l-0.081,0.266l-0.08,0.267l-0.08,0.268l-0.079,0.27l-0.078,0.27l-0.078,0.272l-0.076,0.274l-0.076,0.274l-0.076,0.276l-0.074,0.277l-0.074,0.279l-0.073,0.279l-0.072,0.281l-0.072,0.282l-0.071,0.284l-0.07,0.284l-0.069,0.286l-0.068,0.287l-0.068,0.288l-0.067,0.29l-0.067,0.29l-0.065,0.292l-0.065,0.293l-0.064,0.295l-0.064,0.295l-0.062,0.297l-0.062,0.298l-0.061,0.299l-0.061,0.3l-0.059,0.301l-0.059,0.303l-0.058,0.303l-0.057,0.305l-0.057,0.306l-0.056,0.307l-0.055,0.309l-0.054,0.309l-0.054,0.311l-0.053,0.312l-0.052,0.313l-0.051,0.314l-0.051,0.315l-0.049,0.316l-0.049,0.317l-0.049,0.319l-0.047,0.32l-0.047,0.32l-0.046,0.322l-0.045,0.323l-0.045,0.324l-0.044,0.325l-0.042,0.327l-0.043,0.327l-0.041,0.328l-0.041,0.33l-0.04,0.331l-0.039,0.331l-0.038,0.333l-0.038,0.334l-0.037,0.335l-0.036,0.335l-0.035,0.337l-0.035,0.338l-0.033,0.339l-0.034,0.341l-0.032,0.341l-0.031,0.342l-0.031,0.343l-0.03,0.344l-0.029,0.345l-0.029,0.347l-0.027,0.347l-0.027,0.348l-0.026,0.35l-0.025,0.35l-0.025,0.351l-0.024,0.353l-0.023,0.353l-0.022,0.354l-0.021,0.355l-0.021,0.357l-0.02,0.357l-0.019,0.358l-0.018,0.359l-0.018,0.36l-0.017,0.361l-0.016,0.362l-0.015,0.363l-0.014,0.364l-0.014,0.365l-0.013,0.366l-0.012,0.367l-0.011,0.368l-0.025,0.591l-0.021,0.589l-0.018,0.586l-0.015,0.583l-0.007,0.291l-0.005,0.289l-0.005,0.289l-0.004,0.289l-0.004,0.287l-0.002,0.287l-0.002,0.286l-0.001,0.286l-0.001,0.284l0.001,0.284l0.001,0.283l0.002,0.283l0.003,0.282l0.003,0.281l0.005,0.28l0.005,0.279l0.005,0.279l0.007,0.278l0.007,0.277l0.008,0.277l0.009,0.275l0.01,0.276l0.01,0.274l0.011,0.273l0.012,0.273l0.012,0.272l0.014,0.271l0.014,0.271l0.015,0.269l0.015,0.269l0.016,0.269l0.018,0.267l0.017,0.267l0.019,0.266l0.019,0.265l0.02,0.264l0.021,0.264l0.022,0.263l0.022,0.262l0.023,0.261l0.024,0.261l0.025,0.259l0.025,0.259l0.026,0.259l0.027,0.257l0.028,0.257l0.028,0.255l0.029,0.256l0.03,0.254l0.03,0.253l0.032,0.253l0.032,0.252l0.032,0.251l0.034,0.25l0.034,0.25l0.035,0.249l0.036,0.248l0.036,0.247l0.038,0.246l0.038,0.246l0.038,0.244l0.04,0.244l0.04,0.244l0.041,0.242l0.042,0.241l0.042,0.241l0.043,0.24l0.044,0.239l0.045,0.239l0.045,0.237l0.046,0.237l0.047,0.236l0.047,0.235l0.049,0.234l0.049,0.233l0.049,0.233l0.051,0.232l0.051,0.231l0.052,0.23l0.053,0.229l0.053,0.228l0.054,0.228l0.055,0.227l0.056,0.226l0.056,0.225l0.057,0.224l0.058,0.224l0.058,0.222l0.059,0.222l0.06,0.221l0.061,0.22l0.061,0.219l0.062,0.219l0.063,0.217l0.064,0.217l0.064,0.216l0.065,0.215l0.066,0.214l0.066,0.214l0.068,0.212l0.067,0.212l0.069,0.211l0.069,0.209l0.071,0.21l0.07,0.208l0.072,0.207l0.072,0.207l0.073,0.205l0.074,0.205l0.074,0.204l0.075,0.203l0.076,0.202l0.076,0.201l0.078,0.201l0.078,0.199l0.078,0.199l0.08,0.198l0.08,0.196l0.081,0.196l0.081,0.196l0.082,0.194l0.083,0.193l0.084,0.193l0.084,0.191l0.086,0.191l0.085,0.19l0.087,0.189l0.087,0.188l0.088,0.187l0.089,0.186l0.089,0.186l0.09,0.184l0.091,0.184l0.091,0.183l0.092,0.181l0.093,0.181l0.094,0.18l0.094,0.179l0.095,0.179l0.096,0.177l0.096,0.176l0.097,0.176l0.098,0.174l0.099,0.174l0.099,0.173l0.1,0.171l0.1,0.171l0.102,0.17l0.102,0.169l0.102,0.168l0.104,0.168l0.104,0.166l0.105,0.165l0.105,0.165l0.106,0.163l0.107,0.163l0.108,0.162l0.108,0.16l0.109,0.16l0.11,0.159l0.11,0.158l0.111,0.157l0.112,0.156l0.113,0.155l0.113,0.154l0.114,0.154l0.114,0.152l0.115,0.151l0.116,0.151l0.117,0.149l0.117,0.149l0.118,0.147l0.119,0.147l0.119,0.146l0.12,0.144l0.121,0.144l0.122,0.143l0.122,0.142l0.123,0.141l0.123,0.14l0.124,0.138l0.125,0.139l0.126,0.137l0.126,0.136l0.127,0.135l0.128,0.134l0.128,0.133l0.129,0.132l0.129,0.132l0.131,0.13l0.131,0.129l0.132,0.128l0.132,0.128l0.133,0.126l0.134,0.126l0.134,0.124l0.135,0.123l0.136,0.123l0.137,0.121l0.137,0.121l0.138,0.119l0.138,0.119l0.139,0.117l0.14,0.117l0.141,0.115l0.141,0.115l0.142,0.113l0.142,0.113l0.143,0.111l0.144,0.111l0.145,0.11l0.145,0.108l0.146,0.108l0.147,0.106l0.147,0.106l0.148,0.104l0.148,0.104l0.15,0.102l0.15,0.102l0.15,0.1l0.151,0.1l0.152,0.098l0.153,0.097l0.153,0.097l0.154,0.095l0.155,0.095l0.155,0.093l0.156,0.092l0.157,0.092l0.157,0.09l0.158,0.089l0.158,0.088l0.16,0.088l0.16,0.086l0.16,0.085l0.161,0.084l0.162,0.083l0.163,0.082l0.163,0.081l0.164,0.08l0.165,0.079l0.165,0.078l0.166,0.076l0.166,0.076l0.167,0.075l0.168,0.074l0.169,0.072l0.169,0.072l5.076,18.464l0.012,0.041l0.012,0.041l0.013,0.04l0.014,0.04l0.015,0.039l0.015,0.04l0.016,0.038l0.017,0.039l0.017,0.037l0.019,0.038l0.018,0.037l0.02,0.036l0.02,0.037l0.021,0.035l0.021,0.035l0.023,0.035l0.022,0.035l0.024,0.033l0.024,0.034l0.024,0.033l0.025,0.032l0.026,0.032l0.026,0.031l0.027,0.031l0.027,0.03l0.028,0.03l0.029,0.029l0.029,0.029l0.029,0.028l0.031,0.027l0.03,0.027l0.031,0.027l0.032,0.025l0.032,0.026l0.032,0.024l0.033,0.024l0.034,0.024l0.033,0.022l0.035,0.023l0.034,0.021l0.036,0.021l0.035,0.02l0.036,0.02l0.036,0.019l0.037,0.018l0.037,0.017l0.038,0.017l0.038,0.016l0.038,0.016l0.038,0.015l0.039,0.014l0.039,0.013l0.04,0.013l0.04,0.012l0.04,0.011l0.04,0.01l0.041,0.01l0.041,0.008l0.041,0.009l0.041,0.007l0.042,0.006l0.042,0.006l0.042,0.005l0.043,0.004l1.238,0.108l1.224,0.105l1.208,0.102l1.193,0.099l1.178,0.095l1.163,0.092l1.148,0.089l1.132,0.086l1.118,0.083l1.102,0.08l1.086,0.076l1.072,0.073l1.056,0.07l1.042,0.067l1.025,0.063l1.011,0.061l0.996,0.057l0.98,0.054l0.965,0.051l0.949,0.047l0.935,0.045l0.919,0.041l0.904,0.038l0.888,0.034l0.874,0.032l0.858,0.028l0.842,0.026l0.828,0.022l0.812,0.018l0.797,0.016l0.781,0.012l0.385,0.005l0.381,0.004l0.378,0.004l0.373,0.002l0.37,0.002l0.366,0.001l0.362,0l0.358,-0.001l0.354,-0.001l0.35,-0.003l0.347,-0.003l0.343,-0.004l0.339,-0.004l0.335,-0.006l0.331,-0.006l0.328,-0.007l0.323,-0.008l0.32,-0.009l0.316,-0.009l0.312,-0.011l0.308,-0.011l0.305,-0.012l0.3,-0.012l0.297,-0.014l0.293,-0.014l0.288,-0.016l0.286,-0.016l0.281,-0.016l0.277,-0.018l0.274,-0.018l0.27,-0.02l0.265,-0.02l0.262,-0.02l0.259,-0.022l0.254,-0.022l0.25,-0.024l0.247,-0.024l0.243,-0.025l0.239,-0.025l0.235,-0.027l0.231,-0.027l0.227,-0.028l0.223,-0.029l0.22,-0.03l0.216,-0.03l0.212,-0.032l0.208,-0.032l0.204,-0.033l0.2,-0.034l0.196,-0.034l0.193,-0.035l0.188,-0.037l0.185,-0.037l0.181,-0.038l0.177,-0.038l0.173,-0.04l0.17,-0.04l0.165,-0.041l0.162,-0.042l0.157,-0.042l0.154,-0.044l0.15,-0.044l0.146,-0.045l0.143,-0.046l0.138,-0.047l0.134,-0.048l0.066,-0.053l0.063,-0.055l0.061,-0.056l0.06,-0.057l0.057,-0.059l0.055,-0.06l0.053,-0.061l0.05,-0.062l0.049,-0.063l0.046,-0.065l0.043,-0.067l0.041,-0.068l0.019,-0.034l0.019,-0.035l0.018,-0.035l0.018,-0.036l0.017,-0.036l0.016,-0.036l0.015,-0.037l0.015,-0.037l0.014,-0.038l0.013,-0.038l0.013,-0.038l0.012,-0.039l0.011,-0.039l0.011,-0.04l0.01,-0.04l0.009,-0.041l0.008,-0.041l0.007,-0.041l0.007,-0.042l0.006,-0.042l0.005,-0.043l0.004,-0.043l0.004,-0.044l0.003,-0.044l0.002,-0.045l0.001,-0.045l0,-0.045l-0.001,-0.047l-0.001,-0.046l-0.002,-0.047l-0.003,-0.048l-0.004,-0.048l-0.005,-0.048l-0.006,-0.049l-0.006,-0.05l-0.008,-0.05l-0.008,-0.05l-0.01,-0.052l-0.01,-0.051l-0.011,-0.052l0.107,0.015l0.106,0.014l0.106,0.013l0.105,0.012l0.104,0.012l0.103,0.01l0.103,0.009l0.102,0.009l0.102,0.007l0.1,0.007l0.1,0.005l0.1,0.005l0.098,0.004l0.099,0.003l0.097,0.002l0.097,0.002l0.096,0l0.096,0l0.095,-0.001l0.094,-0.002l0.094,-0.003l0.093,-0.003l0.093,-0.004l0.092,-0.005l0.092,-0.006l0.091,-0.006l0.181,-0.015l0.178,-0.018l0.177,-0.02l0.174,-0.023l0.173,-0.026l0.171,-0.027l0.17,-0.031l0.167,-0.032l0.167,-0.034l0.164,-0.037l0.163,-0.038l0.162,-0.041l0.161,-0.042l0.159,-0.043l0.158,-0.046l0.157,-0.046l0.156,-0.049l0.155,-0.049l0.155,-0.051l0.057,-0.02l0.056,-0.022l0.055,-0.023l0.053,-0.024l0.051,-0.026l0.05,-0.027l0.048,-0.029l0.046,-0.029l0.045,-0.032l0.043,-0.032l0.042,-0.034l0.04,-0.035l0.039,-0.037l0.037,-0.037l0.036,-0.039l0.034,-0.041l0.032,-0.041l0.031,-0.043l0.03,-0.043l0.028,-0.046l0.027,-0.046l0.025,-0.047l0.023,-0.049l0.022,-0.049l0.021,-0.051l0.019,-0.052l0.018,-0.053l0.016,-0.054l0.015,-0.056l0.014,-0.056l0.012,-0.057l0.01,-0.059l0.01,-0.059l0.008,-0.061l0.006,-0.061l0.005,-0.063l0.004,-0.063l0.002,-0.064l0.001,-0.066l-0.001,-0.066l-0.001,-0.067l-0.003,-0.069l-0.005,-0.069l-0.006,-0.07l-0.007,-0.07l-0.008,-0.072l-0.01,-0.073l-0.011,-0.073l-0.012,-0.074l-0.014,-0.075l-0.015,-0.076l-0.016,-0.077l-0.017,-0.077l-0.019,-0.078l-0.02,-0.079l-0.021,-0.08l-0.023,-0.081l-0.023,-0.081l-0.025,-0.081l-0.026,-0.083l-0.028,-0.083l-0.028,-0.084l-0.03,-0.085l-0.031,-0.085l-0.032,-0.086l-0.033,-0.086l-0.035,-0.087l-0.035,-0.088l-0.037,-0.088l-0.038,-0.089l-0.039,-0.089l-0.04,-0.09l-0.041,-0.09l-0.043,-0.091l-0.043,-0.092l-0.045,-0.091l-0.046,-0.093l-0.047,-0.093l-0.048,-0.093l-0.049,-0.094l-0.101,-0.188l-0.105,-0.191l-0.11,-0.192l-0.114,-0.193l-0.117,-0.195l-0.122,-0.195l-0.126,-0.197l-0.13,-0.198l-0.133,-0.199l-0.137,-0.2l-0.141,-0.2l-0.145,-0.201l-0.148,-0.201l-0.152,-0.202l-0.155,-0.202l-0.159,-0.203l-0.162,-0.202l-0.166,-0.203l-0.169,-0.202l-0.172,-0.202l-0.175,-0.202l-0.178,-0.202l-0.182,-0.201l-0.184,-0.2l-0.187,-0.2l-0.191,-0.198l-0.193,-0.198l-0.195,-0.197l-0.199,-0.196l-0.201,-0.195l-0.204,-0.193l-0.206,-0.192l-0.209,-0.191l-0.211,-0.189l-0.214,-0.187l-0.216,-0.185l-0.219,-0.183l-0.22,-0.182l-0.111,-0.09l-0.112,-0.089l-0.112,-0.089l-0.113,-0.088l-0.113,-0.088l-0.113,-0.087l-0.115,-0.087l-0.114,-0.085l-0.115,-0.086l-0.116,-0.084l-0.116,-0.084l-0.117,-0.084l-0.117,-0.082l-0.117,-0.082l-0.118,-0.081l-0.118,-0.081l-0.119,-0.08l-0.119,-0.079l-0.12,-0.078l-0.12,-0.078l-0.121,-0.076l-0.12,-0.076l-0.122,-0.075l-0.121,-0.075l-0.122,-0.073l-0.122,-0.073l-0.123,-0.072l-0.123,-0.071l-0.124,-0.07l-0.123,-0.069l-0.124,-0.068l-0.125,-0.068l-0.124,-0.066l-0.125,-0.065l-0.126,-0.065l-0.125,-0.063l-0.126,-0.063l-0.126,-0.062l-0.127,-0.06l-0.127,-0.06l-0.127,-0.058l-0.127,-0.058l-0.127,-0.056l-0.128,-0.056l-0.128,-0.054l-0.128,-0.053l-0.129,-0.052l-0.128,-0.051l-0.129,-0.05l-0.129,-0.049l-0.129,-0.047l-0.13,-0.047l-0.129,-0.045l-0.13,-0.044l-0.13,-0.043l-0.13,-0.041l-0.13,-0.041l-0.131,-0.039l-0.13,-0.038l-0.131,-0.036l-0.131,-0.035l-0.131,-0.035l-0.131,-0.032l-0.131,-0.032l-0.131,-0.03l-0.131,-0.028l-0.132,-0.028l-0.131,-0.026l-0.131,-0.024l-0.132,-0.023l-0.132,-0.022l-0.131,-0.021l-0.132,-0.019l-0.132,-0.017l-0.131,-0.016l-0.132,-0.015l-0.132,-0.013l-0.132,-0.011l-0.131,-0.011l-0.132,-0.008l-0.132,-0.007l-0.132,-0.006l-0.131,-0.004l-0.132,-0.002l-0.132,-0.001l-0.131,0.001l-0.132,0.002l-0.131,0.005l-0.131,0.005l-0.132,0.008l-0.131,0.008l-0.131,0.011l-0.131,0.012l-0.131,0.014l-0.131,0.016l-0.13,0.018l-0.131,0.019l-0.13,0.021l-0.13,0.022l-0.13,0.025l0.164,-0.117l0.163,-0.117l0.162,-0.117l0.161,-0.119l0.16,-0.119l0.158,-0.12l0.158,-0.12l0.156,-0.121l0.155,-0.122l0.154,-0.122l0.153,-0.123l0.152,-0.123l0.151,-0.125l0.149,-0.125l0.148,-0.125l0.147,-0.126l0.146,-0.127l0.145,-0.127l0.144,-0.129l0.143,-0.128l0.141,-0.13l0.14,-0.13l0.14,-0.13l0.138,-0.132l0.137,-0.132l0.135,-0.132l0.135,-0.133l0.134,-0.134l0.132,-0.135l0.131,-0.135l0.13,-0.135l0.129,-0.137l0.128,-0.137l0.127,-0.138l0.126,-0.138l0.124,-0.139l0.124,-0.139l0.122,-0.141l0.121,-0.14l0.12,-0.142l0.119,-0.142l0.118,-0.143l0.116,-0.143l0.116,-0.144l0.114,-0.145l0.113,-0.145l0.113,-0.146l0.111,-0.146l0.11,-0.147l0.108,-0.148l0.108,-0.148l0.107,-0.149l0.105,-0.15l0.105,-0.15l0.103,-0.151l0.102,-0.152l0.101,-0.152l0.1,-0.153l0.099,-0.153l0.098,-0.154l0.096,-0.155l0.096,-0.155l0.094,-0.156l0.094,-0.156l0.092,-0.157l0.091,-0.158l0.09,-0.159l0.089,-0.158l0.088,-0.16l0.086,-0.16l0.086,-0.161l0.085,-0.162l0.083,-0.162l0.082,-0.162l0.082,-0.164l0.08,-0.164l0.079,-0.164l0.078,-0.165l0.077,-0.166l0.076,-0.166l0.074,-0.167l0.074,-0.168l0.072,-0.168l0.072,-0.169l0.07,-0.169l0.069,-0.17l0.069,-0.171l0.067,-0.171l0.066,-0.172l0.065,-0.173l0.064,-0.173l0.062,-0.174l0.062,-0.174l0.061,-0.175l0.059,-0.175l0.059,-0.176l0.057,-0.177l0.056,-0.178l0.056,-0.178l0.054,-0.178l0.053,-0.179l0.052,-0.18l0.051,-0.18l0.05,-0.181l0.049,-0.182l0.047,-0.182l0.047,-0.183l0.046,-0.183l0.044,-0.184l0.044,-0.185l0.042,-0.185l0.041,-0.186l0.041,-0.186l0.039,-0.187l0.038,-0.188l0.037,-0.188l0.036,-0.189l0.035,-0.189l0.034,-0.19l0.033,-0.191l0.032,-0.191l0.031,-0.191l0.029,-0.193l0.029,-0.193l0.027,-0.193l0.027,-0.194l0.025,-0.195l0.025,-0.195l0.02,0.229l0.021,0.225l0.023,0.221l0.025,0.218l0.028,0.214l0.029,0.21l0.031,0.206l0.034,0.202l0.018,0.1l0.018,0.098l0.019,0.098l0.019,0.097l0.021,0.096l0.02,0.094l0.022,0.094l0.022,0.093l0.023,0.091l0.023,0.091l0.024,0.09l0.025,0.089l0.026,0.087l0.026,0.087l0.027,0.086l0.028,0.084l0.028,0.084l0.03,0.082l0.03,0.082l0.031,0.08l0.031,0.08l0.033,0.078l0.033,0.078l0.034,0.076l0.035,0.075l0.036,0.075l0.037,0.073l0.037,0.072l0.039,0.071l0.039,0.07l0.04,0.069l0.041,0.068l0.042,0.067l0.043,0.066l0.044,0.064l0.045,0.064l0.046,0.063l0.047,0.061l0.048,0.06l0.049,0.06l0.05,0.058l0.05,0.057l0.052,0.056l0.053,0.055l0.054,0.054l0.055,0.052l0.057,0.052l0.057,0.05l0.058,0.05l0.059,0.048l0.061,0.047l0.062,0.046l0.063,0.045l0.063,0.044l0.066,0.043l0.066,0.041l0.067,0.04l0.069,0.04l0.07,0.038l0.071,0.037l0.072,0.035l0.074,0.035l0.075,0.034l0.076,0.032l0.077,0.031l0.079,0.03l0.079,0.029l0.082,0.028l0.082,0.026l0.084,0.025l0.085,0.025l0.086,0.023l0.088,0.021l0.089,0.021l0.091,0.019l0.092,0.019l0.093,0.017l0.095,0.016l0.096,0.014l0.098,0.014l0.099,0.012l0.1,0.011l0.102,0.01l0.103,0.009l0.105,0.007l0.106,0.006l0.108,0.005l0.11,0.004l0.11,0.003l0.113,0.001l0.114,0l0.115,-0.001l0.117,-0.003l0.119,-0.003l0.12,-0.005l0.122,-0.006l0.123,-0.008l0.125,-0.008l0.127,-0.01l0.128,-0.011l0.13,-0.013l0.132,-0.013l0.133,-0.015l0.135,-0.016l0.137,-0.018l0.138,-0.018l0.14,-0.02l0.142,-0.022l0.143,-0.022l0.146,-0.024l0.147,-0.025l0.148,-0.027l-1.724,2.127l-0.053,0.067l-0.05,0.068l-0.049,0.069l-0.047,0.069l-0.045,0.07l-0.043,0.072l-0.041,0.071l-0.039,0.073l-0.036,0.073l-0.035,0.074l-0.033,0.075l-0.032,0.075l-0.029,0.076l-0.027,0.076l-0.025,0.076l-0.023,0.077l-0.022,0.078l-0.019,0.078l-0.017,0.078l-0.016,0.078l-0.014,0.079l-0.011,0.078l-0.01,0.079l-0.008,0.079l-0.006,0.08l-0.004,0.079l-0.002,0.079l0,0.079l0.001,0.08l0.004,0.079l0.005,0.079l0.008,0.079l0.009,0.078l0.011,0.079l0.013,0.078l0.014,0.078l0.017,0.077l0.019,0.077l0.02,0.077l0.022,0.076l0.024,0.076l0.026,0.075l0.028,0.075l0.029,0.074l0.032,0.073l0.033,0.073l0.035,0.072l0.037,0.071l0.039,0.071l0.04,0.07l0.042,0.069l0.045,0.068l0.045,0.067l0.048,0.066l0.05,0.065l0.051,0.064l0.053,0.063l0.055,0.062l0.057,0.061l0.058,0.059l0.06,0.059l0.062,0.057l0.064,0.055l0.065,0.055l12.832,10.403l0.067,0.053l0.068,0.051l0.069,0.048l0.069,0.047l0.071,0.045l0.071,0.043l0.072,0.041l0.072,0.039l0.074,0.037l0.073,0.035l0.075,0.033l0.075,0.031l0.076,0.029l0.076,0.027l0.076,0.025l0.078,0.023l0.077,0.022l0.078,0.019l0.078,0.018l0.078,0.015l0.079,0.014l0.078,0.011l0.079,0.01l0.08,0.008l0.079,0.006l0.079,0.004l0.079,0.002l0.08,0.001l0.079,-0.002l0.079,-0.004l0.079,-0.005l0.079,-0.007l0.078,-0.009l0.079,-0.012l0.078,-0.012l0.078,-0.015l0.077,-0.017l0.077,-0.018l0.077,-0.021l0.076,-0.022l0.076,-0.024l0.075,-0.026l0.075,-0.028l0.074,-0.029l0.073,-0.032l0.073,-0.033l0.072,-0.035l0.072,-0.037l0.07,-0.038l0.07,-0.041l0.069,-0.042l0.068,-0.044l0.067,-0.046l0.066,-0.048l0.065,-0.05l0.064,-0.051l0.063,-0.053l0.062,-0.055l0.061,-0.056l0.059,-0.059l0.059,-0.06l0.057,-0.062l0.056,-0.064l0.054,-0.065l51.269,-63.24l19.039,15.436l0.065,0.05l0.065,0.049l0.066,0.048l0.068,0.045l0.068,0.044l0.07,0.042l0.07,0.041l0.071,0.038l0.072,0.037l0.073,0.035l0.073,0.033l0.075,0.031l0.075,0.03l0.075,0.027l0.077,0.026l0.076,0.024l0.078,0.022l0.078,0.02l0.078,0.018l0.079,0.016l0.08,0.015l0.079,0.012l0.08,0.01l0.081,0.009l0.08,0.006l0.081,0.005l0.081,0.003l0.082,0l0.081,-0.001l0.081,-0.004l0.082,-0.005l0.082,-0.008l0.081,-0.009l0.081,-0.012l0.08,-0.013l0.08,-0.016l0.08,-0.017l0.079,-0.019l0.078,-0.022l0.077,-0.023l0.077,-0.025l0.076,-0.026l0.076,-0.029l0.074,-0.03l0.074,-0.033l0.073,-0.034l0.072,-0.035l0.071,-0.038l0.071,-0.039l0.069,-0.041l0.068,-0.043l0.068,-0.044l0.066,-0.046l0.065,-0.047l0.064,-0.05l0.063,-0.051l0.062,-0.052l0.06,-0.054l0.059,-0.055l0.058,-0.057l0.057,-0.059l0.055,-0.06l0.054,-0.062l0.052,-0.063l15.068,-18.586l0.051,-0.064l0.048,-0.065l0.047,-0.066l0.046,-0.067l0.043,-0.068l0.042,-0.069l0.04,-0.07l0.039,-0.071l0.036,-0.071l0.035,-0.073l0.033,-0.073l0.031,-0.074l0.029,-0.074l0.028,-0.076l0.025,-0.075l0.024,-0.077l0.022,-0.077l0.02,-0.078l0.018,-0.078l0.016,-0.078l0.014,-0.079l0.013,-0.079l0.01,-0.08l0.009,-0.08l0.006,-0.08l0.005,-0.08l0.002,-0.081l0.001,-0.081l-0.002,-0.081l-0.003,-0.081l-0.006,-0.081l-0.007,-0.081l-0.01,-0.081l-0.011,-0.081l-0.013,-0.08l-0.016,-0.079l-0.017,-0.079l-0.019,-0.079l-0.021,-0.077l-0.023,-0.078l-0.025,-0.076l-0.027,-0.076l-0.028,-0.075l-0.03,-0.074l-0.033,-0.074l-0.033,-0.072l-0.036,-0.072l-0.037,-0.071l-0.039,-0.07l-0.041,-0.069l-0.042,-0.068l-0.044,-0.067l-0.046,-0.065l-0.047,-0.065l-0.049,-0.064l-0.051,-0.062l-0.052,-0.062l-0.054,-0.06l-0.055,-0.059l-0.057,-0.057l-0.058,-0.056l-0.06,-0.055l-0.061,-0.054l-0.063,-0.052l-56.05,-45.441l-0.064,-0.051l-0.066,-0.049l-0.066,-0.047l-0.067,-0.046l-0.069,-0.044l-0.069,-0.042l-0.07,-0.04l-0.072,-0.038l-0.072,-0.037l-0.072,-0.035l-0.074,-0.033l-0.074,-0.031l-0.075,-0.03l-0.076,-0.027l-0.076,-0.026l-0.077,-0.024l-0.077,-0.022l-0.078,-0.02l-0.079,-0.018l-0.079,-0.016l-0.079,-0.015l-0.08,-0.012l-0.08,-0.011l-0.08,-0.008l-0.081,-0.007l-0.081,-0.004l-0.081,-0.003l-0.081,0l-0.081,0.001Z" style="fill:#fff;"/><path d="M182.683,103.517c-0.551,0.68 -1.35,1.113 -2.22,1.204c-0.871,0.091 -1.742,-0.167 -2.422,-0.718c-5.722,-4.64 -19.039,-15.436 -19.039,-15.436c0,0 -41.429,51.103 -51.269,63.24c-1.148,1.415 -3.226,1.633 -4.642,0.485c-3.414,-2.768 -9.418,-7.635 -12.832,-10.403c-1.415,-1.148 -1.633,-3.226 -0.485,-4.642c9.84,-12.137 51.27,-63.239 51.27,-63.239c0,0 -13.317,-10.796 -19.039,-15.435c-0.68,-0.552 -1.113,-1.35 -1.204,-2.221c-0.091,-0.87 0.167,-1.741 0.718,-2.421c3.695,-4.557 11.363,-14.016 15.058,-18.573c0.551,-0.68 1.349,-1.113 2.22,-1.204c0.87,-0.091 1.741,0.168 2.421,0.719c9.97,8.083 46.104,37.377 56.05,45.441c0.677,0.548 1.107,1.343 1.198,2.209c0.09,0.866 -0.167,1.732 -0.715,2.408c-3.69,4.552 -11.37,14.025 -15.068,18.586Z" style="fill:#282ea9;"/><path d="M93.633,49.836c0.369,0.108 0.748,0.248 1.134,0.423c4.968,-11.839 28.417,-10.769 31.429,1.706c11.087,-0.945 11.289,15.568 0.055,14.314c0.877,4.597 -2.715,14.146 -7.418,17.38l0.032,0.164l-25.232,0l0,-33.987Z"/><path d="M110.273,39.365l0.179,0.003l0.179,0.003l0.179,0.005l0.179,0.006l0.179,0.007l0.179,0.008l0.178,0.01l0.179,0.011l0.179,0.012l0.178,0.013l0.178,0.015l0.178,0.016l0.178,0.017l0.178,0.018l0.178,0.02l0.177,0.021l0.177,0.022l0.177,0.023l0.177,0.024l0.177,0.026l0.176,0.027l0.176,0.029l0.176,0.029l0.175,0.031l0.175,0.032l0.175,0.033l0.175,0.035l0.174,0.035l0.174,0.037l0.173,0.039l0.173,0.039l0.173,0.041l0.172,0.042l0.172,0.043l0.172,0.045l0.171,0.045l0.17,0.048l0.171,0.048l0.169,0.05l0.169,0.05l0.169,0.053l0.168,0.053l0.168,0.055l0.167,0.056l0.167,0.057l0.166,0.059l0.165,0.06l0.165,0.061l0.164,0.062l0.164,0.064l0.163,0.065l0.162,0.067l0.162,0.067l0.161,0.07l0.16,0.07l0.16,0.072l0.159,0.073l0.158,0.074l0.157,0.076l0.157,0.077l0.156,0.078l0.155,0.08l0.154,0.081l0.154,0.083l0.153,0.083l0.152,0.086l0.151,0.086l0.15,0.088l0.149,0.09l0.148,0.09l0.147,0.092l0.147,0.094l0.145,0.095l0.145,0.096l0.143,0.098l0.143,0.099l0.141,0.101l0.141,0.102l0.139,0.103l0.138,0.105l0.137,0.107l0.136,0.107l0.135,0.11l0.134,0.11l0.132,0.112l0.131,0.114l0.13,0.115l0.129,0.117l0.128,0.118l0.126,0.119l0.125,0.121l0.123,0.122l0.122,0.124l0.121,0.126l0.12,0.127l0.118,0.128l0.116,0.13l0.115,0.131l0.113,0.133l0.112,0.134l0.111,0.136l0.108,0.137l0.108,0.139l0.105,0.14l0.104,0.142l0.102,0.143l0.101,0.144l0.098,0.146l0.097,0.148l0.095,0.149l0.094,0.15l0.091,0.152l0.09,0.153l0.088,0.155l0.085,0.156l0.084,0.158l0.082,0.158l0.08,0.161l0.078,0.161l0.076,0.163l0.074,0.164l0.071,0.166l0.04,0.095l0.067,0.006l0.149,0.014l0.148,0.015l0.148,0.018l0.146,0.02l0.146,0.021l0.145,0.023l0.143,0.025l0.143,0.027l0.142,0.029l0.141,0.03l0.141,0.032l0.139,0.035l0.138,0.035l0.137,0.038l0.136,0.039l0.136,0.042l0.134,0.043l0.133,0.044l0.132,0.047l0.131,0.048l0.129,0.049l0.129,0.052l0.127,0.053l0.127,0.054l0.125,0.057l0.124,0.058l0.123,0.059l0.121,0.061l0.121,0.063l0.119,0.064l0.118,0.066l0.116,0.067l0.115,0.068l0.114,0.07l0.113,0.072l0.111,0.073l0.11,0.074l0.109,0.076l0.107,0.077l0.106,0.078l0.104,0.079l0.104,0.081l0.101,0.082l0.101,0.084l0.098,0.084l0.098,0.086l0.096,0.086l0.095,0.088l0.093,0.089l0.092,0.09l0.09,0.091l0.089,0.093l0.087,0.093l0.086,0.094l0.085,0.095l0.083,0.096l0.081,0.097l0.081,0.098l0.078,0.098l0.077,0.1l0.076,0.1l0.074,0.101l0.073,0.102l0.072,0.103l0.07,0.104l0.068,0.104l0.067,0.105l0.066,0.105l0.064,0.106l0.062,0.107l0.062,0.108l0.059,0.108l0.059,0.108l0.057,0.11l0.055,0.109l0.054,0.111l0.053,0.11l0.051,0.112l0.05,0.111l0.048,0.112l0.047,0.113l0.045,0.113l0.045,0.114l0.042,0.114l0.042,0.114l0.039,0.115l0.039,0.115l0.037,0.115l0.036,0.116l0.034,0.116l0.033,0.116l0.032,0.117l0.03,0.117l0.029,0.117l0.027,0.117l0.026,0.118l0.025,0.118l0.023,0.118l0.022,0.118l0.021,0.118l0.019,0.119l0.018,0.118l0.017,0.119l0.015,0.119l0.014,0.12l0.012,0.119l0.012,0.119l0.009,0.12l0.009,0.119l0.007,0.12l0.006,0.119l0.004,0.12l0.003,0.12l0.002,0.119l0,0.12l-0.001,0.12l-0.002,0.12l-0.004,0.119l-0.005,0.12l-0.007,0.119l-0.008,0.12l-0.009,0.119l-0.01,0.12l-0.012,0.119l-0.014,0.119l-0.014,0.119l-0.016,0.119l-0.018,0.119l-0.019,0.118l-0.02,0.119l-0.021,0.118l-0.023,0.118l-0.025,0.118l-0.025,0.117l-0.028,0.118l-0.028,0.117l-0.03,0.117l-0.032,0.116l-0.032,0.116l-0.035,0.116l-0.035,0.116l-0.038,0.115l-0.038,0.115l-0.04,0.115l-0.041,0.114l-0.043,0.114l-0.045,0.113l-0.046,0.113l-0.047,0.112l-0.049,0.112l-0.05,0.112l-0.052,0.111l-0.053,0.11l-0.054,0.11l-0.057,0.109l-0.057,0.109l-0.059,0.108l-0.061,0.108l-0.062,0.107l-0.064,0.106l-0.065,0.105l-0.067,0.105l-0.068,0.104l-0.07,0.104l-0.071,0.102l-0.073,0.102l-0.074,0.101l-0.076,0.1l-0.078,0.099l-0.078,0.099l-0.081,0.097l-0.082,0.097l-0.083,0.095l-0.085,0.095l-0.087,0.093l-0.088,0.093l-0.09,0.091l-0.091,0.091l-0.092,0.089l-0.094,0.088l-0.096,0.087l-0.097,0.086l-0.098,0.084l-0.1,0.083l-0.102,0.082l-0.103,0.081l-0.104,0.079l-0.106,0.078l-0.107,0.077l-0.108,0.075l-0.11,0.074l-0.111,0.072l-0.113,0.071l-0.114,0.07l-0.115,0.067l-0.117,0.067l-0.118,0.065l-0.119,0.063l-0.121,0.062l-0.122,0.06l-0.123,0.058l-0.124,0.057l-0.125,0.055l-0.127,0.053l-0.128,0.052l-0.129,0.05l-0.13,0.048l-0.131,0.047l-0.132,0.044l-0.133,0.043l-0.135,0.042l-0.135,0.039l-0.137,0.038l-0.137,0.035l-0.139,0.034l-0.139,0.033l-0.141,0.03l-0.141,0.028l-0.142,0.027l-0.143,0.025l-0.145,0.023l-0.144,0.021l-0.084,0.011l-0.007,0.095l-0.013,0.164l-0.014,0.163l-0.017,0.165l-0.017,0.165l-0.02,0.165l-0.021,0.166l-0.022,0.167l-0.024,0.166l-0.025,0.168l-0.027,0.168l-0.028,0.168l-0.03,0.169l-0.031,0.169l-0.033,0.17l-0.034,0.17l-0.035,0.17l-0.037,0.171l-0.038,0.171l-0.039,0.172l-0.041,0.171l-0.042,0.172l-0.044,0.173l-0.044,0.172l-0.046,0.173l-0.048,0.173l-0.048,0.173l-0.05,0.174l-0.051,0.173l-0.052,0.174l-0.054,0.173l-0.054,0.174l-0.056,0.174l-0.058,0.174l-0.058,0.174l-0.059,0.174l-0.061,0.174l-0.062,0.173l-0.063,0.174l-0.065,0.174l-0.065,0.173l-0.066,0.173l-0.068,0.173l-0.069,0.173l-0.07,0.173l-0.071,0.172l-0.072,0.172l-0.073,0.172l-0.075,0.171l-0.075,0.171l-0.077,0.171l-0.078,0.17l-0.078,0.17l-0.08,0.169l-0.081,0.169l-0.082,0.168l-0.083,0.168l-0.084,0.167l-0.085,0.167l-0.086,0.166l-0.088,0.165l-0.088,0.165l-0.089,0.163l-0.09,0.164l-0.092,0.162l-0.092,0.161l-0.094,0.161l-0.094,0.16l-0.096,0.159l-0.096,0.158l-0.098,0.158l-0.098,0.156l-0.1,0.155l-0.101,0.155l-0.101,0.153l-0.103,0.152l-0.104,0.152l-0.105,0.15l-0.106,0.149l-0.106,0.147l-0.108,0.147l-0.11,0.146l-0.11,0.144l-0.111,0.143l-0.112,0.141l-0.114,0.141l-0.114,0.139l-0.116,0.137l-0.117,0.136l-0.118,0.135l-0.119,0.133l-0.12,0.132l-0.121,0.13l-0.123,0.129l-0.124,0.127l-0.125,0.125l-0.127,0.124l-0.127,0.122l-0.129,0.121l-0.131,0.118l-0.132,0.117l-0.133,0.115l-0.134,0.113l-0.117,0.095l-0.032,0.05l-0.126,0.166l-0.139,0.155l-0.151,0.143l-0.162,0.131l-0.171,0.118l-0.181,0.104l-0.188,0.088l-0.195,0.074l-0.2,0.057l-0.204,0.042l-0.206,0.024l-0.208,0.009l-25.232,0l-0.204,-0.008l-0.203,-0.024l-0.2,-0.04l-0.196,-0.055l-0.192,-0.071l-0.185,-0.086l-0.179,-0.099l-0.169,-0.114l-0.161,-0.126l-0.15,-0.139l-0.138,-0.15l-0.126,-0.16l-0.114,-0.17l-0.1,-0.178l-0.085,-0.185l-0.071,-0.192l-0.055,-0.196l-0.04,-0.2l-0.024,-0.203l-0.008,-0.204l0,-33.987l0.008,-0.202l0.023,-0.2l0.039,-0.198l0.054,-0.195l0.07,-0.19l0.083,-0.183l0.098,-0.177l0.111,-0.169l0.124,-0.159l0.136,-0.15l0.147,-0.138l0.157,-0.127l0.167,-0.114l0.175,-0.1l0.182,-0.087l0.189,-0.072l0.193,-0.058l0.197,-0.042l0.201,-0.027l0.027,-0.002l0.059,-0.093l0.098,-0.151l0.1,-0.15l0.101,-0.148l0.104,-0.146l0.105,-0.145l0.107,-0.144l0.108,-0.142l0.11,-0.14l0.112,-0.139l0.114,-0.137l0.114,-0.135l0.117,-0.134l0.118,-0.133l0.119,-0.131l0.121,-0.129l0.122,-0.128l0.124,-0.126l0.125,-0.125l0.126,-0.123l0.128,-0.121l0.129,-0.12l0.131,-0.118l0.131,-0.117l0.133,-0.115l0.134,-0.114l0.136,-0.112l0.136,-0.11l0.138,-0.109l0.138,-0.108l0.14,-0.106l0.141,-0.104l0.142,-0.103l0.143,-0.101l0.145,-0.1l0.145,-0.098l0.146,-0.097l0.147,-0.095l0.148,-0.094l0.149,-0.093l0.15,-0.09l0.151,-0.09l0.152,-0.088l0.152,-0.086l0.154,-0.085l0.154,-0.083l0.155,-0.082l0.156,-0.081l0.157,-0.079l0.157,-0.078l0.159,-0.076l0.159,-0.075l0.159,-0.073l0.161,-0.072l0.161,-0.071l0.162,-0.069l0.162,-0.068l0.163,-0.066l0.164,-0.065l0.164,-0.064l0.165,-0.062l0.166,-0.061l0.166,-0.06l0.167,-0.058l0.167,-0.057l0.168,-0.055l0.168,-0.054l0.169,-0.053l0.169,-0.051l0.17,-0.051l0.17,-0.048l0.171,-0.048l0.171,-0.046l0.172,-0.045l0.172,-0.043l0.173,-0.042l0.172,-0.041l0.174,-0.04l0.173,-0.038l0.174,-0.037l0.175,-0.035l0.174,-0.035l0.175,-0.033l0.176,-0.032l0.175,-0.03l0.176,-0.029l0.176,-0.028l0.177,-0.027l0.176,-0.025l0.177,-0.024l0.177,-0.023l0.178,-0.022l0.177,-0.02l0.178,-0.019l0.178,-0.018l0.178,-0.016l0.178,-0.015l0.178,-0.014l0.179,-0.013l0.178,-0.012l0.179,-0.01l0.179,-0.009l0.179,-0.008l0.179,-0.006l0.178,-0.005l0.179,-0.004l0.18,-0.003l0.179,-0.001l0.179,-0.001l0.179,0.001Zm-0.346,2.6l-0.161,0.001l-0.161,0.002l-0.161,0.004l-0.16,0.005l-0.161,0.005l-0.161,0.007l-0.161,0.008l-0.16,0.01l-0.16,0.01l-0.161,0.011l-0.16,0.013l-0.16,0.014l-0.159,0.014l-0.16,0.016l-0.159,0.017l-0.159,0.019l-0.159,0.019l-0.158,0.02l-0.159,0.022l-0.158,0.023l-0.157,0.023l-0.158,0.025l-0.157,0.026l-0.156,0.028l-0.157,0.028l-0.156,0.029l-0.155,0.031l-0.155,0.032l-0.155,0.032l-0.155,0.034l-0.153,0.036l-0.154,0.036l-0.153,0.037l-0.152,0.039l-0.152,0.039l-0.152,0.041l-0.151,0.042l-0.15,0.043l-0.15,0.044l-0.15,0.046l-0.148,0.046l-0.148,0.048l-0.148,0.049l-0.147,0.049l-0.146,0.052l-0.146,0.052l-0.145,0.053l-0.144,0.055l-0.144,0.055l-0.143,0.057l-0.142,0.058l-0.141,0.059l-0.141,0.06l-0.14,0.061l-0.139,0.063l-0.139,0.063l-0.137,0.065l-0.137,0.066l-0.136,0.067l-0.135,0.068l-0.134,0.07l-0.134,0.07l-0.132,0.072l-0.132,0.073l-0.13,0.074l-0.13,0.075l-0.129,0.076l-0.128,0.078l-0.127,0.078l-0.126,0.08l-0.125,0.081l-0.124,0.082l-0.122,0.083l-0.122,0.085l-0.121,0.085l-0.12,0.087l-0.118,0.088l-0.118,0.089l-0.116,0.09l-0.116,0.091l-0.114,0.093l-0.113,0.093l-0.112,0.095l-0.111,0.096l-0.109,0.097l-0.108,0.098l-0.107,0.1l-0.106,0.1l-0.105,0.102l-0.103,0.103l-0.102,0.104l-0.101,0.106l-0.1,0.106l-0.098,0.108l-0.097,0.108l-0.095,0.11l-0.094,0.111l-0.093,0.113l-0.091,0.113l-0.09,0.115l-0.089,0.116l-0.087,0.117l-0.086,0.118l-0.084,0.119l-0.083,0.121l-0.081,0.121l-0.08,0.123l-0.078,0.124l-0.077,0.125l-0.075,0.127l-0.074,0.127l-0.072,0.129l-0.07,0.13l-0.069,0.131l-0.068,0.132l-0.065,0.134l-0.064,0.134l-0.063,0.136l-0.06,0.137l-0.06,0.138l-0.144,-0.064l-0.144,-0.061l-0.143,-0.057l-0.142,-0.055l-0.142,-0.051l-0.14,-0.048l-0.14,-0.045l-0.139,-0.042l0,33.987l25.232,0l-0.032,-0.164l0.11,-0.077l0.11,-0.079l0.109,-0.081l0.109,-0.084l0.108,-0.086l0.108,-0.088l0.107,-0.09l0.107,-0.092l0.106,-0.095l0.106,-0.096l0.106,-0.098l0.105,-0.101l0.104,-0.102l0.104,-0.104l0.103,-0.106l0.103,-0.108l0.102,-0.109l0.102,-0.112l0.101,-0.113l0.1,-0.114l0.1,-0.117l0.1,-0.118l0.098,-0.12l0.098,-0.121l0.098,-0.123l0.096,-0.124l0.096,-0.126l0.096,-0.127l0.094,-0.128l0.094,-0.13l0.094,-0.132l0.092,-0.132l0.092,-0.134l0.092,-0.136l0.09,-0.136l0.09,-0.138l0.089,-0.138l0.088,-0.14l0.087,-0.141l0.087,-0.142l0.086,-0.143l0.085,-0.144l0.084,-0.145l0.084,-0.146l0.082,-0.147l0.082,-0.147l0.081,-0.149l0.08,-0.149l0.079,-0.15l0.079,-0.151l0.077,-0.152l0.077,-0.152l0.075,-0.152l0.075,-0.154l0.074,-0.154l0.072,-0.154l0.072,-0.155l0.071,-0.156l0.07,-0.156l0.069,-0.156l0.068,-0.157l0.067,-0.157l0.066,-0.157l0.065,-0.158l0.064,-0.158l0.063,-0.158l0.062,-0.158l0.061,-0.159l0.06,-0.158l0.059,-0.159l0.057,-0.159l0.057,-0.159l0.055,-0.158l0.055,-0.159l0.053,-0.159l0.052,-0.158l0.051,-0.159l0.05,-0.158l0.049,-0.158l0.047,-0.158l0.047,-0.157l0.045,-0.157l0.044,-0.157l0.042,-0.157l0.042,-0.156l0.04,-0.156l0.039,-0.155l0.038,-0.155l0.037,-0.154l0.035,-0.154l0.034,-0.153l0.033,-0.152l0.031,-0.152l0.031,-0.151l0.028,-0.15l0.028,-0.15l0.026,-0.149l0.025,-0.148l0.024,-0.147l0.022,-0.147l0.021,-0.145l0.019,-0.144l0.018,-0.144l0.017,-0.142l0.015,-0.142l0.014,-0.14l0.012,-0.14l0.011,-0.138l0.01,-0.137l0.008,-0.136l0.006,-0.134l0.006,-0.133l0.003,-0.132l0.002,-0.131l0.001,-0.129l-0.001,-0.128l-0.002,-0.127l-0.004,-0.125l-0.006,-0.123l-0.007,-0.122l-0.008,-0.121l-0.01,-0.118l-0.012,-0.118l-0.013,-0.115l-0.015,-0.114l-0.017,-0.112l-0.018,-0.111l-0.019,-0.108l0.131,0.014l0.13,0.012l0.129,0.011l0.128,0.009l0.127,0.007l0.126,0.006l0.124,0.004l0.124,0.003l0.123,0.002l0.122,-0.001l0.12,-0.001l0.12,-0.003l0.119,-0.005l0.117,-0.006l0.117,-0.008l0.115,-0.009l0.114,-0.01l0.114,-0.012l0.112,-0.013l0.111,-0.015l0.111,-0.016l0.109,-0.017l0.108,-0.019l0.107,-0.02l0.106,-0.021l0.105,-0.023l0.104,-0.024l0.103,-0.025l0.102,-0.027l0.101,-0.028l0.1,-0.029l0.098,-0.03l0.098,-0.031l0.097,-0.033l0.095,-0.034l0.095,-0.035l0.094,-0.036l0.092,-0.038l0.092,-0.038l0.09,-0.04l0.09,-0.041l0.088,-0.042l0.087,-0.043l0.087,-0.044l0.085,-0.045l0.084,-0.047l0.083,-0.047l0.082,-0.048l0.081,-0.05l0.08,-0.05l0.08,-0.051l0.078,-0.053l0.076,-0.053l0.076,-0.054l0.075,-0.056l0.074,-0.056l0.073,-0.057l0.072,-0.058l0.07,-0.059l0.07,-0.06l0.069,-0.06l0.067,-0.062l0.067,-0.062l0.066,-0.063l0.064,-0.064l0.064,-0.065l0.062,-0.066l0.062,-0.066l0.06,-0.067l0.059,-0.068l0.059,-0.069l0.057,-0.069l0.056,-0.071l0.055,-0.07l0.055,-0.072l0.053,-0.072l0.052,-0.073l0.051,-0.074l0.05,-0.074l0.049,-0.074l0.048,-0.076l0.047,-0.076l0.046,-0.077l0.045,-0.077l0.044,-0.078l0.043,-0.078l0.041,-0.079l0.041,-0.079l0.04,-0.08l0.039,-0.081l0.037,-0.08l0.037,-0.082l0.036,-0.082l0.034,-0.082l0.034,-0.083l0.033,-0.083l0.031,-0.084l0.031,-0.084l0.029,-0.084l0.029,-0.085l0.027,-0.085l0.026,-0.086l0.026,-0.085l0.024,-0.087l0.023,-0.086l0.023,-0.087l0.021,-0.087l0.02,-0.087l0.019,-0.088l0.019,-0.088l0.017,-0.088l0.016,-0.088l0.015,-0.089l0.014,-0.089l0.013,-0.089l0.012,-0.089l0.011,-0.089l0.01,-0.09l0.009,-0.089l0.008,-0.09l0.007,-0.09l0.006,-0.09l0.005,-0.09l0.004,-0.09l0.002,-0.09l0.002,-0.09l0.001,-0.091l0,-0.09l-0.002,-0.09l-0.002,-0.091l-0.003,-0.09l-0.004,-0.09l-0.006,-0.09l-0.006,-0.091l-0.008,-0.09l-0.008,-0.09l-0.009,-0.09l-0.011,-0.09l-0.011,-0.089l-0.013,-0.09l-0.013,-0.09l-0.015,-0.089l-0.015,-0.089l-0.017,-0.089l-0.018,-0.089l-0.018,-0.089l-0.02,-0.088l-0.02,-0.088l-0.022,-0.088l-0.023,-0.088l-0.023,-0.087l-0.025,-0.088l-0.026,-0.086l-0.027,-0.087l-0.027,-0.086l-0.029,-0.086l-0.03,-0.086l-0.031,-0.085l-0.032,-0.085l-0.032,-0.084l-0.034,-0.085l-0.035,-0.083l-0.036,-0.084l-0.037,-0.082l-0.038,-0.083l-0.039,-0.082l-0.04,-0.081l-0.041,-0.081l-0.042,-0.081l-0.043,-0.08l-0.044,-0.08l-0.045,-0.079l-0.046,-0.078l-0.047,-0.078l-0.048,-0.077l-0.049,-0.077l-0.05,-0.076l-0.051,-0.076l-0.052,-0.075l-0.053,-0.074l-0.054,-0.074l-0.055,-0.073l-0.057,-0.072l-0.057,-0.072l-0.058,-0.071l-0.059,-0.07l-0.06,-0.07l-0.061,-0.069l-0.063,-0.068l-0.063,-0.067l-0.064,-0.067l-0.065,-0.066l-0.067,-0.065l-0.067,-0.064l-0.068,-0.063l-0.069,-0.063l-0.071,-0.062l-0.071,-0.06l-0.072,-0.06l-0.074,-0.06l-0.074,-0.058l-0.075,-0.057l-0.076,-0.056l-0.078,-0.056l-0.078,-0.054l-0.079,-0.054l-0.081,-0.053l-0.081,-0.051l-0.083,-0.051l-0.083,-0.05l-0.084,-0.048l-0.086,-0.048l-0.086,-0.046l-0.087,-0.046l-0.089,-0.044l-0.089,-0.043l-0.091,-0.043l-0.091,-0.041l-0.092,-0.04l-0.094,-0.039l-0.094,-0.037l-0.096,-0.037l-0.096,-0.035l-0.098,-0.035l-0.098,-0.033l-0.099,-0.031l-0.101,-0.031l-0.101,-0.029l-0.103,-0.029l-0.103,-0.026l-0.105,-0.026l-0.105,-0.024l-0.107,-0.023l-0.107,-0.022l-0.108,-0.02l-0.11,-0.019l-0.11,-0.018l-0.112,-0.016l-0.112,-0.015l-0.114,-0.014l-0.114,-0.012l-0.116,-0.011l-0.116,-0.009l-0.117,-0.008l-0.119,-0.007l-0.119,-0.005l-0.121,-0.003l-0.121,-0.002l-0.123,-0.001l-0.123,0.001l-0.125,0.003l-0.125,0.004l-0.126,0.005l-0.128,0.007l-0.128,0.009l-0.13,0.01l-0.036,-0.145l-0.038,-0.145l-0.04,-0.144l-0.042,-0.142l-0.043,-0.142l-0.046,-0.14l-0.047,-0.14l-0.049,-0.138l-0.05,-0.137l-0.053,-0.136l-0.054,-0.136l-0.056,-0.134l-0.058,-0.133l-0.059,-0.132l-0.061,-0.131l-0.062,-0.13l-0.065,-0.129l-0.066,-0.128l-0.067,-0.126l-0.069,-0.126l-0.071,-0.125l-0.072,-0.123l-0.074,-0.123l-0.076,-0.122l-0.077,-0.12l-0.078,-0.119l-0.08,-0.119l-0.082,-0.117l-0.083,-0.116l-0.084,-0.115l-0.086,-0.115l-0.087,-0.113l-0.089,-0.112l-0.09,-0.11l-0.092,-0.11l-0.093,-0.109l-0.094,-0.108l-0.096,-0.106l-0.097,-0.106l-0.098,-0.105l-0.1,-0.103l-0.101,-0.102l-0.102,-0.102l-0.103,-0.1l-0.105,-0.099l-0.106,-0.098l-0.107,-0.097l-0.109,-0.096l-0.11,-0.095l-0.11,-0.094l-0.112,-0.093l-0.114,-0.092l-0.114,-0.09l-0.115,-0.09l-0.117,-0.088l-0.118,-0.088l-0.119,-0.086l-0.119,-0.085l-0.121,-0.085l-0.122,-0.083l-0.123,-0.082l-0.124,-0.081l-0.126,-0.08l-0.126,-0.078l-0.127,-0.078l-0.128,-0.077l-0.129,-0.075l-0.129,-0.075l-0.131,-0.073l-0.132,-0.073l-0.133,-0.071l-0.133,-0.07l-0.134,-0.069l-0.136,-0.068l-0.136,-0.067l-0.137,-0.066l-0.137,-0.065l-0.139,-0.063l-0.139,-0.063l-0.14,-0.061l-0.141,-0.061l-0.142,-0.059l-0.142,-0.058l-0.143,-0.057l-0.144,-0.056l-0.144,-0.055l-0.145,-0.054l-0.146,-0.053l-0.146,-0.052l-0.147,-0.05l-0.148,-0.05l-0.148,-0.048l-0.149,-0.047l-0.149,-0.047l-0.15,-0.045l-0.151,-0.044l-0.151,-0.043l-0.151,-0.042l-0.152,-0.04l-0.153,-0.04l-0.153,-0.039l-0.154,-0.037l-0.154,-0.036l-0.154,-0.036l-0.155,-0.034l-0.155,-0.033l-0.156,-0.032l-0.156,-0.03l-0.156,-0.03l-0.157,-0.029l-0.157,-0.027l-0.157,-0.027l-0.158,-0.025l-0.158,-0.024l-0.158,-0.023l-0.159,-0.022l-0.159,-0.021l-0.159,-0.02l-0.159,-0.019l-0.16,-0.017l-0.159,-0.017l-0.16,-0.015l-0.16,-0.014l-0.16,-0.014l-0.161,-0.012l-0.16,-0.011l-0.161,-0.009l-0.161,-0.009l-0.161,-0.008l-0.16,-0.006l-0.161,-0.005l-0.161,-0.005l-0.161,-0.003l-0.161,-0.002l-0.162,-0.001l-0.161,0.001Z" style="fill:#fff;"/><path d="M91.534,135.114c-6.415,1.169 -7.957,-1.205 -8.359,-6.139c-1.02,8.345 -4.908,15.076 -11.945,20.031c11.094,-2.164 23.902,15.157 18.91,16.82c-1.64,0.547 -3.421,0.903 -5.713,0.569c0.247,1.118 -0.139,1.871 -0.846,2.438c-5.654,2.047 -21.894,1.874 -48.481,-0.467c-0.907,-0.079 -1.669,-0.714 -1.91,-1.592c-1.263,-4.593 -5.076,-18.464 -5.076,-18.464c-14.463,-6.063 -21.759,-23.609 -20.654,-48.914c0.932,-31.419 10.411,-52.663 27.032,-53.089c7.685,-0.341 14.126,6.559 12.771,17.344c-1.665,13.261 -7.949,20.255 -13.515,19.314c-2.764,-0.467 -7.313,-1.458 -7.31,-8.454c0.005,-11.522 10.422,-11.148 8.096,-1.812c-0.42,1.687 1.32,2.011 1.773,0.505c0.922,-3.068 5.689,-16.933 -2.832,-17.068c-19.263,-0.305 -20.659,69.15 -7.144,67.932c4.367,-33.487 26.268,-57.48 62.74,-59.188c-8.075,-2.818 -3.681,-18.836 5.681,-14.604c4.968,-11.839 28.417,-10.769 31.429,1.707c11.086,-0.946 11.289,15.568 0.054,14.313c0.877,4.597 -2.714,14.147 -7.417,17.38c1.083,5.651 2.012,9.754 2.057,15.316l-13.175,16.198l-16.166,19.924Z"/><path d="M88.975,136.093l38.183,-46.94" style="fill:none;stroke:#fff;stroke-width:2.63px;"/><path d="M42.297,127.396c19.336,-10.676 30.883,14.233 5.169,31.756c25.782,-14.569 36.591,4.499 37.732,9.668" style="fill:none;stroke:#fff;stroke-width:2.63px;"/><path d="M110.181,55.665c0.024,-0.056 0.049,-0.112 0.074,-0.168c1.153,-2.549 3.436,-4.18 6.598,-4.14c5.391,0.205 9.152,7.872 4.679,12.137c-0.652,0.621 -1.437,1.05 -2.29,1.304c2.376,3.619 2.649,8.344 -1.406,12.395c-5.897,5.89 -18.475,4.361 -20.695,-5.014c-0.722,-3.049 0.25,-6.181 2.257,-8.627c-2.584,-1.179 -4.536,-3.685 -4.021,-7.055c0.517,-3.38 3.304,-6.02 7.142,-5.972c2.836,0.108 5.248,2.281 6.223,4.945c0.51,0.849 0.967,0.87 1.439,0.195Z" style="fill:#fff;"/><g><circle cx="102.339" cy="57.565" r="3.542"/><ellipse cx="108.909" cy="69.884" rx="8.536" ry="7.386"/><circle cx="106.384" cy="67.565" r="1.714" style="fill:#fff;"/><circle cx="111.945" cy="67.851" r="1.714" style="fill:#fff;"/><circle cx="116.673" cy="58.397" r="3.542"/></g><path d="M65.935,92.1c-18.361,17.214 2.139,35.07 40.655,25.674c18.357,9.022 22.01,-18.497 4.029,-14.38c-10.418,2.385 -15.923,-3.548 -23.956,-11.509" style="stroke:#fff;stroke-width:2.63px;"/><path d="M117.291,140.645c-3.785,-3.179 2.413,-8.91 6.415,-6.273c4.003,2.637 -2.766,9.337 -6.415,6.273Z"/><path d="M121.56,131.067l0.164,0.005l0.165,0.009l0.165,0.013l0.166,0.017l0.166,0.021l0.167,0.025l0.166,0.03l0.167,0.034l0.167,0.038l0.167,0.043l0.166,0.047l0.166,0.052l0.165,0.056l0.164,0.061l0.164,0.066l0.163,0.07l0.161,0.076l0.161,0.079l0.158,0.085l0.157,0.089l0.156,0.093l0.147,0.095l0.086,0.057l0.079,0.055l0.078,0.056l0.077,0.057l0.076,0.058l0.076,0.06l0.074,0.061l0.073,0.062l0.073,0.063l0.071,0.064l0.07,0.066l0.068,0.067l0.068,0.068l0.066,0.069l0.066,0.071l0.064,0.071l0.062,0.073l0.061,0.073l0.06,0.075l0.059,0.076l0.057,0.077l0.055,0.079l0.054,0.079l0.053,0.08l0.05,0.08l0.05,0.082l0.048,0.083l0.045,0.083l0.045,0.084l0.042,0.085l0.041,0.085l0.039,0.086l0.038,0.087l0.036,0.087l0.033,0.087l0.033,0.088l0.03,0.089l0.029,0.087l0.027,0.089l0.025,0.09l0.023,0.089l0.022,0.089l0.02,0.089l0.018,0.089l0.017,0.089l0.015,0.089l0.013,0.089l0.012,0.089l0.01,0.089l0.01,0.099l0.011,0.165l0.007,0.175l0.001,0.173l-0.005,0.172l-0.01,0.17l-0.015,0.168l-0.02,0.166l-0.025,0.164l-0.029,0.162l-0.033,0.16l-0.038,0.157l-0.041,0.156l-0.044,0.153l-0.049,0.152l-0.051,0.149l-0.055,0.147l-0.058,0.145l-0.06,0.143l-0.064,0.141l-0.066,0.139l-0.069,0.137l-0.072,0.135l-0.074,0.134l-0.076,0.131l-0.079,0.13l-0.081,0.128l-0.083,0.126l-0.085,0.125l-0.088,0.123l-0.089,0.121l-0.092,0.119l-0.093,0.118l-0.096,0.116l-0.097,0.115l-0.099,0.113l-0.101,0.111l-0.103,0.109l-0.104,0.108l-0.106,0.107l-0.108,0.104l-0.11,0.103l-0.112,0.101l-0.113,0.1l-0.114,0.098l-0.117,0.096l-0.118,0.094l-0.119,0.093l-0.122,0.091l-0.122,0.088l-0.125,0.088l-0.126,0.085l-0.127,0.083l-0.129,0.081l-0.131,0.08l-0.132,0.077l-0.134,0.075l-0.135,0.073l-0.137,0.071l-0.139,0.069l-0.14,0.067l-0.142,0.064l-0.143,0.061l-0.144,0.059l-0.147,0.057l-0.148,0.054l-0.149,0.051l-0.151,0.049l-0.153,0.045l-0.154,0.043l-0.156,0.04l-0.157,0.036l-0.159,0.033l-0.161,0.03l-0.161,0.026l-0.164,0.022l-0.164,0.019l-0.167,0.015l-0.167,0.01l-0.169,0.007l-0.17,0.002l-0.171,-0.002l-0.172,-0.007l-0.173,-0.012l-0.174,-0.017l-0.174,-0.022l-0.175,-0.027l-0.166,-0.03l-0.097,-0.02l-0.087,-0.02l-0.088,-0.021l-0.088,-0.022l-0.087,-0.024l-0.088,-0.025l-0.087,-0.026l-0.087,-0.028l-0.087,-0.03l-0.087,-0.03l-0.086,-0.033l-0.087,-0.034l-0.085,-0.035l-0.086,-0.036l-0.085,-0.039l-0.085,-0.039l-0.084,-0.041l-0.084,-0.042l-0.083,-0.044l-0.083,-0.046l-0.082,-0.046l-0.082,-0.049l-0.081,-0.049l-0.081,-0.051l-0.08,-0.052l-0.079,-0.054l-0.078,-0.055l-0.078,-0.057l-0.077,-0.057l-0.076,-0.059l-0.075,-0.061l-0.073,-0.06l-0.072,-0.061l-0.07,-0.061l-0.069,-0.062l-0.068,-0.063l-0.066,-0.063l-0.066,-0.064l-0.065,-0.066l-0.064,-0.066l-0.063,-0.067l-0.061,-0.067l-0.061,-0.069l-0.06,-0.069l-0.059,-0.07l-0.057,-0.071l-0.056,-0.072l-0.055,-0.072l-0.054,-0.074l-0.053,-0.074l-0.051,-0.074l-0.051,-0.076l-0.049,-0.077l-0.048,-0.076l-0.046,-0.078l-0.046,-0.078l-0.044,-0.079l-0.042,-0.08l-0.042,-0.08l-0.039,-0.081l-0.039,-0.081l-0.037,-0.082l-0.036,-0.082l-0.034,-0.082l-0.033,-0.084l-0.031,-0.083l-0.03,-0.084l-0.033,-0.094l-0.049,-0.159l-0.047,-0.17l-0.042,-0.17l-0.035,-0.172l-0.03,-0.171l-0.024,-0.171l-0.019,-0.171l-0.013,-0.17l-0.008,-0.17l-0.002,-0.168l0.002,-0.168l0.008,-0.166l0.012,-0.165l0.017,-0.164l0.021,-0.162l0.026,-0.16l0.03,-0.158l0.034,-0.157l0.038,-0.155l0.042,-0.152l0.045,-0.151l0.049,-0.149l0.052,-0.146l0.055,-0.145l0.058,-0.143l0.062,-0.141l0.064,-0.138l0.067,-0.137l0.07,-0.134l0.072,-0.133l0.075,-0.131l0.077,-0.128l0.08,-0.127l0.082,-0.125l0.084,-0.123l0.087,-0.121l0.088,-0.119l0.091,-0.117l0.093,-0.115l0.094,-0.114l0.097,-0.111l0.099,-0.11l0.1,-0.108l0.102,-0.106l0.104,-0.105l0.106,-0.102l0.108,-0.101l0.109,-0.098l0.111,-0.097l0.113,-0.096l0.114,-0.093l0.116,-0.091l0.117,-0.089l0.119,-0.088l0.121,-0.086l0.122,-0.083l0.124,-0.082l0.125,-0.08l0.127,-0.078l0.128,-0.075l0.13,-0.074l0.131,-0.071l0.133,-0.07l0.134,-0.067l0.136,-0.065l0.137,-0.063l0.138,-0.061l0.14,-0.058l0.141,-0.056l0.143,-0.053l0.144,-0.051l0.145,-0.049l0.147,-0.046l0.147,-0.043l0.15,-0.04l0.15,-0.038l0.152,-0.035l0.153,-0.032l0.154,-0.029l0.156,-0.026l0.156,-0.023l0.158,-0.02l0.159,-0.017l0.159,-0.013l0.161,-0.009l0.162,-0.006l0.162,-0.003l0.164,0.001Zm-0.256,2.632l-0.103,0.004l-0.103,0.006l-0.103,0.009l-0.103,0.011l-0.103,0.012l-0.102,0.015l-0.102,0.017l-0.102,0.02l-0.101,0.021l-0.102,0.023l-0.1,0.026l-0.101,0.027l-0.1,0.029l-0.099,0.031l-0.099,0.033l-0.099,0.035l-0.097,0.037l-0.098,0.038l-0.096,0.04l-0.096,0.042l-0.095,0.044l-0.094,0.045l-0.094,0.047l-0.093,0.049l-0.091,0.05l-0.091,0.051l-0.09,0.054l-0.089,0.054l-0.088,0.056l-0.087,0.058l-0.086,0.058l-0.085,0.06l-0.083,0.062l-0.083,0.063l-0.081,0.064l-0.08,0.065l-0.079,0.066l-0.077,0.068l-0.076,0.069l-0.075,0.069l-0.073,0.071l-0.072,0.072l-0.07,0.073l-0.069,0.074l-0.067,0.075l-0.065,0.075l-0.064,0.077l-0.062,0.077l-0.061,0.079l-0.059,0.079l-0.057,0.079l-0.055,0.081l-0.053,0.081l-0.052,0.082l-0.049,0.082l-0.048,0.084l-0.046,0.083l-0.043,0.084l-0.042,0.085l-0.039,0.085l-0.038,0.086l-0.035,0.086l-0.033,0.086l-0.031,0.087l-0.028,0.087l-0.026,0.087l-0.024,0.088l-0.022,0.088l-0.019,0.088l-0.017,0.088l-0.014,0.088l-0.011,0.088l-0.01,0.089l-0.006,0.088l-0.004,0.089l-0.002,0.088l0.002,0.089l0.004,0.088l0.007,0.088l0.009,0.088l0.013,0.088l0.015,0.088l0.018,0.087l0.021,0.087l0.024,0.087l0.027,0.086l0.015,0.043l0.015,0.043l0.017,0.043l0.017,0.043l0.017,0.043l0.019,0.042l0.019,0.043l0.02,0.042l0.021,0.042l0.022,0.042l0.022,0.042l0.023,0.042l0.024,0.042l0.025,0.041l0.026,0.042l0.027,0.041l0.027,0.041l0.028,0.041l0.029,0.041l0.03,0.04l0.031,0.041l0.031,0.04l0.033,0.04l0.033,0.04l0.034,0.039l0.035,0.04l0.036,0.039l0.037,0.039l0.037,0.039l0.039,0.039l0.039,0.038l0.041,0.039l0.041,0.038l0.042,0.038l0.043,0.037l0.044,0.038l0.043,0.035l0.043,0.035l0.043,0.033l0.044,0.033l0.044,0.032l0.044,0.031l0.045,0.03l0.045,0.03l0.045,0.028l0.045,0.028l0.045,0.027l0.046,0.026l0.046,0.025l0.046,0.024l0.047,0.023l0.046,0.023l0.047,0.022l0.047,0.021l0.047,0.02l0.048,0.02l0.047,0.018l0.048,0.018l0.048,0.017l0.048,0.016l0.048,0.016l0.049,0.015l0.048,0.014l0.049,0.013l0.049,0.012l0.049,0.012l0.049,0.011l0.049,0.01l0.099,0.018l0.1,0.016l0.1,0.012l0.1,0.01l0.1,0.007l0.101,0.004l0.101,0.001l0.102,-0.001l0.101,-0.004l0.102,-0.007l0.102,-0.009l0.102,-0.011l0.102,-0.014l0.102,-0.017l0.102,-0.018l0.101,-0.022l0.102,-0.023l0.102,-0.026l0.101,-0.028l0.101,-0.03l0.101,-0.032l0.1,-0.035l0.1,-0.036l0.1,-0.039l0.099,-0.041l0.099,-0.042l0.098,-0.044l0.098,-0.047l0.097,-0.048l0.096,-0.05l0.096,-0.051l0.095,-0.054l0.094,-0.055l0.093,-0.057l0.093,-0.058l0.091,-0.06l0.091,-0.061l0.09,-0.063l0.089,-0.064l0.087,-0.066l0.087,-0.067l0.086,-0.068l0.084,-0.07l0.083,-0.071l0.082,-0.072l0.081,-0.073l0.079,-0.075l0.078,-0.075l0.076,-0.077l0.075,-0.077l0.074,-0.079l0.072,-0.079l0.071,-0.081l0.069,-0.081l0.067,-0.082l0.066,-0.082l0.063,-0.084l0.063,-0.084l0.06,-0.085l0.058,-0.085l0.057,-0.086l0.055,-0.087l0.053,-0.087l0.05,-0.087l0.049,-0.088l0.047,-0.088l0.044,-0.089l0.043,-0.089l0.04,-0.089l0.038,-0.089l0.035,-0.089l0.034,-0.09l0.031,-0.09l0.028,-0.09l0.027,-0.089l0.023,-0.09l0.021,-0.09l0.019,-0.089l0.016,-0.09l0.013,-0.089l0.011,-0.089l0.008,-0.089l0.005,-0.088l0.003,-0.089l0,-0.087l-0.004,-0.088l-0.006,-0.087l-0.004,-0.043l-0.005,-0.043l-0.006,-0.043l-0.006,-0.043l-0.007,-0.043l-0.008,-0.042l-0.009,-0.042l-0.009,-0.043l-0.011,-0.042l-0.011,-0.042l-0.011,-0.041l-0.013,-0.042l-0.013,-0.041l-0.015,-0.042l-0.015,-0.041l-0.016,-0.04l-0.016,-0.041l-0.018,-0.04l-0.018,-0.04l-0.019,-0.04l-0.02,-0.04l-0.021,-0.04l-0.022,-0.039l-0.022,-0.039l-0.023,-0.039l-0.025,-0.038l-0.025,-0.039l-0.026,-0.038l-0.027,-0.037l-0.027,-0.038l-0.029,-0.037l-0.029,-0.037l-0.031,-0.037l-0.031,-0.036l-0.032,-0.036l-0.034,-0.036l-0.034,-0.035l-0.035,-0.035l-0.035,-0.035l-0.037,-0.035l-0.038,-0.034l-0.039,-0.034l-0.039,-0.034l-0.041,-0.033l-0.041,-0.033l-0.043,-0.032l-0.043,-0.032l-0.045,-0.032l-0.045,-0.032l-0.047,-0.031l-0.094,-0.06l-0.095,-0.057l-0.096,-0.054l-0.096,-0.052l-0.097,-0.048l-0.098,-0.046l-0.098,-0.042l-0.099,-0.04l-0.099,-0.037l-0.1,-0.034l-0.101,-0.031l-0.1,-0.029l-0.101,-0.026l-0.102,-0.023l-0.102,-0.021l-0.102,-0.018l-0.102,-0.015l-0.103,-0.013l-0.102,-0.011l-0.103,-0.008l-0.103,-0.005l-0.103,-0.003l-0.103,-0.001l-0.103,0.001Z" style="fill:#fff;"/><path d="M91.518,54.74c-2.541,0.086 -3.125,4.1 -0.68,5.526" style="fill:none;stroke:#fff;stroke-width:2.63px;"/><path d="M127.898,56.876c2.794,0.686 2.6,4.749 -0.404,5.564" style="fill:none;stroke:#fff;stroke-width:2.63px;"/></g></g></svg>