<?xml version="1.0" encoding="UTF-8" standalone="no"?><!DOCTYPE svg PUBLIC "-//W3C//DTD SVG 1.1//EN" "http://www.w3.org/Graphics/SVG/1.1/DTD/svg11.dtd"><svg width="100%" height="100%" viewBox="0 0 256 256" version="1.1" xmlns="http://www.w3.org/2000/svg" xmlns:xlink="http://www.w3.org/1999/xlink" xml:space="preserve" xmlns:serif="http://www.serif.com/" style="fill-rule:evenodd;clip-rule:evenodd;stroke-linecap:round;stroke-linejoin:round;stroke-miterlimit:1.5;"><g id="Layer2"><g id="Layer1"></g></g><g id="Layer3"><g><path d="M156.136,62.745l14.312,-17.654c0.693,-0.854 1.697,-1.399 2.791,-1.513c1.094,-0.115 2.189,0.21 3.044,0.903c12.534,10.162 57.96,46.989 70.465,57.127c0.85,0.689 1.391,1.688 1.505,2.777c0.114,1.088 -0.209,2.178 -0.899,3.028c-4.639,5.722 -14.294,17.631 -18.943,23.366c-0.693,0.854 -1.697,1.399 -2.791,1.513c-1.094,0.115 -2.189,-0.21 -3.044,-0.903c-7.194,-5.833 -23.935,-19.405 -23.935,-19.405c0,0 -52.084,64.244 -64.454,79.503c-1.443,1.779 -4.056,2.053 -5.836,0.61c-4.292,-3.48 -11.84,-9.599 -16.132,-13.079c-1.779,-1.443 -2.053,-4.055 -0.61,-5.835l2.168,-2.674c-8.027,1.451 -9.959,-1.534 -10.464,-7.726c-1.283,10.492 -6.17,18.953 -15.017,25.182c13.947,-2.719 30.049,19.055 23.773,21.146c-2.062,0.687 -4.301,1.135 -7.182,0.715c0.311,1.406 -0.175,2.352 -1.063,3.066c-7.108,2.573 -27.526,2.356 -60.95,-0.587c-1.14,-0.1 -2.097,-0.898 -2.401,-2.002c-1.587,-5.774 -6.381,-23.213 -6.381,-23.213c-18.182,-7.622 -27.354,-29.68 -25.966,-61.493c1.172,-39.499 13.089,-66.206 33.984,-66.742c9.662,-0.429 17.759,8.246 16.056,21.805c-2.094,16.671 -14.343,13.903 -13.774,12.009c1.16,-3.857 -2.856,27.81 8.594,15.071c13.493,-15.013 32.936,-24.373 57.739,-25.535c-10.151,-3.543 -4.627,-23.68 7.142,-18.359c5.783,-13.783 31.489,-13.65 38.269,-1.101Z" style="fill:#fff;"/><path d="M173.88,36.94l0.265,0.009l0.264,0.014l0.262,0.022l0.262,0.027l0.262,0.035l0.261,0.04l0.257,0.047l0.258,0.053l0.256,0.059l0.254,0.066l0.253,0.071l0.251,0.078l0.248,0.084l0.247,0.09l0.245,0.096l0.242,0.102l0.241,0.108l0.237,0.114l0.235,0.119l0.232,0.126l0.229,0.132l0.226,0.137l0.224,0.143l0.22,0.149l0.216,0.154l0.214,0.16l0.177,0.141l70.528,57.178l0.174,0.144l0.2,0.176l0.195,0.179l0.191,0.184l0.186,0.189l0.181,0.193l0.176,0.196l0.17,0.201l0.166,0.205l0.16,0.208l0.155,0.212l0.15,0.216l0.144,0.219l0.139,0.222l0.133,0.226l0.128,0.229l0.122,0.231l0.116,0.235l0.111,0.238l0.105,0.24l0.099,0.243l0.093,0.246l0.087,0.248l0.081,0.25l0.075,0.253l0.069,0.254l0.063,0.257l0.057,0.259l0.05,0.26l0.044,0.261l0.038,0.264l0.031,0.265l0.024,0.266l0.018,0.265l0.011,0.265l0.005,0.265l-0.002,0.265l-0.009,0.264l-0.014,0.264l-0.022,0.262l-0.027,0.262l-0.035,0.26l-0.04,0.259l-0.046,0.259l-0.054,0.257l-0.059,0.255l-0.065,0.254l-0.071,0.252l-0.078,0.25l-0.084,0.249l-0.09,0.246l-0.095,0.244l-0.102,0.242l-0.108,0.239l-0.113,0.237l-0.12,0.235l-0.126,0.232l-0.131,0.229l-0.137,0.226l-0.142,0.222l-0.149,0.22l-0.154,0.216l-0.16,0.213l-0.14,0.177l-18.995,23.429l-0.144,0.174l-0.176,0.201l-0.18,0.196l-0.184,0.191l-0.189,0.186l-0.193,0.181l-0.198,0.177l-0.2,0.17l-0.206,0.167l-0.209,0.16l-0.212,0.155l-0.216,0.15l-0.219,0.144l-0.223,0.14l-0.227,0.133l-0.229,0.128l-0.232,0.123l-0.235,0.116l-0.238,0.111l-0.241,0.105l-0.243,0.099l-0.247,0.094l-0.249,0.087l-0.25,0.081l-0.253,0.076l-0.254,0.069l-0.259,0.063l-0.26,0.057l-0.259,0.05l-0.262,0.044l-0.266,0.038l-0.263,0.03l-0.267,0.025l-0.267,0.018l-0.264,0.011l-0.266,0.005l-0.266,-0.002l-0.264,-0.009l-0.264,-0.014l-0.264,-0.022l-0.262,-0.028l-0.261,-0.034l-0.26,-0.04l-0.258,-0.047l-0.258,-0.053l-0.257,-0.059l-0.253,-0.066l-0.253,-0.071l-0.251,-0.078l-0.248,-0.084l-0.246,-0.089l-0.246,-0.097l-0.242,-0.102l-0.24,-0.108l-0.238,-0.114l-0.234,-0.119l-0.233,-0.126l-0.229,-0.132l-0.226,-0.137l-0.224,-0.144l-0.22,-0.148l-0.216,-0.154l-0.214,-0.16l-0.177,-0.141l-18.827,-15.263l-60.314,74.395l-0.149,0.179l-0.18,0.206l-0.186,0.201l-0.19,0.196l-0.193,0.19l-0.199,0.185l-0.202,0.179l-0.205,0.173l-0.211,0.169l-0.214,0.163l-0.216,0.156l-0.219,0.15l-0.223,0.144l-0.226,0.139l-0.229,0.134l-0.231,0.126l-0.233,0.121l-0.236,0.115l-0.237,0.108l-0.24,0.102l-0.243,0.097l-0.245,0.091l-0.244,0.084l-0.246,0.078l-0.25,0.073l-0.25,0.067l-0.251,0.06l-0.251,0.054l-0.253,0.048l-0.254,0.042l-0.254,0.036l-0.257,0.029l-0.256,0.024l-0.257,0.018l-0.257,0.011l-0.257,0.005l-0.257,0l-0.259,-0.007l-0.26,-0.014l-0.256,-0.019l-0.257,-0.025l-0.258,-0.032l-0.258,-0.039l-0.257,-0.044l-0.256,-0.051l-0.254,-0.057l-0.256,-0.063l-0.253,-0.07l-0.251,-0.076l-0.252,-0.083l-0.249,-0.089l-0.248,-0.095l-0.247,-0.103l-0.245,-0.108l-0.241,-0.114l-0.24,-0.121l-0.238,-0.128l-0.235,-0.133l-0.232,-0.14l-0.23,-0.146l-0.225,-0.152l-0.223,-0.158l-0.22,-0.165l-0.183,-0.145l-16.196,-13.13l-0.179,-0.149l-0.206,-0.181l-0.201,-0.185l-0.196,-0.19l-0.19,-0.194l-0.185,-0.198l-0.179,-0.202l-0.174,-0.206l-0.168,-0.21l-0.162,-0.213l-0.157,-0.218l-0.15,-0.219l-0.145,-0.223l-0.139,-0.226l-0.132,-0.228l-0.127,-0.231l-0.121,-0.234l-0.114,-0.236l-0.109,-0.238l-0.103,-0.24l-0.096,-0.242l-0.025,-0.066l-0.014,0.025l-0.136,0.239l-0.137,0.238l-0.139,0.237l-0.141,0.236l-0.143,0.235l-0.144,0.235l-0.146,0.233l-0.147,0.232l-0.149,0.232l-0.151,0.23l-0.153,0.23l-0.154,0.228l-0.156,0.228l-0.157,0.227l-0.159,0.225l-0.161,0.224l-0.162,0.224l-0.164,0.223l-0.154,0.206l0.048,0.025l0.199,0.102l0.197,0.104l0.197,0.104l0.197,0.107l0.195,0.107l0.194,0.109l0.193,0.109l0.192,0.111l0.192,0.113l0.19,0.112l0.189,0.114l0.189,0.115l0.188,0.117l0.186,0.117l0.185,0.118l0.185,0.12l0.184,0.12l0.183,0.121l0.181,0.122l0.181,0.123l0.181,0.124l0.179,0.125l0.178,0.126l0.177,0.127l0.175,0.127l0.176,0.128l0.175,0.129l0.173,0.13l0.172,0.131l0.172,0.131l0.171,0.132l0.169,0.133l0.169,0.134l0.168,0.134l0.166,0.135l0.165,0.135l0.166,0.137l0.164,0.137l0.162,0.137l0.162,0.138l0.161,0.139l0.161,0.14l0.158,0.14l0.158,0.14l0.158,0.142l0.156,0.141l0.155,0.142l0.154,0.143l0.153,0.143l0.152,0.144l0.152,0.144l0.149,0.144l0.15,0.146l0.148,0.145l0.147,0.146l0.147,0.147l0.145,0.146l0.144,0.147l0.143,0.148l0.142,0.148l0.141,0.148l0.14,0.149l0.14,0.149l0.138,0.149l0.137,0.15l0.135,0.149l0.136,0.151l0.134,0.151l0.132,0.15l0.132,0.151l0.131,0.152l0.129,0.151l0.129,0.152l0.127,0.152l0.127,0.153l0.125,0.152l0.124,0.153l0.123,0.153l0.122,0.153l0.121,0.153l0.12,0.154l0.119,0.154l0.118,0.154l0.116,0.154l0.116,0.154l0.114,0.154l0.113,0.155l0.112,0.155l0.111,0.155l0.11,0.155l0.108,0.155l0.108,0.155l0.106,0.156l0.106,0.156l0.104,0.156l0.103,0.156l0.101,0.156l0.101,0.156l0.099,0.157l0.098,0.156l0.097,0.157l0.096,0.157l0.094,0.157l0.094,0.158l0.092,0.158l0.09,0.157l0.09,0.159l0.088,0.158l0.088,0.159l0.086,0.158l0.084,0.159l0.084,0.16l0.082,0.16l0.08,0.16l0.08,0.161l0.078,0.16l0.077,0.162l0.076,0.162l0.074,0.162l0.073,0.163l0.071,0.164l0.07,0.164l0.069,0.165l0.067,0.165l0.066,0.167l0.064,0.167l0.063,0.167l0.061,0.169l0.06,0.169l0.058,0.171l0.057,0.173l0.054,0.173l0.053,0.174l0.052,0.176l0.049,0.177l0.047,0.178l0.046,0.181l0.043,0.181l0.042,0.184l0.039,0.186l0.037,0.188l0.034,0.19l0.032,0.192l0.03,0.194l0.026,0.197l0.023,0.2l0.021,0.202l0.017,0.206l0.013,0.208l0.01,0.211l0.005,0.215l0.002,0.218l-0.003,0.221l-0.008,0.224l-0.014,0.229l-0.018,0.232l-0.025,0.235l-0.031,0.239l-0.038,0.243l-0.044,0.246l-0.053,0.249l-0.06,0.253l-0.069,0.254l-0.077,0.258l-0.087,0.259l-0.097,0.261l-0.107,0.263l-0.116,0.262l-0.128,0.262l-0.138,0.261l-0.15,0.261l-0.16,0.258l-0.17,0.252l-0.182,0.25l-0.192,0.245l-0.203,0.238l-0.211,0.232l-0.22,0.223l-0.229,0.216l-0.236,0.206l-0.242,0.196l-0.25,0.188l-0.253,0.176l-0.258,0.166l-0.262,0.155l-0.262,0.144l-0.266,0.133l-0.267,0.124l-0.264,0.112l-0.266,0.102l-0.232,0.082l-0.282,0.092l-0.253,0.081l-0.257,0.079l-0.262,0.078l-0.267,0.077l-0.273,0.075l-0.278,0.072l-0.283,0.071l-0.289,0.068l-0.293,0.065l-0.286,0.059l-0.163,0.032l-0.153,0.029l-0.153,0.028l-0.154,0.027l-0.156,0.026l-0.157,0.025l-0.159,0.024l-0.16,0.023l-0.159,0.021l-0.163,0.021l-0.029,0.003l-0.052,0.066l-0.101,0.122l-0.101,0.118l-0.102,0.116l-0.102,0.113l-0.105,0.112l-0.103,0.106l-0.119,0.12l-0.192,0.185l-0.208,0.19l-0.206,0.179l-0.147,0.12l-0.62,0.453l-0.669,0.378l-0.709,0.298l-0.213,0.075l-0.26,0.088l-0.262,0.085l-0.263,0.081l-0.264,0.078l-0.266,0.075l-0.269,0.073l-0.271,0.07l-0.273,0.068l-0.275,0.065l-0.277,0.064l-0.281,0.061l-0.283,0.059l-0.286,0.057l-0.288,0.056l-0.292,0.053l-0.295,0.052l-0.298,0.05l-0.301,0.049l-0.305,0.047l-0.308,0.046l-0.312,0.044l-0.315,0.043l-0.319,0.041l-0.322,0.04l-0.326,0.038l-0.33,0.037l-0.333,0.036l-0.338,0.035l-0.341,0.033l-0.346,0.032l-0.349,0.031l-0.353,0.029l-0.357,0.029l-0.362,0.027l-0.365,0.026l-0.369,0.025l-0.374,0.024l-0.378,0.022l-0.382,0.022l-0.386,0.02l-0.391,0.019l-0.395,0.018l-0.399,0.017l-0.403,0.016l-0.408,0.015l-0.412,0.013l-0.417,0.013l-0.42,0.011l-0.426,0.011l-0.429,0.009l-0.434,0.008l-0.439,0.007l-0.442,0.007l-0.448,0.005l-0.451,0.004l-0.457,0.003l-0.46,0.002l-0.466,0l-0.47,0l-0.474,-0.001l-0.479,-0.002l-0.483,-0.004l-0.487,-0.004l-0.493,-0.005l-0.497,-0.007l-0.502,-0.007l-0.506,-0.008l-0.51,-0.01l-0.515,-0.01l-0.52,-0.012l-0.525,-0.013l-0.529,-0.013l-0.533,-0.015l-0.538,-0.015l-0.543,-0.017l-0.547,-0.018l-0.553,-0.018l-0.556,-0.02l-0.561,-0.021l-0.567,-0.021l-0.57,-0.023l-0.575,-0.024l-0.58,-0.025l-0.585,-0.026l-0.589,-0.026l-0.594,-0.028l-0.598,-0.029l-0.603,-0.03l-0.608,-0.031l-0.612,-0.031l-0.619,-0.033l-1.246,-0.069l-1.267,-0.073l-1.285,-0.077l-1.305,-0.08l-1.323,-0.085l-1.341,-0.089l-1.361,-0.093l-1.379,-0.097l-1.398,-0.101l-1.416,-0.104l-1.436,-0.109l-1.454,-0.113l-1.473,-0.117l-1.492,-0.121l-1.511,-0.125l-1.529,-0.129l-1.548,-0.132l-1.593,-0.14l-0.15,-0.014l-0.183,-0.021l-0.178,-0.025l-0.178,-0.028l-0.179,-0.031l-0.175,-0.034l-0.179,-0.039l-0.176,-0.042l-0.172,-0.044l-0.173,-0.048l-0.17,-0.051l-0.169,-0.054l-0.172,-0.058l-0.166,-0.06l-0.166,-0.064l-0.165,-0.067l-0.16,-0.068l-0.161,-0.072l-0.164,-0.078l-0.157,-0.078l-0.155,-0.08l-0.153,-0.084l-0.153,-0.087l-0.152,-0.09l-0.148,-0.092l-0.148,-0.095l-0.147,-0.099l-0.143,-0.1l-0.14,-0.102l-0.139,-0.105l-0.137,-0.108l-0.137,-0.112l-0.134,-0.114l-0.13,-0.115l-0.129,-0.117l-0.126,-0.121l-0.125,-0.123l-0.123,-0.126l-0.118,-0.126l-0.12,-0.132l-0.115,-0.133l-0.112,-0.133l-0.111,-0.136l-0.108,-0.139l-0.106,-0.142l-0.103,-0.144l-0.1,-0.146l-0.098,-0.147l-0.095,-0.149l-0.092,-0.152l-0.09,-0.154l-0.087,-0.155l-0.084,-0.157l-0.081,-0.16l-0.078,-0.161l-0.075,-0.163l-0.072,-0.164l-0.07,-0.167l-0.066,-0.168l-0.063,-0.17l-0.059,-0.17l-0.057,-0.173l-0.053,-0.174l-0.041,-0.144l-5.582,-20.305l-0.207,-0.108l-0.241,-0.128l-0.24,-0.13l-0.24,-0.131l-0.238,-0.132l-0.238,-0.134l-0.236,-0.136l-0.235,-0.137l-0.235,-0.139l-0.233,-0.14l-0.232,-0.142l-0.232,-0.144l-0.231,-0.145l-0.229,-0.146l-0.228,-0.148l-0.227,-0.149l-0.226,-0.151l-0.226,-0.153l-0.224,-0.153l-0.223,-0.156l-0.222,-0.157l-0.221,-0.158l-0.22,-0.16l-0.219,-0.161l-0.218,-0.163l-0.217,-0.165l-0.215,-0.165l-0.215,-0.167l-0.213,-0.168l-0.213,-0.171l-0.211,-0.171l-0.21,-0.173l-0.21,-0.174l-0.208,-0.176l-0.207,-0.177l-0.206,-0.179l-0.204,-0.179l-0.204,-0.182l-0.203,-0.183l-0.201,-0.184l-0.2,-0.185l-0.199,-0.187l-0.199,-0.188l-0.197,-0.189l-0.195,-0.191l-0.195,-0.192l-0.194,-0.193l-0.192,-0.196l-0.191,-0.195l-0.191,-0.198l-0.189,-0.199l-0.188,-0.2l-0.187,-0.201l-0.185,-0.203l-0.185,-0.204l-0.183,-0.205l-0.182,-0.206l-0.182,-0.208l-0.179,-0.209l-0.179,-0.21l-0.178,-0.212l-0.176,-0.213l-0.176,-0.214l-0.174,-0.215l-0.173,-0.217l-0.172,-0.217l-0.171,-0.219l-0.169,-0.22l-0.169,-0.222l-0.167,-0.222l-0.167,-0.224l-0.165,-0.225l-0.164,-0.226l-0.162,-0.228l-0.162,-0.228l-0.16,-0.229l-0.16,-0.231l-0.158,-0.232l-0.157,-0.234l-0.156,-0.234l-0.155,-0.235l-0.154,-0.237l-0.152,-0.237l-0.151,-0.239l-0.151,-0.24l-0.149,-0.242l-0.148,-0.242l-0.147,-0.243l-0.145,-0.244l-0.145,-0.246l-0.143,-0.247l-0.143,-0.248l-0.141,-0.248l-0.14,-0.25l-0.139,-0.252l-0.138,-0.252l-0.136,-0.253l-0.136,-0.254l-0.135,-0.256l-0.133,-0.256l-0.132,-0.257l-0.131,-0.259l-0.13,-0.26l-0.129,-0.26l-0.128,-0.262l-0.126,-0.263l-0.126,-0.264l-0.124,-0.264l-0.124,-0.266l-0.122,-0.267l-0.121,-0.268l-0.12,-0.269l-0.119,-0.27l-0.118,-0.271l-0.116,-0.272l-0.116,-0.274l-0.115,-0.274l-0.113,-0.275l-0.112,-0.276l-0.112,-0.277l-0.11,-0.278l-0.109,-0.28l-0.108,-0.28l-0.107,-0.281l-0.106,-0.282l-0.104,-0.283l-0.104,-0.284l-0.102,-0.285l-0.102,-0.286l-0.1,-0.288l-0.1,-0.288l-0.098,-0.288l-0.097,-0.29l-0.096,-0.291l-0.095,-0.292l-0.094,-0.293l-0.093,-0.294l-0.092,-0.295l-0.091,-0.296l-0.09,-0.297l-0.088,-0.297l-0.088,-0.299l-0.087,-0.3l-0.085,-0.3l-0.084,-0.302l-0.084,-0.302l-0.082,-0.304l-0.081,-0.304l-0.081,-0.306l-0.079,-0.306l-0.078,-0.307l-0.077,-0.308l-0.076,-0.309l-0.075,-0.31l-0.074,-0.311l-0.073,-0.312l-0.072,-0.313l-0.071,-0.314l-0.069,-0.315l-0.069,-0.315l-0.068,-0.317l-0.066,-0.317l-0.066,-0.319l-0.065,-0.319l-0.063,-0.32l-0.063,-0.321l-0.061,-0.323l-0.061,-0.322l-0.059,-0.324l-0.058,-0.325l-0.058,-0.326l-0.056,-0.327l-0.055,-0.327l-0.055,-0.329l-0.053,-0.329l-0.052,-0.33l-0.051,-0.331l-0.051,-0.332l-0.049,-0.333l-0.048,-0.334l-0.047,-0.335l-0.046,-0.336l-0.045,-0.336l-0.044,-0.338l-0.043,-0.338l-0.042,-0.339l-0.041,-0.34l-0.04,-0.341l-0.039,-0.342l-0.038,-0.343l-0.037,-0.344l-0.036,-0.344l-0.035,-0.345l-0.034,-0.347l-0.032,-0.347l-0.032,-0.348l-0.031,-0.349l-0.03,-0.35l-0.029,-0.35l-0.028,-0.352l-0.026,-0.352l-0.026,-0.354l-0.025,-0.354l-0.024,-0.355l-0.022,-0.356l-0.022,-0.357l-0.021,-0.357l-0.02,-0.359l-0.018,-0.359l-0.018,-0.36l-0.017,-0.361l-0.015,-0.362l-0.015,-0.363l-0.014,-0.364l-0.012,-0.364l-0.012,-0.366l-0.011,-0.366l-0.009,-0.367l-0.009,-0.368l-0.008,-0.369l-0.006,-0.369l-0.006,-0.371l-0.004,-0.371l-0.004,-0.372l-0.003,-0.373l-0.001,-0.374l-0.001,-0.375l0.001,-0.375l0.001,-0.377l0.002,-0.377l0.004,-0.378l0.004,-0.379l0.006,-0.38l0.006,-0.38l0.008,-0.382l0.008,-0.382l0.009,-0.383l0.011,-0.384l0.011,-0.385l0.013,-0.385l0.013,-0.386l0.015,-0.388l0.015,-0.388l0.015,-0.342l0.013,-0.431l0.016,-0.476l0.016,-0.474l0.018,-0.474l0.019,-0.472l0.02,-0.472l0.02,-0.47l0.022,-0.469l0.023,-0.468l0.024,-0.466l0.025,-0.466l0.026,-0.464l0.026,-0.464l0.028,-0.462l0.029,-0.461l0.03,-0.459l0.031,-0.459l0.032,-0.457l0.033,-0.457l0.034,-0.455l0.035,-0.454l0.036,-0.452l0.037,-0.452l0.038,-0.45l0.039,-0.449l0.04,-0.448l0.041,-0.447l0.043,-0.445l0.043,-0.444l0.044,-0.443l0.045,-0.442l0.046,-0.441l0.047,-0.439l0.049,-0.438l0.049,-0.437l0.05,-0.435l0.051,-0.435l0.053,-0.433l0.053,-0.432l0.054,-0.43l0.056,-0.43l0.056,-0.428l0.057,-0.426l0.059,-0.426l0.059,-0.424l0.061,-0.423l0.061,-0.422l0.063,-0.42l0.063,-0.419l0.065,-0.418l0.065,-0.416l0.067,-0.415l0.068,-0.414l0.068,-0.413l0.07,-0.411l0.071,-0.41l0.071,-0.409l0.073,-0.407l0.074,-0.406l0.075,-0.404l0.076,-0.404l0.076,-0.402l0.078,-0.4l0.079,-0.399l0.08,-0.398l0.081,-0.397l0.082,-0.395l0.083,-0.394l0.085,-0.392l0.085,-0.391l0.086,-0.39l0.087,-0.388l0.089,-0.387l0.089,-0.386l0.09,-0.384l0.092,-0.383l0.092,-0.381l0.094,-0.38l0.095,-0.379l0.095,-0.377l0.097,-0.376l0.098,-0.374l0.099,-0.373l0.099,-0.372l0.101,-0.37l0.102,-0.369l0.103,-0.367l0.105,-0.366l0.105,-0.364l0.106,-0.363l0.108,-0.362l0.108,-0.36l0.11,-0.358l0.11,-0.358l0.112,-0.355l0.113,-0.355l0.113,-0.352l0.115,-0.352l0.116,-0.35l0.118,-0.348l0.118,-0.347l0.119,-0.345l0.121,-0.344l0.121,-0.343l0.123,-0.341l0.124,-0.339l0.125,-0.338l0.126,-0.337l0.127,-0.335l0.128,-0.333l0.129,-0.333l0.131,-0.33l0.131,-0.329l0.133,-0.327l0.134,-0.326l0.135,-0.325l0.137,-0.322l0.137,-0.322l0.138,-0.319l0.14,-0.319l0.141,-0.316l0.142,-0.315l0.143,-0.314l0.145,-0.312l0.145,-0.31l0.147,-0.309l0.148,-0.307l0.149,-0.306l0.15,-0.304l0.152,-0.303l0.153,-0.3l0.154,-0.3l0.155,-0.297l0.156,-0.296l0.158,-0.295l0.159,-0.293l0.16,-0.291l0.161,-0.289l0.163,-0.288l0.164,-0.287l0.165,-0.284l0.167,-0.283l0.167,-0.281l0.169,-0.28l0.17,-0.278l0.172,-0.276l0.173,-0.275l0.174,-0.273l0.175,-0.271l0.177,-0.269l0.178,-0.268l0.18,-0.266l0.181,-0.264l0.182,-0.263l0.183,-0.26l0.185,-0.259l0.186,-0.257l0.188,-0.256l0.188,-0.253l0.191,-0.252l0.191,-0.25l0.193,-0.248l0.195,-0.247l0.196,-0.244l0.197,-0.243l0.198,-0.241l0.201,-0.239l0.201,-0.237l0.203,-0.235l0.204,-0.233l0.206,-0.232l0.207,-0.229l0.209,-0.228l0.21,-0.225l0.212,-0.223l0.213,-0.222l0.214,-0.219l0.216,-0.218l0.218,-0.215l0.219,-0.214l0.22,-0.211l0.222,-0.21l0.223,-0.207l0.225,-0.205l0.227,-0.203l0.228,-0.201l0.229,-0.198l0.231,-0.197l0.233,-0.194l0.233,-0.192l0.236,-0.19l0.237,-0.187l0.238,-0.186l0.24,-0.183l0.241,-0.18l0.243,-0.179l0.245,-0.176l0.245,-0.174l0.248,-0.171l0.249,-0.169l0.25,-0.166l0.252,-0.164l0.253,-0.162l0.255,-0.159l0.256,-0.157l0.257,-0.154l0.259,-0.151l0.261,-0.149l0.262,-0.147l0.263,-0.144l0.264,-0.141l0.266,-0.138l0.268,-0.136l0.269,-0.133l0.27,-0.131l0.271,-0.128l0.273,-0.125l0.274,-0.122l0.275,-0.12l0.277,-0.117l0.278,-0.114l0.279,-0.111l0.28,-0.108l0.282,-0.106l0.283,-0.102l0.284,-0.1l0.285,-0.097l0.286,-0.094l0.288,-0.091l0.288,-0.088l0.289,-0.085l0.291,-0.083l0.292,-0.079l0.292,-0.076l0.294,-0.074l0.294,-0.07l0.296,-0.067l0.297,-0.065l0.297,-0.061l0.298,-0.058l0.3,-0.055l0.3,-0.053l0.3,-0.049l0.302,-0.046l0.302,-0.043l0.304,-0.04l0.304,-0.037l0.304,-0.034l0.306,-0.031l0.306,-0.027l0.307,-0.025l0.307,-0.022l0.308,-0.019l0.309,-0.015l0.309,-0.013l0.243,-0.007l0.104,-0.004l0.162,-0.006l0.161,-0.004l0.161,-0.003l0.161,-0.002l0.161,-0.001l0.161,0.001l0.161,0.002l0.16,0.003l0.16,0.004l0.161,0.005l0.16,0.006l0.16,0.008l0.16,0.009l0.16,0.01l0.159,0.011l0.159,0.012l0.159,0.013l0.159,0.015l0.16,0.016l0.158,0.017l0.158,0.018l0.159,0.019l0.157,0.021l0.158,0.021l0.157,0.023l0.157,0.024l0.157,0.025l0.157,0.027l0.157,0.027l0.156,0.029l0.155,0.029l0.156,0.031l0.155,0.032l0.155,0.034l0.155,0.034l0.153,0.035l0.155,0.037l0.154,0.038l0.153,0.039l0.153,0.04l0.153,0.041l0.152,0.042l0.152,0.044l0.151,0.044l0.151,0.046l0.151,0.047l0.151,0.048l0.15,0.049l0.15,0.05l0.148,0.051l0.149,0.053l0.149,0.053l0.147,0.055l0.149,0.056l0.146,0.056l0.146,0.058l0.147,0.059l0.145,0.06l0.145,0.061l0.145,0.063l0.145,0.063l0.143,0.064l0.144,0.066l0.142,0.066l0.142,0.068l0.142,0.068l0.141,0.07l0.141,0.071l0.141,0.072l0.139,0.073l0.139,0.073l0.138,0.075l0.138,0.076l0.138,0.077l0.137,0.078l0.136,0.079l0.135,0.08l0.136,0.082l0.134,0.081l0.134,0.083l0.134,0.085l0.132,0.085l0.132,0.086l0.132,0.087l0.13,0.088l0.13,0.089l0.13,0.09l0.129,0.091l0.128,0.092l0.128,0.093l0.127,0.094l0.126,0.095l0.126,0.096l0.125,0.096l0.124,0.098l0.124,0.099l0.123,0.099l0.122,0.101l0.122,0.102l0.12,0.102l0.121,0.103l0.119,0.104l0.119,0.105l0.118,0.106l0.117,0.107l0.117,0.108l0.116,0.109l0.114,0.109l0.115,0.111l0.114,0.111l0.112,0.112l0.112,0.114l0.112,0.113l0.11,0.115l0.11,0.116l0.109,0.117l0.108,0.117l0.108,0.118l0.107,0.119l0.105,0.12l0.105,0.121l0.105,0.121l0.103,0.122l0.102,0.123l0.103,0.125l0.101,0.125l0.1,0.125l0.099,0.126l0.099,0.127l0.097,0.128l0.098,0.129l0.095,0.13l0.096,0.13l0.094,0.131l0.094,0.131l0.092,0.133l0.092,0.133l0.091,0.134l0.09,0.135l0.09,0.136l0.088,0.136l0.088,0.137l0.086,0.138l0.086,0.138l0.085,0.139l0.084,0.14l0.083,0.14l0.082,0.142l0.082,0.141l0.08,0.143l0.08,0.144l0.078,0.143l0.078,0.145l0.077,0.146l0.076,0.146l0.075,0.146l0.074,0.147l0.074,0.148l0.072,0.149l0.071,0.149l0.071,0.15l0.069,0.151l0.069,0.151l0.068,0.151l0.066,0.153l0.066,0.153l0.065,0.153l0.064,0.155l0.063,0.155l0.062,0.155l0.061,0.156l0.061,0.157l0.059,0.157l0.058,0.158l0.057,0.158l0.057,0.159l0.055,0.16l0.055,0.16l0.053,0.16l0.053,0.161l0.051,0.162l0.051,0.163l0.05,0.162l0.048,0.164l0.048,0.164l0.047,0.164l0.046,0.165l0.044,0.166l0.044,0.166l0.043,0.166l0.042,0.167l0.041,0.168l0.04,0.168l0.038,0.168l0.038,0.17l0.037,0.169l0.036,0.17l0.035,0.171l0.034,0.171l0.033,0.171l0.032,0.172l0.031,0.173l0.03,0.173l0.029,0.173l0.028,0.174l0.027,0.174l0.026,0.175l0.024,0.175l0.024,0.176l0.023,0.176l0.022,0.176l0.021,0.177l0.02,0.178l0.019,0.178l0.018,0.178l0.016,0.178l0.016,0.18l0.015,0.179l0.014,0.18l0.013,0.18l0.011,0.181l0.011,0.181l0.01,0.182l0.008,0.182l0.008,0.182l0.006,0.183l0.006,0.183l0.005,0.184l0.003,0.184l0.003,0.184l0.001,0.185l0,0.185l0,0.185l-0.002,0.186l-0.003,0.186l-0.003,0.186l-0.005,0.187l-0.006,0.188l-0.007,0.187l-0.008,0.188l-0.009,0.188l-0.01,0.189l-0.011,0.189l-0.012,0.189l-0.013,0.19l-0.014,0.19l-0.016,0.19l-0.016,0.191l-0.017,0.191l-0.019,0.191l-0.019,0.192l-0.021,0.192l-0.022,0.192l-0.022,0.193l-0.024,0.194l-0.03,0.232l-0.031,0.231l-0.032,0.23l-0.034,0.228l-0.034,0.227l-0.036,0.226l-0.037,0.224l-0.039,0.223l-0.039,0.221l-0.041,0.22l-0.041,0.218l-0.043,0.217l-0.044,0.216l-0.046,0.214l-0.046,0.213l-0.048,0.212l-0.049,0.21l-0.049,0.209l-0.052,0.207l-0.052,0.206l-0.053,0.205l-0.055,0.203l-0.056,0.203l-0.057,0.2l-0.058,0.2l-0.059,0.198l-0.06,0.196l-0.062,0.196l-0.063,0.194l-0.064,0.193l-0.065,0.191l-0.066,0.19l-0.067,0.189l-0.069,0.188l-0.069,0.186l-0.071,0.185l-0.072,0.183l-0.073,0.182l-0.074,0.181l-0.076,0.18l-0.076,0.178l-0.078,0.177l-0.079,0.176l-0.079,0.174l-0.081,0.173l-0.083,0.172l-0.083,0.17l-0.044,0.089l0.201,-0.139l0.215,-0.148l0.216,-0.147l0.217,-0.146l0.217,-0.146l0.217,-0.145l0.219,-0.144l0.219,-0.144l0.219,-0.143l0.22,-0.142l0.22,-0.142l0.221,-0.141l0.222,-0.141l0.222,-0.14l0.223,-0.139l0.223,-0.138l0.224,-0.138l0.224,-0.137l0.225,-0.137l0.226,-0.136l0.226,-0.135l0.226,-0.134l0.228,-0.134l0.227,-0.133l0.228,-0.133l0.229,-0.132l0.23,-0.131l0.23,-0.131l0.23,-0.129l0.231,-0.13l0.232,-0.128l0.232,-0.128l0.233,-0.127l0.233,-0.127l0.233,-0.125l0.235,-0.125l0.235,-0.125l0.235,-0.123l0.236,-0.124l0.237,-0.122l0.237,-0.122l0.237,-0.121l0.238,-0.12l0.239,-0.12l0.239,-0.119l0.24,-0.118l0.24,-0.117l0.241,-0.117l0.241,-0.116l0.242,-0.116l0.243,-0.115l0.242,-0.114l0.244,-0.113l0.244,-0.113l0.244,-0.112l0.246,-0.111l0.245,-0.11l0.246,-0.11l0.247,-0.109l0.247,-0.109l0.248,-0.108l0.248,-0.107l0.249,-0.106l0.249,-0.106l0.25,-0.105l0.25,-0.104l0.251,-0.103l0.252,-0.103l0.252,-0.102l0.252,-0.101l0.253,-0.101l0.254,-0.1l0.253,-0.099l0.255,-0.099l0.255,-0.097l0.255,-0.098l0.257,-0.096l0.256,-0.096l0.258,-0.094l0.257,-0.095l0.258,-0.093l0.259,-0.093l0.259,-0.092l0.26,-0.091l0.26,-0.091l0.261,-0.089l0.261,-0.089l0.261,-0.089l0.263,-0.087l0.262,-0.087l0.263,-0.086l0.265,-0.086l0.264,-0.085l0.264,-0.084l0.266,-0.083l0.266,-0.082l0.266,-0.082l0.267,-0.081l0.267,-0.08l0.268,-0.08l0.268,-0.079l0.269,-0.078l0.269,-0.077l0.27,-0.077l0.27,-0.075l0.271,-0.075l0.271,-0.075l0.272,-0.073l0.272,-0.073l0.273,-0.072l0.273,-0.072l0.274,-0.07l0.275,-0.07l0.274,-0.069l0.275,-0.069l0.276,-0.067l0.276,-0.067l0.277,-0.066l0.277,-0.065l0.278,-0.065l0.278,-0.064l0.279,-0.063l0.279,-0.062l0.28,-0.062l0.28,-0.061l0.28,-0.06l0.281,-0.059l0.282,-0.058l0.282,-0.058l0.283,-0.057l0.283,-0.056l0.283,-0.056l0.284,-0.055l0.285,-0.053l0.285,-0.054l0.285,-0.052l0.286,-0.052l0.287,-0.051l0.287,-0.05l0.287,-0.049l0.288,-0.049l0.288,-0.047l0.289,-0.047l0.289,-0.047l0.29,-0.045l0.285,-0.044l-0.001,-0.009l-0.029,-0.183l-0.027,-0.183l-0.024,-0.182l-0.023,-0.183l-0.021,-0.183l-0.019,-0.182l-0.017,-0.183l-0.015,-0.181l-0.014,-0.183l-0.011,-0.182l-0.01,-0.182l-0.008,-0.181l-0.006,-0.181l-0.005,-0.182l-0.003,-0.181l-0.001,-0.181l0.001,-0.18l0.003,-0.181l0.004,-0.18l0.006,-0.18l0.007,-0.18l0.009,-0.179l0.011,-0.18l0.013,-0.179l0.014,-0.179l0.015,-0.178l0.018,-0.179l0.019,-0.178l0.02,-0.178l0.023,-0.177l0.023,-0.178l0.026,-0.177l0.027,-0.176l0.028,-0.176l0.03,-0.176l0.032,-0.176l0.033,-0.175l0.035,-0.176l0.037,-0.175l0.038,-0.174l0.039,-0.174l0.041,-0.173l0.043,-0.174l0.044,-0.173l0.046,-0.172l0.047,-0.172l0.049,-0.172l0.05,-0.172l0.052,-0.171l0.054,-0.17l0.055,-0.171l0.057,-0.169l0.058,-0.17l0.06,-0.168l0.061,-0.169l0.063,-0.168l0.065,-0.167l0.066,-0.167l0.068,-0.167l0.069,-0.166l0.072,-0.166l0.072,-0.164l0.075,-0.165l0.075,-0.163l0.078,-0.164l0.08,-0.163l0.08,-0.162l0.083,-0.161l0.085,-0.162l0.085,-0.16l0.088,-0.159l0.09,-0.16l0.091,-0.158l0.093,-0.158l0.095,-0.157l0.096,-0.156l0.098,-0.156l0.1,-0.155l0.102,-0.154l0.104,-0.153l0.105,-0.152l0.108,-0.152l0.109,-0.151l0.111,-0.15l0.113,-0.149l0.115,-0.148l0.117,-0.147l0.119,-0.146l0.12,-0.145l0.124,-0.145l0.124,-0.143l0.126,-0.141l0.13,-0.142l0.13,-0.139l0.133,-0.139l0.135,-0.137l0.137,-0.136l0.138,-0.134l0.142,-0.135l0.143,-0.131l0.145,-0.131l0.148,-0.129l0.15,-0.128l0.151,-0.126l0.154,-0.124l0.156,-0.123l0.158,-0.121l0.16,-0.119l0.163,-0.118l0.164,-0.116l0.167,-0.113l0.169,-0.112l0.171,-0.11l0.173,-0.108l0.175,-0.105l0.177,-0.104l0.18,-0.101l0.181,-0.099l0.184,-0.097l0.185,-0.094l0.188,-0.091l0.189,-0.09l0.191,-0.086l0.194,-0.084l0.195,-0.081l0.197,-0.079l0.199,-0.075l0.2,-0.073l0.202,-0.07l0.205,-0.067l0.205,-0.064l0.207,-0.06l0.208,-0.058l0.21,-0.054l0.212,-0.052l0.213,-0.048l0.213,-0.045l0.215,-0.041l0.217,-0.038l0.217,-0.035l0.218,-0.031l0.219,-0.028l0.22,-0.024l0.221,-0.021l0.222,-0.017l0.221,-0.014l0.223,-0.01l0.224,-0.007l0.223,-0.003l0.224,0l0.224,0.004l0.224,0.007l0.067,0.003l0.02,-0.025l0.155,-0.191l0.156,-0.188l0.159,-0.187l0.16,-0.185l0.163,-0.182l0.164,-0.181l0.166,-0.178l0.167,-0.176l0.169,-0.174l0.171,-0.172l0.173,-0.169l0.173,-0.168l0.176,-0.165l0.177,-0.163l0.179,-0.162l0.179,-0.158l0.181,-0.157l0.183,-0.155l0.184,-0.153l0.185,-0.15l0.187,-0.149l0.188,-0.146l0.188,-0.144l0.19,-0.142l0.192,-0.141l0.193,-0.138l0.193,-0.136l0.195,-0.134l0.195,-0.132l0.198,-0.13l0.197,-0.128l0.199,-0.126l0.2,-0.124l0.201,-0.122l0.201,-0.12l0.203,-0.118l0.203,-0.116l0.205,-0.115l0.205,-0.112l0.206,-0.11l0.207,-0.109l0.207,-0.107l0.208,-0.104l0.21,-0.103l0.209,-0.101l0.211,-0.1l0.211,-0.097l0.212,-0.096l0.213,-0.094l0.212,-0.092l0.214,-0.09l0.215,-0.089l0.215,-0.086l0.216,-0.085l0.216,-0.083l0.217,-0.082l0.217,-0.079l0.218,-0.078l0.218,-0.077l0.219,-0.074l0.22,-0.073l0.22,-0.071l0.22,-0.07l0.221,-0.068l0.221,-0.066l0.222,-0.064l0.222,-0.063l0.222,-0.061l0.223,-0.06l0.223,-0.058l0.224,-0.056l0.225,-0.055l0.223,-0.053l0.225,-0.052l0.225,-0.05l0.226,-0.048l0.225,-0.047l0.226,-0.045l0.226,-0.043l0.227,-0.043l0.227,-0.04l0.227,-0.039l0.227,-0.037l0.227,-0.036l0.228,-0.034l0.228,-0.033l0.228,-0.032l0.229,-0.029l0.228,-0.028l0.228,-0.027l0.229,-0.025l0.229,-0.024l0.229,-0.022l0.229,-0.021l0.23,-0.019l0.229,-0.017l0.23,-0.016l0.23,-0.015l0.229,-0.013l0.23,-0.012l0.23,-0.01l0.23,-0.009l0.23,-0.007l0.229,-0.006l0.23,-0.004l0.231,-0.003l0.23,-0.001l0.23,0l0.23,0.002l0.229,0.003l0.23,0.005l0.23,0.006l0.23,0.008l0.23,0.009l0.229,0.01l0.23,0.012l0.229,0.014l0.23,0.015l0.229,0.016l0.229,0.018l0.229,0.019l0.229,0.021l0.229,0.023l0.228,0.023l0.228,0.026l0.229,0.027l0.228,0.028l0.227,0.03l0.228,0.031l0.227,0.032l0.228,0.035l0.227,0.035l0.226,0.038l0.226,0.038l0.226,0.04l0.226,0.042l0.226,0.043l0.225,0.045l0.225,0.046l0.224,0.048l0.225,0.049l0.223,0.051l0.224,0.052l0.223,0.054l0.223,0.056l0.222,0.057l0.222,0.058l0.222,0.06l0.221,0.062l0.221,0.063l0.22,0.065l0.22,0.066l0.219,0.068l0.219,0.069l0.218,0.071l0.218,0.073l0.217,0.074l0.217,0.076l0.217,0.078l0.215,0.079l0.215,0.08l0.215,0.083l0.214,0.084l0.214,0.085l0.213,0.088l0.212,0.089l0.211,0.09l0.211,0.093l0.211,0.094l0.209,0.096l0.209,0.097l0.208,0.099l0.207,0.101l0.207,0.103l0.206,0.104l0.205,0.107l0.205,0.108l0.203,0.109l0.203,0.112l0.202,0.113l0.201,0.115l0.2,0.117l0.199,0.119l0.198,0.12l0.198,0.123l0.196,0.124l0.195,0.126l0.194,0.128l0.194,0.13l0.193,0.132l0.191,0.134l0.19,0.136l0.189,0.137l0.188,0.14l0.017,0.013l9.491,-11.707l0.145,-0.173l0.175,-0.201l0.18,-0.196l0.185,-0.191l0.188,-0.186l0.193,-0.181l0.198,-0.177l0.201,-0.171l0.205,-0.166l0.209,-0.16l0.212,-0.155l0.216,-0.15l0.22,-0.145l0.222,-0.139l0.227,-0.133l0.229,-0.128l0.232,-0.123l0.235,-0.116l0.238,-0.111l0.241,-0.105l0.244,-0.099l0.246,-0.094l0.248,-0.087l0.251,-0.082l0.253,-0.075l0.256,-0.069l0.257,-0.063l0.258,-0.057l0.261,-0.05l0.263,-0.044l0.264,-0.038l0.265,-0.031l0.266,-0.024l0.267,-0.018l0.265,-0.011l0.265,-0.005l0.266,0.002Zm-0.333,6.617l-0.103,0.004l-0.102,0.007l-0.103,0.01l-0.102,0.012l-0.102,0.014l-0.101,0.017l-0.101,0.02l-0.099,0.021l-0.099,0.025l-0.099,0.026l-0.097,0.029l-0.097,0.032l-0.096,0.033l-0.094,0.036l-0.094,0.039l-0.093,0.04l-0.092,0.043l-0.091,0.045l-0.089,0.047l-0.088,0.049l-0.088,0.052l-0.085,0.053l-0.085,0.056l-0.083,0.058l-0.082,0.06l-0.081,0.061l-0.079,0.064l-0.077,0.066l-0.076,0.068l-0.074,0.07l-0.073,0.072l-0.071,0.073l-0.07,0.076l-0.067,0.077l-0.066,0.079l-14.312,17.654l-0.081,-0.147l-0.082,-0.145l-0.083,-0.144l-0.086,-0.143l-0.087,-0.142l-0.089,-0.141l-0.09,-0.14l-0.092,-0.138l-0.094,-0.137l-0.095,-0.137l-0.097,-0.135l-0.098,-0.134l-0.101,-0.133l-0.101,-0.131l-0.103,-0.131l-0.105,-0.129l-0.106,-0.128l-0.108,-0.127l-0.109,-0.126l-0.11,-0.125l-0.112,-0.124l-0.114,-0.122l-0.115,-0.122l-0.116,-0.12l-0.118,-0.119l-0.119,-0.118l-0.121,-0.116l-0.121,-0.116l-0.124,-0.114l-0.124,-0.114l-0.126,-0.112l-0.127,-0.111l-0.128,-0.11l-0.13,-0.108l-0.131,-0.108l-0.132,-0.106l-0.134,-0.105l-0.134,-0.105l-0.136,-0.102l-0.137,-0.102l-0.139,-0.101l-0.139,-0.099l-0.141,-0.098l-0.141,-0.098l-0.143,-0.095l-0.144,-0.095l-0.145,-0.094l-0.146,-0.092l-0.147,-0.092l-0.148,-0.09l-0.15,-0.089l-0.15,-0.087l-0.151,-0.087l-0.152,-0.086l-0.154,-0.084l-0.154,-0.083l-0.155,-0.082l-0.156,-0.081l-0.157,-0.079l-0.158,-0.079l-0.159,-0.077l-0.16,-0.076l-0.16,-0.075l-0.162,-0.074l-0.162,-0.073l-0.163,-0.071l-0.164,-0.071l-0.165,-0.069l-0.166,-0.068l-0.166,-0.066l-0.167,-0.066l-0.168,-0.064l-0.168,-0.064l-0.17,-0.062l-0.17,-0.06l-0.17,-0.06l-0.172,-0.059l-0.172,-0.057l-0.172,-0.056l-0.174,-0.055l-0.173,-0.054l-0.175,-0.053l-0.175,-0.051l-0.176,-0.05l-0.176,-0.049l-0.177,-0.048l-0.177,-0.047l-0.178,-0.046l-0.178,-0.044l-0.179,-0.043l-0.18,-0.042l-0.18,-0.041l-0.18,-0.04l-0.181,-0.038l-0.181,-0.037l-0.181,-0.036l-0.182,-0.035l-0.183,-0.034l-0.182,-0.032l-0.183,-0.032l-0.184,-0.03l-0.184,-0.029l-0.184,-0.027l-0.184,-0.027l-0.185,-0.025l-0.185,-0.024l-0.185,-0.023l-0.185,-0.022l-0.186,-0.021l-0.186,-0.019l-0.186,-0.018l-0.186,-0.017l-0.187,-0.016l-0.186,-0.015l-0.187,-0.013l-0.187,-0.012l-0.187,-0.011l-0.187,-0.01l-0.187,-0.009l-0.188,-0.007l-0.187,-0.006l-0.187,-0.005l-0.188,-0.004l-0.187,-0.003l-0.188,-0.001l-0.187,0l-0.188,0.001l-0.187,0.002l-0.188,0.004l-0.187,0.004l-0.187,0.006l-0.187,0.007l-0.188,0.008l-0.187,0.01l-0.186,0.011l-0.187,0.011l-0.187,0.014l-0.186,0.014l-0.186,0.015l-0.186,0.017l-0.186,0.018l-0.185,0.019l-0.186,0.021l-0.185,0.021l-0.185,0.023l-0.184,0.024l-0.184,0.025l-0.184,0.027l-0.184,0.027l-0.183,0.029l-0.183,0.03l-0.182,0.032l-0.182,0.032l-0.182,0.034l-0.182,0.035l-0.18,0.036l-0.181,0.037l-0.18,0.039l-0.18,0.04l-0.179,0.041l-0.178,0.042l-0.178,0.044l-0.178,0.045l-0.177,0.045l-0.176,0.048l-0.176,0.048l-0.176,0.05l-0.175,0.051l-0.174,0.052l-0.173,0.053l-0.173,0.055l-0.172,0.055l-0.172,0.057l-0.171,0.059l-0.17,0.059l-0.17,0.061l-0.169,0.062l-0.168,0.063l-0.167,0.064l-0.167,0.066l-0.166,0.067l-0.165,0.068l-0.164,0.069l-0.164,0.071l-0.162,0.071l-0.162,0.073l-0.161,0.075l-0.16,0.075l-0.16,0.077l-0.158,0.078l-0.157,0.079l-0.157,0.081l-0.155,0.081l-0.155,0.083l-0.154,0.084l-0.152,0.086l-0.152,0.086l-0.151,0.088l-0.15,0.09l-0.148,0.09l-0.148,0.092l-0.146,0.092l-0.146,0.095l-0.144,0.095l-0.143,0.097l-0.143,0.097l-0.141,0.1l-0.14,0.1l-0.138,0.101l-0.138,0.103l-0.136,0.104l-0.135,0.106l-0.134,0.106l-0.133,0.108l-0.132,0.109l-0.13,0.111l-0.129,0.111l-0.127,0.113l-0.127,0.114l-0.125,0.116l-0.124,0.116l-0.122,0.118l-0.121,0.119l-0.12,0.121l-0.118,0.121l-0.117,0.123l-0.116,0.124l-0.114,0.126l-0.113,0.127l-0.111,0.127l-0.11,0.13l-0.108,0.13l-0.107,0.132l-0.105,0.133l-0.104,0.134l-0.102,0.136l-0.101,0.136l-0.099,0.138l-0.097,0.14l-0.096,0.14l-0.095,0.142l-0.092,0.143l-0.092,0.145l-0.089,0.145l-0.088,0.147l-0.086,0.148l-0.084,0.15l-0.083,0.15l-0.081,0.152l-0.08,0.154l-0.077,0.154l-0.076,0.156l-0.074,0.157l-0.072,0.158l-0.071,0.16l-0.069,0.161l-0.137,-0.061l-0.137,-0.059l-0.137,-0.057l-0.136,-0.054l-0.135,-0.052l-0.135,-0.05l-0.134,-0.047l-0.133,-0.046l-0.133,-0.043l-0.133,-0.041l-0.131,-0.038l-0.131,-0.037l-0.131,-0.034l-0.13,-0.033l-0.129,-0.03l-0.129,-0.028l-0.128,-0.026l-0.127,-0.024l-0.127,-0.021l-0.126,-0.02l-0.126,-0.018l-0.124,-0.016l-0.125,-0.013l-0.123,-0.012l-0.123,-0.01l-0.122,-0.008l-0.122,-0.006l-0.121,-0.004l-0.12,-0.002l-0.12,0l-0.119,0.002l-0.118,0.004l-0.117,0.005l-0.117,0.007l-0.116,0.009l-0.116,0.011l-0.115,0.013l-0.114,0.015l-0.113,0.016l-0.113,0.018l-0.112,0.019l-0.111,0.022l-0.111,0.023l-0.11,0.025l-0.109,0.026l-0.108,0.028l-0.108,0.03l-0.107,0.032l-0.106,0.033l-0.106,0.034l-0.104,0.036l-0.104,0.038l-0.104,0.039l-0.102,0.041l-0.102,0.043l-0.101,0.043l-0.1,0.046l-0.1,0.047l-0.098,0.048l-0.098,0.049l-0.097,0.052l-0.097,0.052l-0.095,0.054l-0.095,0.055l-0.094,0.057l-0.093,0.058l-0.093,0.06l-0.091,0.06l-0.091,0.062l-0.09,0.064l-0.09,0.064l-0.088,0.066l-0.088,0.067l-0.086,0.068l-0.086,0.07l-0.085,0.071l-0.085,0.072l-0.083,0.073l-0.083,0.074l-0.082,0.076l-0.081,0.076l-0.08,0.078l-0.079,0.078l-0.079,0.08l-0.077,0.081l-0.077,0.082l-0.076,0.083l-0.075,0.084l-0.074,0.085l-0.073,0.086l-0.072,0.087l-0.072,0.088l-0.07,0.089l-0.07,0.09l-0.069,0.091l-0.068,0.091l-0.067,0.093l-0.066,0.093l-0.065,0.095l-0.065,0.095l-0.063,0.096l-0.063,0.096l-0.061,0.098l-0.061,0.098l-0.06,0.099l-0.058,0.1l-0.058,0.101l-0.057,0.101l-0.056,0.102l-0.055,0.103l-0.055,0.103l-0.053,0.104l-0.052,0.105l-0.051,0.105l-0.051,0.106l-0.049,0.107l-0.049,0.107l-0.047,0.107l-0.047,0.109l-0.045,0.108l-0.045,0.11l-0.043,0.11l-0.043,0.11l-0.041,0.111l-0.041,0.111l-0.039,0.112l-0.039,0.112l-0.038,0.112l-0.036,0.113l-0.036,0.114l-0.034,0.114l-0.034,0.114l-0.033,0.114l-0.031,0.115l-0.031,0.115l-0.029,0.115l-0.029,0.116l-0.027,0.116l-0.026,0.116l-0.026,0.117l-0.024,0.116l-0.023,0.117l-0.023,0.117l-0.021,0.118l-0.02,0.117l-0.019,0.118l-0.018,0.117l-0.017,0.118l-0.015,0.118l-0.015,0.118l-0.014,0.118l-0.013,0.118l-0.011,0.119l-0.01,0.118l-0.01,0.118l-0.008,0.118l-0.007,0.119l-0.006,0.118l-0.005,0.118l-0.004,0.118l-0.003,0.118l-0.001,0.118l-0.001,0.118l0.001,0.118l0.002,0.117l0.003,0.118l0.004,0.117l0.005,0.117l0.006,0.117l0.007,0.117l0.009,0.116l0.01,0.116l0.011,0.116l0.012,0.116l0.013,0.115l0.014,0.115l0.016,0.115l0.016,0.115l0.018,0.114l0.019,0.113l0.021,0.114l0.021,0.113l0.023,0.112l0.023,0.112l0.025,0.112l0.026,0.111l0.028,0.111l0.028,0.11l0.03,0.11l0.031,0.11l0.032,0.108l0.034,0.109l0.034,0.107l0.036,0.107l0.037,0.107l0.039,0.106l0.039,0.105l0.041,0.105l0.042,0.104l0.043,0.103l0.045,0.103l0.045,0.102l0.048,0.101l0.048,0.101l0.049,0.099l0.051,0.099l0.052,0.099l0.053,0.097l0.055,0.097l0.056,0.096l0.057,0.095l0.059,0.094l0.059,0.094l0.061,0.092l0.063,0.092l0.063,0.09l0.065,0.09l0.066,0.089l0.068,0.088l0.069,0.087l0.07,0.086l0.071,0.085l0.073,0.084l0.074,0.083l0.075,0.082l0.077,0.081l0.078,0.079l0.08,0.079l0.081,0.078l0.082,0.076l0.083,0.076l0.085,0.074l0.086,0.073l0.088,0.072l0.088,0.071l0.091,0.069l0.091,0.068l0.093,0.067l0.095,0.066l0.095,0.065l0.098,0.063l0.098,0.062l0.1,0.061l0.101,0.059l0.103,0.058l0.104,0.057l0.105,0.055l0.107,0.054l0.109,0.052l0.109,0.051l0.111,0.05l0.113,0.048l0.114,0.047l0.115,0.045l0.117,0.044l0.118,0.042l-0.29,0.014l-0.29,0.015l-0.289,0.015l-0.289,0.017l-0.289,0.017l-0.288,0.017l-0.287,0.019l-0.287,0.019l-0.287,0.02l-0.286,0.021l-0.285,0.021l-0.285,0.022l-0.285,0.023l-0.284,0.024l-0.283,0.024l-0.283,0.026l-0.283,0.025l-0.282,0.027l-0.281,0.027l-0.281,0.028l-0.281,0.029l-0.28,0.03l-0.28,0.03l-0.279,0.031l-0.278,0.032l-0.278,0.032l-0.278,0.033l-0.277,0.034l-0.277,0.035l-0.276,0.035l-0.275,0.036l-0.275,0.037l-0.275,0.038l-0.274,0.038l-0.274,0.039l-0.273,0.04l-0.272,0.04l-0.273,0.041l-0.271,0.042l-0.271,0.043l-0.271,0.043l-0.27,0.044l-0.27,0.044l-0.269,0.046l-0.268,0.046l-0.269,0.047l-0.267,0.047l-0.267,0.049l-0.267,0.049l-0.266,0.049l-0.266,0.051l-0.265,0.051l-0.264,0.051l-0.264,0.053l-0.264,0.053l-0.263,0.054l-0.263,0.054l-0.262,0.056l-0.261,0.056l-0.262,0.056l-0.26,0.058l-0.26,0.058l-0.26,0.058l-0.259,0.06l-0.258,0.06l-0.258,0.061l-0.258,0.061l-0.257,0.063l-0.257,0.062l-0.256,0.064l-0.255,0.064l-0.255,0.065l-0.255,0.066l-0.254,0.066l-0.253,0.067l-0.253,0.068l-0.253,0.068l-0.252,0.069l-0.251,0.07l-0.251,0.07l-0.251,0.072l-0.25,0.071l-0.249,0.073l-0.249,0.073l-0.249,0.074l-0.248,0.074l-0.247,0.075l-0.247,0.076l-0.246,0.077l-0.246,0.077l-0.246,0.078l-0.244,0.078l-0.245,0.079l-0.244,0.08l-0.243,0.08l-0.243,0.082l-0.242,0.081l-0.242,0.083l-0.241,0.083l-0.241,0.084l-0.24,0.084l-0.24,0.085l-0.239,0.086l-0.239,0.086l-0.238,0.088l-0.238,0.087l-0.237,0.089l-0.237,0.089l-0.236,0.089l-0.236,0.091l-0.235,0.091l-0.235,0.091l-0.234,0.093l-0.233,0.093l-0.233,0.093l-0.233,0.094l-0.232,0.095l-0.232,0.096l-0.231,0.096l-0.23,0.097l-0.23,0.097l-0.23,0.098l-0.229,0.099l-0.228,0.099l-0.228,0.1l-0.227,0.101l-0.227,0.101l-0.227,0.102l-0.226,0.103l-0.225,0.103l-0.225,0.104l-0.224,0.104l-0.224,0.105l-0.223,0.106l-0.223,0.106l-0.222,0.107l-0.222,0.108l-0.221,0.108l-0.221,0.109l-0.22,0.109l-0.219,0.111l-0.22,0.11l-0.218,0.112l-0.218,0.111l-0.218,0.113l-0.217,0.113l-0.216,0.114l-0.216,0.114l-0.216,0.116l-0.215,0.115l-0.214,0.116l-0.214,0.117l-0.213,0.118l-0.213,0.118l-0.213,0.119l-0.211,0.119l-0.212,0.12l-0.21,0.12l-0.211,0.122l-0.209,0.121l-0.21,0.123l-0.208,0.123l-0.208,0.123l-0.208,0.124l-0.207,0.125l-0.207,0.125l-0.206,0.126l-0.205,0.127l-0.205,0.127l-0.205,0.128l-0.204,0.128l-0.203,0.129l-0.203,0.13l-0.202,0.13l-0.202,0.131l-0.201,0.131l-0.201,0.132l-0.2,0.132l-0.2,0.133l-0.199,0.134l-0.199,0.134l-0.198,0.135l-0.197,0.136l-0.198,0.136l-0.196,0.136l-0.196,0.137l-0.196,0.138l-0.194,0.139l-0.195,0.138l-0.194,0.14l-0.193,0.14l-0.193,0.141l-0.192,0.141l-0.192,0.142l-0.191,0.142l-0.191,0.143l-0.19,0.144l-0.19,0.144l-0.189,0.144l-0.188,0.146l-0.188,0.145l-0.188,0.147l-0.187,0.147l-0.186,0.147l-0.186,0.148l-0.186,0.149l-0.184,0.149l-0.185,0.15l-0.183,0.15l-0.184,0.151l-0.182,0.152l-0.183,0.152l-0.181,0.152l-0.181,0.153l-0.181,0.154l-0.18,0.154l-0.179,0.155l-0.179,0.155l-0.179,0.156l-0.177,0.157l-0.178,0.156l-0.177,0.158l-0.176,0.158l-0.176,0.159l-0.175,0.159l-0.174,0.16l-0.174,0.16l-0.174,0.161l-0.173,0.161l-0.173,0.162l-0.171,0.162l-0.172,0.163l-0.171,0.164l-0.17,0.164l-0.17,0.165l-0.169,0.165l-0.169,0.165l-0.168,0.167l-0.168,0.166l-0.167,0.168l-0.166,0.167l-0.166,0.169l-0.166,0.169l-0.165,0.169l-0.164,0.17l-0.164,0.17l-0.163,0.171l-0.163,0.172l-0.162,0.172l-0.162,0.172l-0.161,0.173l-0.16,0.174l-0.16,0.174l-0.16,0.175l-0.159,0.175l-0.158,0.176l-0.134,0.147l-0.132,0.143l-0.13,0.139l-0.13,0.135l-0.128,0.132l-0.126,0.127l-0.125,0.124l-0.124,0.119l-0.122,0.116l-0.121,0.112l-0.12,0.108l-0.119,0.105l-0.117,0.1l-0.115,0.097l-0.115,0.094l-0.113,0.089l-0.112,0.086l-0.11,0.083l-0.11,0.079l-0.107,0.075l-0.107,0.072l-0.106,0.069l-0.104,0.065l-0.103,0.062l-0.101,0.058l-0.101,0.055l-0.099,0.051l-0.098,0.049l-0.097,0.045l-0.096,0.041l-0.094,0.039l-0.093,0.035l-0.092,0.033l-0.091,0.029l-0.09,0.026l-0.089,0.023l-0.087,0.02l-0.086,0.017l-0.085,0.014l-0.084,0.011l-0.083,0.008l-0.082,0.005l-0.081,0.002l-0.079,0l-0.079,-0.004l-0.077,-0.006l-0.077,-0.008l-0.075,-0.012l-0.074,-0.014l-0.073,-0.017l-0.072,-0.02l-0.071,-0.022l-0.07,-0.025l-0.069,-0.027l-0.068,-0.03l-0.067,-0.032l-0.066,-0.035l-0.065,-0.037l-0.064,-0.04l-0.063,-0.042l-0.062,-0.044l-0.061,-0.047l-0.06,-0.049l-0.059,-0.051l-0.059,-0.054l-0.057,-0.055l-0.056,-0.058l-0.056,-0.06l-0.054,-0.062l-0.054,-0.064l-0.052,-0.067l-0.052,-0.068l-0.051,-0.07l-0.05,-0.073l-0.049,-0.074l-0.049,-0.076l-0.047,-0.078l-0.047,-0.08l-0.046,-0.082l-0.045,-0.084l-0.044,-0.085l-0.043,-0.087l-0.042,-0.089l-0.042,-0.09l-0.041,-0.093l-0.04,-0.093l-0.039,-0.096l-0.039,-0.097l-0.038,-0.098l-0.037,-0.1l-0.036,-0.102l-0.036,-0.103l-0.034,-0.105l-0.034,-0.105l-0.034,-0.108l-0.032,-0.108l-0.032,-0.11l-0.031,-0.111l-0.031,-0.113l-0.03,-0.114l-0.029,-0.115l-0.028,-0.116l-0.028,-0.117l-0.027,-0.118l-0.027,-0.12l-0.026,-0.12l-0.025,-0.122l-0.025,-0.123l-0.024,-0.123l-0.023,-0.125l-0.045,-0.251l-0.043,-0.256l-0.04,-0.258l-0.038,-0.261l-0.036,-0.265l-0.034,-0.266l-0.031,-0.269l-0.03,-0.272l-0.028,-0.273l-0.026,-0.274l-0.024,-0.276l-0.022,-0.277l-0.021,-0.279l-0.019,-0.278l-0.017,-0.28l-0.016,-0.279l-0.014,-0.28l-0.013,-0.279l-0.012,-0.279l-0.01,-0.279l-0.009,-0.277l-0.008,-0.276l-0.007,-0.275l-0.006,-0.274l-0.004,-0.271l-0.004,-0.27l-0.003,-0.267l-0.002,-0.265l-0.001,-0.262l-0.001,-0.515l0.002,-0.501l0.004,-0.486l0.005,-0.469l0.006,-0.45l0.006,-0.429l0.012,-0.787l0.005,-0.355l0.004,-0.326l0.001,-0.297l0,-0.127l-0.001,-0.001l-0.022,-0.021l-0.022,-0.022l-0.02,-0.022l-0.02,-0.022l-0.019,-0.022l-0.017,-0.022l-0.017,-0.022l-0.016,-0.023l-0.014,-0.022l-0.014,-0.022l-0.012,-0.023l-0.012,-0.022l-0.011,-0.023l-0.009,-0.022l-0.008,-0.023l-0.008,-0.023l-0.006,-0.022l-0.005,-0.023l-0.004,-0.023l-0.003,-0.022l-0.002,-0.023l-0.001,-0.022l0,-0.023l0.002,-0.022l0.002,-0.023l0.004,-0.022l0.005,-0.022l0.006,-0.023l0.026,-0.084l0.025,-0.071l0.022,-0.058l0.011,-0.025l0.01,-0.022l0.01,-0.018l0.01,-0.016l0.009,-0.012l0.008,-0.01l0.008,-0.007l0.008,-0.004l0.008,-0.001l0.007,0.002l0.007,0.005l0.006,0.007l0.006,0.01l0.006,0.013l0.005,0.015l0.006,0.018l0.004,0.021l0.005,0.023l0.008,0.055l0.007,0.064l0.006,0.074l0.005,0.084l0.004,0.093l0.003,0.102l0.002,0.112l0.001,0.119l0.001,0.138l0.047,0.042l0.052,0.043l0.055,0.041l0.059,0.042l0.062,0.04l0.065,0.039l0.07,0.039l0.072,0.038l0.076,0.037l0.078,0.036l0.082,0.034l0.085,0.034l0.088,0.033l0.091,0.031l0.094,0.03l0.097,0.028l0.099,0.027l0.102,0.026l0.104,0.024l0.107,0.023l0.11,0.02l0.112,0.02l0.114,0.017l0.116,0.015l0.119,0.014l0.121,0.012l0.123,0.009l0.124,0.008l0.127,0.006l0.129,0.003l0.13,0.001l0.133,-0.001l0.134,-0.004l0.135,-0.006l0.137,-0.008l0.139,-0.011l0.139,-0.014l0.142,-0.016l0.142,-0.019l0.144,-0.022l0.145,-0.024l0.146,-0.027l0.147,-0.031l0.148,-0.033l0.148,-0.036l0.15,-0.04l0.15,-0.042l0.151,-0.046l0.152,-0.049l0.076,-0.026l0.076,-0.027l0.077,-0.027l0.076,-0.029l0.077,-0.029l0.076,-0.03l0.077,-0.031l0.077,-0.032l0.077,-0.032l0.076,-0.034l0.077,-0.035l0.077,-0.035l0.078,-0.037l0.077,-0.037l0.077,-0.038l0.077,-0.039l0.077,-0.04l0.077,-0.042l0.077,-0.042l0.077,-0.043l0.078,-0.044l0.077,-0.045l0.077,-0.046l0.077,-0.047l0.076,-0.048l0.077,-0.049l0.077,-0.05l0.077,-0.051l0.076,-0.052l0.077,-0.053l0.076,-0.055l0.076,-0.055l0.077,-0.056l0.076,-0.058l0.075,-0.058l0.076,-0.06l0.076,-0.061l0.075,-0.061l0.075,-0.063l0.075,-0.064l0.075,-0.066l0.075,-0.066l0.074,-0.067l0.074,-0.069l0.074,-0.07l0.074,-0.071l0.074,-0.072l0.073,-0.073l0.073,-0.074l0.073,-0.076l0.072,-0.077l0.073,-0.078l0.071,-0.079l0.072,-0.081l0.071,-0.081l0.071,-0.083l0.071,-0.084l0.07,-0.086l0.07,-0.087l0.07,-0.087l0.069,-0.09l0.069,-0.09l0.069,-0.092l0.068,-0.093l0.068,-0.094l0.067,-0.096l0.067,-0.097l0.067,-0.098l0.066,-0.1l0.066,-0.101l0.065,-0.102l0.065,-0.104l0.065,-0.105l0.063,-0.107l0.064,-0.107l0.063,-0.109l0.063,-0.111l0.062,-0.112l0.061,-0.113l0.061,-0.115l0.061,-0.116l0.06,-0.118l0.059,-0.119l0.059,-0.12l0.058,-0.122l0.058,-0.123l0.057,-0.125l0.057,-0.127l0.056,-0.127l0.055,-0.13l0.055,-0.13l0.054,-0.133l0.054,-0.133l0.053,-0.136l0.052,-0.136l0.052,-0.139l0.051,-0.139l0.051,-0.142l0.049,-0.143l0.049,-0.144l0.049,-0.146l0.048,-0.148l0.047,-0.149l0.046,-0.151l0.045,-0.152l0.045,-0.154l0.044,-0.155l0.044,-0.158l0.042,-0.158l0.042,-0.161l0.041,-0.162l0.041,-0.163l0.039,-0.166l0.039,-0.167l0.038,-0.168l0.037,-0.171l0.036,-0.172l0.036,-0.173l0.035,-0.176l0.033,-0.177l0.033,-0.179l0.033,-0.18l0.031,-0.182l0.03,-0.184l0.03,-0.186l0.028,-0.187l0.028,-0.19l0.027,-0.191l0.026,-0.192l0.025,-0.195l0.019,-0.158l0.019,-0.159l0.018,-0.157l0.017,-0.158l0.016,-0.157l0.015,-0.156l0.014,-0.156l0.013,-0.155l0.013,-0.155l0.011,-0.155l0.011,-0.154l0.01,-0.154l0.009,-0.153l0.008,-0.153l0.007,-0.152l0.006,-0.152l0.006,-0.151l0.005,-0.151l0.004,-0.15l0.003,-0.15l0.002,-0.15l0.001,-0.148l0.001,-0.149l-0.001,-0.148l-0.001,-0.147l-0.002,-0.147l-0.003,-0.147l-0.003,-0.146l-0.005,-0.145l-0.005,-0.145l-0.006,-0.145l-0.007,-0.144l-0.007,-0.144l-0.009,-0.143l-0.009,-0.142l-0.01,-0.142l-0.011,-0.142l-0.012,-0.141l-0.012,-0.141l-0.013,-0.14l-0.014,-0.139l-0.015,-0.139l-0.015,-0.139l-0.017,-0.138l-0.017,-0.137l-0.018,-0.137l-0.018,-0.137l-0.019,-0.136l-0.021,-0.135l-0.02,-0.135l-0.022,-0.134l-0.022,-0.134l-0.023,-0.134l-0.024,-0.132l-0.025,-0.133l-0.025,-0.131l-0.026,-0.132l-0.027,-0.13l-0.027,-0.13l-0.029,-0.13l-0.029,-0.129l-0.029,-0.129l-0.031,-0.128l-0.031,-0.127l-0.031,-0.127l-0.033,-0.126l-0.033,-0.126l-0.034,-0.126l-0.035,-0.124l-0.035,-0.124l-0.036,-0.124l-0.037,-0.123l-0.037,-0.123l-0.038,-0.122l-0.039,-0.121l-0.039,-0.121l-0.04,-0.12l-0.041,-0.12l-0.041,-0.119l-0.042,-0.119l-0.043,-0.118l-0.043,-0.117l-0.044,-0.117l-0.045,-0.116l-0.045,-0.116l-0.046,-0.115l-0.047,-0.115l-0.047,-0.114l-0.048,-0.113l-0.049,-0.113l-0.049,-0.112l-0.05,-0.112l-0.05,-0.111l-0.051,-0.11l-0.052,-0.11l-0.052,-0.11l-0.053,-0.108l-0.054,-0.108l-0.054,-0.108l-0.055,-0.107l-0.055,-0.106l-0.056,-0.106l-0.056,-0.105l-0.058,-0.105l-0.057,-0.103l-0.059,-0.104l-0.058,-0.103l-0.06,-0.102l-0.06,-0.101l-0.061,-0.101l-0.061,-0.1l-0.062,-0.1l-0.062,-0.099l-0.063,-0.098l-0.063,-0.098l-0.064,-0.097l-0.065,-0.097l-0.065,-0.096l-0.066,-0.095l-0.066,-0.095l-0.067,-0.094l-0.067,-0.093l-0.068,-0.093l-0.068,-0.092l-0.069,-0.092l-0.07,-0.091l-0.07,-0.09l-0.07,-0.09l-0.071,-0.089l-0.072,-0.088l-0.072,-0.088l-0.072,-0.087l-0.073,-0.086l-0.074,-0.086l-0.074,-0.085l-0.075,-0.084l-0.075,-0.084l-0.075,-0.083l-0.076,-0.083l-0.077,-0.082l-0.077,-0.081l-0.077,-0.08l-0.078,-0.08l-0.079,-0.079l-0.079,-0.079l-0.079,-0.078l-0.08,-0.077l-0.081,-0.076l-0.08,-0.076l-0.082,-0.075l-0.081,-0.075l-0.082,-0.074l-0.083,-0.073l-0.083,-0.072l-0.084,-0.072l-0.084,-0.071l-0.084,-0.071l-0.085,-0.07l-0.085,-0.069l-0.086,-0.068l-0.086,-0.068l-0.086,-0.067l-0.087,-0.066l-0.088,-0.066l-0.088,-0.065l-0.088,-0.064l-0.088,-0.063l-0.089,-0.063l-0.09,-0.062l-0.09,-0.062l-0.09,-0.06l-0.09,-0.06l-0.091,-0.06l-0.092,-0.058l-0.092,-0.058l-0.092,-0.057l-0.092,-0.057l-0.093,-0.056l-0.093,-0.055l-0.094,-0.054l-0.094,-0.054l-0.094,-0.052l-0.095,-0.053l-0.095,-0.051l-0.096,-0.051l-0.096,-0.05l-0.096,-0.049l-0.096,-0.049l-0.097,-0.047l-0.097,-0.047l-0.098,-0.047l-0.098,-0.045l-0.098,-0.045l-0.098,-0.044l-0.099,-0.044l-0.099,-0.042l-0.1,-0.042l-0.1,-0.041l-0.1,-0.041l-0.1,-0.039l-0.101,-0.039l-0.101,-0.038l-0.101,-0.038l-0.102,-0.037l-0.102,-0.035l-0.102,-0.036l-0.103,-0.034l-0.102,-0.034l-0.103,-0.032l-0.104,-0.033l-0.103,-0.031l-0.104,-0.03l-0.105,-0.03l-0.104,-0.029l-0.105,-0.029l-0.105,-0.027l-0.105,-0.027l-0.106,-0.026l-0.105,-0.025l-0.106,-0.024l-0.107,-0.024l-0.106,-0.023l-0.107,-0.022l-0.107,-0.021l-0.107,-0.02l-0.108,-0.02l-0.107,-0.019l-0.108,-0.018l-0.109,-0.017l-0.108,-0.017l-0.109,-0.016l-0.108,-0.015l-0.109,-0.014l-0.11,-0.013l-0.109,-0.013l-0.11,-0.011l-0.11,-0.011l-0.11,-0.011l-0.11,-0.009l-0.11,-0.008l-0.111,-0.008l-0.111,-0.007l-0.111,-0.006l-0.111,-0.005l-0.111,-0.005l-0.112,-0.003l-0.112,-0.003l-0.112,-0.002l-0.112,-0.001l-0.112,-0.001l-0.112,0.001l-0.113,0.001l-0.113,0.002l-0.112,0.003l-0.113,0.004l-0.114,0.004l-0.244,0.008l-0.244,0.01l-0.242,0.012l-0.242,0.015l-0.242,0.017l-0.24,0.019l-0.239,0.022l-0.239,0.024l-0.238,0.026l-0.237,0.029l-0.236,0.031l-0.236,0.034l-0.234,0.036l-0.234,0.038l-0.233,0.041l-0.232,0.042l-0.231,0.046l-0.23,0.047l-0.23,0.05l-0.229,0.052l-0.228,0.054l-0.227,0.057l-0.226,0.059l-0.225,0.061l-0.225,0.064l-0.223,0.066l-0.223,0.068l-0.222,0.07l-0.222,0.073l-0.22,0.075l-0.219,0.077l-0.219,0.079l-0.218,0.082l-0.217,0.084l-0.216,0.086l-0.215,0.088l-0.215,0.091l-0.213,0.092l-0.213,0.095l-0.212,0.097l-0.211,0.1l-0.21,0.101l-0.21,0.104l-0.208,0.106l-0.208,0.108l-0.207,0.111l-0.206,0.112l-0.205,0.115l-0.204,0.117l-0.203,0.119l-0.203,0.121l-0.202,0.123l-0.2,0.126l-0.2,0.127l-0.2,0.13l-0.198,0.132l-0.197,0.134l-0.197,0.136l-0.195,0.139l-0.195,0.14l-0.194,0.142l-0.193,0.145l-0.193,0.147l-0.191,0.148l-0.191,0.151l-0.189,0.153l-0.189,0.155l-0.188,0.157l-0.187,0.16l-0.186,0.161l-0.186,0.163l-0.184,0.166l-0.184,0.167l-0.182,0.169l-0.182,0.172l-0.181,0.173l-0.181,0.176l-0.179,0.178l-0.178,0.179l-0.178,0.182l-0.176,0.184l-0.176,0.185l-0.175,0.188l-0.174,0.19l-0.173,0.191l-0.172,0.194l-0.172,0.196l-0.17,0.197l-0.17,0.2l-0.169,0.201l-0.168,0.204l-0.167,0.205l-0.166,0.208l-0.165,0.209l-0.164,0.211l-0.164,0.214l-0.163,0.215l-0.161,0.217l-0.161,0.219l-0.16,0.221l-0.159,0.223l-0.158,0.225l-0.158,0.227l-0.156,0.228l-0.156,0.231l-0.154,0.232l-0.154,0.235l-0.153,0.236l-0.152,0.238l-0.151,0.24l-0.15,0.242l-0.149,0.243l-0.149,0.246l-0.147,0.247l-0.147,0.25l-0.145,0.251l-0.145,0.253l-0.144,0.254l-0.143,0.257l-0.142,0.259l-0.142,0.26l-0.14,0.262l-0.139,0.264l-0.139,0.265l-0.137,0.268l-0.137,0.269l-0.136,0.271l-0.135,0.273l-0.134,0.275l-0.133,0.276l-0.132,0.279l-0.132,0.28l-0.13,0.281l-0.13,0.284l-0.128,0.285l-0.128,0.287l-0.127,0.289l-0.125,0.29l-0.125,0.293l-0.124,0.294l-0.124,0.295l-0.122,0.298l-0.121,0.299l-0.121,0.301l-0.119,0.302l-0.119,0.304l-0.117,0.306l-0.117,0.308l-0.116,0.309l-0.115,0.311l-0.114,0.313l-0.113,0.314l-0.112,0.317l-0.111,0.317l-0.111,0.32l-0.109,0.321l-0.109,0.322l-0.107,0.325l-0.107,0.325l-0.105,0.328l-0.105,0.329l-0.104,0.331l-0.103,0.333l-0.102,0.334l-0.101,0.335l-0.1,0.338l-0.1,0.339l-0.098,0.34l-0.097,0.342l-0.097,0.344l-0.095,0.345l-0.095,0.347l-0.094,0.348l-0.092,0.35l-0.092,0.352l-0.091,0.353l-0.09,0.355l-0.089,0.356l-0.088,0.357l-0.087,0.36l-0.086,0.361l-0.086,0.362l-0.084,0.364l-0.083,0.365l-0.083,0.367l-0.081,0.369l-0.081,0.369l-0.08,0.372l-0.078,0.373l-0.078,0.374l-0.077,0.376l-0.076,0.378l-0.075,0.378l-0.074,0.381l-0.073,0.382l-0.072,0.383l-0.071,0.385l-0.07,0.386l-0.069,0.387l-0.069,0.389l-0.067,0.391l-0.066,0.392l-0.066,0.393l-0.064,0.395l-0.064,0.396l-0.063,0.398l-0.061,0.399l-0.061,0.4l-0.06,0.402l-0.059,0.403l-0.057,0.405l-0.057,0.406l-0.056,0.408l-0.055,0.408l-0.054,0.41l-0.053,0.412l-0.052,0.413l-0.051,0.414l-0.051,0.416l-0.049,0.417l-0.048,0.418l-0.047,0.42l-0.047,0.42l-0.045,0.423l-0.045,0.423l-0.043,0.425l-0.042,0.427l-0.042,0.427l-0.041,0.429l-0.039,0.43l-0.039,0.432l-0.037,0.432l-0.037,0.434l-0.036,0.436l-0.035,0.436l-0.033,0.438l-0.033,0.439l-0.032,0.441l-0.031,0.441l-0.03,0.443l-0.029,0.444l-0.027,0.446l-0.027,0.446l-0.026,0.448l-0.025,0.449l-0.024,0.451l-0.024,0.451l-0.022,0.453l-0.021,0.454l-0.02,0.455l-0.019,0.456l-0.018,0.458l-0.017,0.459l-0.016,0.46l-0.016,0.461l-0.014,0.462l-0.016,0.372l-0.015,0.372l-0.013,0.37l-0.013,0.37l-0.012,0.369l-0.011,0.368l-0.01,0.367l-0.009,0.366l-0.008,0.365l-0.007,0.364l-0.006,0.364l-0.006,0.362l-0.004,0.362l-0.003,0.36l-0.002,0.36l-0.002,0.359l0,0.357l0,0.357l0.002,0.356l0.002,0.355l0.004,0.355l0.004,0.353l0.006,0.352l0.006,0.351l0.007,0.351l0.008,0.349l0.009,0.349l0.011,0.348l0.011,0.346l0.012,0.346l0.013,0.345l0.013,0.344l0.015,0.343l0.016,0.341l0.017,0.341l0.018,0.341l0.018,0.339l0.02,0.338l0.02,0.337l0.022,0.336l0.022,0.335l0.024,0.335l0.024,0.333l0.025,0.332l0.027,0.332l0.027,0.33l0.028,0.33l0.029,0.328l0.03,0.328l0.031,0.326l0.032,0.326l0.032,0.325l0.034,0.323l0.035,0.323l0.035,0.321l0.037,0.321l0.037,0.32l0.039,0.318l0.039,0.318l0.04,0.317l0.042,0.316l0.042,0.314l0.043,0.314l0.044,0.313l0.045,0.311l0.046,0.311l0.046,0.31l0.048,0.309l0.049,0.307l0.049,0.307l0.051,0.306l0.051,0.304l0.053,0.304l0.053,0.303l0.054,0.301l0.055,0.301l0.056,0.299l0.057,0.299l0.058,0.298l0.059,0.296l0.06,0.296l0.061,0.294l0.061,0.293l0.063,0.293l0.063,0.291l0.065,0.291l0.065,0.289l0.066,0.288l0.067,0.287l0.068,0.287l0.069,0.285l0.07,0.284l0.071,0.283l0.072,0.282l0.072,0.281l0.074,0.28l0.074,0.278l0.076,0.278l0.076,0.277l0.077,0.276l0.078,0.274l0.079,0.274l0.08,0.272l0.081,0.272l0.082,0.27l0.082,0.269l0.084,0.268l0.084,0.267l0.086,0.267l0.086,0.265l0.087,0.263l0.088,0.263l0.089,0.262l0.09,0.261l0.091,0.259l0.092,0.259l0.092,0.257l0.094,0.256l0.094,0.256l0.095,0.254l0.097,0.253l0.097,0.252l0.098,0.251l0.099,0.249l0.099,0.249l0.101,0.247l0.102,0.247l0.102,0.245l0.104,0.244l0.104,0.244l0.105,0.242l0.106,0.24l0.107,0.24l0.108,0.239l0.109,0.237l0.109,0.237l0.111,0.235l0.111,0.234l0.113,0.233l0.113,0.232l0.114,0.231l0.115,0.23l0.116,0.228l0.117,0.228l0.117,0.226l0.119,0.225l0.119,0.224l0.121,0.223l0.121,0.222l0.122,0.22l0.123,0.22l0.124,0.218l0.124,0.217l0.126,0.216l0.126,0.215l0.128,0.214l0.128,0.212l0.129,0.212l0.13,0.21l0.131,0.209l0.132,0.208l0.132,0.207l0.134,0.205l0.134,0.205l0.136,0.203l0.136,0.202l0.137,0.201l0.138,0.2l0.138,0.198l0.14,0.198l0.141,0.196l0.141,0.195l0.142,0.194l0.143,0.192l0.144,0.192l0.145,0.19l0.146,0.189l0.147,0.188l0.147,0.187l0.148,0.185l0.15,0.185l0.15,0.183l0.151,0.182l0.152,0.18l0.152,0.18l0.154,0.178l0.154,0.177l0.155,0.176l0.157,0.175l0.157,0.174l0.157,0.172l0.159,0.171l0.16,0.17l0.16,0.169l0.161,0.167l0.163,0.166l0.163,0.165l0.163,0.164l0.165,0.163l0.166,0.161l0.166,0.16l0.167,0.159l0.169,0.157l0.169,0.157l0.169,0.155l0.171,0.154l0.172,0.153l0.172,0.151l0.173,0.15l0.174,0.149l0.175,0.148l0.176,0.146l0.177,0.146l0.177,0.144l0.179,0.142l0.179,0.142l0.18,0.14l0.181,0.139l0.182,0.138l0.182,0.136l0.184,0.135l0.184,0.134l0.185,0.133l0.186,0.131l0.187,0.131l0.188,0.128l0.188,0.128l0.189,0.126l0.191,0.125l0.191,0.124l0.191,0.123l0.193,0.121l0.194,0.12l0.194,0.118l0.195,0.118l0.196,0.116l0.197,0.115l0.198,0.113l0.198,0.112l0.2,0.111l0.2,0.11l0.201,0.108l0.202,0.107l0.203,0.106l0.203,0.104l0.205,0.103l0.205,0.102l0.206,0.101l0.207,0.099l0.207,0.098l0.209,0.096l0.209,0.096l0.211,0.093l0.211,0.093l0.211,0.091l0.213,0.09l6.381,23.213l0.015,0.052l0.016,0.051l0.016,0.051l0.018,0.05l0.018,0.049l0.019,0.049l0.021,0.049l0.021,0.048l0.022,0.048l0.023,0.047l0.023,0.046l0.025,0.046l0.025,0.046l0.026,0.045l0.027,0.044l0.028,0.044l0.029,0.043l0.029,0.042l0.03,0.042l0.031,0.041l0.032,0.041l0.032,0.04l0.033,0.039l0.034,0.039l0.034,0.038l0.035,0.038l0.036,0.036l0.037,0.036l0.037,0.036l0.038,0.034l0.038,0.034l0.039,0.033l0.04,0.033l0.04,0.032l0.041,0.03l0.041,0.031l0.042,0.029l0.043,0.029l0.043,0.028l0.044,0.027l0.044,0.026l0.044,0.025l0.046,0.025l0.045,0.024l0.046,0.022l0.047,0.023l0.047,0.021l0.048,0.02l0.048,0.019l0.048,0.019l0.049,0.018l0.049,0.016l0.05,0.016l0.05,0.015l0.05,0.014l0.051,0.013l0.051,0.012l0.052,0.011l0.052,0.011l0.052,0.009l0.052,0.008l0.053,0.007l0.053,0.006l0.053,0.006l1.557,0.136l1.539,0.132l1.519,0.127l1.5,0.124l1.481,0.12l1.462,0.116l1.442,0.112l1.424,0.108l1.405,0.104l1.385,0.1l1.366,0.096l1.348,0.092l1.328,0.088l1.309,0.084l1.289,0.08l1.271,0.076l1.251,0.072l1.233,0.068l0.609,0.032l0.604,0.031l0.599,0.031l0.595,0.029l0.589,0.029l0.585,0.027l0.581,0.026l0.575,0.026l0.57,0.024l0.566,0.024l0.561,0.022l0.556,0.021l0.552,0.021l0.546,0.019l0.542,0.018l0.537,0.018l0.532,0.016l0.527,0.015l0.523,0.015l0.517,0.013l0.513,0.012l0.508,0.011l0.504,0.011l0.498,0.009l0.494,0.008l0.489,0.007l0.483,0.007l0.48,0.005l0.474,0.004l0.47,0.003l0.464,0.002l0.46,0.002l0.455,0l0.45,-0.001l0.446,-0.002l0.44,-0.003l0.436,-0.004l0.431,-0.005l0.426,-0.005l0.422,-0.007l0.416,-0.008l0.412,-0.009l0.406,-0.01l0.402,-0.011l0.398,-0.012l0.392,-0.013l0.387,-0.014l0.383,-0.015l0.378,-0.016l0.373,-0.017l0.368,-0.018l0.363,-0.019l0.359,-0.02l0.353,-0.022l0.349,-0.022l0.344,-0.023l0.339,-0.024l0.334,-0.025l0.33,-0.026l0.324,-0.028l0.32,-0.028l0.315,-0.029l0.31,-0.03l0.305,-0.031l0.3,-0.033l0.296,-0.033l0.29,-0.034l0.286,-0.036l0.281,-0.036l0.276,-0.037l0.271,-0.039l0.266,-0.039l0.262,-0.041l0.256,-0.041l0.252,-0.042l0.247,-0.044l0.242,-0.044l0.237,-0.046l0.233,-0.046l0.227,-0.048l0.223,-0.049l0.217,-0.049l0.213,-0.051l0.208,-0.051l0.203,-0.053l0.199,-0.054l0.193,-0.054l0.189,-0.056l0.183,-0.057l0.179,-0.058l0.174,-0.058l0.169,-0.06l0.082,-0.068l0.08,-0.069l0.077,-0.07l0.074,-0.072l0.037,-0.037l0.035,-0.036l0.035,-0.038l0.035,-0.037l0.033,-0.039l0.033,-0.038l0.032,-0.039l0.032,-0.039l0.03,-0.04l0.03,-0.04l0.029,-0.041l0.029,-0.041l0.028,-0.042l0.026,-0.042l0.027,-0.042l0.025,-0.043l0.024,-0.043l0.024,-0.044l0.023,-0.044l0.022,-0.045l0.021,-0.045l0.02,-0.046l0.02,-0.046l0.018,-0.047l0.018,-0.047l0.017,-0.048l0.016,-0.049l0.015,-0.048l0.014,-0.05l0.013,-0.05l0.012,-0.05l0.012,-0.051l0.01,-0.052l0.009,-0.052l0.009,-0.052l0.007,-0.053l0.007,-0.054l0.005,-0.055l0.005,-0.054l0.003,-0.056l0.003,-0.056l0.001,-0.057l0,-0.057l0,-0.058l-0.002,-0.058l-0.003,-0.06l-0.004,-0.059l-0.005,-0.061l-0.006,-0.061l-0.007,-0.061l-0.008,-0.063l-0.01,-0.063l-0.01,-0.063l-0.012,-0.064l-0.013,-0.065l-0.014,-0.066l0.135,0.019l0.133,0.018l0.133,0.016l0.132,0.016l0.131,0.014l0.13,0.013l0.129,0.012l0.128,0.01l0.128,0.01l0.126,0.008l0.126,0.007l0.125,0.006l0.124,0.005l0.124,0.004l0.122,0.003l0.122,0.001l0.121,0.001l0.12,0l0.119,-0.002l0.119,-0.002l0.118,-0.003l0.117,-0.005l0.117,-0.005l0.116,-0.006l0.115,-0.007l0.115,-0.008l0.113,-0.009l0.114,-0.01l0.112,-0.011l0.112,-0.011l0.111,-0.013l0.111,-0.013l0.11,-0.014l0.11,-0.015l0.109,-0.015l0.108,-0.017l0.108,-0.017l0.107,-0.018l0.107,-0.018l0.106,-0.02l0.106,-0.02l0.105,-0.02l0.209,-0.044l0.207,-0.046l0.205,-0.048l0.203,-0.051l0.202,-0.052l0.201,-0.055l0.198,-0.057l0.198,-0.059l0.196,-0.061l0.195,-0.062l0.194,-0.064l0.072,-0.025l0.071,-0.027l0.068,-0.029l0.067,-0.031l0.064,-0.032l0.063,-0.034l0.06,-0.036l0.058,-0.038l0.057,-0.039l0.054,-0.041l0.053,-0.043l0.05,-0.044l0.049,-0.046l0.047,-0.047l0.044,-0.049l0.043,-0.05l0.041,-0.053l0.039,-0.053l0.037,-0.055l0.036,-0.057l0.033,-0.058l0.032,-0.06l0.029,-0.061l0.028,-0.062l0.026,-0.064l0.024,-0.065l0.023,-0.067l0.02,-0.068l0.019,-0.07l0.017,-0.071l0.015,-0.072l0.013,-0.073l0.012,-0.075l0.01,-0.076l0.008,-0.077l0.006,-0.079l0.005,-0.079l0.003,-0.081l0.001,-0.082l-0.001,-0.084l-0.002,-0.084l-0.004,-0.086l-0.005,-0.087l-0.008,-0.088l-0.009,-0.089l-0.01,-0.09l-0.012,-0.091l-0.014,-0.093l-0.016,-0.093l-0.017,-0.094l-0.019,-0.096l-0.02,-0.096l-0.022,-0.097l-0.023,-0.099l-0.026,-0.099l-0.026,-0.1l-0.028,-0.101l-0.03,-0.102l-0.031,-0.103l-0.033,-0.104l-0.035,-0.104l-0.035,-0.106l-0.038,-0.106l-0.039,-0.107l-0.04,-0.108l-0.042,-0.109l-0.043,-0.109l-0.045,-0.11l-0.046,-0.111l-0.048,-0.112l-0.049,-0.112l-0.05,-0.113l-0.052,-0.114l-0.054,-0.114l-0.054,-0.115l-0.056,-0.115l-0.058,-0.117l-0.059,-0.116l-0.06,-0.118l-0.062,-0.117l-0.063,-0.119l-0.064,-0.119l-0.066,-0.119l-0.067,-0.12l-0.068,-0.12l-0.069,-0.121l-0.071,-0.121l-0.072,-0.122l-0.074,-0.122l-0.074,-0.123l-0.076,-0.123l-0.078,-0.123l-0.078,-0.124l-0.08,-0.123l-0.081,-0.125l-0.082,-0.124l-0.083,-0.125l-0.084,-0.125l-0.086,-0.126l-0.087,-0.125l-0.088,-0.126l-0.089,-0.126l-0.091,-0.126l-0.091,-0.127l-0.093,-0.126l-0.094,-0.127l-0.094,-0.127l-0.096,-0.127l-0.098,-0.127l-0.098,-0.127l-0.099,-0.127l-0.1,-0.127l-0.102,-0.128l-0.102,-0.127l-0.104,-0.127l-0.104,-0.127l-0.106,-0.128l-0.107,-0.127l-0.107,-0.127l-0.109,-0.127l-0.109,-0.127l-0.111,-0.127l-0.112,-0.126l-0.112,-0.127l-0.114,-0.126l-0.114,-0.127l-0.116,-0.126l-0.116,-0.126l-0.117,-0.125l-0.119,-0.126l-0.119,-0.125l-0.12,-0.125l-0.121,-0.124l-0.121,-0.125l-0.123,-0.124l-0.123,-0.123l-0.125,-0.123l-0.125,-0.123l-0.126,-0.123l-0.127,-0.122l-0.128,-0.122l-0.128,-0.121l-0.13,-0.121l-0.13,-0.121l-0.131,-0.119l-0.131,-0.12l-0.133,-0.119l-0.133,-0.118l-0.134,-0.118l-0.135,-0.118l-0.135,-0.116l-0.136,-0.117l-0.137,-0.115l-0.138,-0.115l-0.138,-0.115l-0.139,-0.113l-0.14,-0.113l-0.14,-0.113l-0.141,-0.111l-0.141,-0.111l-0.143,-0.111l-0.143,-0.109l-0.143,-0.109l-0.144,-0.108l-0.145,-0.107l-0.145,-0.106l-0.146,-0.106l-0.147,-0.105l-0.147,-0.104l-0.148,-0.103l-0.148,-0.102l-0.149,-0.101l-0.149,-0.1l-0.15,-0.1l-0.15,-0.098l-0.151,-0.097l-0.152,-0.097l-0.152,-0.095l-0.152,-0.095l-0.153,-0.093l-0.153,-0.093l-0.154,-0.091l-0.154,-0.09l-0.155,-0.09l-0.155,-0.088l-0.156,-0.087l-0.156,-0.085l-0.156,-0.085l-0.157,-0.084l-0.157,-0.082l-0.157,-0.081l-0.158,-0.08l-0.159,-0.079l-0.158,-0.077l-0.159,-0.076l-0.16,-0.075l-0.159,-0.074l-0.16,-0.072l-0.16,-0.071l-0.161,-0.07l-0.161,-0.068l-0.161,-0.067l-0.162,-0.065l-0.161,-0.064l-0.162,-0.063l-0.162,-0.061l-0.163,-0.06l-0.163,-0.058l-0.162,-0.057l-0.164,-0.055l-0.163,-0.054l-0.163,-0.052l-0.164,-0.051l-0.164,-0.049l-0.164,-0.048l-0.164,-0.046l-0.165,-0.044l-0.164,-0.043l-0.165,-0.041l-0.165,-0.04l-0.165,-0.037l-0.165,-0.037l-0.165,-0.034l-0.165,-0.033l-0.165,-0.03l-0.166,-0.03l-0.165,-0.027l-0.166,-0.026l-0.165,-0.024l-0.166,-0.022l-0.166,-0.02l-0.165,-0.018l-0.166,-0.016l-0.165,-0.015l-0.166,-0.013l-0.166,-0.011l-0.165,-0.008l-0.166,-0.007l-0.166,-0.005l-0.165,-0.003l-0.166,-0.001l-0.165,0.001l-0.165,0.003l-0.165,0.005l-0.166,0.007l-0.165,0.009l-0.165,0.012l-0.164,0.013l-0.165,0.015l-0.165,0.018l-0.164,0.02l-0.164,0.022l-0.164,0.024l-0.164,0.026l-0.164,0.029l-0.163,0.03l0.206,-0.146l0.205,-0.147l0.204,-0.148l0.202,-0.149l0.201,-0.15l0.2,-0.15l0.198,-0.152l0.196,-0.152l0.195,-0.153l0.194,-0.153l0.192,-0.155l0.191,-0.155l0.189,-0.156l0.188,-0.157l0.186,-0.158l0.185,-0.159l0.184,-0.159l0.182,-0.161l0.181,-0.161l0.179,-0.161l0.178,-0.163l0.176,-0.163l0.175,-0.165l0.174,-0.165l0.172,-0.166l0.171,-0.166l0.169,-0.168l0.168,-0.168l0.166,-0.169l0.165,-0.17l0.164,-0.171l0.162,-0.171l0.161,-0.172l0.159,-0.173l0.158,-0.174l0.157,-0.175l0.155,-0.175l0.153,-0.177l0.153,-0.177l0.151,-0.177l0.149,-0.179l0.148,-0.18l0.147,-0.18l0.145,-0.181l0.144,-0.182l0.142,-0.182l0.141,-0.184l0.14,-0.184l0.138,-0.185l0.137,-0.185l0.135,-0.187l0.134,-0.187l0.133,-0.188l0.131,-0.189l0.13,-0.19l0.129,-0.19l0.127,-0.192l0.125,-0.192l0.125,-0.193l0.122,-0.193l0.122,-0.195l0.12,-0.195l0.119,-0.196l0.117,-0.197l0.116,-0.197l0.114,-0.198l0.114,-0.199l0.111,-0.2l0.111,-0.201l0.109,-0.201l0.108,-0.203l0.106,-0.202l0.105,-0.204l0.103,-0.205l0.102,-0.205l0.101,-0.206l0.1,-0.207l0.098,-0.208l0.096,-0.208l0.095,-0.209l0.094,-0.21l0.093,-0.211l0.091,-0.211l0.09,-0.212l0.088,-0.213l0.087,-0.214l0.086,-0.215l0.085,-0.215l0.083,-0.216l0.081,-0.217l0.08,-0.218l0.079,-0.218l0.078,-0.219l0.076,-0.22l0.075,-0.221l0.074,-0.221l0.072,-0.222l0.07,-0.223l0.07,-0.224l0.068,-0.225l0.067,-0.225l0.065,-0.226l0.064,-0.227l0.063,-0.227l0.061,-0.228l0.06,-0.229l0.059,-0.23l0.057,-0.231l0.056,-0.231l0.055,-0.232l0.053,-0.233l0.052,-0.233l0.051,-0.235l0.049,-0.235l0.048,-0.236l0.047,-0.236l0.045,-0.237l0.044,-0.239l0.043,-0.238l0.041,-0.24l0.04,-0.24l0.039,-0.241l0.037,-0.242l0.036,-0.243l0.035,-0.243l0.033,-0.244l0.032,-0.245l0.031,-0.245l0.025,0.288l0.027,0.283l0.029,0.278l0.015,0.138l0.016,0.136l0.017,0.135l0.018,0.134l0.018,0.132l0.018,0.132l0.02,0.13l0.02,0.129l0.021,0.128l0.021,0.126l0.023,0.125l0.023,0.124l0.023,0.123l0.025,0.122l0.025,0.12l0.026,0.119l0.027,0.118l0.028,0.116l0.029,0.116l0.029,0.114l0.031,0.113l0.031,0.111l0.032,0.11l0.033,0.109l0.034,0.108l0.035,0.106l0.036,0.105l0.037,0.104l0.038,0.103l0.038,0.101l0.04,0.1l0.041,0.099l0.042,0.097l0.043,0.096l0.044,0.095l0.045,0.093l0.046,0.092l0.047,0.091l0.048,0.089l0.05,0.088l0.05,0.087l0.052,0.085l0.053,0.084l0.054,0.083l0.055,0.081l0.057,0.08l0.057,0.079l0.059,0.077l0.06,0.076l0.062,0.075l0.063,0.073l0.064,0.072l0.065,0.07l0.066,0.069l0.068,0.068l0.069,0.066l0.071,0.065l0.072,0.063l0.073,0.062l0.075,0.061l0.076,0.059l0.078,0.058l0.079,0.056l0.08,0.055l0.082,0.054l0.083,0.052l0.085,0.051l0.086,0.049l0.088,0.048l0.09,0.047l0.091,0.045l0.092,0.043l0.094,0.042l0.096,0.041l0.097,0.039l0.099,0.038l0.1,0.036l0.102,0.035l0.104,0.033l0.105,0.032l0.107,0.03l0.109,0.029l0.11,0.028l0.112,0.026l0.114,0.024l0.116,0.023l0.117,0.022l0.119,0.019l0.121,0.019l0.122,0.017l0.125,0.015l0.126,0.014l0.128,0.013l0.13,0.01l0.132,0.01l0.134,0.008l0.135,0.006l0.138,0.005l0.139,0.003l0.141,0.001l0.144,0.001l0.145,-0.002l0.147,-0.003l0.149,-0.004l0.151,-0.007l0.153,-0.007l0.156,-0.01l0.157,-0.01l0.159,-0.013l0.161,-0.014l0.164,-0.015l0.165,-0.017l0.168,-0.019l0.169,-0.021l0.172,-0.021l0.174,-0.024l0.176,-0.025l0.178,-0.027l0.181,-0.028l0.182,-0.03l0.185,-0.032l0.187,-0.033l-2.168,2.674l-0.066,0.084l-0.064,0.085l-0.061,0.086l-0.059,0.088l-0.056,0.088l-0.054,0.09l-0.052,0.09l-0.049,0.091l-0.046,0.093l-0.044,0.092l-0.042,0.094l-0.039,0.095l-0.036,0.095l-0.034,0.095l-0.032,0.097l-0.029,0.097l-0.027,0.097l-0.024,0.098l-0.022,0.098l-0.02,0.098l-0.017,0.099l-0.015,0.099l-0.012,0.099l-0.01,0.1l-0.007,0.099l-0.006,0.1l-0.002,0.1l-0.001,0.099l0.002,0.1l0.005,0.099l0.007,0.1l0.009,0.099l0.011,0.099l0.014,0.098l0.017,0.098l0.018,0.098l0.021,0.098l0.023,0.097l0.026,0.096l0.028,0.096l0.03,0.095l0.033,0.095l0.034,0.094l0.038,0.093l0.039,0.092l0.042,0.092l0.044,0.09l0.046,0.09l0.049,0.089l0.051,0.087l0.053,0.087l0.056,0.085l0.057,0.085l0.06,0.083l0.063,0.082l0.064,0.08l0.067,0.079l0.069,0.078l0.071,0.076l0.073,0.075l0.076,0.074l0.078,0.071l0.08,0.071l0.082,0.068l16.132,13.079l0.084,0.066l0.086,0.064l0.086,0.061l0.087,0.059l0.089,0.056l0.089,0.054l0.091,0.052l0.091,0.049l0.092,0.046l0.093,0.044l0.094,0.042l0.094,0.039l0.095,0.036l0.096,0.034l0.096,0.032l0.097,0.029l0.097,0.027l0.098,0.024l0.098,0.022l0.099,0.02l0.099,0.017l0.099,0.015l0.099,0.012l0.099,0.01l0.1,0.007l0.1,0.006l0.099,0.002l0.1,0.001l0.099,-0.002l0.1,-0.005l0.099,-0.007l0.099,-0.009l0.099,-0.011l0.099,-0.014l0.098,-0.017l0.098,-0.018l0.097,-0.021l0.097,-0.023l0.097,-0.026l0.095,-0.028l0.096,-0.03l0.094,-0.033l0.094,-0.034l0.093,-0.038l0.093,-0.039l0.091,-0.042l0.091,-0.044l0.089,-0.046l0.089,-0.049l0.088,-0.051l0.086,-0.053l0.086,-0.056l0.084,-0.057l0.083,-0.06l0.082,-0.063l0.081,-0.064l0.079,-0.067l0.078,-0.069l0.076,-0.071l0.075,-0.073l0.073,-0.076l0.072,-0.078l0.07,-0.08l0.069,-0.082l64.454,-79.503l23.935,19.405l0.081,0.063l0.082,0.062l0.084,0.06l0.084,0.057l0.086,0.055l0.088,0.053l0.088,0.051l0.089,0.048l0.091,0.046l0.091,0.044l0.093,0.042l0.093,0.039l0.095,0.037l0.095,0.035l0.096,0.032l0.096,0.03l0.098,0.028l0.098,0.025l0.098,0.023l0.099,0.02l0.1,0.018l0.1,0.016l0.101,0.013l0.101,0.011l0.101,0.008l0.102,0.006l0.102,0.003l0.102,0.001l0.102,-0.002l0.103,-0.005l0.102,-0.006l0.103,-0.01l0.102,-0.012l0.102,-0.014l0.101,-0.017l0.101,-0.02l0.1,-0.021l0.099,-0.025l0.098,-0.026l0.097,-0.029l0.097,-0.032l0.096,-0.033l0.095,-0.036l0.093,-0.039l0.093,-0.04l0.092,-0.043l0.091,-0.045l0.089,-0.047l0.089,-0.049l0.087,-0.052l0.086,-0.053l0.084,-0.056l0.083,-0.058l0.082,-0.06l0.081,-0.061l0.079,-0.064l0.077,-0.066l0.076,-0.068l0.075,-0.07l0.072,-0.072l0.071,-0.073l0.07,-0.076l0.067,-0.077l0.066,-0.079l18.943,-23.366l0.064,-0.081l0.061,-0.081l0.06,-0.083l0.057,-0.085l0.054,-0.085l0.053,-0.087l0.051,-0.088l0.048,-0.089l0.046,-0.09l0.043,-0.091l0.042,-0.092l0.039,-0.093l0.037,-0.094l0.034,-0.094l0.032,-0.096l0.03,-0.096l0.027,-0.097l0.026,-0.097l0.022,-0.098l0.021,-0.099l0.018,-0.099l0.015,-0.1l0.013,-0.1l0.011,-0.1l0.008,-0.101l0.006,-0.101l0.003,-0.102l0.001,-0.101l-0.002,-0.102l-0.005,-0.102l-0.006,-0.102l-0.01,-0.102l-0.012,-0.102l-0.014,-0.101l-0.017,-0.101l-0.019,-0.1l-0.022,-0.099l-0.024,-0.099l-0.027,-0.097l-0.028,-0.097l-0.032,-0.096l-0.033,-0.096l-0.036,-0.094l-0.038,-0.093l-0.04,-0.093l-0.043,-0.091l-0.044,-0.09l-0.047,-0.089l-0.049,-0.088l-0.052,-0.087l-0.053,-0.085l-0.055,-0.084l-0.058,-0.083l-0.059,-0.082l-0.062,-0.08l-0.063,-0.078l-0.066,-0.077l-0.067,-0.076l-0.07,-0.074l-0.071,-0.072l-0.073,-0.071l-0.076,-0.069l-0.077,-0.067l-0.078,-0.066l-70.465,-57.127l-0.081,-0.064l-0.082,-0.061l-0.083,-0.06l-0.085,-0.057l-0.086,-0.055l-0.087,-0.053l-0.089,-0.051l-0.089,-0.048l-0.091,-0.046l-0.091,-0.044l-0.093,-0.042l-0.093,-0.039l-0.094,-0.037l-0.095,-0.035l-0.096,-0.032l-0.097,-0.03l-0.097,-0.028l-0.098,-0.025l-0.099,-0.023l-0.099,-0.02l-0.1,-0.018l-0.1,-0.016l-0.101,-0.013l-0.101,-0.011l-0.101,-0.008l-0.102,-0.006l-0.102,-0.003l-0.102,-0.001l-0.102,0.002Z" style="fill:#fff;"/><path d="M227.877,131.438c-1.148,1.416 -3.226,1.633 -4.642,0.485c-6.767,-5.486 -24.594,-19.939 -24.594,-19.939c0,0 -53.674,66.205 -64.989,80.162c-0.551,0.68 -1.35,1.113 -2.22,1.204c-0.871,0.091 -1.742,-0.168 -2.421,-0.719c-4.345,-3.522 -13.106,-10.625 -17.451,-14.147c-0.68,-0.551 -1.113,-1.35 -1.204,-2.221c-0.091,-0.87 0.168,-1.741 0.719,-2.421c11.315,-13.956 64.989,-80.162 64.989,-80.162c0,0 -17.828,-14.453 -24.595,-19.939c-1.416,-1.148 -1.633,-3.226 -0.485,-4.642c4.567,-5.632 15.432,-19.034 19.998,-24.667c1.148,-1.416 3.226,-1.633 4.642,-0.485c11.715,9.498 60.092,48.718 71.779,58.193c1.409,1.142 1.625,3.209 0.483,4.617c-4.56,5.625 -15.439,19.044 -20.009,24.681Z" style="fill:#282ea9;"/><path d="M116.46,63.292c0.465,0.136 0.94,0.312 1.427,0.532c6.245,-14.884 35.725,-13.539 39.511,2.145c13.938,-1.188 14.192,19.572 0.068,17.994c1.103,5.779 -3.412,17.785 -9.325,21.851l0.04,0.205l-31.721,0l0,-42.727Z"/><path d="M137.38,50.129l0.225,0.002l0.225,0.005l0.225,0.006l0.225,0.007l0.225,0.009l0.225,0.011l0.224,0.012l0.225,0.014l0.224,0.015l0.225,0.017l0.224,0.018l0.224,0.02l0.223,0.022l0.224,0.023l0.223,0.024l0.223,0.026l0.223,0.028l0.223,0.029l0.222,0.031l0.222,0.033l0.221,0.034l0.222,0.035l0.221,0.037l0.22,0.039l0.22,0.04l0.22,0.042l0.22,0.043l0.219,0.045l0.218,0.047l0.218,0.048l0.218,0.049l0.217,0.052l0.217,0.053l0.216,0.054l0.215,0.056l0.215,0.058l0.215,0.059l0.214,0.061l0.213,0.062l0.213,0.064l0.212,0.066l0.211,0.067l0.211,0.069l0.21,0.07l0.209,0.072l0.209,0.074l0.208,0.075l0.207,0.077l0.207,0.079l0.206,0.08l0.204,0.082l0.205,0.083l0.203,0.085l0.202,0.087l0.202,0.089l0.201,0.09l0.199,0.092l0.199,0.093l0.198,0.095l0.197,0.097l0.196,0.099l0.195,0.1l0.194,0.102l0.193,0.104l0.192,0.105l0.191,0.107l0.19,0.109l0.189,0.111l0.187,0.112l0.187,0.114l0.185,0.116l0.184,0.118l0.183,0.119l0.182,0.121l0.18,0.123l0.179,0.125l0.178,0.126l0.176,0.128l0.175,0.13l0.174,0.132l0.173,0.134l0.171,0.135l0.169,0.138l0.168,0.139l0.167,0.141l0.165,0.143l0.163,0.144l0.162,0.147l0.16,0.148l0.159,0.15l0.157,0.152l0.155,0.154l0.154,0.156l0.152,0.158l0.15,0.159l0.148,0.162l0.146,0.163l0.145,0.165l0.142,0.167l0.141,0.169l0.139,0.17l0.137,0.173l0.134,0.174l0.133,0.176l0.131,0.179l0.128,0.18l0.126,0.181l0.124,0.184l0.122,0.185l0.12,0.188l0.117,0.189l0.115,0.19l0.113,0.193l0.11,0.195l0.108,0.196l0.106,0.198l0.102,0.199l0.101,0.202l0.098,0.203l0.095,0.205l0.093,0.206l0.09,0.208l0.05,0.12l0.085,0.007l0.187,0.018l0.186,0.02l0.185,0.022l0.184,0.024l0.184,0.027l0.182,0.029l0.18,0.032l0.18,0.033l0.179,0.036l0.177,0.039l0.176,0.04l0.175,0.043l0.174,0.045l0.172,0.048l0.172,0.049l0.169,0.052l0.169,0.054l0.167,0.056l0.166,0.058l0.165,0.061l0.163,0.062l0.162,0.065l0.16,0.067l0.159,0.068l0.157,0.071l0.156,0.073l0.154,0.075l0.153,0.077l0.151,0.078l0.15,0.081l0.148,0.082l0.147,0.085l0.144,0.086l0.144,0.088l0.142,0.09l0.139,0.092l0.139,0.093l0.136,0.095l0.135,0.097l0.133,0.098l0.132,0.1l0.129,0.102l0.128,0.103l0.126,0.104l0.125,0.107l0.122,0.107l0.121,0.11l0.119,0.11l0.117,0.112l0.115,0.113l0.114,0.115l0.112,0.115l0.109,0.117l0.109,0.119l0.106,0.12l0.104,0.12l0.103,0.122l0.101,0.123l0.099,0.124l0.096,0.125l0.096,0.126l0.093,0.128l0.092,0.128l0.089,0.129l0.088,0.13l0.087,0.131l0.084,0.131l0.082,0.133l0.081,0.134l0.078,0.134l0.077,0.135l0.076,0.136l0.073,0.137l0.072,0.137l0.069,0.138l0.068,0.138l0.066,0.14l0.064,0.139l0.063,0.141l0.061,0.141l0.059,0.142l0.057,0.142l0.056,0.143l0.053,0.143l0.052,0.144l0.05,0.144l0.049,0.144l0.046,0.145l0.045,0.146l0.044,0.146l0.041,0.146l0.04,0.147l0.038,0.147l0.036,0.147l0.035,0.147l0.032,0.148l0.031,0.148l0.03,0.149l0.027,0.148l0.026,0.149l0.025,0.149l0.022,0.149l0.021,0.15l0.019,0.149l0.017,0.15l0.016,0.15l0.014,0.15l0.013,0.151l0.01,0.15l0.009,0.15l0.007,0.15l0.006,0.151l0.004,0.15l0.002,0.151l0,0.15l-0.001,0.151l-0.003,0.15l-0.005,0.151l-0.006,0.15l-0.009,0.15l-0.009,0.151l-0.012,0.15l-0.013,0.15l-0.015,0.15l-0.017,0.15l-0.018,0.149l-0.021,0.15l-0.021,0.149l-0.024,0.149l-0.026,0.149l-0.027,0.149l-0.029,0.148l-0.03,0.148l-0.033,0.148l-0.034,0.147l-0.036,0.148l-0.037,0.146l-0.04,0.147l-0.041,0.146l-0.043,0.146l-0.045,0.145l-0.047,0.145l-0.048,0.145l-0.05,0.144l-0.053,0.143l-0.054,0.143l-0.055,0.142l-0.058,0.142l-0.059,0.142l-0.062,0.141l-0.063,0.14l-0.065,0.139l-0.067,0.139l-0.068,0.138l-0.071,0.138l-0.072,0.136l-0.075,0.137l-0.076,0.135l-0.078,0.134l-0.08,0.133l-0.082,0.133l-0.084,0.132l-0.086,0.131l-0.088,0.13l-0.089,0.129l-0.092,0.127l-0.093,0.128l-0.096,0.126l-0.097,0.124l-0.099,0.124l-0.101,0.122l-0.103,0.122l-0.105,0.12l-0.107,0.119l-0.109,0.117l-0.111,0.117l-0.113,0.115l-0.114,0.113l-0.116,0.112l-0.118,0.111l-0.12,0.109l-0.123,0.108l-0.123,0.106l-0.126,0.105l-0.127,0.103l-0.13,0.102l-0.131,0.099l-0.133,0.098l-0.135,0.097l-0.136,0.094l-0.138,0.093l-0.14,0.091l-0.142,0.089l-0.143,0.087l-0.145,0.085l-0.147,0.084l-0.148,0.081l-0.15,0.08l-0.152,0.078l-0.153,0.075l-0.154,0.073l-0.156,0.072l-0.158,0.069l-0.159,0.067l-0.161,0.065l-0.162,0.063l-0.163,0.061l-0.165,0.058l-0.167,0.056l-0.168,0.055l-0.168,0.051l-0.17,0.05l-0.172,0.047l-0.173,0.045l-0.174,0.043l-0.175,0.04l-0.177,0.038l-0.178,0.036l-0.178,0.034l-0.18,0.031l-0.182,0.029l-0.181,0.026l-0.106,0.014l-0.008,0.12l-0.017,0.205l-0.018,0.206l-0.02,0.207l-0.023,0.207l-0.024,0.208l-0.026,0.209l-0.029,0.209l-0.03,0.21l-0.031,0.21l-0.034,0.211l-0.036,0.212l-0.037,0.212l-0.039,0.213l-0.041,0.213l-0.043,0.214l-0.044,0.214l-0.047,0.215l-0.047,0.215l-0.05,0.216l-0.051,0.216l-0.053,0.216l-0.055,0.216l-0.056,0.217l-0.058,0.218l-0.059,0.217l-0.061,0.218l-0.063,0.218l-0.064,0.218l-0.066,0.218l-0.067,0.219l-0.069,0.218l-0.07,0.219l-0.072,0.218l-0.073,0.219l-0.075,0.219l-0.076,0.218l-0.078,0.219l-0.08,0.218l-0.08,0.218l-0.083,0.218l-0.083,0.218l-0.085,0.218l-0.087,0.217l-0.088,0.217l-0.089,0.217l-0.091,0.216l-0.092,0.216l-0.094,0.215l-0.095,0.215l-0.096,0.215l-0.097,0.214l-0.099,0.213l-0.101,0.213l-0.101,0.212l-0.103,0.212l-0.105,0.211l-0.105,0.21l-0.108,0.209l-0.108,0.209l-0.109,0.207l-0.111,0.207l-0.113,0.206l-0.113,0.205l-0.115,0.205l-0.116,0.203l-0.118,0.202l-0.118,0.201l-0.121,0.2l-0.121,0.199l-0.123,0.197l-0.124,0.197l-0.125,0.195l-0.126,0.194l-0.128,0.193l-0.129,0.192l-0.131,0.19l-0.132,0.188l-0.133,0.188l-0.134,0.185l-0.136,0.185l-0.137,0.183l-0.138,0.181l-0.14,0.18l-0.142,0.178l-0.142,0.176l-0.144,0.175l-0.146,0.173l-0.146,0.171l-0.149,0.169l-0.149,0.168l-0.152,0.165l-0.152,0.164l-0.155,0.162l-0.155,0.16l-0.158,0.157l-0.159,0.156l-0.16,0.153l-0.163,0.152l-0.164,0.149l-0.165,0.147l-0.167,0.144l-0.169,0.142l-0.148,0.12l-0.04,0.063l-0.158,0.208l-0.175,0.195l-0.189,0.18l-0.204,0.165l-0.215,0.148l-0.227,0.13l-0.237,0.112l-0.245,0.092l-0.251,0.072l-0.257,0.052l-0.26,0.031l-0.261,0.011l-31.721,0l-0.256,-0.01l-0.255,-0.03l-0.252,-0.05l-0.247,-0.07l-0.24,-0.089l-0.233,-0.107l-0.224,-0.126l-0.214,-0.142l-0.201,-0.159l-0.189,-0.174l-0.174,-0.189l-0.159,-0.201l-0.142,-0.214l-0.126,-0.224l-0.107,-0.233l-0.089,-0.241l-0.07,-0.247l-0.05,-0.251l-0.03,-0.255l-0.01,-0.257l0,-42.727l0.01,-0.253l0.029,-0.251l0.049,-0.249l0.068,-0.244l0.086,-0.238l0.105,-0.23l0.122,-0.222l0.139,-0.212l0.155,-0.2l0.17,-0.188l0.184,-0.174l0.197,-0.159l0.208,-0.143l0.22,-0.127l0.228,-0.109l0.236,-0.092l0.242,-0.073l0.248,-0.054l0.251,-0.035l0.046,-0.002l0.074,-0.118l0.123,-0.19l0.126,-0.188l0.128,-0.186l0.13,-0.184l0.132,-0.183l0.134,-0.18l0.137,-0.178l0.138,-0.177l0.141,-0.174l0.142,-0.172l0.145,-0.171l0.146,-0.168l0.148,-0.167l0.15,-0.164l0.152,-0.163l0.154,-0.161l0.155,-0.158l0.158,-0.157l0.159,-0.155l0.16,-0.152l0.162,-0.151l0.164,-0.149l0.166,-0.146l0.167,-0.145l0.169,-0.143l0.17,-0.141l0.171,-0.139l0.173,-0.137l0.175,-0.135l0.176,-0.133l0.177,-0.131l0.178,-0.13l0.18,-0.127l0.181,-0.126l0.183,-0.123l0.184,-0.122l0.185,-0.12l0.186,-0.117l0.187,-0.116l0.189,-0.115l0.189,-0.112l0.191,-0.11l0.192,-0.109l0.193,-0.107l0.194,-0.105l0.195,-0.103l0.196,-0.101l0.197,-0.1l0.198,-0.097l0.199,-0.096l0.2,-0.094l0.201,-0.093l0.201,-0.09l0.203,-0.089l0.203,-0.087l0.204,-0.085l0.205,-0.084l0.206,-0.081l0.207,-0.08l0.207,-0.079l0.208,-0.076l0.209,-0.075l0.21,-0.073l0.21,-0.072l0.211,-0.069l0.212,-0.068l0.212,-0.067l0.213,-0.064l0.213,-0.063l0.215,-0.062l0.214,-0.059l0.216,-0.058l0.215,-0.057l0.216,-0.054l0.217,-0.053l0.218,-0.052l0.218,-0.049l0.218,-0.048l0.219,-0.047l0.219,-0.044l0.219,-0.044l0.22,-0.041l0.221,-0.04l0.22,-0.038l0.221,-0.037l0.222,-0.035l0.222,-0.034l0.222,-0.032l0.222,-0.03l0.223,-0.029l0.223,-0.027l0.223,-0.025l0.223,-0.024l0.224,-0.022l0.224,-0.021l0.224,-0.019l0.224,-0.018l0.224,-0.016l0.225,-0.014l0.224,-0.013l0.225,-0.011l0.225,-0.01l0.225,-0.008l0.225,-0.007l0.225,-0.005l0.225,-0.003l0.225,-0.002l0.226,-0.001l0.225,0.002Zm-0.435,3.267l-0.202,0.002l-0.203,0.003l-0.202,0.005l-0.202,0.006l-0.202,0.007l-0.202,0.009l-0.202,0.01l-0.202,0.011l-0.202,0.013l-0.201,0.015l-0.201,0.015l-0.201,0.018l-0.201,0.018l-0.2,0.02l-0.201,0.022l-0.2,0.023l-0.199,0.024l-0.2,0.025l-0.198,0.028l-0.199,0.028l-0.198,0.03l-0.198,0.031l-0.198,0.033l-0.197,0.034l-0.196,0.036l-0.196,0.037l-0.196,0.038l-0.195,0.04l-0.194,0.042l-0.194,0.042l-0.194,0.044l-0.193,0.046l-0.192,0.047l-0.192,0.048l-0.191,0.05l-0.19,0.052l-0.19,0.052l-0.189,0.054l-0.189,0.056l-0.188,0.057l-0.187,0.058l-0.186,0.06l-0.185,0.062l-0.185,0.062l-0.184,0.065l-0.183,0.065l-0.182,0.067l-0.182,0.069l-0.18,0.07l-0.18,0.071l-0.179,0.073l-0.178,0.074l-0.176,0.076l-0.176,0.077l-0.175,0.078l-0.174,0.08l-0.173,0.082l-0.172,0.083l-0.171,0.084l-0.17,0.086l-0.169,0.087l-0.168,0.089l-0.166,0.09l-0.166,0.091l-0.164,0.093l-0.163,0.095l-0.162,0.096l-0.161,0.097l-0.159,0.099l-0.159,0.1l-0.157,0.102l-0.155,0.103l-0.155,0.104l-0.153,0.107l-0.152,0.107l-0.15,0.109l-0.15,0.11l-0.147,0.112l-0.147,0.114l-0.145,0.114l-0.143,0.117l-0.142,0.117l-0.141,0.12l-0.139,0.12l-0.138,0.122l-0.136,0.124l-0.135,0.125l-0.133,0.126l-0.131,0.128l-0.13,0.13l-0.128,0.131l-0.127,0.132l-0.125,0.134l-0.124,0.135l-0.121,0.137l-0.12,0.138l-0.119,0.14l-0.116,0.141l-0.115,0.143l-0.113,0.144l-0.112,0.145l-0.109,0.147l-0.108,0.149l-0.106,0.15l-0.104,0.151l-0.102,0.153l-0.1,0.155l-0.099,0.156l-0.096,0.157l-0.095,0.159l-0.093,0.16l-0.09,0.162l-0.089,0.163l-0.086,0.165l-0.085,0.166l-0.083,0.168l-0.08,0.169l-0.079,0.171l-0.076,0.172l-0.074,0.174l-0.091,-0.041l-0.091,-0.039l-0.091,-0.039l-0.09,-0.038l-0.09,-0.036l-0.09,-0.036l-0.089,-0.035l-0.09,-0.034l-0.089,-0.032l-0.088,-0.032l-0.089,-0.031l-0.088,-0.029l-0.088,-0.029l-0.088,-0.028l-0.087,-0.027l-0.088,-0.026l0,42.727l31.721,0l-0.04,-0.205l0.139,-0.097l0.137,-0.1l0.138,-0.102l0.136,-0.105l0.136,-0.108l0.136,-0.111l0.135,-0.113l0.134,-0.116l0.134,-0.119l0.133,-0.121l0.133,-0.124l0.132,-0.126l0.131,-0.128l0.131,-0.131l0.13,-0.133l0.129,-0.136l0.128,-0.137l0.128,-0.14l0.127,-0.142l0.126,-0.145l0.126,-0.146l0.125,-0.149l0.124,-0.15l0.123,-0.152l0.122,-0.155l0.122,-0.156l0.121,-0.158l0.12,-0.16l0.119,-0.162l0.118,-0.163l0.117,-0.165l0.117,-0.167l0.115,-0.168l0.115,-0.17l0.114,-0.172l0.112,-0.173l0.112,-0.174l0.111,-0.176l0.11,-0.177l0.109,-0.179l0.108,-0.18l0.107,-0.181l0.106,-0.182l0.105,-0.183l0.104,-0.185l0.102,-0.185l0.102,-0.187l0.101,-0.188l0.099,-0.188l0.099,-0.19l0.097,-0.19l0.096,-0.192l0.095,-0.192l0.094,-0.193l0.093,-0.193l0.092,-0.194l0.09,-0.195l0.089,-0.196l0.088,-0.196l0.087,-0.196l0.086,-0.197l0.084,-0.198l0.083,-0.198l0.082,-0.198l0.08,-0.199l0.079,-0.198l0.078,-0.199l0.077,-0.2l0.075,-0.199l0.074,-0.199l0.072,-0.2l0.071,-0.2l0.07,-0.199l0.068,-0.2l0.067,-0.199l0.066,-0.199l0.064,-0.2l0.062,-0.198l0.062,-0.199l0.059,-0.198l0.059,-0.198l0.056,-0.198l0.056,-0.197l0.053,-0.197l0.053,-0.196l0.05,-0.196l0.05,-0.195l0.047,-0.195l0.046,-0.194l0.044,-0.193l0.043,-0.192l0.042,-0.192l0.039,-0.191l0.038,-0.19l0.036,-0.189l0.035,-0.188l0.033,-0.187l0.031,-0.187l0.03,-0.185l0.028,-0.184l0.026,-0.182l0.024,-0.182l0.023,-0.18l0.021,-0.18l0.019,-0.177l0.017,-0.177l0.016,-0.175l0.014,-0.174l0.012,-0.172l0.01,-0.171l0.008,-0.169l0.007,-0.167l0.004,-0.166l0.003,-0.164l0.001,-0.163l-0.001,-0.161l-0.003,-0.159l-0.005,-0.157l-0.007,-0.155l-0.009,-0.154l-0.011,-0.151l-0.012,-0.149l-0.015,-0.148l-0.017,-0.145l-0.018,-0.143l-0.021,-0.141l-0.023,-0.139l-0.025,-0.137l0.165,0.018l0.164,0.015l0.162,0.014l0.161,0.011l0.159,0.01l0.159,0.007l0.157,0.006l0.155,0.003l0.155,0.002l0.153,0l0.151,-0.003l0.151,-0.004l0.149,-0.005l0.148,-0.008l0.146,-0.01l0.145,-0.011l0.144,-0.013l0.142,-0.015l0.142,-0.016l0.14,-0.019l0.138,-0.02l0.137,-0.022l0.136,-0.023l0.135,-0.026l0.133,-0.026l0.132,-0.029l0.131,-0.03l0.129,-0.032l0.129,-0.033l0.126,-0.035l0.126,-0.037l0.124,-0.038l0.123,-0.039l0.121,-0.041l0.121,-0.043l0.119,-0.044l0.117,-0.046l0.117,-0.047l0.115,-0.048l0.113,-0.05l0.113,-0.052l0.111,-0.052l0.11,-0.055l0.108,-0.055l0.107,-0.057l0.106,-0.058l0.105,-0.06l0.103,-0.06l0.102,-0.062l0.101,-0.064l0.099,-0.064l0.098,-0.066l0.097,-0.067l0.095,-0.069l0.094,-0.069l0.093,-0.071l0.092,-0.071l0.09,-0.073l0.089,-0.074l0.087,-0.076l0.087,-0.076l0.085,-0.077l0.084,-0.078l0.082,-0.08l0.081,-0.08l0.08,-0.082l0.078,-0.082l0.078,-0.084l0.076,-0.084l0.074,-0.086l0.074,-0.086l0.072,-0.087l0.07,-0.088l0.07,-0.089l0.068,-0.09l0.067,-0.091l0.065,-0.092l0.064,-0.092l0.063,-0.093l0.062,-0.095l0.06,-0.094l0.059,-0.096l0.058,-0.096l0.057,-0.097l0.055,-0.098l0.054,-0.099l0.052,-0.099l0.052,-0.1l0.05,-0.1l0.048,-0.101l0.048,-0.102l0.046,-0.102l0.045,-0.103l0.043,-0.104l0.042,-0.104l0.041,-0.104l0.04,-0.105l0.038,-0.106l0.037,-0.106l0.036,-0.107l0.035,-0.107l0.033,-0.107l0.032,-0.108l0.03,-0.109l0.03,-0.108l0.028,-0.11l0.026,-0.109l0.026,-0.11l0.024,-0.11l0.023,-0.111l0.021,-0.11l0.021,-0.111l0.019,-0.112l0.017,-0.111l0.017,-0.112l0.015,-0.112l0.014,-0.113l0.012,-0.112l0.012,-0.113l0.01,-0.113l0.008,-0.113l0.008,-0.113l0.006,-0.113l0.005,-0.113l0.003,-0.113l0.002,-0.114l0.001,-0.113l0,-0.114l-0.002,-0.113l-0.002,-0.114l-0.005,-0.114l-0.005,-0.113l-0.007,-0.114l-0.008,-0.113l-0.009,-0.113l-0.011,-0.113l-0.011,-0.114l-0.014,-0.113l-0.014,-0.112l-0.016,-0.113l-0.017,-0.113l-0.018,-0.112l-0.019,-0.112l-0.021,-0.112l-0.022,-0.112l-0.024,-0.111l-0.024,-0.111l-0.026,-0.111l-0.028,-0.111l-0.028,-0.11l-0.03,-0.11l-0.031,-0.11l-0.032,-0.109l-0.034,-0.109l-0.035,-0.108l-0.036,-0.108l-0.037,-0.108l-0.039,-0.107l-0.04,-0.107l-0.041,-0.106l-0.043,-0.106l-0.044,-0.105l-0.045,-0.105l-0.046,-0.104l-0.048,-0.103l-0.049,-0.103l-0.05,-0.103l-0.052,-0.102l-0.052,-0.101l-0.054,-0.101l-0.056,-0.1l-0.056,-0.099l-0.058,-0.099l-0.059,-0.098l-0.061,-0.097l-0.061,-0.096l-0.063,-0.096l-0.065,-0.095l-0.065,-0.094l-0.067,-0.094l-0.068,-0.093l-0.069,-0.091l-0.071,-0.091l-0.072,-0.09l-0.073,-0.09l-0.074,-0.088l-0.076,-0.088l-0.077,-0.086l-0.078,-0.086l-0.08,-0.084l-0.08,-0.084l-0.082,-0.083l-0.084,-0.082l-0.084,-0.08l-0.086,-0.08l-0.087,-0.079l-0.088,-0.077l-0.09,-0.077l-0.091,-0.075l-0.092,-0.075l-0.093,-0.073l-0.095,-0.072l-0.096,-0.071l-0.097,-0.07l-0.099,-0.068l-0.1,-0.067l-0.101,-0.067l-0.102,-0.065l-0.103,-0.063l-0.105,-0.063l-0.106,-0.061l-0.108,-0.059l-0.108,-0.059l-0.11,-0.057l-0.111,-0.056l-0.113,-0.054l-0.113,-0.054l-0.115,-0.051l-0.116,-0.051l-0.118,-0.048l-0.118,-0.048l-0.12,-0.046l-0.122,-0.044l-0.122,-0.043l-0.124,-0.042l-0.125,-0.04l-0.126,-0.038l-0.128,-0.037l-0.128,-0.036l-0.13,-0.033l-0.132,-0.032l-0.132,-0.031l-0.134,-0.029l-0.135,-0.027l-0.137,-0.026l-0.137,-0.024l-0.139,-0.022l-0.14,-0.021l-0.142,-0.018l-0.142,-0.017l-0.144,-0.016l-0.145,-0.013l-0.147,-0.012l-0.147,-0.01l-0.149,-0.008l-0.15,-0.006l-0.152,-0.005l-0.152,-0.003l-0.154,0l-0.155,0.001l-0.157,0.003l-0.158,0.005l-0.159,0.007l-0.16,0.009l-0.161,0.011l-0.163,0.013l-0.045,-0.183l-0.048,-0.182l-0.051,-0.181l-0.052,-0.179l-0.055,-0.178l-0.057,-0.176l-0.059,-0.175l-0.062,-0.174l-0.063,-0.173l-0.066,-0.171l-0.068,-0.17l-0.071,-0.169l-0.072,-0.167l-0.075,-0.166l-0.076,-0.165l-0.079,-0.163l-0.081,-0.162l-0.083,-0.161l-0.085,-0.159l-0.086,-0.159l-0.089,-0.156l-0.091,-0.156l-0.093,-0.154l-0.095,-0.153l-0.097,-0.151l-0.098,-0.15l-0.101,-0.149l-0.102,-0.147l-0.105,-0.146l-0.106,-0.145l-0.108,-0.144l-0.11,-0.142l-0.111,-0.141l-0.114,-0.139l-0.115,-0.138l-0.117,-0.137l-0.118,-0.135l-0.12,-0.134l-0.122,-0.133l-0.124,-0.132l-0.125,-0.13l-0.127,-0.128l-0.129,-0.128l-0.13,-0.126l-0.132,-0.124l-0.133,-0.124l-0.135,-0.122l-0.136,-0.121l-0.138,-0.119l-0.139,-0.118l-0.141,-0.117l-0.143,-0.115l-0.143,-0.114l-0.145,-0.112l-0.147,-0.112l-0.148,-0.11l-0.149,-0.108l-0.151,-0.107l-0.152,-0.106l-0.153,-0.105l-0.155,-0.103l-0.156,-0.102l-0.157,-0.1l-0.159,-0.099l-0.159,-0.098l-0.161,-0.096l-0.162,-0.095l-0.164,-0.094l-0.164,-0.092l-0.166,-0.091l-0.167,-0.09l-0.167,-0.088l-0.169,-0.087l-0.17,-0.085l-0.171,-0.084l-0.172,-0.083l-0.174,-0.081l-0.174,-0.08l-0.175,-0.079l-0.176,-0.077l-0.177,-0.076l-0.178,-0.075l-0.179,-0.073l-0.18,-0.072l-0.18,-0.07l-0.182,-0.069l-0.182,-0.068l-0.183,-0.066l-0.184,-0.065l-0.185,-0.064l-0.186,-0.062l-0.186,-0.061l-0.187,-0.06l-0.188,-0.058l-0.189,-0.056l-0.189,-0.056l-0.19,-0.054l-0.19,-0.052l-0.191,-0.051l-0.192,-0.05l-0.193,-0.049l-0.193,-0.047l-0.193,-0.046l-0.194,-0.044l-0.195,-0.043l-0.195,-0.041l-0.196,-0.04l-0.196,-0.039l-0.197,-0.038l-0.197,-0.036l-0.197,-0.034l-0.198,-0.033l-0.198,-0.032l-0.199,-0.031l-0.199,-0.029l-0.199,-0.027l-0.2,-0.027l-0.2,-0.025l-0.2,-0.023l-0.201,-0.022l-0.2,-0.021l-0.201,-0.019l-0.202,-0.018l-0.201,-0.017l-0.202,-0.015l-0.202,-0.013l-0.202,-0.013l-0.202,-0.011l-0.202,-0.009l-0.202,-0.008l-0.202,-0.007l-0.203,-0.005l-0.202,-0.004l-0.203,-0.003l-0.202,-0.001l-0.203,0Z" style="fill:#fff;"/><path d="M113.821,170.501c-8.064,1.47 -10.002,-1.515 -10.508,-7.718c-1.283,10.492 -6.17,18.953 -15.017,25.182c13.947,-2.719 30.049,19.055 23.773,21.146c-2.062,0.687 -4.301,1.135 -7.182,0.715c0.311,1.406 -0.175,2.352 -1.063,3.066c-7.136,2.583 -27.684,2.354 -61.339,-0.622c-0.906,-0.079 -1.668,-0.714 -1.909,-1.591c-1.47,-5.349 -6.484,-23.589 -6.484,-23.589c-18.182,-7.622 -27.354,-29.68 -25.966,-61.493c1.172,-39.499 13.089,-66.206 33.984,-66.742c9.662,-0.429 17.759,8.246 16.056,21.805c-2.094,16.671 -9.993,25.464 -16.991,24.281c-3.474,-0.587 -9.194,-1.833 -9.19,-10.628c0.006,-14.486 13.102,-14.016 10.178,-2.278c-0.528,2.12 1.66,2.528 2.229,0.634c1.16,-3.857 7.153,-21.287 -3.561,-21.457c-24.216,-0.383 -25.971,86.933 -8.981,85.402c5.49,-42.098 33.024,-72.261 78.875,-74.409c-10.151,-3.543 -4.627,-23.68 7.142,-18.359c6.246,-14.885 35.725,-13.539 39.512,2.145c13.937,-1.189 14.192,19.571 0.068,17.994c1.103,5.779 -3.413,17.785 -9.325,21.85c1.362,7.104 2.53,12.263 2.587,19.255l-16.564,20.363l-20.324,25.048Z"/><path d="M110.605,171.731l48.003,-59.01" style="fill:none;stroke:#fff;stroke-width:3.31px;"/><path d="M51.922,160.798c24.309,-13.421 38.826,17.893 6.499,39.923c32.412,-18.316 46.001,5.655 47.436,12.155" style="fill:none;stroke:#fff;stroke-width:3.31px;"/><path d="M137.264,70.621c0.03,-0.071 0.061,-0.141 0.093,-0.212c1.45,-3.204 4.319,-5.255 8.295,-5.205c6.778,0.258 11.506,9.897 5.882,15.258c-0.819,0.781 -1.807,1.32 -2.879,1.64c2.987,4.55 3.331,10.49 -1.768,15.583c-7.413,7.404 -23.225,5.482 -26.016,-6.304c-0.908,-3.833 0.314,-7.771 2.837,-10.846c-3.249,-1.482 -5.702,-4.633 -5.054,-8.869c0.649,-4.248 4.153,-7.569 8.978,-7.508c3.565,0.137 6.597,2.868 7.824,6.217c0.64,1.067 1.214,1.094 1.808,0.246Z" style="fill:#fff;"/><g><circle cx="127.405" cy="73.009" r="4.453"/><ellipse cx="135.665" cy="88.496" rx="10.731" ry="9.285"/><circle cx="132.49" cy="85.581" r="2.155" style="fill:#fff;"/><circle cx="139.482" cy="85.94" r="2.155" style="fill:#fff;"/><circle cx="145.426" cy="74.055" r="4.453"/></g><path d="M81.64,116.425c-23.084,21.641 2.689,44.088 51.11,32.276c23.077,11.343 27.671,-23.253 5.065,-18.077c-13.097,2.998 -20.018,-4.46 -30.116,-14.469" style="stroke:#fff;stroke-width:3.31px;"/><path d="M146.202,177.454c-4.758,-3.997 3.034,-11.201 8.066,-7.885c5.031,3.315 -3.478,11.738 -8.066,7.885Z"/><path d="M151.56,165.414l0.113,0.002l0.102,0.004l0.103,0.005l0.105,0.006l0.103,0.008l0.105,0.008l0.104,0.01l0.104,0.012l0.105,0.012l0.104,0.014l0.104,0.015l0.105,0.017l0.105,0.018l0.104,0.019l0.106,0.021l0.105,0.022l0.104,0.023l0.105,0.025l0.105,0.026l0.105,0.027l0.104,0.029l0.105,0.031l0.104,0.031l0.105,0.034l0.104,0.035l0.102,0.036l0.104,0.037l0.104,0.04l0.103,0.04l0.103,0.042l0.102,0.044l0.102,0.045l0.102,0.046l0.101,0.048l0.101,0.05l0.101,0.051l0.1,0.052l0.099,0.054l0.099,0.055l0.099,0.057l0.098,0.058l0.097,0.059l0.097,0.061l0.097,0.064l0.099,0.066l0.1,0.069l0.098,0.07l0.097,0.072l0.096,0.073l0.094,0.075l0.094,0.077l0.092,0.077l0.09,0.08l0.09,0.081l0.088,0.083l0.087,0.084l0.085,0.085l0.083,0.087l0.082,0.088l0.08,0.09l0.079,0.092l0.077,0.093l0.075,0.094l0.074,0.096l0.071,0.096l0.07,0.099l0.068,0.099l0.066,0.1l0.064,0.102l0.062,0.103l0.06,0.103l0.057,0.105l0.056,0.106l0.054,0.107l0.051,0.107l0.05,0.109l0.047,0.108l0.044,0.109l0.043,0.111l0.041,0.11l0.038,0.11l0.036,0.112l0.034,0.112l0.031,0.111l0.03,0.112l0.027,0.112l0.026,0.113l0.022,0.111l0.021,0.112l0.019,0.113l0.017,0.111l0.015,0.112l0.012,0.111l0.011,0.111l0.009,0.111l0.007,0.111l0.005,0.11l0.003,0.109l0.001,0.11l0,0.108l-0.002,0.109l-0.004,0.107l-0.006,0.107l-0.007,0.107l-0.009,0.106l-0.01,0.105l-0.012,0.105l-0.013,0.104l-0.015,0.103l-0.016,0.103l-0.018,0.102l-0.019,0.102l-0.02,0.101l-0.021,0.099l-0.023,0.1l-0.024,0.099l-0.025,0.098l-0.029,0.107l-0.054,0.183l-0.06,0.19l-0.065,0.188l-0.069,0.185l-0.073,0.182l-0.076,0.18l-0.08,0.177l-0.083,0.175l-0.087,0.173l-0.09,0.17l-0.093,0.167l-0.096,0.166l-0.099,0.163l-0.102,0.161l-0.104,0.159l-0.108,0.156l-0.109,0.154l-0.113,0.153l-0.115,0.15l-0.117,0.148l-0.12,0.146l-0.123,0.144l-0.124,0.142l-0.127,0.14l-0.129,0.137l-0.132,0.136l-0.133,0.134l-0.136,0.131l-0.138,0.129l-0.14,0.128l-0.142,0.125l-0.144,0.123l-0.147,0.121l-0.148,0.118l-0.151,0.117l-0.152,0.114l-0.154,0.112l-0.157,0.109l-0.158,0.107l-0.16,0.105l-0.163,0.102l-0.164,0.1l-0.166,0.097l-0.168,0.095l-0.171,0.092l-0.172,0.089l-0.174,0.086l-0.176,0.084l-0.178,0.08l-0.18,0.078l-0.182,0.074l-0.184,0.071l-0.186,0.068l-0.188,0.065l-0.189,0.061l-0.192,0.057l-0.195,0.054l-0.195,0.049l-0.198,0.046l-0.2,0.042l-0.192,0.035l-0.11,0.019l-0.103,0.015l-0.103,0.015l-0.102,0.014l-0.103,0.012l-0.104,0.011l-0.104,0.01l-0.106,0.009l-0.104,0.007l-0.106,0.006l-0.106,0.005l-0.106,0.003l-0.106,0.002l-0.108,0.001l-0.108,-0.001l-0.107,-0.002l-0.107,-0.004l-0.109,-0.005l-0.11,-0.006l-0.107,-0.009l-0.11,-0.009l-0.11,-0.012l-0.108,-0.012l-0.11,-0.015l-0.111,-0.016l-0.109,-0.018l-0.11,-0.019l-0.11,-0.021l-0.111,-0.023l-0.11,-0.025l-0.11,-0.026l-0.11,-0.028l-0.11,-0.03l-0.109,-0.031l-0.111,-0.034l-0.109,-0.035l-0.109,-0.037l-0.11,-0.039l-0.108,-0.04l-0.109,-0.043l-0.108,-0.044l-0.107,-0.046l-0.107,-0.048l-0.106,-0.049l-0.107,-0.052l-0.105,-0.053l-0.105,-0.056l-0.104,-0.057l-0.103,-0.058l-0.103,-0.061l-0.102,-0.062l-0.102,-0.064l-0.1,-0.066l-0.1,-0.068l-0.098,-0.069l-0.097,-0.07l-0.097,-0.073l-0.097,-0.075l-0.094,-0.075l-0.092,-0.077l-0.09,-0.076l-0.087,-0.077l-0.087,-0.078l-0.085,-0.078l-0.084,-0.08l-0.083,-0.081l-0.082,-0.082l-0.08,-0.083l-0.079,-0.084l-0.077,-0.085l-0.077,-0.086l-0.075,-0.088l-0.073,-0.087l-0.073,-0.09l-0.071,-0.09l-0.069,-0.091l-0.068,-0.092l-0.066,-0.093l-0.065,-0.094l-0.063,-0.096l-0.062,-0.096l-0.06,-0.096l-0.058,-0.098l-0.057,-0.098l-0.056,-0.099l-0.053,-0.1l-0.052,-0.101l-0.05,-0.102l-0.049,-0.101l-0.046,-0.103l-0.045,-0.104l-0.043,-0.104l-0.042,-0.104l-0.039,-0.105l-0.038,-0.105l-0.036,-0.106l-0.034,-0.106l-0.033,-0.107l-0.03,-0.106l-0.029,-0.107l-0.027,-0.108l-0.025,-0.107l-0.023,-0.107l-0.021,-0.108l-0.02,-0.108l-0.018,-0.107l-0.016,-0.107l-0.014,-0.109l-0.013,-0.107l-0.011,-0.107l-0.009,-0.107l-0.007,-0.107l-0.006,-0.107l-0.004,-0.106l-0.003,-0.107l0,-0.105l0,-0.106l0.003,-0.105l0.004,-0.105l0.005,-0.105l0.007,-0.103l0.009,-0.103l0.01,-0.104l0.011,-0.103l0.013,-0.101l0.014,-0.102l0.015,-0.101l0.017,-0.1l0.018,-0.101l0.02,-0.098l0.021,-0.099l0.024,-0.109l0.045,-0.184l0.052,-0.192l0.057,-0.189l0.062,-0.187l0.065,-0.185l0.07,-0.182l0.073,-0.179l0.077,-0.177l0.081,-0.174l0.084,-0.172l0.088,-0.169l0.091,-0.166l0.094,-0.165l0.097,-0.162l0.1,-0.159l0.104,-0.157l0.105,-0.154l0.109,-0.152l0.111,-0.15l0.114,-0.147l0.117,-0.146l0.119,-0.142l0.121,-0.14l0.124,-0.139l0.127,-0.135l0.128,-0.134l0.131,-0.131l0.133,-0.128l0.135,-0.127l0.138,-0.124l0.139,-0.122l0.142,-0.12l0.144,-0.117l0.145,-0.114l0.148,-0.113l0.15,-0.11l0.152,-0.108l0.153,-0.105l0.156,-0.103l0.157,-0.1l0.159,-0.098l0.162,-0.095l0.163,-0.092l0.165,-0.091l0.167,-0.087l0.168,-0.084l0.171,-0.082l0.172,-0.079l0.174,-0.076l0.176,-0.074l0.177,-0.07l0.179,-0.067l0.181,-0.064l0.183,-0.061l0.185,-0.058l0.185,-0.054l0.188,-0.051l0.19,-0.048l0.19,-0.044l0.192,-0.04l0.194,-0.036l0.196,-0.033l0.197,-0.029l0.198,-0.025l0.199,-0.021l0.201,-0.016l0.202,-0.012l0.203,-0.008l0.204,-0.003l0.197,0.002Zm-0.313,3.309l-0.129,0.004l-0.13,0.008l-0.129,0.011l-0.129,0.013l-0.129,0.016l-0.129,0.019l-0.128,0.022l-0.128,0.024l-0.128,0.027l-0.127,0.029l-0.127,0.032l-0.126,0.034l-0.126,0.037l-0.125,0.039l-0.124,0.041l-0.124,0.044l-0.123,0.046l-0.122,0.049l-0.121,0.05l-0.121,0.053l-0.119,0.055l-0.119,0.057l-0.118,0.059l-0.116,0.061l-0.116,0.063l-0.114,0.065l-0.113,0.066l-0.112,0.069l-0.11,0.07l-0.11,0.073l-0.108,0.073l-0.106,0.076l-0.105,0.077l-0.104,0.079l-0.102,0.081l-0.101,0.082l-0.099,0.083l-0.097,0.085l-0.095,0.086l-0.094,0.088l-0.092,0.089l-0.09,0.091l-0.089,0.091l-0.086,0.093l-0.085,0.094l-0.082,0.095l-0.08,0.097l-0.078,0.097l-0.077,0.098l-0.073,0.1l-0.072,0.1l-0.07,0.101l-0.067,0.102l-0.064,0.103l-0.063,0.104l-0.06,0.104l-0.057,0.106l-0.055,0.105l-0.052,0.107l-0.05,0.107l-0.047,0.107l-0.044,0.109l-0.041,0.108l-0.039,0.109l-0.036,0.11l-0.033,0.109l-0.03,0.111l-0.027,0.11l-0.012,0.055l-0.012,0.056l-0.011,0.055l-0.01,0.055l-0.009,0.056l-0.009,0.055l-0.008,0.056l-0.007,0.055l-0.006,0.056l-0.005,0.056l-0.005,0.055l-0.003,0.056l-0.003,0.055l-0.002,0.056l-0.002,0.056l0,0.055l0,0.056l0.002,0.055l0.002,0.056l0.003,0.055l0.004,0.056l0.004,0.055l0.006,0.056l0.006,0.055l0.008,0.055l0.008,0.055l0.009,0.055l0.01,0.056l0.011,0.054l0.012,0.055l0.013,0.055l0.014,0.055l0.014,0.054l0.016,0.055l0.016,0.054l0.018,0.055l0.018,0.054l0.02,0.054l0.02,0.054l0.021,0.054l0.023,0.053l0.023,0.054l0.024,0.053l0.025,0.053l0.027,0.053l0.027,0.053l0.028,0.053l0.029,0.052l0.031,0.053l0.031,0.052l0.032,0.052l0.034,0.052l0.034,0.052l0.035,0.051l0.037,0.051l0.037,0.051l0.039,0.051l0.04,0.051l0.041,0.05l0.041,0.05l0.043,0.05l0.044,0.05l0.045,0.049l0.047,0.049l0.047,0.049l0.048,0.049l0.05,0.048l0.05,0.048l0.052,0.048l0.053,0.048l0.054,0.047l0.055,0.047l0.054,0.044l0.055,0.044l0.054,0.042l0.055,0.041l0.056,0.041l0.055,0.039l0.056,0.038l0.056,0.037l0.057,0.035l0.057,0.035l0.057,0.034l0.058,0.032l0.057,0.032l0.058,0.031l0.059,0.029l0.058,0.029l0.059,0.027l0.059,0.027l0.059,0.025l0.06,0.024l0.06,0.024l0.06,0.022l0.06,0.022l0.061,0.02l0.06,0.02l0.061,0.018l0.061,0.018l0.062,0.016l0.061,0.016l0.062,0.015l0.061,0.013l0.062,0.013l0.063,0.012l0.062,0.011l0.062,0.01l0.063,0.009l0.063,0.009l0.062,0.007l0.063,0.006l0.063,0.006l0.064,0.005l0.063,0.004l0.063,0.003l0.064,0.002l0.063,0.001l0.064,0.001l0.064,-0.001l0.063,-0.001l0.064,-0.002l0.064,-0.003l0.064,-0.004l0.064,-0.004l0.064,-0.005l0.064,-0.006l0.064,-0.007l0.064,-0.008l0.064,-0.008l0.064,-0.01l0.064,-0.01l0.064,-0.01l0.129,-0.024l0.128,-0.027l0.127,-0.029l0.128,-0.032l0.127,-0.036l0.127,-0.038l0.127,-0.04l0.126,-0.044l0.126,-0.045l0.125,-0.049l0.125,-0.051l0.124,-0.053l0.123,-0.056l0.123,-0.058l0.122,-0.061l0.121,-0.063l0.121,-0.065l0.119,-0.067l0.118,-0.069l0.118,-0.071l0.116,-0.074l0.115,-0.075l0.114,-0.077l0.113,-0.079l0.112,-0.081l0.11,-0.082l0.109,-0.085l0.108,-0.086l0.106,-0.087l0.104,-0.089l0.103,-0.091l0.102,-0.092l0.099,-0.094l0.098,-0.095l0.096,-0.096l0.095,-0.097l0.092,-0.099l0.091,-0.1l0.089,-0.101l0.086,-0.102l0.085,-0.103l0.083,-0.104l0.08,-0.105l0.078,-0.106l0.076,-0.106l0.073,-0.108l0.072,-0.108l0.068,-0.108l0.067,-0.11l0.064,-0.11l0.061,-0.11l0.058,-0.111l0.056,-0.111l0.054,-0.112l0.05,-0.112l0.048,-0.112l0.045,-0.113l0.042,-0.112l0.039,-0.113l0.036,-0.113l0.032,-0.113l0.016,-0.056l0.014,-0.057l0.014,-0.056l0.013,-0.057l0.012,-0.056l0.011,-0.056l0.011,-0.056l0.009,-0.057l0.009,-0.056l0.008,-0.056l0.007,-0.056l0.007,-0.056l0.005,-0.056l0.005,-0.055l0.004,-0.056l0.002,-0.056l0.002,-0.055l0.002,-0.056l0,-0.055l-0.001,-0.055l-0.001,-0.055l-0.003,-0.055l-0.003,-0.054l-0.005,-0.055l-0.005,-0.054l-0.006,-0.054l-0.007,-0.055l-0.008,-0.053l-0.009,-0.054l-0.01,-0.054l-0.011,-0.053l-0.012,-0.053l-0.013,-0.053l-0.014,-0.053l-0.015,-0.052l-0.016,-0.052l-0.017,-0.052l-0.017,-0.052l-0.019,-0.052l-0.02,-0.051l-0.021,-0.051l-0.022,-0.051l-0.023,-0.05l-0.024,-0.05l-0.025,-0.05l-0.026,-0.05l-0.028,-0.049l-0.028,-0.049l-0.029,-0.049l-0.031,-0.049l-0.031,-0.048l-0.033,-0.048l-0.034,-0.047l-0.035,-0.047l-0.036,-0.047l-0.037,-0.046l-0.038,-0.047l-0.039,-0.045l-0.041,-0.046l-0.041,-0.045l-0.043,-0.044l-0.044,-0.044l-0.045,-0.044l-0.047,-0.044l-0.047,-0.043l-0.049,-0.042l-0.05,-0.042l-0.051,-0.042l-0.052,-0.042l-0.053,-0.04l-0.055,-0.041l-0.056,-0.04l-0.057,-0.039l-0.058,-0.039l-0.059,-0.039l-0.06,-0.037l-0.059,-0.037l-0.06,-0.035l-0.06,-0.035l-0.06,-0.033l-0.061,-0.033l-0.061,-0.032l-0.061,-0.031l-0.061,-0.03l-0.061,-0.029l-0.062,-0.028l-0.061,-0.027l-0.062,-0.026l-0.062,-0.026l-0.062,-0.024l-0.063,-0.024l-0.062,-0.023l-0.063,-0.021l-0.063,-0.021l-0.063,-0.021l-0.063,-0.019l-0.063,-0.018l-0.064,-0.018l-0.063,-0.017l-0.064,-0.015l-0.064,-0.016l-0.063,-0.014l-0.064,-0.013l-0.064,-0.013l-0.064,-0.012l-0.065,-0.01l-0.064,-0.011l-0.064,-0.009l-0.065,-0.009l-0.064,-0.007l-0.065,-0.007l-0.064,-0.006l-0.065,-0.006l-0.065,-0.004l-0.064,-0.004l-0.065,-0.003l-0.065,-0.003l-0.065,-0.001l-0.129,-0.001l-0.13,0.002Z" style="fill:#fff;"/><path d="M113.801,69.457c-3.194,0.109 -3.928,5.155 -0.854,6.947" style="fill:none;stroke:#fff;stroke-width:3.31px;"/><path d="M159.538,72.143c3.512,0.862 3.268,5.97 -0.509,6.994" style="fill:none;stroke:#fff;stroke-width:3.31px;"/></g></g></svg>